<?xml version="1.0" encoding="iso-8859-1"?>
<!-- Generator: Adobe Illustrator 16.0.0, SVG Export Plug-In . SVG Version: 6.00 Build 0)  -->
<!DOCTYPE svg PUBLIC "-//W3C//DTD SVG 1.1//EN" "http://www.w3.org/Graphics/SVG/1.1/DTD/svg11.dtd">
<svg class="icon-shredder" version="1.1" id="Capa_1" xmlns="http://www.w3.org/2000/svg" xmlns:xlink="http://www.w3.org/1999/xlink" x="0px" y="0px" viewBox="0 0 554.625 554.625" style="enable-background:new 0 0 554.625 554.625;"
	 xml:space="preserve">
<g>
	<g>
		<rect x="95.625" y="372.938" width="19.125" height="153"/>
		<rect x="210.375" y="372.938" width="19.125" height="114.75"/>
		<rect x="248.625" y="372.938" width="19.125" height="133.875"/>
		<rect x="172.125" y="372.938" width="19.125" height="153"/>
		<rect x="133.875" y="372.938" width="19.125" height="133.875"/>
		<rect x="286.875" y="372.938" width="19.125" height="114.75"/>
		<circle cx="439.875" cy="277.312" r="19.125"/>
		<path d="M497.25,200.812H459V66.938c0-21.038-17.213-38.25-38.25-38.25H133.875c-21.038,0-38.25,17.212-38.25,38.25v133.875
			h-38.25C24.862,200.812,0,225.675,0,258.188v95.625c0,32.513,24.862,57.375,57.375,57.375H76.5v-57.375h401.625v57.375h19.125
			c32.513,0,57.375-24.862,57.375-57.375v-95.625C554.625,225.675,529.763,200.812,497.25,200.812z M114.75,66.938
			c0-9.562,7.65-19.125,19.125-19.125H420.75c9.562,0,19.125,7.65,19.125,19.125v133.875H114.75V66.938z M535.5,353.812
			c0,21.037-17.213,38.25-38.25,38.25v-57.375H57.375v57.375c-21.038,0-38.25-17.213-38.25-38.25v-95.625
			c0-21.038,17.212-38.25,38.25-38.25H497.25c21.037,0,38.25,17.212,38.25,38.25V353.812z"/>
		<rect x="439.875" y="372.938" width="19.125" height="153"/>
		<rect x="325.125" y="372.938" width="19.125" height="153"/>
		<rect x="401.625" y="372.938" width="19.125" height="133.875"/>
		<rect x="363.375" y="372.938" width="19.125" height="114.75"/>
	</g>
</g>
<g>
</g>
<g>
</g>
<g>
</g>
<g>
</g>
<g>
</g>
<g>
</g>
<g>
</g>
<g>
</g>
<g>
</g>
<g>
</g>
<g>
</g>
<g>
</g>
<g>
</g>
<g>
</g>
<g>
</g>
</svg>
