<?xml version="1.0" standalone="no"?>
<!DOCTYPE svg PUBLIC "-//W3C//DTD SVG 1.1//EN" "http://www.w3.org/Graphics/SVG/1.1/DTD/svg11.dtd" >
<svg xmlns="http://www.w3.org/2000/svg" xmlns:xlink="http://www.w3.org/1999/xlink" version="1.1">
<metadata></metadata>
<defs>
<font id="nunito_heavyitalic" horiz-adv-x="1228" >
<font-face units-per-em="2048" ascent="1638" descent="-410" />
<missing-glyph horiz-adv-x="604" />
<glyph unicode="&#xfb01;" horiz-adv-x="1458" d="M-10 834q0 178 209 178h37q25 184 151.5 297.5t308.5 130.5l62 6q16 2 49 2q70 0 112 -28.5t42 -104.5q2 -82 -39 -123t-101 -45l-49 -4q-55 -4 -81.5 -37t-31.5 -80l-2 -14h560q190 0 178 -156l-54 -674q-8 -96 -71.5 -146t-155.5 -50q-90 0 -148.5 50t-50.5 146l43 518 h-325l-41 -514q-8 -98 -72.5 -147t-157.5 -49q-90 0 -147 50t-49 146l43 514h-37q-182 0 -182 134zM993 1352q0 90 60.5 142t167.5 52q104 0 166.5 -53t62.5 -141q0 -90 -61.5 -144.5t-167.5 -54.5q-104 0 -166 54.5t-62 144.5z" />
<glyph unicode="&#xfb02;" horiz-adv-x="1579" d="M-10 844q0 88 50 128t159 40h37q25 184 151.5 297.5t308.5 130.5l64 6q49 4 69 4q80 0 124 -29.5t44 -105.5q0 -84 -46 -123t-130 -45l-49 -4q-55 -4 -81.5 -37t-31.5 -80l-2 -14h78q178 0 178 -144q0 -86 -49 -127t-155 -41h-76l-41 -514q-8 -98 -72.5 -147t-157.5 -49 q-90 0 -147 50t-49 146l43 514h-37q-92 0 -137 37t-45 107zM1037 182l84 1071q8 98 71.5 148.5t155.5 50.5t149.5 -50t48.5 -149l-83 -1071q-8 -96 -72 -146t-154 -50q-92 0 -150.5 50t-49.5 146z" />
<glyph horiz-adv-x="0" />
<glyph unicode="&#xd;" horiz-adv-x="604" />
<glyph horiz-adv-x="0" />
<glyph horiz-adv-x="0" />
<glyph unicode=" "  horiz-adv-x="604" />
<glyph unicode="&#x09;" horiz-adv-x="604" />
<glyph unicode="&#xa0;" horiz-adv-x="604" />
<glyph unicode="!" horiz-adv-x="583" d="M45 211q0 96 63.5 160.5t159.5 64.5t160 -64.5t64 -160.5q0 -94 -63.5 -159.5t-160.5 -65.5q-96 0 -159.5 65.5t-63.5 159.5zM96 1186q-8 141 66 204.5t203 63.5q106 0 175.5 -55.5t69.5 -153.5q0 -18 -8 -63l-172 -543q-12 -61 -48 -94t-87 -33q-49 0 -81 31.5t-38 95.5 z" />
<glyph unicode="&#x22;" horiz-adv-x="1038" d="M125 1243q0 102 61.5 156.5t169.5 54.5q98 0 155.5 -50t57.5 -140q0 -33 -14 -90l-88 -261q-20 -68 -53 -97.5t-90 -29.5q-62 0 -100 34t-42 93l-55 291q-2 14 -2 39zM586 1243q0 102 61.5 156.5t169.5 54.5q98 0 155.5 -50t57.5 -140q0 -33 -14 -90l-88 -261 q-20 -68 -53 -97.5t-90 -29.5q-62 0 -100 34t-42 93l-55 291q-2 14 -2 39z" />
<glyph unicode="#" d="M78 436q0 53 36 88t89 35h43l67 342h-69q-53 0 -89 36t-36 89t35.5 88t89.5 35h116l43 217q8 43 40 68.5t77 25.5q61 0 99 -38t38 -95q0 -18 -2 -29l-30 -149h131l43 217q8 43 39.5 68.5t81.5 25.5q59 0 98 -35.5t39 -91.5q0 -10 -4 -30l-31 -154q49 -6 80 -40t31 -85 q0 -53 -36 -88t-89 -35h-33l-68 -342h60q53 0 89 -36t36 -89t-36 -88t-89 -35h-107l-45 -227q-8 -41 -41 -67.5t-80 -26.5q-59 0 -98 35.5t-39 91.5q0 10 4 30l33 164h-139l-45 -227q-8 -41 -40 -67.5t-73 -26.5q-59 0 -97 35.5t-38 91.5q0 10 4 30l33 164q-51 2 -86 37 t-35 88zM506 559h135l68 342h-134z" />
<glyph unicode="$" d="M12 203q0 72 44 127t114 55q41 0 84 -20l55 -13q80 -18 144.5 -27.5t150.5 -9.5q88 0 129 25t41 78q0 45 -53 72.5t-168 62.5q-139 43 -233.5 87t-164 130t-69.5 221q0 176 126 302t333 161l6 74q6 74 52 118t118 44q76 0 121 -45.5t39 -116.5l-7 -76q199 -25 314 -96 q63 -43 63 -123q0 -72 -50 -129t-124 -57q-43 0 -84 20l-69 18q-70 20 -125.5 31.5t-114.5 11.5q-74 0 -117 -24.5t-43 -69.5q0 -53 55.5 -81.5t178.5 -65.5q141 -43 231 -85t156.5 -126t66.5 -221q0 -184 -122.5 -307t-331.5 -156l-6 -76q-6 -76 -51.5 -119t-116.5 -43 q-76 0 -123 47t-41 115l6 72q-197 16 -326 63q-45 23 -66.5 64t-21.5 88z" />
<glyph unicode="%" horiz-adv-x="1994" d="M84 999q0 219 107.5 346.5t293.5 127.5t290 -108t104 -300q0 -225 -104.5 -350t-297.5 -125q-188 0 -290.5 106.5t-102.5 302.5zM420 963q0 -63 12 -91t41 -28q39 0 54.5 66.5t15.5 191.5q0 61 -12.5 89t-41.5 28q-39 0 -54 -62.5t-15 -193.5zM449 84q0 45 28 88 l828 1253q25 39 58.5 57.5t70.5 18.5q59 0 104 -41t45 -100q0 -45 -29 -88l-827 -1254q-25 -38 -59.5 -56.5t-71.5 -18.5q-57 0 -102 41t-45 100zM1149 395q0 219 107.5 346t293.5 127t290 -107.5t104 -299.5q0 -227 -104.5 -351t-297.5 -124q-188 0 -290.5 106.5 t-102.5 302.5zM1485 356q0 -61 12 -88.5t41 -27.5q39 0 54.5 66.5t15.5 191.5q0 61 -12.5 88.5t-41.5 27.5q-39 0 -54 -62.5t-15 -195.5z" />
<glyph unicode="&#x26;" horiz-adv-x="1460" d="M18 401q0 281 285 426q-37 53 -55.5 116t-18.5 122q0 115 58.5 203t163 137t237.5 49q127 0 227.5 -43t155.5 -120t55 -177q0 -125 -67.5 -223t-192.5 -158l146 -143q47 80 80 186q16 78 72.5 121t121.5 43q61 0 105.5 -38t44.5 -105q0 -12 -4 -41q-51 -221 -181 -402 l76 -73q51 -53 51 -115q0 -74 -59 -130t-133 -56q-72 0 -127 57l-66 67q-197 -123 -422 -122q-158 0 -283.5 55t-197.5 150.5t-72 213.5zM428 436q0 -61 44 -99t118 -38q92 0 174 43l-254 262q-82 -66 -82 -168zM598 1067q0 -53 59 -123q74 27 107 63.5t33 92.5 q0 37 -24.5 61.5t-65.5 24.5q-48 0 -78.5 -32t-30.5 -87z" />
<glyph unicode="'" horiz-adv-x="577" d="M125 1243q0 102 61.5 156.5t169.5 54.5q98 0 155.5 -50t57.5 -140q0 -33 -14 -90l-88 -261q-20 -68 -53 -97.5t-90 -29.5q-62 0 -100 34t-42 93l-55 291q-2 14 -2 39z" />
<glyph unicode="(" horiz-adv-x="868" d="M195 412q0 266 79.5 500.5t251.5 463.5q29 41 74 62.5t92 21.5q61 0 104.5 -33.5t43.5 -91.5q0 -35 -23 -86q-188 -414 -188 -835q0 -174 16.5 -303t52.5 -275q10 -33 11 -72q0 -72 -43 -111.5t-107 -39.5q-51 0 -101 30.5t-81 90.5q-86 151 -134 324t-48 354z" />
<glyph unicode=")" horiz-adv-x="868" d="M35 -262q0 43 22 88q186 410 187 833q0 180 -15.5 310.5t-52.5 269.5q-12 41 -12 72q0 70 43 109.5t106 39.5q53 0 102.5 -30.5t80.5 -90.5q86 -151 134 -324t48 -353q0 -268 -80 -502t-252 -463q-29 -41 -74 -62.5t-92 -21.5q-59 0 -102 34t-43 91z" />
<glyph unicode="*" horiz-adv-x="935" d="M72 1055q0 57 31.5 98t86.5 37l103 -8l-57 82q-20 29 -21 59q0 51 49 91t107 40q66 0 94 -57l45 -97l47 97q29 59 94 59q57 0 105.5 -41t48.5 -92q0 -35 -19 -59l-59 -84l104 10q56 2 86.5 -37t30.5 -96t-30.5 -98t-86.5 -37l-106 8l61 -86q18 -31 19 -58q0 -51 -50 -92 t-106 -41q-66 0 -92 58l-47 98l-45 -98q-29 -57 -92 -58q-57 0 -106.5 41t-49.5 94q0 31 19 58l59 84l-105 -8q-57 -2 -87.5 36.5t-30.5 96.5z" />
<glyph unicode="+" d="M123 582q0 63 43 106t106 43h222l18 221q4 59 47 99.5t103 40.5q59 0 96 -40t33 -100l-17 -221h221q56 0 91.5 -39t35.5 -94q0 -63 -44 -104t-105 -41h-221l-17 -224q-6 -59 -50 -98t-103 -39t-96 40t-31 97l18 224h-223q-53 0 -90 36.5t-37 92.5z" />
<glyph unicode="," horiz-adv-x="583" d="M45 209q0 113 64.5 170t160.5 57q107 0 162 -65.5t55 -194.5q0 -131 -62.5 -255t-166.5 -222q-39 -37 -82 -37q-41 0 -72.5 31t-31.5 69q0 37 32 70q82 82 119 172q-86 12 -132 66.5t-46 138.5z" />
<glyph unicode="-" horiz-adv-x="925" d="M86 539q0 88 51 132t162 44h365q90 0 137 -41t47 -109q0 -178 -213 -178h-365q-90 0 -137 42t-47 110z" />
<glyph unicode="." horiz-adv-x="583" d="M45 211q0 96 63.5 160.5t159.5 64.5t160 -64.5t64 -160.5q0 -94 -63.5 -159.5t-160.5 -65.5q-96 0 -159.5 65.5t-63.5 159.5z" />
<glyph unicode="/" horiz-adv-x="757" d="M-63 -49q0 31 10 53l596 1493q18 47 58 70.5t89 23.5q66 0 115 -37.5t49 -97.5q0 -31 -10 -53l-598 -1489q-19 -49 -59 -72.5t-87 -23.5q-63 0 -113 38t-50 95z" />
<glyph unicode="0" d="M63 639q0 256 72 441.5t207 282.5t324 97q260 0 398 -168t138 -487q0 -256 -71.5 -441.5t-208 -282.5t-324.5 -97q-260 0 -397.5 167.5t-137.5 487.5zM487 580q0 -141 29 -205t92 -64q84 0 127 140.5t43 412.5q0 143 -28.5 206t-94.5 63q-82 0 -125 -144.5t-43 -408.5z " />
<glyph unicode="1" d="M106 160q0 98 54.5 143t171.5 45h139l47 606l-112 -57q-51 -27 -97 -27q-72 0 -120 55.5t-48 127.5q0 45 21.5 84t64.5 63l348 186q111 61 211 62q94 0 148.5 -57.5t46.5 -159.5l-70 -883h138q194 0 194 -164q0 -96 -53 -140t-172 -44h-717q-195 0 -195 160z" />
<glyph unicode="2" horiz-adv-x="1232" d="M39 164q0 51 24.5 105.5t73.5 99.5l453 424q63 61 100 122.5t37 106.5q0 53 -34 77.5t-103 24.5q-106 0 -232 -55q-57 -33 -108 -33q-63 0 -103.5 45t-40.5 109q0 49 28 97t83 83q162 94 426 94q242 -2 378 -118.5t136 -321.5q0 -111 -57.5 -209t-194.5 -223l-262 -244 h324q96 0 147 -39t51 -116q0 -102 -53 -147.5t-172 -45.5h-725q-84 0 -130 46t-46 118z" />
<glyph unicode="3" d="M6 225q0 70 46 123t116 53q37 0 80 -18q96 -33 162.5 -47t142.5 -14q180 0 180 120q0 66 -43 92.5t-137 26.5h-119q-61 0 -100 44t-39 120q0 78 52 125t130 47h62q104 0 149 25.5t45 89.5q0 57 -38 84.5t-117 27.5q-37 0 -94.5 -12t-125.5 -43q-57 -33 -108 -33 q-63 0 -103.5 45t-40.5 109q0 49 28 97t83 83q84 49 193.5 71.5t228.5 22.5q150 0 267.5 -48t184 -135t66.5 -200q0 -250 -248 -346q109 -35 172.5 -111.5t63.5 -187.5q0 -129 -68.5 -232.5t-203 -162.5t-324.5 -59q-143 0 -264 28.5t-191 59.5q-88 55 -88 155z" />
<glyph unicode="4" d="M0 391q0 43 17.5 90t48.5 88l616 791q35 47 88 70.5t113 23.5q92 0 154.5 -58.5t54.5 -160.5l-56 -682h13q108 0 151 -39t43 -123q0 -168 -225 -168h-6l-2 -14q-8 -109 -72 -166t-162 -57q-94 0 -148.5 55t-45.5 162l2 20h-418q-80 0 -123 47t-43 121zM442 553h166 l19 238z" />
<glyph unicode="5" d="M29 258q0 70 53 120t131 50q55 0 106 -29q92 -45 150.5 -61t108.5 -16q96 0 146 37.5t50 111.5q0 156 -194 156l-64 2q-47 0 -119 -19q-55 -25 -106 -24q-68 0 -110 38t-36 97l41 520q10 98 65.5 150.5t154.5 52.5h612q98 0 145 -36t47 -116q0 -82 -60 -130t-163 -48 h-383l-12 -174q57 16 143 16q131 0 233.5 -55t160 -152.5t57.5 -222.5q0 -260 -161 -402t-450 -142q-131 0 -256.5 36.5t-214.5 100.5q-76 57 -75 139z" />
<glyph unicode="6" horiz-adv-x="1230" d="M57 639q0 254 83 439.5t241 285.5t381 100q117 0 233.5 -27.5t153.5 -54.5q45 -29 67.5 -71.5t22.5 -91.5q0 -70 -40 -121t-105 -51q-43 0 -86 22q-166 55 -252 55q-199 0 -248 -268q47 47 115.5 73.5t140.5 26.5q119 0 213 -57t147.5 -158.5t53.5 -228.5 q0 -154 -67 -274.5t-185.5 -189t-268.5 -68.5q-287 0 -443.5 172t-156.5 487zM506 465q0 -68 37 -109t96 -41t95 46.5t36 121.5q0 68 -34 106t-95 38q-63 0 -99 -43t-36 -119z" />
<glyph unicode="7" d="M80 1260q0 92 55 138t162 46h811q80 0 120 -42t40 -112q0 -86 -58 -188l-604 -983q-43 -70 -98 -103.5t-117 -33.5q-76 0 -130 50t-54 128q0 66 41 135l493 801h-471q-104 0 -147 41t-43 123z" />
<glyph unicode="8" d="M20 393q0 133 75 225.5t204 129.5q-90 45 -138 121.5t-48 179.5q0 193 148.5 304t406.5 111q260 0 400 -101t140 -292q0 -109 -65.5 -199t-173.5 -129q225 -77 225 -317q0 -133 -76 -233.5t-212 -155.5t-314 -55q-174 0 -303 51t-199 143t-70 217zM426 434q0 -55 48 -89 t128 -34q186 1 186 142q0 55 -44 83.5t-119 28.5q-199 0 -199 -131zM520 1014q0 -57 37 -89t98 -32q144 0 144 125q0 66 -31 91.5t-100 25.5q-76 0 -112 -28t-36 -93z" />
<glyph unicode="9" d="M23 223q0 70 40.5 122t106.5 52q41 0 84 -22q166 -55 254 -56q205 0 248 271q-49 -47 -117 -75t-139 -28q-119 0 -213 57.5t-148.5 159t-54.5 228.5q0 154 66.5 274.5t185.5 189t268 68.5q289 0 444.5 -171t155.5 -488q0 -254 -82 -439.5t-240.5 -285.5t-379.5 -100 q-115 0 -231.5 28.5t-157.5 52.5q-45 29 -67.5 72t-22.5 90zM494 961q0 -66 33.5 -105t93.5 -39q63 0 100 43t37 119q0 68 -37 108.5t-96 40.5t-95 -46t-36 -121z" />
<glyph unicode=":" horiz-adv-x="583" d="M45 211q0 96 63.5 160.5t159.5 64.5t160 -64.5t64 -160.5q0 -94 -63.5 -159.5t-160.5 -65.5q-96 0 -159.5 65.5t-63.5 159.5zM94 807q0 94 63.5 159.5t159.5 65.5t160 -65.5t64 -159.5q0 -96 -63.5 -160.5t-160.5 -64.5q-96 0 -159.5 64.5t-63.5 160.5z" />
<glyph unicode=";" horiz-adv-x="583" d="M45 209q0 113 64.5 170t160.5 57q107 0 162 -65.5t55 -194.5t-62.5 -254t-166.5 -223q-39 -37 -82 -37q-41 0 -72.5 31t-31.5 69q0 37 32 70q82 82 119 172q-86 12 -132 66.5t-46 138.5zM94 807q0 94 63.5 159.5t159.5 65.5t160 -65.5t64 -159.5q0 -96 -63.5 -160.5 t-160.5 -64.5q-96 0 -159.5 64.5t-63.5 160.5z" />
<glyph unicode="&#x3c;" d="M119 578q0 76 47 138t121 93l655 227q43 16 76 17q57 0 92 -39t35 -105q0 -39 -25.5 -74.5t-64.5 -50.5l-549 -192l520 -193q35 -12 53.5 -48t18.5 -77q2 -63 -42 -103t-108 -40q-37 0 -76 16l-620 230q-129 55 -133 201z" />
<glyph unicode="=" d="M104 375q0 66 43 108.5t107 42.5h723q55 0 92 -37.5t37 -93.5q0 -66 -44 -106.5t-108 -40.5h-723q-53 0 -90 37t-37 90zM139 784q0 66 43 109t107 43h723q55 0 91 -38t36 -93q0 -63 -44 -105.5t-106 -42.5h-723q-53 0 -90 37t-37 90z" />
<glyph unicode="&#x3e;" d="M98 274q0 41 26 76t64 49l549 193l-520 192q-35 14 -53.5 49t-18.5 76q2 63 45 103.5t105 40.5q37 0 76 -17l620 -227q131 -57 131 -209q0 -74 -47 -134t-119 -89l-655 -230q-43 -16 -74 -16q-57 0 -92 39t-37 104z" />
<glyph unicode="?" horiz-adv-x="1001" d="M31 1198q0 45 22.5 87t67.5 71q96 57 203.5 82.5t244.5 25.5q143 0 253 -44t171.5 -125t61.5 -187q0 -82 -37 -144.5t-88 -105.5t-131 -96q-74 -51 -108 -79t-44 -62q-12 -51 -48 -80t-85 -29q-68 0 -101.5 41t-27.5 115q8 82 45 135t102 115q45 43 65.5 70.5t20.5 60.5 q0 35 -29.5 55t-80.5 20q-45 0 -112.5 -17t-141.5 -50q-39 -23 -80 -23q-61 0 -102 49.5t-41 114.5zM258 211q0 96 64.5 160.5t158.5 64.5q98 0 162 -64.5t64 -160.5q0 -94 -64.5 -159.5t-161.5 -65.5q-94 0 -158.5 65.5t-64.5 159.5z" />
<glyph unicode="@" horiz-adv-x="1945" d="M80 528q0 295 118.5 506t329.5 318.5t482 107.5q272 0 469.5 -94t302 -267t104.5 -409q0 -250 -113.5 -406.5t-322.5 -156.5q-104 0 -177 47t-99 119h-5q-59 -82 -119.5 -124t-164.5 -42q-166 0 -252 106.5t-86 274.5q0 152 55 269.5t152.5 183t220.5 65.5 q158 0 217 -106h8l-4 -25q18 109 147 109q63 0 99.5 -37t36.5 -99q0 -12 -4 -41l-43 -239q-14 -82 -15 -125q0 -106 86 -107q25 0 50.5 34t44 109.5t18.5 190.5q0 530 -606 531q-188 0 -333 -79t-225.5 -234.5t-80.5 -379.5q0 -188 75.5 -329.5t218 -218t339.5 -76.5 q113 0 192.5 15t173.5 54q37 16 64 17q53 0 91 -38t38 -87q0 -63 -68 -111q-84 -35 -212 -62.5t-279 -27.5q-281 0 -491 110.5t-321.5 306t-111.5 447.5zM846 504q0 -63 24.5 -105.5t79.5 -42.5q97 0 148 87t51 204q0 74 -31 112t-86 38q-90 0 -138 -90.5t-48 -202.5z" />
<glyph unicode="A" horiz-adv-x="1579" d="M10 168q0 49 29 98l590 1059q35 66 100.5 100.5t136.5 34.5q72 0 131.5 -34.5t83.5 -96.5l432 -1081q13 -37 13 -68q0 -82 -67.5 -136t-149.5 -54q-55 0 -99.5 28.5t-64.5 85.5l-62 172h-602l-86 -167q-31 -59 -80 -88t-104 -29q-78 0 -139.5 50t-61.5 126zM647 604h322 l-131 377z" />
<glyph unicode="B" horiz-adv-x="1435" d="M92 197l84 1044q10 98 65.5 150.5t153.5 52.5h510q162 0 273.5 -49t168 -132t56.5 -188q0 -119 -60.5 -198.5t-185.5 -128.5q109 -33 170.5 -127.5t61.5 -212.5q0 -195 -152 -301.5t-403 -106.5h-560q-96 0 -143 50q-40 43 -40 120q0 13 1 27zM532 330h261 q102 0 146 24.5t44 94.5q0 61 -39 90.5t-127 29.5h-266zM578 899h219q106 0 145 20.5t39 81.5q0 55 -37 84t-123 29h-227z" />
<glyph unicode="C" horiz-adv-x="1390" d="M100 682q0 236 99.5 413t281 273t418.5 96q164 0 354 -61l47 -12q57 -35 85 -82t28 -99q0 -70 -46 -121t-116 -51q-47 0 -102 31q-10 2 -57 14q-109 33 -168 33q-182 0 -279.5 -115.5t-97.5 -316.5q0 -176 73.5 -266t217.5 -90q45 0 86 9t100 28q55 16 74 20q45 23 90 23 q66 0 106.5 -45.5t40.5 -110.5q0 -47 -23.5 -93t-70.5 -81q-55 -33 -170 -65.5t-237 -32.5q-228 0 -393 86t-253 244.5t-88 371.5z" />
<glyph unicode="D" horiz-adv-x="1603" d="M92 197l84 1044q10 98 65.5 150.5t153.5 52.5h418q217 0 382 -84t255 -238.5t90 -359.5q0 -242 -99.5 -413t-286.5 -260t-445 -89h-435q-96 0 -143 50q-40 43 -40 120q0 13 1 27zM545 352h121q225 0 329.5 96.5t104.5 315.5q0 160 -91 244t-259 84h-146z" />
<glyph unicode="E" horiz-adv-x="1232" d="M92 172l2 29l82 1040q10 96 66.5 149.5t154.5 53.5h690q96 0 145.5 -41t49.5 -113q0 -96 -55.5 -139t-169.5 -43h-463l-16 -205h423q96 0 145.5 -40t49.5 -113q0 -94 -54.5 -138.5t-166.5 -44.5h-424l-19 -231h467q96 0 145.5 -41t49.5 -117q0 -92 -56.5 -135t-168.5 -43 h-690q-90 0 -138.5 45t-48.5 127z" />
<glyph unicode="F" horiz-adv-x="1196" d="M94 203l82 1038q10 96 66.5 149.5t152.5 53.5h672q98 0 146.5 -40t48.5 -120q0 -98 -54.5 -140t-171.5 -42h-436l-14 -197h399q96 0 143.5 -38t47.5 -115q0 -102 -53.5 -145.5t-172.5 -43.5h-393l-27 -354q-10 -102 -72.5 -162.5t-162.5 -60.5q-97 0 -153 59 q-49 52 -49 134q0 12 1 24z" />
<glyph unicode="G" horiz-adv-x="1536" d="M100 692q0 231 98.5 406.5t281 270.5t425.5 95q143 0 243.5 -23.5t199.5 -56.5q55 -33 82.5 -78.5t27.5 -95.5q0 -70 -47 -120t-117 -50q-51 0 -102 29q-16 4 -59 18.5t-97.5 23.5t-124.5 9q-174 0 -270 -116.5t-96 -315.5q0 -375 346 -375q74 0 139 17l17 209h-86 q-166 0 -166 141q0 72 48 113t126 41h336q73 0 112 -40q34 -35 34 -92q0 -9 -1 -18l-25 -315q-10 -123 -32.5 -187.5t-73.5 -101.5t-152 -66q-173 -34 -335 -34h-9q-219 0 -381.5 88t-252 248.5t-89.5 375.5z" />
<glyph unicode="H" horiz-adv-x="1601" d="M92 176l2 27l82 1032q8 100 70.5 159.5t163.5 59.5q100 0 153 -58q46 -51 46 -130q0 -12 -1 -25l-26 -336h501l27 330q8 100 70.5 159.5t162.5 59.5q101 0 154 -58q46 -51 46 -130q0 -12 -1 -25l-82 -1032q-10 -100 -72.5 -161.5t-162.5 -61.5q-92 0 -145.5 51t-53.5 139 l2 27l29 358h-502l-29 -352q-10 -100 -72.5 -161.5t-162.5 -61.5q-92 0 -145.5 51t-53.5 139z" />
<glyph unicode="I" horiz-adv-x="673" d="M92 176l2 27l82 1032q8 100 71.5 159.5t166.5 59.5q96 0 150 -50t54 -136l-2 -27l-81 -1032q-8 -102 -72 -162.5t-168 -60.5q-94 0 -148.5 51t-54.5 139z" />
<glyph unicode="J" horiz-adv-x="858" d="M-66 156q0 90 46.5 131t140.5 47l67 4q49 4 76 29.5t29 78.5l63 793q10 98 75 156.5t165 58.5t156 -58q50 -52 50 -133q0 -12 -1 -24l-60 -784q-16 -215 -139 -333t-346 -132l-66 -4q-23 -2 -45 -2q-99 0 -149 35q-62 42 -62 137z" />
<glyph unicode="K" horiz-adv-x="1474" d="M92 174l2 29l82 1032q8 102 71.5 160.5t166.5 58.5q96 0 150 -50t54 -136l-2 -27l-32 -405l477 550q70 72 151 72q72 0 123 -53t51 -129q0 -88 -75 -166l-318 -369l322 -442q37 -45 37 -100q0 -51 -29 -99.5t-77 -79t-101 -30.5q-86 0 -156 82l-422 561l-32 -424 q-8 -104 -72 -163.5t-168 -59.5q-94 0 -148.5 50t-54.5 138z" />
<glyph unicode="L" horiz-adv-x="1191" d="M94 201l82 1034q8 100 71.5 159.5t164.5 59.5q96 0 151 -50t55 -136l-2 -27l-71 -887h413q195 0 195 -159q0 -104 -54.5 -149.5t-170.5 -45.5h-649q-97 0 -145 52q-41 45 -41 122q0 13 1 27z" />
<glyph unicode="M" horiz-adv-x="1726" d="M96 182l86 1055q8 98 69.5 157.5t154.5 59.5q129 0 194 -141l277 -600l376 594q92 145 217 145q93 0 146 -62q46 -53 46 -134q0 -12 -1 -25l-84 -1045q-10 -92 -64.5 -146t-140.5 -54q-84 0 -135 54q-44 47 -44 119q0 11 1 23l37 463l-189 -301q-49 -80 -95 -112.5 t-109 -32.5q-61 0 -103.5 32.5t-77.5 108.5l-143 281l-35 -435q-6 -90 -63.5 -145t-145.5 -55q-84 0 -132 53q-43 47 -43 123q0 10 1 20z" />
<glyph unicode="N" horiz-adv-x="1562" d="M94 205l82 1032q10 96 71.5 156.5t153.5 60.5q106 0 154 -68l496 -651l36 500q10 98 71 158.5t153 60.5q88 0 140 -51t52 -137l-2 -27l-82 -1032q-8 -100 -70.5 -160.5t-154.5 -60.5q-111 0 -156 67l-491 652l-41 -496q-10 -100 -69.5 -161.5t-153.5 -61.5q-93 0 -145 60 q-45 52 -45 133q0 13 1 26z" />
<glyph unicode="O" horiz-adv-x="1650" d="M100 682q0 233 93.5 411.5t263.5 275.5t393 97t389 -86t256 -244.5t90 -373.5q0 -233 -93 -411.5t-262 -276t-392 -97.5q-224 0 -390.5 86.5t-257 245t-90.5 373.5zM539 684q0 -180 75.5 -275.5t219.5 -95.5q145 0 229 119t84 330q0 176 -77 272t-214 96 q-150 0 -233.5 -118.5t-83.5 -327.5z" />
<glyph unicode="P" horiz-adv-x="1406" d="M94 203l82 1038q10 96 66.5 149.5t154.5 53.5h504q236 0 370 -119t134 -324q0 -238 -138.5 -368.5t-402.5 -130.5h-305l-22 -293q-10 -104 -74 -163.5t-168 -59.5q-101 0 -155 59q-48 51 -47 133q0 12 1 25zM586 827h231q178 1 178 148q0 76 -37.5 107.5t-119.5 31.5 h-230z" />
<glyph unicode="Q" horiz-adv-x="1650" d="M100 682q0 233 93.5 411.5t263.5 275.5t393 97q227 0 393 -85t254 -243.5t88 -375.5q0 -236 -93 -413t-263 -277q94 -18 145 -111l27 -43q31 -59 31 -108q0 -84 -69 -138.5t-157 -54.5q-57 0 -106 26.5t-78 80.5l-107 202q-27 49 -112 54q-215 2 -374 91t-244 246.5 t-85 364.5zM539 684q0 -180 75.5 -275.5t219.5 -95.5q147 0 230 120t83 329q0 176 -77 272t-214 96q-150 0 -233.5 -118.5t-83.5 -327.5z" />
<glyph unicode="R" horiz-adv-x="1460" d="M94 203l82 1038q10 98 65.5 150.5t153.5 52.5h533q152 0 262 -55.5t167.5 -153.5t57.5 -227q0 -195 -87 -307.5t-273 -149.5q61 -10 102 -45t74 -103l57 -139q20 -43 21 -86q0 -84 -69 -143.5t-157 -59.5q-59 0 -108 30t-80 93l-164 361q-10 29 -35.5 45t-54.5 16h-90 l-23 -311q-8 -102 -70.5 -162.5t-162.5 -60.5q-101 0 -155 59q-48 51 -47 133q0 12 1 25zM575 846h271q78 0 119 36t41 101q0 66 -33 98.5t-109 32.5h-270z" />
<glyph unicode="S" horiz-adv-x="1388" d="M41 246q0 66 41 115t106 49q55 0 111 -33q10 -2 71.5 -19.5t142.5 -30t157 -12.5q200 0 200 79q0 54 -61 85t-188 68q-150 45 -248.5 89t-170 130t-71.5 223q0 141 81 249t228.5 167t341.5 59q154 0 285 -31.5t201 -78.5q37 -27 55 -65t18 -79q0 -70 -44 -121t-115 -51 q-51 0 -111 33q-10 2 -62.5 18.5t-116 27.5t-122.5 11q-92 0 -147.5 -25.5t-55.5 -72.5q0 -49 57.5 -77.5t186.5 -65.5q152 -43 251 -86t172 -128t73 -224q0 -225 -170 -347t-486 -122q-155 0 -293.5 27.5t-220.5 68.5q-47 29 -71.5 75t-24.5 95z" />
<glyph unicode="T" horiz-adv-x="1314" d="M45 1249q0 104 55.5 149.5t169.5 45.5h930q195 0 195 -164q0 -104 -54.5 -147t-171.5 -43h-239l-72 -881q-10 -100 -74.5 -159.5t-167.5 -59.5q-100 0 -156 58q-47 49 -48 124q0 15 2 31l71 887h-245q-195 0 -195 159z" />
<glyph unicode="U" horiz-adv-x="1538" d="M115 561q0 29 4 90l47 584q8 100 70.5 159.5t162.5 59.5q99 0 153 -58q47 -51 47 -131q0 -12 -1 -24l-47 -608q-2 -20 -2 -60q0 -131 60.5 -194.5t185.5 -63.5q86 0 140 58.5t66 208.5l52 653q10 100 72.5 159.5t162.5 59.5q92 0 145.5 -50t53.5 -136l-2 -27l-49 -633 q-25 -311 -192 -469.5t-474 -158.5h-2q-653 0 -653 581z" />
<glyph unicode="V" horiz-adv-x="1554" d="M100 1245q0 59 36 108.5t92.5 77t113.5 27.5q55 0 99 -28.5t65 -86.5l280 -796l402 792q31 60 80 89.5t104 29.5q82 0 144.5 -52t62.5 -130q0 -45 -27 -96l-581 -1063q-35 -63 -101.5 -98t-140.5 -35q-70 0 -126 33.5t-81 95.5l-409 1065q-12 35 -13 67z" />
<glyph unicode="W" horiz-adv-x="2308" d="M147 1247q0 96 69 154.5t159 58.5q68 0 118 -34.5t66 -102.5l172 -705l307 705q29 66 85.5 101.5t119.5 35.5t112.5 -35.5t67.5 -103.5l176 -723l293 721q29 70 85.5 105.5t121.5 35.5q76 0 130.5 -46t54.5 -126q0 -51 -27 -110l-469 -1057q-29 -66 -93.5 -102.5 t-135.5 -36.5q-72 0 -128.5 34.5t-74.5 100.5l-182 655l-283 -651q-29 -68 -92.5 -104.5t-134.5 -36.5q-72 0 -129.5 35.5t-75.5 101.5l-301 1059q-10 45 -11 71z" />
<glyph unicode="X" horiz-adv-x="1429" d="M49 174q0 78 57 143l371 416l-297 391q-39 53 -39 113q0 57 32 108.5t83 83t104 31.5q80 0 136 -74l264 -350l317 348q61 74 148 74q76 0 132 -57.5t56 -132.5q0 -76 -59 -144l-365 -401l328 -404q41 -53 41 -116q0 -55 -32 -106.5t-83 -82t-104 -30.5q-78 0 -131 69 l-299 383l-326 -379q-62 -75 -145 -75h-2q-76 0 -131.5 56t-55.5 136z" />
<glyph unicode="Y" horiz-adv-x="1363" d="M78 1233q0 55 32.5 106.5t85 83t105.5 31.5q88 0 141 -80l271 -395l346 412q59 71 145 71q78 0 137.5 -60.5t59.5 -139.5q0 -76 -55 -140l-433 -497l-32 -416q-8 -109 -75 -166t-163 -57q-98 0 -155 55q-51 48 -51 137q0 12 1 25l33 426l-360 506q-33 45 -33 98z" />
<glyph unicode="Z" horiz-adv-x="1282" d="M41 164q0 88 72 178l620 760h-405q-195 0 -195 151q0 102 55.5 146.5t171.5 44.5h750q84 0 131 -47t47 -119q0 -92 -69 -176l-623 -760h440q195 0 195 -158q0 -100 -54.5 -142t-170.5 -42h-789q-84 0 -130 46t-46 118z" />
<glyph unicode="[" horiz-adv-x="862" d="M162 -45l92 1165q14 152 107.5 238t244.5 86h174q59 0 101.5 -38t42.5 -103q0 -90 -47.5 -130t-114.5 -40h-10q-41 0 -62.5 -17.5t-27.5 -68.5l-80 -1018q-2 -51 16 -68.5t59 -17.5h11q53 0 95 -38t42 -104q0 -90 -48 -130t-122 -40h-172q-152 0 -231.5 86t-69.5 238z " />
<glyph unicode="\" horiz-adv-x="753" d="M51 1432q0 66 55.5 108.5t124.5 42.5q51 0 92.5 -27.5t53.5 -85.5l352 -1470q4 -20 4 -31q0 -61 -55 -103t-125 -42q-53 0 -94 28.5t-56 86.5l-348 1462q-4 20 -4 31z" />
<glyph unicode="]" horiz-adv-x="862" d="M-57 -227q0 90 47 130t114 40h11q41 0 62.5 17t27.5 69l80 1018q6 49 -14.5 67.5t-61.5 18.5h-10q-53 0 -95.5 37.5t-42.5 103.5q0 90 49.5 130t122.5 40h170q144 0 224 -76t80 -211q0 -25 -2 -37l-93 -1165q-12 -152 -106 -238t-246 -86h-172q-59 0 -102 38t-43 104z " />
<glyph unicode="^" d="M141 424q0 31 15 59l297 666q33 68 93 107.5t132 39.5q74 0 128 -39.5t77 -107.5l194 -696q4 -11 4 -31q0 -53 -50 -91t-111 -38q-39 0 -71 20.5t-44 61.5l-152 538l-235 -538q-18 -41 -53 -60.5t-74 -19.5q-59 0 -104.5 37t-45.5 92z" />
<glyph unicode="_" horiz-adv-x="1024" d="M-49 -117q0 55 46 86t122 31h708q66 0 106 -29.5t42 -79.5q0 -61 -44 -95t-122 -34h-709q-67 0 -108 34t-41 87z" />
<glyph unicode="`" horiz-adv-x="641" d="M82 1448q0 53 42 89t95 36q41 0 78 -24.5t55 -73.5l76 -201q10 -27 10 -47q0 -41 -28.5 -66.5t-69.5 -25.5q-29 0 -57.5 14t-46.5 43l-121 162q-33 51 -33 94z" />
<glyph unicode="a" horiz-adv-x="1144" d="M33 287q0 119 56 189.5t179 104t326 33.5h76v8q0 107 -148 107q-45 0 -160 -29l-43 -10q-39 -16 -79 -16q-61 0 -98.5 38t-37.5 93q0 43 26 85t77 71q150 75 367 75h6q245 0 366 -104.5t121 -317.5q0 -25 -4 -73l-27 -359q-10 -94 -67.5 -145t-151.5 -51q-72 0 -120 36.5 t-58 98.5q-35 -66 -100.5 -102.5t-149.5 -36.5q-100 0 -181 39.5t-128 110.5t-47 155zM438 336q0 -33 21.5 -53.5t58.5 -20.5q53 0 91 43t44 113v10h-53q-84 0 -123 -22.5t-39 -69.5z" />
<glyph unicode="b" horiz-adv-x="1306" d="M66 182l84 1078q6 84 70.5 138t164.5 54q93 0 145 -50q45 -44 46 -113q0 -9 -1 -19l-26 -346q99 112 277 112h3q127 0 224.5 -57t152 -167t54.5 -259q0 -164 -61.5 -294t-173.5 -203.5t-255 -73.5q-96 0 -169 32.5t-132 98.5q-25 -57 -78 -92t-129 -35q-96 0 -148 55 q-48 50 -48 126v15zM512 508q0 -106 41 -160.5t117 -54.5q80 0 125 60.5t45 164.5q0 100 -43 153.5t-123 53.5q-74 0 -118 -60.5t-44 -156.5z" />
<glyph unicode="c" horiz-adv-x="1036" d="M49 481q0 172 74 297t210 191.5t322 66.5q201 0 322 -57q39 -18 57.5 -56t18.5 -83q0 -66 -35 -116t-92 -50q-35 0 -66 16q-115 29 -176 29q-94 0 -146.5 -58.5t-52.5 -166.5q0 -92 46.5 -143.5t125.5 -51.5q47 0 86 5t86 20q41 18 72 18q51 0 80 -39t29 -96 q0 -51 -23.5 -97.5t-68.5 -74.5q-53 -23 -134.5 -38t-152.5 -15q-174 0 -306 61t-204 175t-72 263z" />
<glyph unicode="d" horiz-adv-x="1306" d="M49 469q0 164 61.5 293t173 201.5t255.5 72.5q168 0 280 -108l27 342q6 82 65.5 132t155.5 50q99 0 155 -54q51 -49 51 -122q0 -8 -1 -16l-84 -1078q-6 -86 -64.5 -141t-156.5 -55q-76 0 -124 33.5t-67 93.5q-49 -63 -123.5 -97t-173.5 -34q-127 0 -224 58t-151.5 167.5 t-54.5 261.5zM469 500q0 -100 43 -153.5t123 -53.5q74 0 118 60.5t44 156.5q0 215 -158 215q-80 0 -125 -60.5t-45 -164.5z" />
<glyph unicode="e" horiz-adv-x="1099" d="M49 483q0 156 68.5 283t189.5 198.5t268 71.5q225 0 351.5 -136t126.5 -376q0 -47 -27 -74.5t-74 -27.5h-493q29 -131 192 -131q45 0 74 6t57.5 15.5t42.5 13.5q35 16 70 16q51 0 81 -39t30 -96q0 -49 -22.5 -94t-68.5 -72q-53 -29 -129.5 -44t-167.5 -15 q-168 0 -296.5 62t-200.5 176t-72 263zM459 614h246q-4 70 -32 105t-85 35q-56 0 -86.5 -33t-42.5 -107z" />
<glyph unicode="f" horiz-adv-x="847" d="M-10 844q0 88 50 128t159 40h37q25 184 151.5 297.5t308.5 130.5l64 6q49 4 69 4q80 0 124 -29.5t44 -105.5q0 -84 -46 -123t-130 -45l-49 -4q-55 -4 -81.5 -37t-31.5 -80l-2 -14h78q178 0 178 -144q0 -86 -49 -127t-155 -41h-76l-41 -514q-8 -98 -72.5 -147t-157.5 -49 q-90 0 -147 50q-50 44 -50 123q0 11 1 23l43 514h-37q-92 0 -137 37t-45 107z" />
<glyph unicode="g" horiz-adv-x="1314" d="M51 494q0 150 62.5 273.5t176 196t257.5 72.5q98 0 171 -31.5t132 -93.5q25 55 79 88t130 33q96 0 147 -54q46 -48 46 -124q0 -9 -1 -18l-55 -697q-20 -256 -194.5 -391t-487.5 -135q-92 0 -190.5 16.5t-169.5 46.5q-47 25 -71 63t-24 81q0 61 42 110.5t104 49.5 q31 0 53 -11q12 0 40 -6t42 -10q123 -31 188 -31q117 0 176.5 44t67.5 143l2 20q-106 -102 -291 -102q-127 0 -225 58t-152.5 163.5t-54.5 245.5zM471 518q0 -82 45 -129t121 -47q78 0 125 53.5t47 139.5q0 190 -166 190q-80 0 -126 -54.5t-46 -152.5z" />
<glyph unicode="h" horiz-adv-x="1263" d="M66 182l84 1078q6 84 69.5 138t163.5 54q95 0 147 -51q46 -45 46 -113q0 -9 -1 -18l-26 -340q55 51 133 78.5t170 27.5q168 0 253 -98t85 -289q0 -47 -2 -71l-33 -396q-8 -90 -67.5 -143t-159.5 -53q-98 0 -152 54q-48 47 -48 120q0 11 1 22l33 381q1 9 1 18q1 57 -23 92 q-26 40 -85 40q-119 0 -133 -156l-30 -375q-4 -88 -64.5 -142t-161.5 -54q-100 0 -154 54q-47 46 -47 118q0 12 1 24z" />
<glyph unicode="i" horiz-adv-x="608" d="M66 182l53 652q8 98 72.5 148t156.5 50q90 0 148 -50q50 -44 50 -125q0 -11 -1 -23l-53 -652q-8 -96 -72 -146t-154 -50q-92 0 -150 50q-51 43 -51 121q0 12 1 25zM164 1354q0 82 55 129t151 47q92 0 149.5 -48t57.5 -128q0 -82 -56 -131.5t-151 -49.5q-94 0 -150 49.5 t-56 131.5z" />
<glyph unicode="j" horiz-adv-x="608" d="M-219 -215q8 68 48 102.5t124 40.5l59 4q10 0 22.5 12.5t14.5 24.5l70 867q8 96 73.5 146t157.5 50q90 0 146 -49q50 -43 50 -123q0 -12 -1 -24l-68 -836q-10 -158 -108.5 -255t-274.5 -112l-67 -4q-16 -2 -47 -2q-100 0 -152 39q-48 35 -48 103q0 8 1 16zM162 1354 q0 82 55 129t151 47q92 0 149.5 -48t57.5 -128q0 -82 -56 -131.5t-151 -49.5q-94 0 -150 49.5t-56 131.5z" />
<glyph unicode="k" horiz-adv-x="1239" d="M66 184l84 1071q8 98 71.5 148.5t155.5 50.5q91 0 149 -49q51 -42 50 -120q0 -12 -1 -25l-51 -644l328 357q61 63 141 63q78 0 137.5 -56t59.5 -132q0 -70 -60 -129l-184 -199l156 -215q41 -49 41 -108q0 -53 -32 -103.5t-83 -80t-106 -29.5q-80 0 -140 67l-274 359 l-16 -222q-8 -98 -74 -148t-156 -50t-148 49q-50 42 -49 120q0 12 1 25z" />
<glyph unicode="l" horiz-adv-x="608" d="M66 182l84 1071q8 98 71.5 148.5t155.5 50.5q91 0 149 -50q50 -43 50 -123q0 -13 -1 -26l-83 -1071q-8 -96 -72 -146t-154 -50q-92 0 -150 50q-51 43 -51 121q0 12 1 25z" />
<glyph unicode="m" horiz-adv-x="1865" d="M66 182l53 658q8 92 75.5 142t155.5 50q68 0 116 -29.5t62 -84.5q63 61 138 89.5t172 28.5q92 0 162.5 -37.5t111.5 -107.5q145 145 350 145q160 0 245 -98t85 -287q0 -45 -2 -69l-33 -400q-8 -96 -71.5 -146t-155.5 -50q-90 0 -148 50q-51 44 -52 124q0 11 1 22l33 391 q1 10 1 19q1 52 -19 84q-22 37 -68 37q-59 0 -88 -40t-37 -145l-29 -346q-8 -96 -71.5 -146t-155.5 -50q-91 0 -149 50q-51 44 -51 124q0 11 1 22l33 387q1 11 1 21q0 55 -18 86q-22 37 -69 37q-59 0 -88 -40t-37 -145l-28 -346q-8 -96 -72 -146t-154 -50q-92 0 -150 50 q-51 43 -51 121q0 12 1 25z" />
<glyph unicode="n" horiz-adv-x="1263" d="M66 182l53 658q6 84 70.5 138t160.5 54q72 0 119 -32.5t61 -88.5q53 59 136.5 92t185.5 33q168 0 253 -98t85 -289q0 -47 -2 -71l-33 -396q-8 -90 -67.5 -143t-159.5 -53q-98 0 -152 54q-48 47 -48 120q0 11 1 22l33 381q1 9 1 18q1 57 -23 92q-26 40 -85 40 q-119 0 -133 -156l-30 -375q-8 -90 -67.5 -143t-158.5 -53q-100 0 -152 53q-48 48 -48 128v15z" />
<glyph unicode="o" horiz-adv-x="1257" d="M49 487q0 172 73 296t204 188.5t305 64.5q176 0 307 -62.5t201.5 -176t70.5 -265.5q0 -172 -71.5 -295.5t-202.5 -189t-305 -65.5q-178 0 -309.5 62t-202 177t-70.5 266zM469 481q0 -98 37 -143t115 -45q170 0 170 250q0 96 -35 139t-117 43q-170 0 -170 -244z" />
<glyph unicode="p" horiz-adv-x="1306" d="M35 -195l80 1031q6 88 64.5 142t156.5 54q76 0 124 -33.5t66 -93.5q49 63 124 97t173 34q127 0 224.5 -57t151.5 -167t54 -261q0 -164 -61.5 -293t-173 -202.5t-254.5 -73.5q-88 0 -155.5 27.5t-123.5 80.5l-24 -295q-6 -82 -66.5 -133t-154.5 -51q-98 0 -154 55 q-52 50 -52 123q0 8 1 16zM506 508q0 -106 41 -160.5t117 -54.5q79 0 124.5 61.5t45.5 165.5q0 100 -43 152.5t-123 52.5q-74 0 -118 -60.5t-44 -156.5z" />
<glyph unicode="q" horiz-adv-x="1306" d="M51 467q0 164 61.5 294t173 202.5t255.5 72.5q96 0 168.5 -31.5t130.5 -95.5q25 57 79 90t128 33q96 0 149 -54q48 -49 48 -124q0 -9 -1 -18l-80 -1031q-6 -84 -70.5 -139t-164.5 -55q-94 0 -146 51q-46 46 -46 116q0 8 1 17l25 299q-49 -53 -121 -82.5t-160 -29.5 q-127 0 -224 58t-151.5 167.5t-54.5 259.5zM471 502q0 -102 42 -155.5t122 -53.5q74 0 119 60.5t45 156.5q0 109 -41 162t-117 53q-80 0 -125 -60.5t-45 -162.5z" />
<glyph unicode="r" horiz-adv-x="901" d="M66 182l53 658q8 92 73.5 142t151.5 50q78 0 127 -39t53 -112q57 66 135 105.5t144 43.5l26 2h14q59 0 96 -32q42 -36 42 -109l-2 -27q-10 -98 -57.5 -139t-169.5 -55l-56 -6q-72 -8 -107.5 -27t-51 -52.5t-21.5 -97.5l-24 -305q-8 -96 -72 -146t-154 -50q-92 0 -150 50 q-51 43 -51 121q0 12 1 25z" />
<glyph unicode="s" horiz-adv-x="1011" d="M0 197q0 61 40 107t99 46q37 0 76 -20q61 -25 145 -41.5t152 -16.5q86 0 86 29q0 23 -36 38t-113 34q-115 31 -191 60.5t-133 93t-57 165.5q0 98 62.5 177t178 123t269.5 44q57 0 142 -13t142 -32q53 -27 79 -69.5t26 -90.5q0 -59 -36 -102t-91 -43q-33 0 -64 14 q-63 27 -120.5 37.5t-120.5 10.5q-45 0 -71 -7.5t-26 -19.5q0 -25 36 -40t116 -36q111 -29 187.5 -60.5t134 -95t57.5 -163.5q0 -164 -127 -254t-369 -90q-188 0 -350 53q-61 25 -92 68.5t-31 93.5z" />
<glyph unicode="t" horiz-adv-x="870" d="M-10 846q0 84 51 125t158 41h34l9 102q8 92 69.5 145.5t159.5 53.5q101 1 153 -53q46 -46 45 -121q0 -11 -1 -23l-9 -104h76q86 0 132 -38t46 -106q0 -88 -49 -128t-155 -40h-76l-23 -276l-2 -29q0 -57 23.5 -83.5t73.5 -26.5q16 0 37.5 3t45.5 3q41 0 66 -35t25 -92 q0 -100 -62.5 -141t-218.5 -41q-205 0 -310.5 98t-105.5 287q0 41 2 61l23 272h-35q-88 0 -135 38t-47 108z" />
<glyph unicode="u" horiz-adv-x="1253" d="M74 362q0 45 2 70l33 404q8 88 70.5 142t162.5 54q98 0 150 -54q45 -47 44 -119q0 -11 -1 -23l-33 -381q-1 -9 -1 -18q1 -57 23 -92q26 -40 80 -40q57 0 89 42t38 116l31 373q8 88 69.5 142t161.5 54q99 0 151 -54q45 -47 45 -119q0 -11 -1 -23l-53 -656 q-6 -84 -67.5 -139t-158.5 -55q-72 0 -121 33.5t-63 89.5q-53 -59 -135 -93t-180 -34q-166 0 -251 97t-85 283z" />
<glyph unicode="v" horiz-adv-x="1124" d="M59 846q0 51 34 96t88.5 71.5t107.5 26.5t96 -29.5t64 -88.5l124 -394l179 390q28 61 76.5 90.5t103.5 29.5q76 0 135 -49t59 -119q0 -37 -22 -82l-342 -657q-39 -72 -104.5 -110.5t-139.5 -38.5q-72 0 -131 37.5t-84 109.5l-235 668q-8 23 -9 49z" />
<glyph unicode="w" horiz-adv-x="1804" d="M63 838q0 86 70 142t156 56q57 0 101 -28.5t63 -87.5l127 -410l198 412q25 53 72 81.5t100 28.5q51 0 93 -27.5t59 -82.5l131 -416l194 409q29 60 78 90.5t107 30.5q78 0 135 -47t57 -121q0 -43 -24 -92l-359 -674q-29 -57 -91 -87.5t-132 -30.5t-125 29.5t-72 82.5 l-110 322l-152 -316q-27 -57 -88 -87.5t-133 -30.5q-70 0 -125 28.5t-74 83.5l-245 676q-10 29 -11 66z" />
<glyph unicode="x" horiz-adv-x="1142" d="M8 158q0 82 74 153l237 207l-188 189q-51 59 -51 129q0 80 61.5 140t141.5 60t143 -71l172 -183l201 179q71 71 153 71h2q70 0 120 -50t50 -120q0 -78 -69 -145l-224 -197l201 -207q51 -59 51 -125q0 -80 -62.5 -141t-139.5 -61q-80 0 -144 71l-184 201l-223 -205 q-67 -67 -146 -67h-2q-72 0 -123 50t-51 122z" />
<glyph unicode="y" horiz-adv-x="1124" d="M59 846q0 51 34 96t88.5 71.5t107.5 26.5t96 -29.5t64 -88.5l124 -394l179 390q28 61 76.5 90.5t103.5 29.5q76 0 135 -49t59 -119q0 -37 -22 -82l-553 -1054q-33 -59 -78 -89t-94 -30q-72 0 -123 49t-51 125q0 43 24 96l95 189l-256 723q-8 23 -9 49z" />
<glyph unicode="z" horiz-adv-x="1073" d="M39 168q0 90 70 162l389 370h-258q-182 0 -183 140q0 88 51.5 130t157.5 42h598q82 0 128 -48.5t46 -117.5q0 -90 -67 -160l-393 -375h274q180 0 180 -139q0 -88 -50 -130t-157 -42h-612q-82 0 -128 48t-46 120z" />
<glyph unicode="{" horiz-adv-x="937" d="M29 526q0 74 41 119t120 51q59 8 87 42t34 112l21 270q10 156 90 240t227 84h215q53 0 94 -38t41 -103q0 -90 -47 -130t-118 -40h-7q-41 0 -62.5 -17.5t-25.5 -68.5l-20 -250q-8 -95 -69.5 -166.5t-135.5 -87.5q70 -18 120 -95t42 -174l-19 -245q-2 -51 16.5 -68.5 t59.5 -17.5h12q53 0 94.5 -37t41.5 -103q0 -90 -47.5 -131t-114.5 -41h-160q-141 0 -232 79t-91 214l2 31l22 266l2 35q0 57 -22.5 85t-75.5 34q-66 6 -100.5 46t-34.5 105z" />
<glyph unicode="|" horiz-adv-x="641" d="M72 -186l116 1448q6 84 64.5 138t144.5 54q84 0 135.5 -54t45.5 -138l-117 -1448q-4 -84 -63.5 -138.5t-145.5 -54.5q-84 0 -134 54.5t-46 138.5z" />
<glyph unicode="}" horiz-adv-x="937" d="M-55 -227q0 90 47 130t112 40h13q39 0 60.5 17t27.5 69l18 250q8 94 69.5 165.5t135.5 87.5q-68 18 -119 94t-43 173l21 248q4 49 -15.5 67.5t-60.5 18.5h-10q-55 0 -97.5 36.5t-42.5 104.5q0 88 48.5 129t115.5 41h158q96 0 173 -39t118 -112.5t33 -172.5l-25 -268 l-2 -33q0 -57 22.5 -84.5t75.5 -34.5q66 -6 100.5 -46t34.5 -105q0 -74 -39.5 -119t-121.5 -53q-59 -6 -86 -40t-33 -112l-21 -270q-10 -156 -90 -240t-227 -84h-215q-53 0 -94 38t-41 104z" />
<glyph unicode="~" d="M143 563q0 41 29 82q49 66 117.5 102.5t138.5 36.5q55 0 106.5 -18t127.5 -53q49 -25 80.5 -37t58.5 -12h24q20 0 29 6q66 59 131 59q49 0 82 -32.5t33 -80.5q0 -41 -31 -81q-49 -63 -119.5 -99.5t-140.5 -36.5q-55 0 -109.5 19.5t-124.5 54.5q-51 27 -80.5 38t-56.5 11 h-24q-23 0 -31 -6q-63 -57 -129 -57q-47 0 -79 29.5t-32 74.5z" />
<glyph unicode="&#xa1;" horiz-adv-x="583" d="M-6 -168q0 29 6 57l156 490q14 61 51 94t86 33q51 0 82 -32t35 -95l77 -492q10 -127 -60.5 -198.5t-195.5 -71.5q-104 0 -170.5 62.5t-66.5 152.5zM94 807q0 96 63.5 160.5t159.5 64.5t160 -64.5t64 -160.5t-63.5 -160.5t-160.5 -64.5q-96 0 -159.5 64.5t-63.5 160.5z " />
<glyph unicode="&#xa2;" d="M131 481q0 203 102.5 340t286.5 189l8 92q6 74 55.5 119t121.5 45q74 0 116.5 -45t36.5 -119l-4 -72q121 -12 205 -51q39 -18 57.5 -56t18.5 -83q0 -66 -35 -116t-92 -50q-35 0 -66 16q-115 29 -176 29q-94 0 -146.5 -58.5t-52.5 -166.5q0 -92 46 -143.5t126 -51.5 q49 0 86 5t84 20q41 18 72 18q51 0 81 -39t30 -96q0 -51 -24 -97.5t-69 -74.5q-45 -18 -107.5 -32.5t-123.5 -18.5l-4 -68q-6 -74 -51 -118t-117 -44q-76 0 -123 45t-41 117l10 113q-147 55 -229 172.5t-82 279.5z" />
<glyph unicode="&#xa3;" d="M8 166q0 80 39 124t123 54l20 258h-20q-51 0 -85 32t-34 83q0 55 40 91t99 36h19l14 205q10 123 79 217t190.5 146t283.5 52q250 0 438 -100q78 -51 78 -135q0 -68 -52 -122t-128 -54q-55 0 -115 32q-109 39 -215 39q-57 0 -87.5 -28.5t-35.5 -81.5l-14 -170h213 q49 0 83 -33t34 -82q0 -55 -40 -91t-99 -36h-211l-21 -254h397q195 0 195 -153q0 -102 -52 -148.5t-171 -46.5h-770q-195 0 -195 166z" />
<glyph unicode="&#xa5;" d="M76 408q0 59 42 93t97 34h182l6 77h-182q-49 0 -85 33t-36 82q0 59 42 93t98 34h86l-179 317q-29 49 -28 99q0 80 67.5 136t149.5 56q51 0 93 -24.5t71 -73.5l149 -313l223 325q33 45 76 66.5t90 21.5q80 0 142.5 -52t62.5 -126q0 -53 -41 -106l-244 -326h91 q47 0 81.5 -31.5t34.5 -79.5q0 -61 -40 -96t-95 -35h-186l-6 -77h186q49 0 83 -32t34 -83q0 -57 -42 -92t-98 -35h-182l-8 -90q-8 -104 -75.5 -160.5t-162.5 -56.5q-96 0 -153.5 55t-48.5 162l6 90h-184q-49 0 -83 31.5t-34 83.5z" />
<glyph unicode="&#xa7;" horiz-adv-x="1259" d="M25 -162q0 63 39.5 114.5t97.5 51.5q31 0 59 -14q74 -33 153 -52.5t138 -19.5q78 0 122 18.5t44 53.5q0 23 -18.5 40t-61.5 36l-311 159q-123 57 -180.5 140.5t-57.5 197.5q0 205 182 332q-57 82 -57 164q0 117 66.5 206t189.5 140t287 53q123 4 221 -15.5t195 -66.5 q39 -20 58 -53t19 -70q0 -61 -44 -111t-99 -50q-12 0 -41 8q-88 35 -144.5 47t-115.5 12q-94 0 -136 -15.5t-42 -51.5q0 -20 20.5 -44t55.5 -38l313 -158q119 -55 179.5 -140t60.5 -194q-1 -213 -177 -336q51 -84 52 -164q0 -188 -150.5 -295.5t-415.5 -107.5 q-115 0 -235.5 26.5t-196.5 69.5q-70 43 -69 127zM426 670q0 -49 30.5 -91t80.5 -65l284 -149q12 23 13 38q0 109 -107 164l-278 152q-23 -33 -23 -49z" />
<glyph unicode="&#xa8;" horiz-adv-x="702" d="M39 1350q0 76 48 121t126 45q80 0 129 -45.5t49 -120.5q0 -78 -49 -124t-129 -46q-78 0 -126 46t-48 124zM446 1350q0 76 48.5 121t130.5 45q76 0 125 -45.5t49 -120.5q0 -78 -48.5 -124t-125.5 -46q-82 0 -130.5 46t-48.5 124z" />
<glyph unicode="&#xa9;" horiz-adv-x="1671" d="M121 723q0 205 96 372t264 263t373 96t372 -96t263 -263t96 -372t-96 -372t-264 -264t-371 -97q-205 0 -373 97t-264 264t-96 372zM274 723q0 -168 74 -302t206 -211t300 -77q166 0 298 77t206 211t74 302t-74 302t-206 210t-298 76q-168 0 -300 -76t-206 -210t-74 -302z M430 723q0 131 56.5 230.5t159 154.5t235.5 55q174 0 258 -63q33 -25 44 -47.5t11 -61.5q0 -47 -29.5 -88t-81.5 -41q-25 0 -43 5t-53 22q-6 2 -32.5 9t-51.5 7q-72 0 -104.5 -39t-32.5 -143q0 -106 32.5 -145t104.5 -39q25 0 51.5 7t32.5 9q35 16 53.5 21.5t42.5 5.5 q51 0 81 -41t30 -88q0 -41 -10 -66t-45 -43q-66 -31 -122 -47t-136 -16q-133 0 -235.5 55t-159 155.5t-56.5 231.5z" />
<glyph unicode="&#xaa;" horiz-adv-x="749" d="M78 1008q0 94 75.5 139t239.5 45h70l2 14q2 18 -13.5 24.5t-62.5 6.5q-72 0 -139 -16q-20 -4 -29 -4q-41 0 -65.5 28.5t-24.5 69.5q0 31 18.5 59.5t51.5 42.5q82 37 248 37q155 0 228 -66.5t73 -211.5q0 -33 -2 -50l-11 -161q-6 -70 -46 -110t-99 -40q-66 0 -102.5 34 t-38.5 89q-31 -63 -74 -93t-107 -30q-78 0 -135 57.5t-57 135.5zM348 1034q0 -29 41 -28q27 0 43.5 14t20.5 37v6h-84q-4 0 -12.5 -10.5t-8.5 -18.5zM446 961l5 -7v11z" />
<glyph unicode="&#xab;" horiz-adv-x="1216" d="M104 537q0 66 54 137l170 221q31 41 70.5 61.5t82.5 20.5q61 0 103.5 -37t42.5 -96q0 -43 -27 -94l-108 -201l73 -201q14 -37 15 -74q0 -70 -49.5 -113.5t-114.5 -43.5q-43 0 -81 21.5t-63 64.5l-133 221q-35 59 -35 113zM628 537q0 66 54 137l170 221q31 41 70.5 61.5 t82.5 20.5q61 0 103.5 -37t42.5 -96q0 -43 -27 -94l-108 -201l73 -201q14 -37 15 -74q0 -70 -49.5 -113.5t-114.5 -43.5q-43 0 -81 21.5t-63 64.5l-133 221q-35 59 -35 113z" />
<glyph unicode="&#xac;" d="M139 782q0 63 43 105.5t107 42.5h723q59 0 95 -40t32 -97l-31 -402q-8 -61 -50 -100t-102 -39q-69 0 -107 40t-34 99l23 260h-572q-53 0 -90 39t-37 92z" />
<glyph unicode="&#xad;" horiz-adv-x="925" d="M86 539q0 88 51 132t162 44h365q90 0 137 -41t47 -109q0 -178 -213 -178h-365q-90 0 -137 42t-47 110z" />
<glyph unicode="&#xae;" horiz-adv-x="1671" d="M121 723q0 205 96 372t264 263t373 96t372 -96t263 -263t96 -372t-96 -372t-264 -264t-371 -97q-205 0 -372 97t-264 264t-97 372zM274 723q0 -168 75 -303t207 -211t298 -76t297 77t206 211t75 302t-75 302t-206 210t-297 76t-298 -76t-207 -210t-75 -302zM451 444 l47 564q12 152 161 151h267q162 0 251 -71.5t89 -198.5q0 -109 -55.5 -182.5t-155.5 -102.5q45 -6 76.5 -25.5t68.5 -62.5l19 -6q31 -39 30 -82q0 -59 -57 -102t-127 -43q-88 0 -127 65l-145 223l-5 7l-12 -134q-6 -78 -54 -120.5t-114 -42.5q-76 0 -120 42t-37 121z M801 803h82q37 0 53 15.5t16 51.5q0 23 -17 33t-56 10h-70z" />
<glyph unicode="&#xaf;" horiz-adv-x="649" d="M29 1343q0 55 35.5 84t91.5 29h495q45 0 75 -26.5t30 -71.5q0 -61 -35 -92t-92 -31h-494q-47 0 -76.5 28.5t-29.5 79.5z" />
<glyph unicode="&#xb0;" horiz-adv-x="757" d="M100 1137q0 90 43 162.5t119 113.5t168 41q90 0 166 -41t119 -113.5t43 -162.5t-43 -163t-118 -114t-167 -41t-168 41t-119 114t-43 163zM311 1137q0 -53 35 -88t84 -35q47 0 82 34.5t35 88.5q0 53 -35 88t-82 35q-49 0 -84 -35t-35 -88z" />
<glyph unicode="&#xb1;" d="M86 129q0 63 43 106.5t107 43.5h722q56 0 92.5 -38t36.5 -94q0 -63 -44 -105t-107 -42h-723q-53 0 -90 38t-37 91zM133 702q0 63 43 104.5t105 41.5h223l8 104q2 57 45 98.5t102 41.5t97.5 -40t34.5 -100l-9 -104h224q55 0 91 -40t36 -97q0 -64 -44.5 -105t-105.5 -41 h-221l-8 -104q-6 -59 -50.5 -98t-101.5 -39q-59 0 -97 39.5t-32 99.5l8 102h-221q-55 0 -91 40t-36 97z" />
<glyph unicode="&#xb4;" horiz-adv-x="598" d="M317 1214q0 29 17 60l76 211q23 45 57.5 67.5t73.5 22.5q55 0 98 -38t43 -91q0 -51 -45 -103l-125 -157q-48 -53 -109 -53q-37 0 -61.5 22.5t-24.5 58.5z" />
<glyph unicode="&#xb5;" horiz-adv-x="1253" d="M31 -195l82 1031q8 90 68.5 143t160.5 53q98 0 151.5 -54t45.5 -142l-37 -381q-4 -59 22.5 -104.5t79.5 -45.5q55 0 90 44t39 114l31 373q8 90 68.5 143t160.5 53q99 0 152 -54t45 -142l-51 -656q-6 -84 -69.5 -139t-160.5 -55q-72 0 -120 34.5t-62 92.5 q-45 -51 -111.5 -85t-144.5 -44l-14 -170q-6 -84 -70.5 -138.5t-165.5 -54.5q-94 0 -146 51.5t-44 132.5zM424 -18q4 0 2 -9l6 9h-8z" />
<glyph unicode="&#xb6;" horiz-adv-x="1368" d="M78 918q0 158 64.5 276.5t184 184t283.5 65.5h584q57 0 91 -37t30 -94l-123 -1561q-2 -57 -43 -94t-96 -37q-57 0 -92 37t-31 94l114 1460h-194l-117 -1460q-2 -57 -42 -94t-97 -37t-92 37t-31 94l57 717q-131 2 -233 56.5t-159.5 154.5t-57.5 238z" />
<glyph unicode="&#xb7;" horiz-adv-x="583" d="M72 553q0 94 63.5 158.5t159.5 64.5t160.5 -64.5t64.5 -158.5q0 -96 -64.5 -160.5t-160.5 -64.5t-159.5 64.5t-63.5 160.5z" />
<glyph unicode="&#xb8;" horiz-adv-x="641" d="M35 -324q0 33 20.5 57.5t48.5 16.5q29 -6 62 -10t47 -4q47 0 68.5 10t21.5 33q0 14 -15.5 23.5t-39.5 9.5q-16 0 -38 -5.5t-32 -5.5q-25 0 -34 11.5t-3 29.5l43 199h189l-31 -121h4q82 0 129 -38t47 -103q0 -86 -78.5 -136.5t-207.5 -50.5q-98 0 -154 19q-23 6 -35 24.5 t-12 40.5z" />
<glyph unicode="&#xba;" horiz-adv-x="813" d="M82 1108q0 162 106.5 254t284.5 92q166 0 262 -81t96 -216q0 -158 -108.5 -250t-284.5 -92q-164 0 -260 81t-96 212zM385 1128q0 -33 19.5 -55t48.5 -22q36 0 60 26.5t24 67.5q0 33 -21.5 54.5t-52.5 21.5q-78 0 -78 -93z" />
<glyph unicode="&#xbb;" horiz-adv-x="1198" d="M72 248q0 45 26 96l109 203l-74 201q-14 37 -14 73q0 68 49 112t113 44q43 0 81.5 -21.5t63.5 -64.5l133 -221q33 -57 33 -111q0 -68 -51 -137l-168 -221q-31 -43 -72 -63.5t-86 -20.5q-59 0 -101 35.5t-42 95.5zM596 248q0 45 26 96l109 203l-74 201q-14 37 -14 73 q0 68 49 112t113 44q43 0 81.5 -21.5t63.5 -64.5l133 -221q33 -57 33 -111q0 -68 -51 -137l-168 -221q-31 -43 -72 -63.5t-86 -20.5q-59 0 -101 35.5t-42 95.5z" />
<glyph unicode="&#xbf;" horiz-adv-x="1001" d="M-47 -39q0 90 41 154.5t96 102.5t139 81q61 31 93 52.5t43 45.5q14 51 52 80t91 29q61 0 92 -40t25 -114q-10 -90 -52.5 -140t-109.5 -99q-41 -27 -59.5 -46.5t-18.5 -43.5q0 -70 104 -70q111 0 265 70q35 20 67 20q55 0 91 -49t36 -115q0 -45 -19.5 -86t-58.5 -69 q-158 -111 -436 -111q-141 0 -249.5 43t-170 122t-61.5 183zM301 807q0 96 63.5 160.5t159.5 64.5q94 0 159 -64.5t65 -160.5t-65 -160.5t-159 -64.5q-96 0 -159.5 64.5t-63.5 160.5z" />
<glyph unicode="&#xc0;" horiz-adv-x="1579" d="M10 168q0 49 29 98l590 1059q35 66 100.5 100.5t136.5 34.5q72 0 131.5 -34.5t83.5 -96.5l432 -1081q13 -37 13 -68q0 -82 -67.5 -136t-149.5 -54q-55 0 -99.5 28.5t-64.5 85.5l-62 172h-602l-86 -167q-31 -59 -80 -88t-104 -29q-78 0 -139.5 50t-61.5 126zM592 1790 q0 45 40 78t91 33q66 0 96 -58l88 -160q12 -20 13 -45q0 -35 -28 -58.5t-64 -23.5q-47 0 -82 37l-119 121q-35 35 -35 76zM647 604h322l-131 377z" />
<glyph unicode="&#xc1;" horiz-adv-x="1579" d="M10 168q0 49 29 98l590 1059q35 66 100.5 100.5t136.5 34.5q72 0 131.5 -34.5t83.5 -96.5l432 -1081q13 -37 13 -68q0 -82 -67.5 -136t-149.5 -54q-55 0 -99.5 28.5t-64.5 85.5l-62 172h-602l-86 -167q-31 -59 -80 -88t-104 -29q-78 0 -139.5 50t-61.5 126zM647 604h322 l-131 377zM838 1640q0 31 20 60l103 147q37 55 94 56q47 0 86 -36t39 -81t-41 -84l-135 -111q-35 -32 -80 -32q-35 0 -60.5 23.5t-25.5 57.5z" />
<glyph unicode="&#xc2;" horiz-adv-x="1579" d="M10 168q0 49 29 98l590 1059q35 66 100.5 100.5t136.5 34.5q72 0 131.5 -34.5t83.5 -96.5l432 -1081q13 -37 13 -68q0 -82 -67.5 -136t-149.5 -54q-55 0 -99.5 28.5t-64.5 85.5l-62 172h-602l-86 -167q-31 -59 -80 -88t-104 -29q-78 0 -139.5 50t-61.5 126zM594 1634 q0 39 39 80l129 139q53 49 137 50q39 0 74 -12.5t53 -37.5l113 -139q25 -31 24 -59q0 -39 -34.5 -67.5t-77.5 -28.5q-63 0 -99 59l-59 106l-96 -106q-25 -29 -54.5 -43t-58.5 -14q-37 0 -63.5 20.5t-26.5 52.5zM647 604h322l-131 377z" />
<glyph unicode="&#xc3;" horiz-adv-x="1579" d="M10 168q0 49 29 98l590 1059q35 66 100.5 100.5t136.5 34.5q72 0 131.5 -34.5t83.5 -96.5l432 -1081q13 -37 13 -68q0 -82 -67.5 -136t-149.5 -54q-55 0 -99.5 28.5t-64.5 85.5l-62 172h-602l-86 -167q-31 -59 -80 -88t-104 -29q-78 0 -139.5 50t-61.5 126zM518 1661 q0 53 25.5 107.5t77 89t120.5 34.5q35 0 72 -12t86 -37q90 -43 137 -43q27 0 43.5 10.5t34.5 28.5t33.5 27.5t40.5 9.5q66 0 65 -78q0 -53 -25.5 -107.5t-75.5 -89t-120 -34.5q-37 0 -73.5 13t-86.5 36q-47 23 -77.5 34t-59.5 11q-27 0 -42 -10.5t-36 -30.5 q-14 -18 -30.5 -28.5t-40.5 -10.5q-33 0 -50.5 21.5t-17.5 58.5zM647 604h322l-131 377z" />
<glyph unicode="&#xc4;" horiz-adv-x="1579" d="M10 168q0 49 29 98l590 1059q35 66 100.5 100.5t136.5 34.5q72 0 131.5 -34.5t83.5 -96.5l432 -1081q13 -37 13 -68q0 -82 -67.5 -136t-149.5 -54q-55 0 -99.5 28.5t-64.5 85.5l-62 172h-602l-86 -167q-31 -59 -80 -88t-104 -29q-78 0 -139.5 50t-61.5 126zM508 1733 q0 74 48 117.5t126 43.5q80 0 129 -44t49 -117q0 -78 -49 -124t-129 -46q-78 0 -126 46t-48 124zM647 604h322l-131 377zM916 1733q0 74 48 117.5t130 43.5q76 0 125 -44t49 -117q0 -78 -48 -124t-126 -46q-82 0 -130 46t-48 124z" />
<glyph unicode="&#xc5;" horiz-adv-x="1579" d="M10 166q0 51 29 100l655 1188q-51 61 -51 148q0 98 68.5 165.5t169.5 67.5q98 0 167.5 -67.5t69.5 -165.5q0 -51 -20.5 -96.5t-55.5 -75.5l471 -1182q13 -37 13 -68q0 -82 -67.5 -136t-149.5 -54q-55 0 -99.5 28.5t-64.5 85.5l-62 172h-602l-86 -167q-31 -59 -80 -89 t-106 -30q-78 0 -138.5 50t-60.5 126zM647 604h322l-131 377zM799 1602q0 -35 23.5 -60.5t58.5 -25.5t57.5 24.5t22.5 61.5q0 35 -23 59.5t-57 24.5q-35 0 -58.5 -25t-23.5 -59z" />
<glyph unicode="&#xc6;" horiz-adv-x="2064" d="M6 143q0 80 64 166l741 1018q39 55 107.5 86t146.5 31h854q96 0 145.5 -40t49.5 -114q0 -94 -56.5 -138t-169.5 -44h-553l31 -205h467q96 0 145.5 -40t49.5 -113q0 -96 -54.5 -139.5t-169.5 -43.5h-387l35 -231h379q94 0 143 -41t49 -117q0 -94 -55 -136t-168 -42h-536 q-72 0 -120 30.5t-57 82.5l-24 163h-543l-110 -165q-45 -68 -104.5 -101t-121.5 -33q-74 0 -126 46.5t-52 119.5zM739 604h275l-51 336z" />
<glyph unicode="&#xc7;" horiz-adv-x="1390" d="M100 682q0 236 99.5 413t281 273t418.5 96q164 0 354 -61l47 -12q57 -35 85 -82t28 -99q0 -70 -46 -121t-116 -51q-47 0 -102 31q-10 2 -57 14q-109 33 -168 33q-182 0 -279.5 -115.5t-97.5 -316.5q0 -176 73.5 -266t217.5 -90q45 0 86 9t100 28q55 16 74 20q45 23 90 23 q66 0 106.5 -45.5t40.5 -110.5q0 -47 -23.5 -93t-70.5 -81q-55 -33 -170 -65.5t-237 -32.5q-228 0 -393 86t-253 244.5t-88 371.5zM529 -324q0 33 20.5 57.5t48.5 16.5q29 -6 62 -10t47 -4q47 0 68.5 10t21.5 33q0 14 -15.5 23.5t-39.5 9.5q-16 0 -38 -5.5t-32 -5.5 q-25 0 -34 11.5t-3 29.5l43 199h189l-31 -121h4q82 0 129 -38t47 -103q0 -86 -78.5 -136.5t-207.5 -50.5q-98 0 -154 19q-23 6 -35 24.5t-12 40.5z" />
<glyph unicode="&#xc8;" horiz-adv-x="1232" d="M92 172l2 29l82 1040q10 96 66.5 149.5t154.5 53.5h690q96 0 145.5 -41t49.5 -113q0 -96 -55.5 -139t-169.5 -43h-463l-16 -205h423q96 0 145.5 -40t49.5 -113q0 -94 -54.5 -138.5t-166.5 -44.5h-424l-19 -231h467q96 0 145.5 -41t49.5 -117q0 -92 -56.5 -135t-168.5 -43 h-690q-90 0 -138.5 45t-48.5 127zM492 1790q0 45 40 78t91 33q66 0 96 -58l88 -160q12 -20 13 -45q0 -35 -28 -58.5t-64 -23.5q-47 0 -82 37l-119 121q-35 35 -35 76z" />
<glyph unicode="&#xc9;" horiz-adv-x="1232" d="M92 172l2 29l82 1040q10 96 66.5 149.5t154.5 53.5h690q96 0 145.5 -41t49.5 -113q0 -96 -55.5 -139t-169.5 -43h-463l-16 -205h423q96 0 145.5 -40t49.5 -113q0 -94 -54.5 -138.5t-166.5 -44.5h-424l-19 -231h467q96 0 145.5 -41t49.5 -117q0 -92 -56.5 -135t-168.5 -43 h-690q-90 0 -138.5 45t-48.5 127zM738 1640q0 31 20 60l103 147q37 55 94 56q47 0 86 -36t39 -81t-41 -84l-135 -111q-35 -32 -80 -32q-35 0 -60.5 23.5t-25.5 57.5z" />
<glyph unicode="&#xca;" horiz-adv-x="1232" d="M92 172l2 29l82 1040q10 96 66.5 149.5t154.5 53.5h690q96 0 145.5 -41t49.5 -113q0 -96 -55.5 -139t-169.5 -43h-463l-16 -205h423q96 0 145.5 -40t49.5 -113q0 -94 -54.5 -138.5t-166.5 -44.5h-424l-19 -231h467q96 0 145.5 -41t49.5 -117q0 -92 -56.5 -135t-168.5 -43 h-690q-90 0 -138.5 45t-48.5 127zM494 1634q0 39 39 80l129 139q53 49 137 50q39 0 74 -12.5t53 -37.5l113 -139q25 -31 24 -59q0 -39 -34.5 -67.5t-77.5 -28.5q-63 0 -99 59l-59 106l-96 -106q-25 -29 -54.5 -43t-58.5 -14q-37 0 -63.5 20.5t-26.5 52.5z" />
<glyph unicode="&#xcb;" horiz-adv-x="1232" d="M92 172l2 29l82 1040q10 96 66.5 149.5t154.5 53.5h690q96 0 145.5 -41t49.5 -113q0 -96 -55.5 -139t-169.5 -43h-463l-16 -205h423q96 0 145.5 -40t49.5 -113q0 -94 -54.5 -138.5t-166.5 -44.5h-424l-19 -231h467q96 0 145.5 -41t49.5 -117q0 -92 -56.5 -135t-168.5 -43 h-690q-90 0 -138.5 45t-48.5 127zM407 1733q0 74 48 117.5t126 43.5q80 0 129 -44t49 -117q0 -78 -49 -124t-129 -46q-78 0 -126 46t-48 124zM815 1733q0 74 48 117.5t130 43.5q76 0 125 -44t49 -117q0 -78 -48 -124t-126 -46q-82 0 -130 46t-48 124z" />
<glyph unicode="&#xcc;" horiz-adv-x="673" d="M92 176l2 27l82 1032q8 100 71.5 159.5t166.5 59.5q96 0 150 -50t54 -136l-2 -27l-81 -1032q-8 -102 -72 -162.5t-168 -60.5q-94 0 -148.5 51t-54.5 139zM141 1790q0 45 40 78t91 33q66 0 96 -58l88 -160q12 -20 13 -45q0 -35 -28 -58.5t-64 -23.5q-47 0 -82 37l-119 121 q-35 35 -35 76z" />
<glyph unicode="&#xcd;" horiz-adv-x="673" d="M92 176l2 27l82 1032q8 100 71.5 159.5t166.5 59.5q96 0 150 -50t54 -136l-2 -27l-81 -1032q-8 -102 -72 -162.5t-168 -60.5q-94 0 -148.5 51t-54.5 139zM387 1640q0 31 20 60l103 147q37 55 94 56q47 0 86 -36t39 -81t-41 -84l-135 -111q-35 -32 -80 -32 q-35 0 -60.5 23.5t-25.5 57.5z" />
<glyph unicode="&#xce;" horiz-adv-x="673" d="M92 176l2 27l82 1032q8 100 71.5 159.5t166.5 59.5q96 0 150 -50t54 -136l-2 -27l-81 -1032q-8 -102 -72 -162.5t-168 -60.5q-94 0 -148.5 51t-54.5 139zM143 1634q0 39 39 80l129 139q53 49 137 50q39 0 74 -12.5t53 -37.5l113 -139q25 -31 24 -59q0 -39 -34.5 -67.5 t-77.5 -28.5q-63 0 -99 59l-59 106l-96 -106q-25 -29 -54.5 -43t-58.5 -14q-37 0 -63.5 20.5t-26.5 52.5z" />
<glyph unicode="&#xcf;" horiz-adv-x="673" d="M57 1733q0 74 48 117.5t126 43.5q80 0 129 -44t49 -117q0 -78 -49 -124t-129 -46q-78 0 -126 46t-48 124zM92 176l2 27l82 1032q8 100 71.5 159.5t166.5 59.5q96 0 150 -50t54 -136l-2 -27l-81 -1032q-8 -102 -72 -162.5t-168 -60.5q-94 0 -148.5 51t-54.5 139zM465 1733 q0 74 48 117.5t130 43.5q76 0 125 -44t49 -117q0 -78 -48 -124t-126 -46q-82 0 -130 46t-48 124z" />
<glyph unicode="&#xd0;" horiz-adv-x="1693" d="M18 717q0 88 55.5 131t155.5 43h4l29 350q8 98 64.5 150.5t154.5 52.5h418q217 0 381 -84t254 -238.5t90 -359.5q0 -242 -99.5 -413t-285.5 -260t-446 -89h-435q-88 0 -135 43t-47 125l2 29l29 366h-10q-86 0 -132.5 41t-46.5 113zM631 352h121q225 0 329.5 96.5 t104.5 315.5q0 160 -91 244t-261 84h-146l-16 -201h225q82 0 130 -41t48 -113q0 -88 -55 -131t-156 -43h-217z" />
<glyph unicode="&#xd1;" horiz-adv-x="1562" d="M94 205l82 1032q10 96 71.5 156.5t153.5 60.5q106 0 154 -68l496 -651l36 500q10 98 71 158.5t153 60.5q88 0 140 -51t52 -137l-2 -27l-82 -1032q-8 -100 -70.5 -160.5t-154.5 -60.5q-111 0 -156 67l-491 652l-41 -496q-10 -100 -69.5 -161.5t-153.5 -61.5t-145.5 60 t-43.5 159zM510 1661q0 53 25.5 107.5t77 89t120.5 34.5q35 0 72 -12t86 -37q90 -43 137 -43q27 0 43.5 10.5t34.5 28.5t33.5 27.5t40.5 9.5q66 0 65 -78q0 -53 -25.5 -107.5t-75.5 -89t-120 -34.5q-37 0 -73.5 13t-86.5 36q-47 23 -77.5 34t-59.5 11q-27 0 -42 -10.5 t-36 -30.5q-14 -18 -30.5 -28.5t-40.5 -10.5q-33 0 -50.5 21.5t-17.5 58.5z" />
<glyph unicode="&#xd2;" horiz-adv-x="1650" d="M100 682q0 233 93.5 411.5t263.5 275.5t393 97t389 -86t256 -244.5t90 -373.5q0 -233 -93 -411.5t-262 -276t-392 -97.5q-224 0 -390.5 86.5t-257 245t-90.5 373.5zM539 684q0 -180 75.5 -275.5t219.5 -95.5q145 0 229 119t84 330q0 176 -77 272t-214 96 q-150 0 -233.5 -118.5t-83.5 -327.5zM629 1790q0 45 40 78t91 33q66 0 96 -58l88 -160q12 -20 13 -45q0 -35 -28 -58.5t-64 -23.5q-47 0 -82 37l-119 121q-35 35 -35 76z" />
<glyph unicode="&#xd3;" horiz-adv-x="1650" d="M100 682q0 233 93.5 411.5t263.5 275.5t393 97t389 -86t256 -244.5t90 -373.5q0 -233 -93 -411.5t-262 -276t-392 -97.5q-224 0 -390.5 86.5t-257 245t-90.5 373.5zM539 684q0 -180 75.5 -275.5t219.5 -95.5q145 0 229 119t84 330q0 176 -77 272t-214 96 q-150 0 -233.5 -118.5t-83.5 -327.5zM875 1640q0 31 20 60l103 147q37 55 94 56q47 0 86 -36t39 -81t-41 -84l-135 -111q-35 -32 -80 -32q-35 0 -60.5 23.5t-25.5 57.5z" />
<glyph unicode="&#xd4;" horiz-adv-x="1650" d="M100 682q0 233 93.5 411.5t263.5 275.5t393 97t389 -86t256 -244.5t90 -373.5q0 -233 -93 -411.5t-262 -276t-392 -97.5q-224 0 -390.5 86.5t-257 245t-90.5 373.5zM539 684q0 -180 75.5 -275.5t219.5 -95.5q145 0 229 119t84 330q0 176 -77 272t-214 96 q-150 0 -233.5 -118.5t-83.5 -327.5zM631 1634q0 39 39 80l129 139q53 49 137 50q39 0 74 -12.5t53 -37.5l113 -139q25 -31 24 -59q0 -39 -34.5 -67.5t-77.5 -28.5q-63 0 -99 59l-59 106l-96 -106q-25 -29 -54.5 -43t-58.5 -14q-37 0 -63.5 20.5t-26.5 52.5z" />
<glyph unicode="&#xd5;" horiz-adv-x="1650" d="M100 682q0 233 93.5 411.5t263.5 275.5t393 97t389 -86t256 -244.5t90 -373.5q0 -233 -93 -411.5t-262 -276t-392 -97.5q-224 0 -390.5 86.5t-257 245t-90.5 373.5zM539 684q0 -180 75.5 -275.5t219.5 -95.5q145 0 229 119t84 330q0 176 -77 272t-214 96 q-150 0 -233.5 -118.5t-83.5 -327.5zM555 1661q0 53 25.5 107.5t77 89t120.5 34.5q35 0 72 -12t86 -37q90 -43 137 -43q27 0 43.5 10.5t34.5 28.5t33.5 27.5t40.5 9.5q66 0 65 -78q0 -53 -25.5 -107.5t-75.5 -89t-120 -34.5q-37 0 -73.5 13t-86.5 36q-47 23 -77.5 34 t-59.5 11q-27 0 -42 -10.5t-36 -30.5q-14 -18 -30.5 -28.5t-40.5 -10.5q-33 0 -50.5 21.5t-17.5 58.5z" />
<glyph unicode="&#xd6;" horiz-adv-x="1650" d="M100 682q0 233 93.5 411.5t263.5 275.5t393 97t389 -86t256 -244.5t90 -373.5q0 -233 -93 -411.5t-262 -276t-392 -97.5q-224 0 -390.5 86.5t-257 245t-90.5 373.5zM539 684q0 -180 75.5 -275.5t219.5 -95.5q145 0 229 119t84 330q0 176 -77 272t-214 96 q-150 0 -233.5 -118.5t-83.5 -327.5zM545 1733q0 74 48 117.5t126 43.5q80 0 129 -44t49 -117q0 -78 -49 -124t-129 -46q-78 0 -126 46t-48 124zM953 1733q0 74 48 117.5t130 43.5q76 0 125 -44t49 -117q0 -78 -48 -124t-126 -46q-82 0 -130 46t-48 124z" />
<glyph unicode="&#xd8;" horiz-adv-x="1650" d="M100 682q0 233 93.5 411.5t263.5 275.5t393 97q147 0 276 -39l60 89q55 84 143 83q59 0 104.5 -40.5t45.5 -100.5q0 -47 -33 -98l-57 -86q96 -92 146 -222t50 -290q0 -233 -93 -411.5t-262 -276t-392 -97.5q-143 0 -277 39l-57 -88q-55 -84 -144 -84q-61 0 -106 42 t-45 102q0 51 31 96l57 86q-94 94 -145.5 223t-51.5 289zM539 684q0 -70 12 -129l375 567q-27 8 -70 8q-150 0 -233.5 -118.5t-83.5 -327.5zM762 319q33 -6 72 -6q145 0 229 119t84 330q0 70 -12 125z" />
<glyph unicode="&#xd9;" horiz-adv-x="1538" d="M115 561q0 29 4 90l47 584q8 100 70.5 159.5t162.5 59.5t153.5 -58.5t45.5 -154.5l-47 -608q-2 -20 -2 -60q0 -131 60.5 -194.5t185.5 -63.5q86 0 140 58.5t66 208.5l52 653q10 100 72.5 159.5t162.5 59.5q92 0 145.5 -50t53.5 -136l-2 -27l-49 -633 q-25 -311 -192 -469.5t-474 -158.5q-655 -1 -655 581zM573 1790q0 45 40 78t91 33q66 0 96 -58l88 -160q12 -20 13 -45q0 -35 -28 -58.5t-64 -23.5q-47 0 -82 37l-119 121q-35 35 -35 76z" />
<glyph unicode="&#xda;" horiz-adv-x="1538" d="M115 561q0 29 4 90l47 584q8 100 70.5 159.5t162.5 59.5t153.5 -58.5t45.5 -154.5l-47 -608q-2 -20 -2 -60q0 -131 60.5 -194.5t185.5 -63.5q86 0 140 58.5t66 208.5l52 653q10 100 72.5 159.5t162.5 59.5q92 0 145.5 -50t53.5 -136l-2 -27l-49 -633 q-25 -311 -192 -469.5t-474 -158.5q-655 -1 -655 581zM820 1640q0 31 20 60l103 147q37 55 94 56q47 0 86 -36t39 -81t-41 -84l-135 -111q-35 -32 -80 -32q-35 0 -60.5 23.5t-25.5 57.5z" />
<glyph unicode="&#xdb;" horiz-adv-x="1538" d="M115 561q0 29 4 90l47 584q8 100 70.5 159.5t162.5 59.5t153.5 -58.5t45.5 -154.5l-47 -608q-2 -20 -2 -60q0 -131 60.5 -194.5t185.5 -63.5q86 0 140 58.5t66 208.5l52 653q10 100 72.5 159.5t162.5 59.5q92 0 145.5 -50t53.5 -136l-2 -27l-49 -633 q-25 -311 -192 -469.5t-474 -158.5q-655 -1 -655 581zM576 1634q0 39 39 80l129 139q53 49 137 50q39 0 74 -12.5t53 -37.5l113 -139q25 -31 24 -59q0 -39 -34.5 -67.5t-77.5 -28.5q-63 0 -99 59l-59 106l-96 -106q-25 -29 -54.5 -43t-58.5 -14q-37 0 -63.5 20.5t-26.5 52.5 z" />
<glyph unicode="&#xdc;" horiz-adv-x="1538" d="M115 561q0 29 4 90l47 584q8 100 70.5 159.5t162.5 59.5t153.5 -58.5t45.5 -154.5l-47 -608q-2 -20 -2 -60q0 -131 60.5 -194.5t185.5 -63.5q86 0 140 58.5t66 208.5l52 653q10 100 72.5 159.5t162.5 59.5q92 0 145.5 -50t53.5 -136l-2 -27l-49 -633 q-25 -311 -192 -469.5t-474 -158.5q-655 -1 -655 581zM489 1733q0 74 48 117.5t126 43.5q80 0 129 -44t49 -117q0 -78 -49 -124t-129 -46q-78 0 -126 46t-48 124zM897 1733q0 74 48 117.5t130 43.5q76 0 125 -44t49 -117q0 -78 -48 -124t-126 -46q-82 0 -130 46t-48 124z " />
<glyph unicode="&#xdd;" horiz-adv-x="1363" d="M78 1233q0 55 32.5 106.5t85 83t105.5 31.5q88 0 141 -80l271 -395l346 412q59 71 145 71q78 0 137.5 -60.5t59.5 -139.5q0 -76 -55 -140l-433 -497l-32 -416q-8 -109 -75 -166t-163 -57q-98 0 -155.5 55t-49.5 162l33 426l-360 506q-33 45 -33 98zM729 1640q0 31 20 60 l103 147q37 55 94 56q47 0 86 -36t39 -81t-41 -84l-135 -111q-35 -32 -80 -32q-35 0 -60.5 23.5t-25.5 57.5z" />
<glyph unicode="&#xde;" horiz-adv-x="1411" d="M92 176l2 27l82 1032q8 100 70.5 159.5t163.5 59.5q100 0 153 -58.5t45 -154.5l-6 -65h320q215 0 339.5 -112t124.5 -302q0 -229 -130 -350t-369 -121h-355l-6 -82q-10 -100 -72.5 -161.5t-162.5 -61.5q-92 0 -145.5 51t-53.5 139zM559 618h289q63 0 97 30t34 87 q0 55 -26.5 82t-86.5 27h-288z" />
<glyph unicode="&#xdf;" horiz-adv-x="1492" d="M66 182l53 666q25 307 192.5 461.5t476.5 154.5q231 0 362.5 -80.5t131.5 -222.5q0 -86 -39 -149.5t-108 -141.5q-41 -43 -61.5 -71.5t-20.5 -57.5q0 -23 25.5 -36t84.5 -29q86 -27 145.5 -56.5t104.5 -92t45 -167.5q0 -174 -133 -276t-362 -102q-195 -1 -326 71 q-72 43 -72 129q0 63 41 112.5t103 49.5q41 0 86 -25q55 -25 97 -29.5t109 -4.5q76 0 76 32q0 25 -28.5 40.5t-94.5 33.5q-86 27 -145 54.5t-102 84t-43 148.5q0 90 38.5 155.5t106.5 137.5q39 41 56.5 65.5t17.5 46.5q0 47 -28 67.5t-91 20.5q-195 0 -213 -243l-59 -746 q-8 -90 -67.5 -143t-158.5 -53q-98 0 -153.5 53t-46.5 143z" />
<glyph unicode="&#xe0;" horiz-adv-x="1144" d="M33 287q0 119 56 189.5t179 104t326 33.5h76q6 115 -148 115q-45 0 -160 -29l-43 -10q-39 -16 -79 -16q-61 0 -98.5 38t-37.5 93q0 43 26 85t77 71q152 76 373 75q245 0 366 -104.5t121 -317.5q0 -25 -4 -73l-27 -359q-10 -94 -67.5 -145t-151.5 -51q-72 0 -120 36.5 t-58 98.5q-35 -66 -100.5 -102.5t-149.5 -36.5q-100 0 -181 39.5t-128 110.5t-47 155zM338 1452q0 53 42 89t95 36q41 0 78 -24.5t55 -73.5l76 -201q10 -27 10 -47q0 -41 -28.5 -66.5t-69.5 -25.5q-29 0 -57.5 14t-47.5 43l-120 162q-33 51 -33 94zM438 336 q0 -33 21.5 -53.5t58.5 -20.5q53 0 91 43t44 113v10h-53q-84 0 -123 -22.5t-39 -69.5z" />
<glyph unicode="&#xe1;" horiz-adv-x="1144" d="M33 287q0 119 56 189.5t179 104t326 33.5h76q6 115 -148 115q-45 0 -160 -29l-43 -10q-39 -16 -79 -16q-61 0 -98.5 38t-37.5 93q0 43 26 85t77 71q152 76 373 75q245 0 366 -104.5t121 -317.5q0 -25 -4 -73l-27 -359q-10 -94 -67.5 -145t-151.5 -51q-72 0 -120 36.5 t-58 98.5q-35 -66 -100.5 -102.5t-149.5 -36.5q-100 0 -181 39.5t-128 110.5t-47 155zM438 336q0 -33 21.5 -53.5t58.5 -20.5q53 0 91 43t44 113v10h-53q-84 0 -123 -22.5t-39 -69.5zM579 1218q0 29 17 60l76 211q23 45 57.5 67.5t73.5 22.5q55 0 98 -38t43 -91 q0 -51 -45 -103l-125 -157q-48 -53 -109 -53q-37 0 -61.5 22.5t-24.5 58.5z" />
<glyph unicode="&#xe2;" horiz-adv-x="1144" d="M33 287q0 119 56 189.5t179 104t326 33.5h76q6 115 -148 115q-45 0 -160 -29l-43 -10q-39 -16 -79 -16q-61 0 -98.5 38t-37.5 93q0 43 26 85t77 71q152 76 373 75q245 0 366 -104.5t121 -317.5q0 -25 -4 -73l-27 -359q-10 -94 -67.5 -145t-151.5 -51q-72 0 -120 36.5 t-58 98.5q-35 -66 -100.5 -102.5t-149.5 -36.5q-100 0 -181 39.5t-128 110.5t-47 155zM336 1235q0 35 26 74l141 186q31 39 74 60.5t90 21.5q45 0 84 -20.5t64 -61.5l121 -205q16 -27 16 -57q0 -41 -34 -68.5t-81 -27.5q-39 0 -73.5 21.5t-55.5 64.5l-61 131l-78 -146 q-20 -37 -52 -55.5t-67 -18.5q-45 0 -79.5 29t-34.5 72zM438 336q0 -33 21.5 -53.5t58.5 -20.5q53 0 91 43t44 113v10h-53q-84 0 -123 -22.5t-39 -69.5z" />
<glyph unicode="&#xe3;" horiz-adv-x="1144" d="M33 287q0 119 56 189.5t179 104t326 33.5h76q6 115 -148 115q-45 0 -160 -29l-43 -10q-39 -16 -79 -16q-61 0 -98.5 38t-37.5 93q0 43 26 85t77 71q152 76 373 75q245 0 366 -104.5t121 -317.5q0 -25 -4 -73l-27 -359q-10 -94 -67.5 -145t-151.5 -51q-72 0 -120 36.5 t-58 98.5q-35 -66 -100.5 -102.5t-149.5 -36.5q-100 0 -181 39.5t-128 110.5t-47 155zM278 1286q0 53 31 109.5t82 92.5t108 36q49 0 88 -15.5t89 -44.5q37 -20 63.5 -31.5t52.5 -11.5q27 0 44.5 13.5t39.5 39.5q20 25 38 38.5t42 13.5q61 0 62 -95q0 -57 -32 -112t-84 -91 t-112 -36q-47 0 -86 15.5t-86 43.5q-39 23 -62.5 33t-49.5 10q-27 0 -44.5 -12t-41.5 -39q-23 -27 -39.5 -39t-42.5 -12q-29 0 -44.5 25.5t-15.5 68.5zM438 336q0 -33 21.5 -53.5t58.5 -20.5q53 0 91 43t44 113v10h-53q-84 0 -123 -22.5t-39 -69.5z" />
<glyph unicode="&#xe4;" horiz-adv-x="1144" d="M33 287q0 119 56 189.5t179 104t326 33.5h76q6 115 -148 115q-45 0 -160 -29l-43 -10q-39 -16 -79 -16q-61 0 -98.5 38t-37.5 93q0 43 26 85t77 71q152 76 373 75q245 0 366 -104.5t121 -317.5q0 -25 -4 -73l-27 -359q-10 -94 -67.5 -145t-151.5 -51q-72 0 -120 36.5 t-58 98.5q-35 -66 -100.5 -102.5t-149.5 -36.5q-100 0 -181 39.5t-128 110.5t-47 155zM268 1354q0 76 48.5 121t126.5 45q80 0 129 -45.5t49 -120.5q0 -78 -49.5 -124t-128.5 -46q-78 0 -126.5 46t-48.5 124zM438 336q0 -33 21.5 -53.5t58.5 -20.5q53 0 91 43t44 113v10h-53 q-84 0 -123 -22.5t-39 -69.5zM676 1354q0 76 48 121t130 45q76 0 125 -45.5t49 -120.5q0 -78 -48 -124t-126 -46q-82 0 -130 46t-48 124z" />
<glyph unicode="&#xe5;" horiz-adv-x="1144" d="M33 287q0 119 56 189.5t179 104t326 33.5h76q6 115 -148 115q-45 0 -160 -29l-43 -10q-39 -16 -79 -16q-61 0 -98.5 38t-37.5 93q0 43 26 85t77 71q152 76 373 75q245 0 366 -104.5t121 -317.5q0 -25 -4 -73l-27 -359q-10 -94 -67.5 -145t-151.5 -51q-72 0 -120 36.5 t-58 98.5q-35 -66 -100.5 -102.5t-149.5 -36.5q-100 0 -181 39.5t-128 110.5t-47 155zM416 1358q0 96 67.5 161.5t163.5 65.5t164 -65.5t68 -161.5t-68 -163t-164 -67t-163.5 66.5t-67.5 163.5zM438 336q0 -33 21.5 -53.5t58.5 -20.5q53 0 91 43t44 113v10h-53 q-84 0 -123 -22.5t-39 -69.5zM563 1358q0 -39 23.5 -63.5t60.5 -24.5q35 0 59.5 24.5t24.5 63.5q0 35 -24.5 61.5t-59.5 26.5q-37 0 -60.5 -25.5t-23.5 -62.5z" />
<glyph unicode="&#xe6;" horiz-adv-x="1687" d="M33 287q0 119 57 190.5t179 104t325 32.5h63q2 61 -31.5 88t-111.5 27q-41 0 -139 -27l-56 -12q-39 -16 -79 -16q-61 0 -98.5 38t-37.5 93q0 43 26 85t77 71q152 76 403 75q195 0 297 -98q127 98 293 98q131 0 229.5 -62.5t152.5 -178t54 -271.5q0 -47 -26.5 -74.5 t-73.5 -27.5h-477q29 -131 184 -131q41 0 68.5 5t55.5 15.5t44 14.5q33 16 70 16q51 0 80.5 -39t29.5 -96q0 -49 -22.5 -94t-67.5 -72q-53 -29 -130 -44t-165 -15q-133 0 -235.5 45t-167.5 129q-61 -84 -159.5 -129t-213.5 -45q-121 0 -211 39.5t-138 108.5t-48 157z M438 326q0 -29 22.5 -46.5t57.5 -17.5q49 0 85 41t40 105l2 20h-45q-162 0 -162 -102zM1059 614h231q-10 139 -106 140q-49 0 -81 -32t-44 -108z" />
<glyph unicode="&#xe7;" horiz-adv-x="1036" d="M49 481q0 172 74 297t210 191.5t322 66.5q201 0 322 -57q39 -18 57.5 -56t18.5 -83q0 -66 -35 -116t-92 -50q-35 0 -66 16q-115 29 -176 29q-94 0 -146.5 -58.5t-52.5 -166.5q0 -92 46.5 -143.5t125.5 -51.5q47 0 86 5t86 20q41 18 72 18q51 0 80 -39t29 -96 q0 -51 -23.5 -97.5t-68.5 -74.5q-53 -23 -134.5 -38t-152.5 -15q-174 0 -306 61t-204 175t-72 263zM305 -324q0 33 20.5 57.5t48.5 16.5q29 -6 62 -10t47 -4q47 0 68.5 10t21.5 33q0 14 -15.5 23.5t-39.5 9.5q-16 0 -38 -5.5t-32 -5.5q-25 0 -34 11.5t-3 29.5l43 199h189 l-31 -121h4q82 0 129 -38t47 -103q0 -86 -78.5 -136.5t-208.5 -50.5q-98 0 -153 19q-23 6 -35 24.5t-12 40.5z" />
<glyph unicode="&#xe8;" horiz-adv-x="1099" d="M49 483q0 156 68.5 283t189.5 198.5t268 71.5q225 0 351.5 -136t126.5 -376q0 -47 -27 -74.5t-74 -27.5h-493q29 -131 192 -131q45 0 74 6t57.5 15.5t42.5 13.5q35 16 70 16q51 0 81 -39t30 -96q0 -49 -22.5 -94t-68.5 -72q-53 -29 -129.5 -44t-167.5 -15 q-168 0 -296.5 62t-200.5 176t-72 263zM324 1452q0 53 42 89t95 36q41 0 78 -24.5t55 -73.5l76 -201q10 -27 10 -47q0 -41 -28.5 -66.5t-69.5 -25.5q-29 0 -57.5 14t-47.5 43l-120 162q-33 51 -33 94zM459 614h246q-4 70 -32 105t-85 35q-56 0 -86.5 -33t-42.5 -107z" />
<glyph unicode="&#xe9;" horiz-adv-x="1099" d="M49 483q0 156 68.5 283t189.5 198.5t268 71.5q225 0 351.5 -136t126.5 -376q0 -47 -27 -74.5t-74 -27.5h-493q29 -131 192 -131q45 0 74 6t57.5 15.5t42.5 13.5q35 16 70 16q51 0 81 -39t30 -96q0 -49 -22.5 -94t-68.5 -72q-53 -29 -129.5 -44t-167.5 -15 q-168 0 -296.5 62t-200.5 176t-72 263zM459 614h246q-4 70 -32 105t-85 35q-56 0 -86.5 -33t-42.5 -107zM565 1218q0 29 17 60l76 211q23 45 57.5 67.5t73.5 22.5q55 0 98 -38t43 -91q0 -51 -45 -103l-125 -157q-48 -53 -109 -53q-37 0 -61.5 22.5t-24.5 58.5z" />
<glyph unicode="&#xea;" horiz-adv-x="1099" d="M49 483q0 156 68.5 283t189.5 198.5t268 71.5q225 0 351.5 -136t126.5 -376q0 -47 -27 -74.5t-74 -27.5h-493q29 -131 192 -131q45 0 74 6t57.5 15.5t42.5 13.5q35 16 70 16q51 0 81 -39t30 -96q0 -49 -22.5 -94t-68.5 -72q-53 -29 -129.5 -44t-167.5 -15 q-168 0 -296.5 62t-200.5 176t-72 263zM322 1235q0 35 26 74l141 186q31 39 74 60.5t90 21.5q45 0 84 -20.5t64 -61.5l121 -205q16 -27 16 -57q0 -41 -34 -68.5t-81 -27.5q-39 0 -73.5 21.5t-55.5 64.5l-61 131l-78 -146q-20 -37 -52 -55.5t-67 -18.5q-45 0 -79.5 29 t-34.5 72zM459 614h246q-4 70 -32 105t-85 35q-56 0 -86.5 -33t-42.5 -107z" />
<glyph unicode="&#xeb;" horiz-adv-x="1099" d="M49 483q0 156 68.5 283t189.5 198.5t268 71.5q225 0 351.5 -136t126.5 -376q0 -47 -27 -74.5t-74 -27.5h-493q29 -131 192 -131q45 0 74 6t57.5 15.5t42.5 13.5q35 16 70 16q51 0 81 -39t30 -96q0 -49 -22.5 -94t-68.5 -72q-53 -29 -129.5 -44t-167.5 -15 q-168 0 -296.5 62t-200.5 176t-72 263zM254 1354q0 76 48.5 121t126.5 45q80 0 129 -45.5t49 -120.5q0 -78 -49.5 -124t-128.5 -46q-78 0 -126.5 46t-48.5 124zM459 614h246q-4 70 -32 105t-85 35q-56 0 -86.5 -33t-42.5 -107zM662 1354q0 76 48 121t130 45q76 0 125 -45.5 t49 -120.5q0 -78 -48 -124t-126 -46q-82 0 -130 46t-48 124z" />
<glyph unicode="&#xec;" horiz-adv-x="608" d="M62 1452q0 53 42 89t95 36q41 0 78 -24.5t55 -73.5l76 -201q10 -27 10 -47q0 -41 -28.5 -66.5t-69.5 -25.5q-29 0 -57.5 14t-47.5 43l-120 162q-33 51 -33 94zM66 182l53 652q8 98 72.5 148t156.5 50q90 0 147.5 -50t49.5 -148l-53 -652q-8 -96 -72 -146t-154 -50 q-92 0 -150.5 50t-49.5 146z" />
<glyph unicode="&#xed;" horiz-adv-x="608" d="M66 182l53 652q8 98 72.5 148t156.5 50q90 0 147.5 -50t49.5 -148l-53 -652q-8 -96 -72 -146t-154 -50q-92 0 -150.5 50t-49.5 146zM303 1218q0 29 17 60l76 211q23 45 57.5 67.5t73.5 22.5q55 0 98 -38t43 -91q0 -51 -45 -103l-125 -157q-48 -53 -109 -53 q-37 0 -61.5 22.5t-24.5 58.5z" />
<glyph unicode="&#xee;" horiz-adv-x="608" d="M60 1235q0 35 26 74l141 186q31 39 74 60.5t90 21.5q45 0 84 -20.5t64 -61.5l121 -205q16 -27 16 -57q0 -41 -34 -68.5t-81 -27.5q-39 0 -73.5 21.5t-55.5 64.5l-61 131l-78 -146q-20 -37 -52 -55.5t-67 -18.5q-45 0 -79.5 29t-34.5 72zM66 182l53 652q8 98 72.5 148 t156.5 50q90 0 147.5 -50t49.5 -148l-53 -652q-8 -96 -72 -146t-154 -50q-92 0 -150.5 50t-49.5 146z" />
<glyph unicode="&#xef;" horiz-adv-x="608" d="M-9 1354q0 76 48.5 121t126.5 45q80 0 129 -45.5t49 -120.5q0 -78 -49.5 -124t-128.5 -46q-78 0 -126.5 46t-48.5 124zM66 182l53 652q8 98 72.5 148t156.5 50q90 0 147.5 -50t49.5 -148l-53 -652q-8 -96 -72 -146t-154 -50q-92 0 -150.5 50t-49.5 146zM399 1354 q0 76 48 121t130 45q76 0 125 -45.5t49 -120.5q0 -78 -48 -124t-126 -46q-82 0 -130 46t-48 124z" />
<glyph unicode="&#xf0;" horiz-adv-x="1277" d="M45 444q0 150 72.5 260.5t195.5 169t271 58.5q74 0 133 -12.5t108 -47.5q-27 66 -71 125l-295 -61q-14 -4 -39 -4q-47 0 -74 28.5t-27 67.5q0 35 21.5 63.5t60.5 36.5l125 27q-53 18 -106 25q-59 12 -91 51t-32 86q0 59 47 103t129 44q37 0 55 -4q135 -14 250 -68.5 t203 -140.5l156 33q14 4 39 4q47 0 73.5 -28.5t26.5 -67.5q0 -35 -22.5 -63.5t-63.5 -38.5l-70 -15q117 -203 117 -428q0 -344 -167 -504.5t-443 -160.5q-178 0 -309.5 57t-202 161.5t-70.5 243.5zM465 455q0 -63 39 -110.5t112 -47.5q97 0 133.5 52t36.5 126 q0 70 -36.5 111t-114.5 41q-94 0 -132 -52.5t-38 -119.5z" />
<glyph unicode="&#xf1;" horiz-adv-x="1263" d="M66 182l53 658q6 84 70.5 138t160.5 54q72 0 119 -32.5t61 -88.5q53 59 136.5 92t185.5 33q168 0 253 -98t85 -289q0 -47 -2 -71l-33 -396q-8 -90 -67.5 -143t-159.5 -53q-98 0 -152.5 54t-46.5 142l33 381q4 70 -22.5 110t-84.5 40q-119 0 -133 -156l-30 -375 q-8 -90 -67.5 -143t-158.5 -53q-100 0 -152.5 53t-47.5 143zM336 1286q0 53 31 109.5t82 92.5t108 36q49 0 88 -15.5t89 -44.5q37 -20 63.5 -31.5t52.5 -11.5q27 0 44.5 13.5t39.5 39.5q20 25 38 38.5t42 13.5q61 0 62 -95q0 -57 -32 -112t-84 -91t-112 -36q-47 0 -86 15.5 t-86 43.5q-39 23 -62.5 33t-49.5 10q-27 0 -44.5 -12t-41.5 -39q-23 -27 -39.5 -39t-42.5 -12q-29 0 -44.5 25.5t-15.5 68.5z" />
<glyph unicode="&#xf2;" horiz-adv-x="1257" d="M49 487q0 172 73 296t204 188.5t305 64.5q176 0 307 -62.5t201.5 -176t70.5 -265.5q0 -172 -71.5 -295.5t-202.5 -189t-305 -65.5q-178 0 -309.5 62t-202 177t-70.5 266zM387 1452q0 53 42 89t95 36q41 0 78 -24.5t55 -73.5l76 -201q10 -27 10 -47q0 -41 -28.5 -66.5 t-69.5 -25.5q-29 0 -57.5 14t-47.5 43l-120 162q-33 51 -33 94zM469 481q0 -98 37 -143t115 -45q170 0 170 250q0 96 -35 139t-117 43q-170 0 -170 -244z" />
<glyph unicode="&#xf3;" horiz-adv-x="1257" d="M49 487q0 172 73 296t204 188.5t305 64.5q176 0 307 -62.5t201.5 -176t70.5 -265.5q0 -172 -71.5 -295.5t-202.5 -189t-305 -65.5q-178 0 -309.5 62t-202 177t-70.5 266zM469 481q0 -98 37 -143t115 -45q170 0 170 250q0 96 -35 139t-117 43q-170 0 -170 -244zM628 1218 q0 29 17 60l76 211q23 45 57.5 67.5t73.5 22.5q55 0 98 -38t43 -91q0 -51 -45 -103l-125 -157q-48 -53 -109 -53q-37 0 -61.5 22.5t-24.5 58.5z" />
<glyph unicode="&#xf4;" horiz-adv-x="1257" d="M49 487q0 172 73 296t204 188.5t305 64.5q176 0 307 -62.5t201.5 -176t70.5 -265.5q0 -172 -71.5 -295.5t-202.5 -189t-305 -65.5q-178 0 -309.5 62t-202 177t-70.5 266zM386 1235q0 35 26 74l141 186q31 39 74 60.5t90 21.5q45 0 84 -20.5t64 -61.5l121 -205 q16 -27 16 -57q0 -41 -34 -68.5t-81 -27.5q-39 0 -73.5 21.5t-55.5 64.5l-61 131l-78 -146q-20 -37 -52 -55.5t-67 -18.5q-45 0 -79.5 29t-34.5 72zM469 481q0 -98 37 -143t115 -45q170 0 170 250q0 96 -35 139t-117 43q-170 0 -170 -244z" />
<glyph unicode="&#xf5;" horiz-adv-x="1257" d="M49 487q0 172 73 296t204 188.5t305 64.5q176 0 307 -62.5t201.5 -176t70.5 -265.5q0 -172 -71.5 -295.5t-202.5 -189t-305 -65.5q-178 0 -309.5 62t-202 177t-70.5 266zM327 1286q0 53 31 109.5t82 92.5t108 36q49 0 88 -15.5t89 -44.5q37 -20 63.5 -31.5t52.5 -11.5 q27 0 44.5 13.5t39.5 39.5q20 25 38 38.5t42 13.5q61 0 62 -95q0 -57 -32 -112t-84 -91t-112 -36q-47 0 -86 15.5t-86 43.5q-39 23 -62.5 33t-49.5 10q-27 0 -44.5 -12t-41.5 -39q-23 -27 -39.5 -39t-42.5 -12q-29 0 -44.5 25.5t-15.5 68.5zM469 481q0 -98 37 -143t115 -45 q170 0 170 250q0 96 -35 139t-117 43q-170 0 -170 -244z" />
<glyph unicode="&#xf6;" horiz-adv-x="1257" d="M49 487q0 172 73 296t204 188.5t305 64.5q176 0 307 -62.5t201.5 -176t70.5 -265.5q0 -172 -71.5 -295.5t-202.5 -189t-305 -65.5q-178 0 -309.5 62t-202 177t-70.5 266zM317 1354q0 76 48.5 121t126.5 45q80 0 129 -45.5t49 -120.5q0 -78 -49.5 -124t-128.5 -46 q-78 0 -126.5 46t-48.5 124zM469 481q0 -98 37 -143t115 -45q170 0 170 250q0 96 -35 139t-117 43q-170 0 -170 -244zM725 1354q0 76 48 121t130 45q76 0 125 -45.5t49 -120.5q0 -78 -48 -124t-126 -46q-82 0 -130 46t-48 124z" />
<glyph unicode="&#xf7;" d="M119 580q0 66 44 108.5t107 42.5h723q55 0 91 -38t36 -93q0 -63 -44 -105t-105 -42h-723q-53 0 -91 36.5t-38 90.5zM438 199q0 57 41 99t101 42q59 0 99 -42t40 -99q0 -59 -40 -101.5t-99 -42.5q-60 0 -101 42t-41 102zM500 983q0 59 41 101t98 42q61 0 101 -42t40 -101 q0 -57 -41 -99t-100 -42q-57 0 -98 42t-41 99z" />
<glyph unicode="&#xf8;" horiz-adv-x="1257" d="M49 487q0 172 73 296t204 188.5t305 64.5q117 0 209 -26l53 80q35 53 98 53q43 0 75 -24.5t32 -61.5q0 -29 -19 -56l-53 -79q90 -66 137 -166.5t47 -223.5q0 -172 -71.5 -295.5t-202.5 -189t-305 -65.5q-109 0 -211 26l-55 -82q-31 -51 -95 -51q-43 0 -75.5 25.5 t-32.5 62.5q0 25 18 53l53 80q-90 68 -137 168.5t-47 222.5zM461 481q0 -27 2 -41l190 289h-14q-178 0 -178 -248zM606 291h15q182 0 182 252q0 29 -2 41z" />
<glyph unicode="&#xf9;" horiz-adv-x="1253" d="M74 362q0 45 2 70l33 404q8 88 70.5 142t162.5 54q98 0 149.5 -54t43.5 -142l-33 -381q-4 -70 21.5 -110t80.5 -40q57 0 89 42t38 116l31 373q8 88 69.5 142t161.5 54q99 0 151 -54t44 -142l-53 -656q-6 -84 -67.5 -139t-158.5 -55q-72 0 -121 33.5t-63 89.5 q-53 -59 -135 -93t-180 -34q-166 0 -251 97t-85 283zM381 1452q0 53 42 89t95 36q41 0 78 -24.5t55 -73.5l76 -201q10 -27 10 -47q0 -41 -28.5 -66.5t-69.5 -25.5q-29 0 -57.5 14t-47.5 43l-120 162q-33 51 -33 94z" />
<glyph unicode="&#xfa;" horiz-adv-x="1253" d="M74 362q0 45 2 70l33 404q8 88 70.5 142t162.5 54q98 0 149.5 -54t43.5 -142l-33 -381q-4 -70 21.5 -110t80.5 -40q57 0 89 42t38 116l31 373q8 88 69.5 142t161.5 54q99 0 151 -54t44 -142l-53 -656q-6 -84 -67.5 -139t-158.5 -55q-72 0 -121 33.5t-63 89.5 q-53 -59 -135 -93t-180 -34q-166 0 -251 97t-85 283zM622 1218q0 29 17 60l76 211q23 45 57.5 67.5t73.5 22.5q55 0 98 -38t43 -91q0 -51 -45 -103l-125 -157q-48 -53 -109 -53q-37 0 -61.5 22.5t-24.5 58.5z" />
<glyph unicode="&#xfb;" horiz-adv-x="1253" d="M74 362q0 45 2 70l33 404q8 88 70.5 142t162.5 54q98 0 149.5 -54t43.5 -142l-33 -381q-4 -70 21.5 -110t80.5 -40q57 0 89 42t38 116l31 373q8 88 69.5 142t161.5 54q99 0 151 -54t44 -142l-53 -656q-6 -84 -67.5 -139t-158.5 -55q-72 0 -121 33.5t-63 89.5 q-53 -59 -135 -93t-180 -34q-166 0 -251 97t-85 283zM379 1235q0 35 26 74l141 186q31 39 74 60.5t90 21.5q45 0 84 -20.5t64 -61.5l121 -205q16 -27 16 -57q0 -41 -34 -68.5t-81 -27.5q-39 0 -73.5 21.5t-55.5 64.5l-61 131l-78 -146q-20 -37 -52 -55.5t-67 -18.5 q-45 0 -79.5 29t-34.5 72z" />
<glyph unicode="&#xfc;" horiz-adv-x="1253" d="M74 362q0 45 2 70l33 404q8 88 70.5 142t162.5 54q98 0 149.5 -54t43.5 -142l-33 -381q-4 -70 21.5 -110t80.5 -40q57 0 89 42t38 116l31 373q8 88 69.5 142t161.5 54q99 0 151 -54t44 -142l-53 -656q-6 -84 -67.5 -139t-158.5 -55q-72 0 -121 33.5t-63 89.5 q-53 -59 -135 -93t-180 -34q-166 0 -251 97t-85 283zM311 1354q0 76 48.5 121t126.5 45q80 0 129 -45.5t49 -120.5q0 -78 -49.5 -124t-128.5 -46q-78 0 -126.5 46t-48.5 124zM719 1354q0 76 48 121t130 45q76 0 125 -45.5t49 -120.5q0 -78 -48 -124t-126 -46q-82 0 -130 46 t-48 124z" />
<glyph unicode="&#xfd;" horiz-adv-x="1124" d="M59 846q0 51 34 96t88.5 71.5t107.5 26.5t96 -29.5t64 -88.5l124 -394l179 390q28 61 76.5 90.5t103.5 29.5q76 0 135 -49t59 -119q0 -37 -22 -82l-553 -1054q-33 -59 -78 -89t-94 -30q-72 0 -123 49t-51 125q0 43 24 96l95 189l-256 723q-8 23 -9 49zM563 1218 q0 29 17 60l76 211q23 45 57.5 67.5t73.5 22.5q55 0 98 -38t43 -91q0 -51 -45 -103l-125 -157q-48 -53 -109 -53q-37 0 -61.5 22.5t-24.5 58.5z" />
<glyph unicode="&#xfe;" horiz-adv-x="1306" d="M35 -195l115 1463q6 86 67.5 141t159.5 55t152.5 -55t45.5 -141l-28 -338q102 106 276 106q127 0 224.5 -57t151.5 -167t54 -261q0 -164 -61.5 -293t-173 -202.5t-254.5 -73.5q-88 0 -155.5 27.5t-123.5 80.5l-24 -295q-6 -82 -66.5 -133t-154.5 -51q-98 0 -154.5 55 t-50.5 139zM506 508q0 -106 41 -160.5t117 -54.5q79 0 124.5 61.5t45.5 165.5q0 100 -43 152.5t-123 52.5q-74 0 -118 -60.5t-44 -156.5z" />
<glyph unicode="&#xff;" horiz-adv-x="1124" d="M59 846q0 51 34 96t88.5 71.5t107.5 26.5t96 -29.5t64 -88.5l124 -394l179 390q28 61 76.5 90.5t103.5 29.5q76 0 135 -49t59 -119q0 -37 -22 -82l-553 -1054q-33 -59 -78 -89t-94 -30q-72 0 -123 49t-51 125q0 43 24 96l95 189l-256 723q-8 23 -9 49zM251 1354 q0 76 48.5 121t126.5 45q80 0 129 -45.5t49 -120.5q0 -78 -49.5 -124t-128.5 -46q-78 0 -126.5 46t-48.5 124zM659 1354q0 76 48 121t130 45q76 0 125 -45.5t49 -120.5q0 -78 -48 -124t-126 -46q-82 0 -130 46t-48 124z" />
<glyph unicode="&#x131;" horiz-adv-x="608" d="M66 182l53 652q8 98 72.5 148t156.5 50q90 0 147.5 -50t49.5 -148l-53 -652q-8 -96 -72 -146t-154 -50q-92 0 -150.5 50t-49.5 146z" />
<glyph unicode="&#x152;" horiz-adv-x="2136" d="M100 682q0 242 99.5 413t286 260t446.5 89h1059q94 0 144 -41t50 -113q0 -94 -56 -138t-169 -44h-461l-16 -205h422q96 0 145 -40t49 -113q0 -94 -55 -138.5t-168 -44.5h-420l-18 -231h463q96 0 145 -41t49 -117q0 -92 -55 -135t-170 -43h-1043q-217 0 -381.5 84 t-255 238.5t-90.5 359.5zM539 680q0 -160 92 -252t256 -92h121l61 772h-96q-223 0 -328.5 -103.5t-105.5 -324.5z" />
<glyph unicode="&#x153;" horiz-adv-x="1830" d="M49 487q0 172 72 296t200 188.5t293 64.5q256 0 392 -125q131 125 337 125q129 0 228.5 -62.5t154 -178t54.5 -271.5q0 -47 -27 -74.5t-74 -27.5h-473q14 -70 60.5 -100.5t122.5 -30.5q41 0 66.5 5t54 15.5t44.5 14.5q33 16 70 16q51 0 81 -39t30 -96q0 -49 -22.5 -94 t-67.5 -72q-55 -29 -131 -44t-162 -15q-219 0 -361 137q-131 -137 -385 -137q-166 0 -292 63.5t-195.5 178t-69.5 263.5zM469 481q0 -98 37 -143t115 -45q90 0 125.5 71.5t35.5 178.5q0 96 -34.5 139t-108.5 43q-170 0 -170 -244zM1206 614h230q-12 139 -107 140 q-103 -1 -123 -140z" />
<glyph unicode="&#x178;" horiz-adv-x="1363" d="M78 1233q0 55 32.5 106.5t85 83t105.5 31.5q88 0 141 -80l271 -395l346 412q59 71 145 71q78 0 137.5 -60.5t59.5 -139.5q0 -76 -55 -140l-433 -497l-32 -416q-8 -109 -75 -166t-163 -57q-98 0 -155.5 55t-49.5 162l33 426l-360 506q-33 45 -33 98zM399 1733 q0 74 48 117.5t126 43.5q80 0 129 -44t49 -117q0 -78 -49 -124t-129 -46q-78 0 -126 46t-48 124zM807 1733q0 74 48 117.5t130 43.5q76 0 125 -44t49 -117q0 -78 -48 -124t-126 -46q-82 0 -130 46t-48 124z" />
<glyph unicode="&#x192;" d="M-66 -238q0 74 59.5 131.5t158.5 57.5h16q35 0 64.5 32.5t39.5 86.5l213 727h-112q-47 0 -82 30.5t-35 77.5q0 55 41 89t94 34h162q72 231 221.5 329.5t310.5 98.5h45q84 0 128.5 -42t44.5 -103q0 -74 -58.5 -131.5t-157.5 -57.5h-16q-31 0 -57.5 -26.5t-40.5 -67.5h106 q49 0 85 -32.5t36 -80.5q0 -53 -42 -85.5t-97 -32.5h-156l-215 -736q-68 -240 -220.5 -340t-319.5 -100h-46q-82 0 -126 41t-44 100z" />
<glyph unicode="&#x2c6;" horiz-adv-x="657" d="M82 1231q0 35 27 74l141 186q31 39 74 60.5t90 21.5q45 0 84 -20.5t63 -61.5l121 -205q16 -27 16 -57q0 -41 -33.5 -68.5t-80.5 -27.5q-39 0 -74 21.5t-55 64.5l-62 131l-78 -146q-20 -37 -52 -55.5t-66 -18.5q-45 0 -80 29t-35 72z" />
<glyph unicode="&#x2c7;" horiz-adv-x="657" d="M94 1475q0 41 34 67.5t81 26.5q39 0 73.5 -21.5t55.5 -64.5l59 -133l80 145q39 74 119 74q45 0 80 -29t35 -70q0 -35 -27 -73l-143 -185q-29 -41 -73 -62.5t-91 -21.5q-45 0 -83 21.5t-63 62.5l-118 203q-18 31 -19 60z" />
<glyph unicode="&#x2d8;" horiz-adv-x="663" d="M25 1458q0 41 30.5 67.5t71.5 26.5q53 0 82 -47q31 -43 87 -71.5t118 -28.5q119 0 196 100q35 49 90 49q37 0 64 -24.5t27 -63.5q0 -27 -11 -49q-45 -104 -147.5 -171.5t-233.5 -67.5q-129 0 -225 66.5t-141 172.5q-8 18 -8 41z" />
<glyph unicode="&#x2d9;" horiz-adv-x="696" d="M209 1350q0 82 55 129t152 47q92 0 149.5 -48t57.5 -128q0 -82 -56.5 -131.5t-150.5 -49.5t-150.5 49.5t-56.5 131.5z" />
<glyph unicode="&#x2da;" horiz-adv-x="634" d="M154 1354q0 96 67.5 161.5t163.5 65.5t163.5 -65.5t67.5 -161.5t-67.5 -163t-163.5 -67t-163.5 66.5t-67.5 163.5zM301 1354q0 -39 23.5 -63.5t60.5 -24.5q35 0 59.5 24.5t24.5 63.5q0 35 -24.5 61.5t-59.5 26.5q-37 0 -60.5 -25.5t-23.5 -62.5z" />
<glyph unicode="&#x2db;" horiz-adv-x="649" d="M-82 -184q0 111 89 185.5t257 94.5l29 -76q-141 -47 -141 -147q0 -43 29.5 -69.5t76.5 -26.5q35 0 84 14q6 2 16 2q25 0 40.5 -20.5t15.5 -48.5q0 -23 -11.5 -45.5t-33.5 -34.5q-90 -51 -181 -52q-122 0 -196 62.5t-74 161.5z" />
<glyph unicode="&#x2dc;" horiz-adv-x="649" d="M23 1282q0 53 30.5 109.5t81.5 92.5t109 36q49 0 88 -15.5t88 -44.5q37 -20 63.5 -31.5t53.5 -11.5t44 13.5t40 39.5q20 25 37.5 38.5t41.5 13.5q61 0 62 -95q0 -57 -32 -112t-84 -91t-111 -36q-48 0 -86.5 15.5t-86.5 43.5q-39 23 -62.5 33t-49.5 10q-27 0 -44.5 -12 t-41.5 -39q-23 -27 -39 -39t-43 -12q-29 0 -44 25.5t-15 68.5z" />
<glyph unicode="&#x2dd;" horiz-adv-x="653" d="M176 1202q0 8 4 29l41 233q10 55 45 84t76 29q43 0 75 -28.5t32 -75.5q0 -37 -21 -78l-109 -219q-12 -25 -32.5 -38.5t-40.5 -13.5q-29 0 -49.5 21.5t-20.5 56.5zM477 1202q0 8 4 29l41 233q10 55 45 84t76 29q43 0 74 -27.5t31 -74.5q0 -37 -23 -80l-104 -219 q-13 -25 -33.5 -38.5t-40.5 -13.5q-29 0 -49.5 21.5t-20.5 56.5z" />
<glyph unicode="&#x3a9;" horiz-adv-x="1716" d="M55 164q0 98 54.5 141t171.5 43h86q-150 209 -203 324.5t-53 230.5q0 170 98 298t279.5 196.5t422.5 68.5q362 0 561 -137t199 -383q0 -133 -89 -273.5t-253 -324.5h88q195 1 195 -153q0 -104 -55.5 -149.5t-170.5 -45.5h-352q-78 0 -120 43t-42 113q0 88 62 176 q129 207 188.5 311.5t84 171t24.5 125.5q0 94 -78 141t-242 47q-174 0 -268 -62t-94 -189q0 -59 44 -174t167 -373q35 -76 35 -140q0 -84 -52.5 -137t-140.5 -53h-352q-195 0 -195 164z" />
<glyph unicode="&#x3c0;" horiz-adv-x="1323" d="M-6 844q0 88 50 128t159 40h950q176 0 176 -144q0 -86 -49 -127t-156 -41h-32l-31 -362q-2 -18 13.5 -32.5t45.5 -16.5q72 -6 115 -44t43 -87q0 -68 -74 -118t-213 -52q-352 -14 -352 342q0 43 2 65l25 305h-17q-18 -162 -49 -300t-88 -273q-29 -72 -90.5 -109.5 t-130.5 -37.5q-82 0 -140.5 48t-58.5 128q0 29 10 65q49 156 77 258.5t46 220.5h-51q-180 0 -180 144z" />
<glyph unicode="&#x400;" horiz-adv-x="1232" d="M92 172l2 29l82 1040q10 96 66.5 149.5t154.5 53.5h690q96 0 145.5 -41t49.5 -113q0 -96 -55.5 -139t-169.5 -43h-463l-16 -205h423q96 0 145.5 -40t49.5 -113q0 -94 -54.5 -138.5t-166.5 -44.5h-424l-19 -231h467q96 0 145.5 -41t49.5 -117q0 -92 -56.5 -135t-168.5 -43 h-690q-90 0 -138.5 45t-48.5 127zM485 1790q0 45 40 78t91 33q66 0 96 -58l88 -160q12 -20 13 -45q0 -35 -28 -58.5t-64 -23.5q-47 0 -82 37l-119 121q-35 35 -35 76z" />
<glyph unicode="&#x401;" horiz-adv-x="1232" d="M92 172l2 29l82 1040q10 96 66.5 149.5t154.5 53.5h690q96 0 145.5 -41t49.5 -113q0 -96 -55.5 -139t-169.5 -43h-463l-16 -205h423q96 0 145.5 -40t49.5 -113q0 -94 -54.5 -138.5t-166.5 -44.5h-424l-19 -231h467q96 0 145.5 -41t49.5 -117q0 -92 -56.5 -135t-168.5 -43 h-690q-90 0 -138.5 45t-48.5 127zM401 1733q0 74 48 117.5t126 43.5q80 0 129 -44t49 -117q0 -78 -49 -124t-129 -46q-78 0 -126 46t-48 124zM809 1733q0 74 48 117.5t130 43.5q76 0 125 -44t49 -117q0 -78 -48 -124t-126 -46q-82 0 -130 46t-48 124z" />
<glyph unicode="&#x402;" horiz-adv-x="1650" d="M45 1253q0 80 64.5 135.5t158.5 55.5h856q84 0 136.5 -44t54.5 -116q0 -82 -64.5 -138t-160.5 -56h-211l-21 -203q109 12 250 12q242 0 365.5 -95t134.5 -272q10 -207 -77 -348t-282 -196q-43 -12 -80 -13q-84 0 -135 47.5t-51 110.5q0 51 36 98.5t107 75.5q53 43 54 109 q0 25 -6.5 47t-8.5 29q-6 57 -56 80.5t-116 23.5q-29 0 -79 -12.5t-87 -26.5l-34 -350q-10 -100 -75 -160.5t-163 -60.5q-92 0 -144.5 50t-52.5 138q0 23 2 33l86 883h-210q-84 0 -136.5 45t-54.5 118z" />
<glyph unicode="&#x403;" horiz-adv-x="1226" d="M94 207l82 1034q8 90 67.5 146.5t151.5 56.5h674q190 0 191 -170q2 -80 -48.5 -126t-146.5 -46h-467l-72 -895q-10 -100 -72.5 -160.5t-160.5 -60.5t-152.5 60t-46.5 161zM688 1640q0 31 20 60l103 147q37 55 94 56q47 0 86 -36t39 -81t-41 -84l-135 -111 q-35 -32 -80 -32q-35 0 -60.5 23.5t-25.5 57.5z" />
<glyph unicode="&#x404;" horiz-adv-x="1398" d="M100 662q0 229 96.5 412t274.5 286.5t416 103.5q145 0 245.5 -35.5t194.5 -103.5q90 -74 90 -166q0 -70 -50 -121t-118 -51q-61 0 -112 43q-63 45 -122 65.5t-122 20.5q-141 0 -222 -54t-110 -163h428q76 0 115 -43t39 -104q0 -70 -49.5 -126.5t-135.5 -56.5h-391 q59 -246 289 -245q82 0 203 38q55 25 102 25q68 0 109 -43t41 -108q0 -57 -38 -115t-114 -98q-178 -47 -317 -48q-33 0 -49 2q-217 14 -374 103.5t-238 239t-81 342.5z" />
<glyph unicode="&#x405;" horiz-adv-x="1388" d="M41 246q0 66 41 115t106 49q55 0 111 -33q10 -2 71.5 -19.5t142.5 -30t157 -12.5q201 0 200 80q0 53 -61 84t-188 68q-150 45 -248.5 89t-170 130t-71.5 223q0 141 81 249t228.5 167t341.5 59q154 0 285 -31.5t201 -78.5q37 -27 55 -65t18 -79q0 -70 -44 -121t-115 -51 q-51 0 -111 33q-10 2 -62.5 18.5t-116 27.5t-122.5 11q-92 0 -147.5 -25.5t-55.5 -72.5q0 -49 57.5 -77.5t186.5 -65.5q152 -43 251 -86t172 -128t73 -224q0 -225 -170 -347t-486 -122q-155 0 -293.5 27.5t-220.5 68.5q-47 29 -71.5 75t-24.5 95z" />
<glyph unicode="&#x406;" horiz-adv-x="673" d="M92 176l2 27l82 1032q8 100 71.5 159.5t166.5 59.5q96 0 150 -50t54 -136l-2 -27l-81 -1032q-8 -102 -72 -162.5t-168 -60.5q-94 0 -148.5 51t-54.5 139z" />
<glyph unicode="&#x407;" horiz-adv-x="673" d="M57 1733q0 74 48 117.5t126 43.5q80 0 129 -44t49 -117q0 -78 -49 -124t-129 -46q-78 0 -126 46t-48 124zM92 176l2 27l82 1032q8 100 71.5 159.5t166.5 59.5q96 0 150 -50t54 -136l-2 -27l-81 -1032q-8 -102 -72 -162.5t-168 -60.5q-94 0 -148.5 51t-54.5 139zM465 1733 q0 74 48 117.5t130 43.5q76 0 125 -44t49 -117q0 -78 -48 -124t-126 -46q-82 0 -130 46t-48 124z" />
<glyph unicode="&#x408;" horiz-adv-x="858" d="M-66 156q0 90 46.5 131t140.5 47l67 4q49 4 76 29.5t29 78.5l63 793q10 98 75 156.5t165 58.5t156.5 -58.5t48.5 -156.5l-60 -784q-16 -215 -139 -333t-346 -132l-66 -4q-133 -9 -194.5 33t-61.5 137z" />
<glyph unicode="&#x409;" horiz-adv-x="2228" d="M0 139q0 61 39 122t115 101q96 55 138 164t58 305l31 408q10 100 66.5 152.5t156.5 52.5h717q98 0 142 -43t44 -125l-2 -33l-26 -321h241q227 0 350 -100.5t123 -286.5q0 -258 -161.5 -396.5t-440.5 -138.5h-417q-96 0 -140.5 40t-44.5 124q0 25 2 37l72 901h-268 l-15 -193q-28 -362 -145 -565t-307 -307q-96 -51 -168 -51q-74 0 -117 44t-43 109zM1434 330h172q96 0 136 35.5t40 113.5q0 59 -39 87t-117 28h-174z" />
<glyph unicode="&#x40a;" horiz-adv-x="2213" d="M92 174l2 27l82 1034q8 102 70.5 162.5t163.5 60.5q100 0 153 -58.5t45 -158.5l-26 -336h452l25 330q10 102 72.5 162.5t162.5 60.5q92 0 145.5 -51t53.5 -139l-2 -27l-25 -336h246q229 0 348 -103.5t119 -293.5q0 -20 -4 -70q-27 -217 -184.5 -327.5t-405.5 -110.5h-424 q-90 0 -140 55.5t-44 145.5l31 358h-453l-29 -350q-10 -102 -72.5 -162.5t-160.5 -60.5q-94 0 -147.5 51t-53.5 137zM1421 330h178q78 0 116 30.5t50 85.5q4 25 4 31q0 100 -151 101h-178z" />
<glyph unicode="&#x40b;" horiz-adv-x="1691" d="M45 1251q0 88 61.5 140.5t159.5 52.5h854q90 0 142.5 -43t52.5 -117q0 -90 -60.5 -142t-160.5 -52h-211l-17 -218q33 10 105.5 18.5t103.5 8.5q498 0 498 -405q0 -39 -2 -60l-17 -227q-10 -100 -72.5 -160.5t-160.5 -60.5t-152.5 60t-46.5 161l11 137q4 53 4 72 q0 74 -40 110.5t-155 36.5q0 -2 -37 -6t-63 -12l-31 -338q-8 -100 -70.5 -160.5t-160.5 -60.5q-99 0 -154 60t-47 161l72 883h-211q-90 0 -142.5 43t-52.5 118z" />
<glyph unicode="&#x40c;" horiz-adv-x="1579" d="M90 205l86 1034q8 98 71.5 158.5t164.5 60.5q98 0 151 -59.5t45 -159.5l-28 -334h79l385 473q66 80 154 80q78 0 138.5 -56t60.5 -132q0 -70 -56 -131l-286 -324q63 -35 96 -65.5t55.5 -68.5t65.5 -128q8 -14 24 -51l101 -219q23 -45 22 -95q0 -84 -66.5 -143t-150.5 -59 q-55 0 -104 30.5t-78 92.5l-146 323q-27 66 -74.5 97.5t-146.5 31.5h-100l-31 -356q-8 -98 -71.5 -158.5t-163.5 -60.5q-99 0 -152 59t-45 160zM838 1640q0 31 20 60l103 147q37 55 94 56q47 0 86 -36t39 -81t-41 -84l-135 -111q-35 -32 -80 -32q-35 0 -60.5 23.5 t-25.5 57.5z" />
<glyph unicode="&#x40d;" horiz-adv-x="1593" d="M90 186l86 1051q8 100 71.5 160.5t160.5 60.5q100 0 154 -60.5t46 -160.5l-51 -602l479 661q68 88 127.5 125t161.5 37q92 0 155.5 -56t57.5 -145l-86 -1050q-8 -100 -71.5 -160.5t-159.5 -60.5q-98 0 -153.5 60t-47.5 161l51 602l-446 -625q-82 -106 -161 -152t-185 -46 q-90 0 -142.5 55t-46.5 145zM602 1790q0 45 40 78t91 33q66 0 96 -58l88 -160q12 -20 13 -45q0 -35 -28 -58.5t-64 -23.5q-47 0 -82 37l-119 121q-35 35 -35 76z" />
<glyph unicode="&#x40e;" horiz-adv-x="1454" d="M152 1270q0 78 58 133t134 55q51 0 97 -29.5t79 -93.5l240 -479l280 483q33 60 83.5 88.5t103.5 28.5q80 0 138 -52t58 -132q0 -59 -34 -117l-609 -1051q-33 -57 -82 -84.5t-102 -27.5q-78 0 -138.5 53t-60.5 129q0 55 31 107l117 202l-369 695q-25 47 -24 92zM383 1905 q0 59 36 96t81 37q33 0 60.5 -20.5t43.5 -59.5q27 -74 81 -110t126 -36t135.5 37t108.5 111q25 39 55.5 59.5t62.5 20.5q41 0 70 -29t29 -78q0 -39 -21 -82q-51 -115 -171 -187.5t-292 -72.5q-170 0 -271 72t-126 184q-8 27 -8 58z" />
<glyph unicode="&#x40f;" horiz-adv-x="1587" d="M92 172l2 29l82 1036q8 100 70.5 160.5t161.5 60.5q100 0 154 -59.5t46 -161.5l-71 -895h487l70 895q10 100 72.5 160.5t160.5 60.5t152.5 -60.5t46.5 -160.5l-82 -1036q-8 -96 -63.5 -148.5t-153.5 -52.5h-273l-18 -219q-10 -100 -68.5 -159.5t-148.5 -59.5 q-86 0 -136.5 51t-50.5 139l3 29l18 219h-274q-90 0 -138.5 44t-48.5 128z" />
<glyph unicode="&#x410;" horiz-adv-x="1579" d="M10 168q0 49 29 98l590 1059q35 66 100.5 100.5t136.5 34.5q72 0 131.5 -34.5t83.5 -96.5l432 -1081q13 -37 13 -68q0 -82 -67.5 -136t-149.5 -54q-55 0 -99.5 28.5t-64.5 85.5l-62 172h-602l-86 -167q-31 -59 -80 -88t-104 -29q-78 0 -139.5 50t-61.5 126zM647 604h322 l-131 377z" />
<glyph unicode="&#x411;" horiz-adv-x="1355" d="M94 213l82 1012q6 98 71.5 158.5t162.5 60.5h710q98 0 151.5 -47t53.5 -113q0 -74 -62.5 -128t-172.5 -54h-492l-14 -160h262q225 0 349 -108.5t124 -303.5q0 -25 -4 -73q-25 -211 -176.5 -334t-388.5 -123h-461q-94 0 -147.5 58.5t-47.5 154.5zM537 330h178q92 0 142 43 t50 131q0 59 -38 85.5t-117 26.5h-195z" />
<glyph unicode="&#x412;" horiz-adv-x="1435" d="M92 197l84 1044q10 98 65.5 150.5t153.5 52.5h510q162 0 273.5 -49t168 -132t56.5 -188q0 -119 -60.5 -198.5t-185.5 -128.5q109 -33 170.5 -127.5t61.5 -212.5q0 -195 -152 -301.5t-403 -106.5h-560q-96 0 -143 50t-39 147zM532 330h261q102 0 146 24.5t44 94.5 q0 61 -39 90.5t-127 29.5h-266zM578 899h219q106 0 145 20.5t39 81.5q0 55 -37 84t-123 29h-227z" />
<glyph unicode="&#x413;" horiz-adv-x="1226" d="M94 207l82 1034q8 90 67.5 146.5t151.5 56.5h674q190 0 191 -170q2 -80 -48.5 -126t-146.5 -46h-467l-72 -895q-10 -100 -72.5 -160.5t-160.5 -60.5t-152.5 60t-46.5 161z" />
<glyph unicode="&#x414;" horiz-adv-x="1732" d="M-18 -164l24 303q8 98 65.5 150.5t153.5 52.5h41q68 180 99.5 371.5t52.5 425.5l6 102q8 98 65.5 150.5t153.5 52.5h713q96 0 145 -52.5t41 -150.5l-72 -899h3q90 0 139 -45t49 -129l-2 -29l-25 -303q-8 -98 -66.5 -158.5t-150.5 -60.5t-142 59.5t-42 159.5l14 164h-850 l-14 -164q-6 -98 -65.5 -158.5t-151.5 -60.5q-90 0 -140.5 59.5t-43.5 159.5zM623 340h415l60 768h-305l2 43q-20 -254 -59.5 -441.5t-112.5 -369.5z" />
<glyph unicode="&#x415;" horiz-adv-x="1232" d="M92 172l2 29l82 1040q10 96 66.5 149.5t154.5 53.5h690q96 0 145.5 -41t49.5 -113q0 -96 -55.5 -139t-169.5 -43h-463l-16 -205h423q96 0 145.5 -40t49.5 -113q0 -94 -54.5 -138.5t-166.5 -44.5h-424l-19 -231h467q96 0 145.5 -41t49.5 -117q0 -92 -56.5 -135t-168.5 -43 h-690q-90 0 -138.5 45t-48.5 127z" />
<glyph unicode="&#x416;" horiz-adv-x="2336" d="M106 178q0 49 31 101l123 208q55 94 98 146.5t80 78t105 60.5l61 31l-213 348q-31 53 -31 102q0 55 31 102.5t79 75t99 27.5q43 0 82 -22.5t66 -69.5l252 -473h41l26 346q8 98 71.5 158.5t162.5 60.5q98 0 152.5 -59.5t45.5 -159.5l-26 -346h26l338 471q33 47 77 69.5 t89 22.5q76 0 134.5 -54t58.5 -130q0 -68 -49 -131l-267 -338q8 -4 55.5 -29.5t93.5 -96.5t89 -190l70 -206q18 -55 18 -101q0 -88 -56.5 -141t-133.5 -53q-66 0 -124.5 42t-91.5 126l-100 282q-27 72 -70 102.5t-141 30.5h-41l-31 -364q-8 -98 -70.5 -158.5t-160.5 -60.5 t-153.5 59t-47.5 160l31 364h-43q-100 0 -160.5 -32.5t-95.5 -100.5l-178 -334q-31 -57 -80 -84.5t-104 -27.5q-84 0 -151 54t-67 134z" />
<glyph unicode="&#x417;" horiz-adv-x="1323" d="M45 262q0 66 48 112t122 46q57 0 115 -29q90 -37 144 -43t138 -6q182 0 209 78q6 31 6 57q0 47 -33.5 68.5t-121.5 21.5h-137q-90 0 -139.5 48.5t-49.5 115.5q0 68 47 118t127 50h139q74 0 112 9.5t53.5 27.5t23.5 53l2 21q0 61 -57.5 89.5t-157.5 28.5q-78 0 -144.5 -8 t-136.5 -35q-63 -31 -116 -30q-74 0 -122 48t-48 114q0 49 29.5 94t88.5 78q109 53 240 70.5t293 17.5q180 0 313 -50.5t204 -140.5t71 -209q0 -127 -65.5 -216t-188.5 -120q111 -47 166 -120.5t55 -180.5q0 -129 -76 -230t-215 -158.5t-328 -57.5q-162 0 -278.5 18.5 t-220.5 77.5q-55 35 -83 80t-28 92z" />
<glyph unicode="&#x418;" horiz-adv-x="1593" d="M90 186l86 1051q8 100 71.5 160.5t160.5 60.5q100 0 154 -60.5t46 -160.5l-51 -602l479 661q68 88 127.5 125t161.5 37q92 0 155.5 -56t57.5 -145l-86 -1050q-8 -100 -71.5 -160.5t-159.5 -60.5q-98 0 -153.5 60t-47.5 161l51 602l-446 -625q-82 -106 -161 -152t-185 -46 q-90 0 -142.5 55t-46.5 145z" />
<glyph unicode="&#x419;" horiz-adv-x="1593" d="M90 186l86 1051q8 100 71.5 160.5t160.5 60.5q100 0 154 -60.5t46 -160.5l-51 -602l479 661q68 88 127.5 125t161.5 37q92 0 155.5 -56t57.5 -145l-86 -1050q-8 -100 -71.5 -160.5t-159.5 -60.5q-98 0 -153.5 60t-47.5 161l51 602l-446 -625q-82 -106 -161 -152t-185 -46 q-90 0 -142.5 55t-46.5 145zM471 1905q0 59 36 96t81 37q33 0 60.5 -20.5t43.5 -59.5q27 -74 81 -110t126 -36t135.5 37t108.5 111q25 39 55.5 59.5t62.5 20.5q41 0 70 -29t29 -78q0 -39 -21 -82q-51 -115 -171 -187.5t-292 -72.5q-170 0 -271 72t-126 184q-8 27 -8 58z" />
<glyph unicode="&#x41a;" horiz-adv-x="1579" d="M90 205l86 1034q8 98 71.5 158.5t164.5 60.5q98 0 151 -59.5t45 -159.5l-28 -334h79l385 473q66 80 154 80q78 0 138.5 -56t60.5 -132q0 -70 -56 -131l-286 -324q63 -35 96 -65.5t55.5 -68.5t65.5 -128q8 -14 24 -51l101 -219q23 -45 22 -95q0 -84 -66.5 -143t-150.5 -59 q-55 0 -104 30.5t-78 92.5l-146 323q-27 66 -74.5 97.5t-146.5 31.5h-100l-31 -356q-8 -98 -71.5 -158.5t-163.5 -60.5q-99 0 -152 59t-45 160z" />
<glyph unicode="&#x41b;" horiz-adv-x="1572" d="M4 182q0 49 26.5 94.5t80.5 77.5q111 76 170 177.5t75 289.5l31 420q10 98 65.5 150.5t153.5 52.5h721q98 0 146.5 -52.5t39.5 -150.5l-81 -1034q-10 -100 -73 -160.5t-161 -60.5t-152.5 60t-46.5 161l72 895h-270l-15 -203q-20 -250 -84.5 -418t-165 -275.5 t-245.5 -182.5q-51 -29 -105 -29q-78 0 -130 57.5t-52 130.5z" />
<glyph unicode="&#x41c;" horiz-adv-x="1726" d="M96 182l86 1055q8 98 69.5 157.5t154.5 59.5q129 0 194 -141l277 -600l376 594q92 145 217 145q93 0 146 -61.5t45 -159.5l-84 -1045q-10 -92 -64.5 -146t-140.5 -54q-84 0 -135 54t-43 142l37 463l-189 -301q-49 -80 -95 -112.5t-109 -32.5q-61 0 -103.5 32.5 t-77.5 108.5l-143 281l-35 -435q-6 -90 -63.5 -145t-145.5 -55q-84 0 -132 53t-42 143z" />
<glyph unicode="&#x41d;" horiz-adv-x="1601" d="M92 176l2 27l82 1032q8 100 70.5 159.5t163.5 59.5q100 0 153 -58.5t45 -154.5l-26 -336h501l27 330q8 100 70.5 159.5t162.5 59.5q101 0 154 -58.5t45 -154.5l-82 -1032q-10 -100 -72.5 -161.5t-162.5 -61.5q-92 0 -145.5 51t-53.5 139l2 27l29 358h-502l-29 -352 q-10 -100 -72.5 -161.5t-162.5 -61.5q-92 0 -145.5 51t-53.5 139z" />
<glyph unicode="&#x41e;" horiz-adv-x="1650" d="M100 682q0 233 93.5 411.5t263.5 275.5t393 97t389 -86t256 -244.5t90 -373.5q0 -233 -93 -411.5t-262 -276t-392 -97.5q-224 0 -390.5 86.5t-257 245t-90.5 373.5zM539 684q0 -180 75.5 -275.5t219.5 -95.5q145 0 229 119t84 330q0 176 -77 272t-214 96 q-150 0 -233.5 -118.5t-83.5 -327.5z" />
<glyph unicode="&#x41f;" horiz-adv-x="1562" d="M90 205l82 1024q10 96 72.5 155.5t158.5 59.5h902q96 0 151 -60.5t47 -154.5l-82 -1022q-8 -100 -70.5 -160.5t-160.5 -60.5t-153.5 60t-47.5 161l72 895h-467l-72 -895q-8 -100 -70.5 -160.5t-160.5 -60.5q-101 0 -155 59t-46 160z" />
<glyph unicode="&#x420;" horiz-adv-x="1406" d="M94 203l82 1038q10 96 66.5 149.5t154.5 53.5h504q236 0 370 -119t134 -324q0 -238 -138.5 -368.5t-402.5 -130.5h-305l-22 -293q-10 -104 -74 -163.5t-168 -59.5q-100 0 -154.5 59t-46.5 158zM586 827h231q178 1 178 148q0 76 -37.5 107.5t-119.5 31.5h-230z" />
<glyph unicode="&#x421;" horiz-adv-x="1390" d="M100 682q0 236 99.5 413t281 273t418.5 96q164 0 354 -61l47 -12q57 -35 85 -82t28 -99q0 -70 -46 -121t-116 -51q-47 0 -102 31q-10 2 -57 14q-109 33 -168 33q-182 0 -279.5 -115.5t-97.5 -316.5q0 -176 73.5 -266t217.5 -90q45 0 86 9t100 28q55 16 74 20q45 23 90 23 q66 0 106.5 -45.5t40.5 -110.5q0 -47 -23.5 -93t-70.5 -81q-55 -33 -170 -65.5t-237 -32.5q-228 0 -393 86t-253 244.5t-88 371.5z" />
<glyph unicode="&#x422;" horiz-adv-x="1314" d="M45 1249q0 104 55.5 149.5t169.5 45.5h930q195 0 195 -164q0 -104 -54.5 -147t-171.5 -43h-239l-72 -881q-10 -100 -74.5 -159.5t-167.5 -59.5q-100 0 -156.5 58t-45.5 155l71 887h-245q-195 0 -195 159z" />
<glyph unicode="&#x423;" horiz-adv-x="1454" d="M152 1270q0 78 58 133t134 55q51 0 97 -29.5t79 -93.5l240 -479l280 483q33 60 83.5 88.5t103.5 28.5q80 0 138 -52t58 -132q0 -59 -34 -117l-609 -1051q-33 -57 -82 -84.5t-102 -27.5q-78 0 -138.5 53t-60.5 129q0 55 31 107l117 202l-369 695q-25 47 -24 92z" />
<glyph unicode="&#x424;" horiz-adv-x="1914" d="M102 707q-10 156 69 278.5t237.5 191t377.5 68.5h25l4 51q10 98 73.5 159t162.5 61q92 0 145 -51.5t53 -139.5l-2 -29l-4 -47h12q166 2 297 -57t209 -165.5t90 -240.5q11 -174 -73 -309t-245 -209.5t-370 -79.5h-4l-2 -38q-8 -98 -71.5 -159t-163.5 -61 q-98 0 -151.5 59.5t-45.5 160.5l4 40l-33 -2q-160 -2 -292 64.5t-211.5 186.5t-90.5 268zM541 741q0 -29 2 -43q8 -86 46 -138t81 -73.5t63 -19.5h17l41 528h-23q-113 -4 -170 -78.5t-57 -175.5zM1182 471h2q106 4 168.5 81t62.5 193q0 78 -32.5 136.5t-77.5 88t-80 27.5z " />
<glyph unicode="&#x425;" horiz-adv-x="1429" d="M49 174q0 78 57 143l371 416l-297 391q-39 53 -39 113q0 57 32 108.5t83 83t104 31.5q80 0 136 -74l264 -350l317 348q61 74 148 74q76 0 132 -57.5t56 -132.5q0 -76 -59 -144l-365 -401l328 -404q41 -53 41 -116q0 -55 -32 -106.5t-83 -82t-104 -30.5q-78 0 -131 69 l-299 383l-326 -379q-63 -76 -147 -75q-76 0 -131.5 56t-55.5 136z" />
<glyph unicode="&#x426;" horiz-adv-x="1650" d="M92 174l2 29l82 1034q8 100 70.5 160.5t161.5 60.5q100 0 154 -59.5t46 -161.5l-71 -895h417l72 895q8 100 70.5 160.5t160.5 60.5q100 0 154.5 -59.5t46.5 -161.5l-72 -895h3q98 0 147 -52t41 -151l-27 -303q-8 -98 -66.5 -158.5t-150.5 -60.5t-142 59.5t-42 159.5 l14 164h-882q-90 0 -139.5 45t-49.5 129z" />
<glyph unicode="&#x427;" horiz-adv-x="1435" d="M141 874q0 37 2 56l23 307q8 100 71.5 160.5t161.5 60.5t152.5 -60.5t46.5 -160.5l-16 -217q-16 -219 221 -219q6 0 40 -1t68 9l33 428q8 100 70.5 160.5t163.5 60.5q98 0 152 -60.5t46 -160.5l-82 -1030q-8 -100 -70.5 -160.5t-160.5 -60.5q-100 0 -154.5 59t-46.5 162 l23 276q-23 -6 -98.5 -12t-118.5 -6q-244 0 -385.5 99.5t-141.5 309.5z" />
<glyph unicode="&#x428;" horiz-adv-x="2113" d="M92 174l2 29l82 1034q8 100 70.5 160.5t161.5 60.5q100 0 154 -59.5t46 -161.5l-71 -895h290l70 895q10 100 72.5 160.5t160.5 60.5t153.5 -60.5t47.5 -160.5l-71 -895h288l72 895q10 100 72.5 160.5t160.5 60.5t152.5 -60.5t46.5 -160.5l-82 -1034q-8 -98 -64.5 -150.5 t-154.5 -52.5h-1470q-91 0 -140 45t-49 129z" />
<glyph unicode="&#x429;" horiz-adv-x="2244" d="M92 174l2 29l82 1034q8 100 70.5 160.5t161.5 60.5q100 0 154 -59.5t46 -161.5l-71 -895h290l70 895q10 100 72.5 160.5t160.5 60.5t153.5 -60.5t47.5 -160.5l-71 -895h288l72 895q10 100 72.5 160.5t160.5 60.5t152.5 -60.5t46.5 -160.5l-72 -895h5q98 0 146 -52 t40 -151l-25 -303q-10 -100 -67.5 -159.5t-149.5 -59.5q-86 0 -136 51t-50 139l2 29l14 164h-1478q-90 0 -139.5 45t-49.5 129z" />
<glyph unicode="&#x42a;" horiz-adv-x="1615" d="M45 1260q0 82 61.5 133t157.5 51h424q88 0 136 -44t48 -128l-2 -29l-24 -321h260q229 0 352 -101.5t123 -292.5q0 -256 -164 -392t-440 -136h-436q-99 0 -146 52t-39 149l72 901h-197q-84 0 -135 43t-51 115zM799 330h192q88 0 132 30.5t44 108.5q0 66 -38.5 95.5 t-116.5 29.5h-193z" />
<glyph unicode="&#x42b;" horiz-adv-x="1957" d="M92 170l2 29l80 1036q8 104 78 162.5t158 58.5t146 -58.5t50 -160.5l-24 -315h241q445 -1 445 -394q0 -260 -149.5 -394t-424.5 -134h-418q-88 0 -136 44t-48 126zM520 330h189q88 0 132 30.5t44 108.5q0 82 -39 120t-117 38h-188zM1386 207l82 1030q9 100 71.5 160.5 t160.5 60.5q100 0 154.5 -59.5t46.5 -161.5l-82 -1030q-8 -100 -70.5 -160.5t-163.5 -60.5q-98 0 -152.5 60t-46.5 161z" />
<glyph unicode="&#x42c;" horiz-adv-x="1384" d="M92 168l2 31l82 1036q8 100 71.5 161.5t162.5 61.5q98 0 152 -58.5t46 -158.5l-26 -319h292q229 0 352.5 -101.5t123.5 -292.5q0 -256 -164 -392t-441 -136h-469q-90 0 -137 43t-47 125zM537 330h223q90 0 133 33.5t43 117.5q0 59 -39 86t-117 27h-225z" />
<glyph unicode="&#x42d;" horiz-adv-x="1347" d="M10 213q0 70 49.5 124t122.5 54q45 0 90 -22q84 -31 126 -36t106 -5q121 0 201.5 66.5t113.5 174.5h-356q-86 0 -128 50.5t-36 117.5q4 63 55.5 112.5t137.5 49.5h329q-31 123 -101.5 170t-174.5 47q-70 0 -170 -6q-31 -8 -64 -8q-74 0 -114.5 45t-40.5 108 q0 59 34.5 111.5t102.5 79.5q109 16 260 16q225 0 391 -86t253 -239.5t87 -352.5q0 -244 -103.5 -427t-281.5 -281.5t-393 -98.5q-104 0 -210 21.5t-185 52.5q-51 29 -76 72t-25 90z" />
<glyph unicode="&#x42e;" horiz-adv-x="2265" d="M92 176l2 27l82 1032q8 100 71.5 161.5t162.5 61.5q98 0 152 -59.5t46 -157.5l-28 -336h178q37 178 142.5 305t252.5 191.5t311 64.5q222 0 388.5 -86t257 -244.5t90.5 -373.5q0 -233 -93.5 -411.5t-263.5 -276t-393 -97.5q-330 0 -499 166t-203 430v-12h-195l-27 -352 q-10 -100 -72.5 -161.5t-162.5 -61.5q-92 0 -145.5 51t-53.5 139zM1174 684q0 -180 70.5 -275.5t201.5 -95.5q145 0 230 119t85 330q0 176 -76.5 272t-214.5 96q-137 0 -216.5 -119.5t-79.5 -326.5z" />
<glyph unicode="&#x42f;" horiz-adv-x="1478" d="M98 168q0 61 39 117l76 114q51 78 133 127t154 70q-145 33 -227.5 143.5t-82.5 251.5q0 137 77 239.5t213 158t308 55.5h447q90 0 138 -45t48 -129l-2 -29l-80 -1034q-10 -100 -72.5 -160.5t-160.5 -60.5t-152.5 60t-46.5 161l23 295h-60q-127 0 -196 -109l-195 -299 q-33 -53 -81 -78.5t-101 -25.5q-80 0 -139.5 51t-59.5 127zM600 971q0 -63 47 -103.5t146 -40.5h170l20 287h-156q-227 0 -227 -143z" />
<glyph unicode="&#x430;" horiz-adv-x="1185" d="M53 287q0 119 56 189.5t179 104t326 33.5h76q6 115 -148 115q-45 0 -160 -29l-43 -10q-39 -16 -79 -16q-61 0 -98.5 38t-37.5 93q0 43 26 85t77 71q152 76 373 75q245 0 366 -104.5t121 -317.5q0 -25 -4 -73l-27 -359q-10 -94 -67.5 -145t-151.5 -51q-72 0 -120 36.5 t-58 98.5q-35 -66 -100.5 -102.5t-149.5 -36.5q-100 0 -181 39.5t-128 110.5t-47 155zM458 336q0 -33 21.5 -53.5t58.5 -20.5q53 0 91 43t44 113v10h-53q-84 0 -123 -22.5t-39 -69.5z" />
<glyph unicode="&#x431;" horiz-adv-x="1310" d="M84 477q0 250 56.5 421t176 283.5t314.5 184.5q217 76 350 119q55 18 100 18q63 0 101.5 -32.5t38.5 -81.5t-38 -99.5t-110 -87.5q-78 -41 -157.5 -71.5t-202.5 -67.5q-117 -35 -181.5 -78t-97.5 -111.5t-49 -185.5q59 137 183 206t241 69q219 0 327.5 -110t108.5 -296 q0 -180 -86 -310t-232.5 -197.5t-326.5 -67.5q-516 0 -516 495zM502 430q0 -72 32.5 -102.5t96.5 -30.5q86 0 138 56.5t52 152.5q0 164 -141 164q-100 0 -139 -62.5t-39 -177.5z" />
<glyph unicode="&#x432;" d="M78 190l49 607q6 100 62.5 157.5t150.5 57.5h418q178 0 281.5 -69t103.5 -177q0 -82 -52.5 -146.5t-140.5 -93.5q96 -33 141.5 -85t45.5 -130q0 -156 -124 -233.5t-329 -77.5h-410q-98 -2 -150 49t-46 141zM444 250h226q49 0 74.5 18.5t33.5 63.5q4 29 4 39q0 29 -14 41 t-51 12h-260zM473 612h217q49 0 67.5 12.5t24.5 47.5q2 8 2 24q0 35 -19.5 50.5t-57.5 15.5h-222z" />
<glyph unicode="&#x433;" horiz-adv-x="991" d="M78 184l51 617q2 98 59.5 154.5t149.5 56.5h461q84 0 131 -38t47 -106q2 -88 -47 -128t-156 -40h-227l-43 -516q-8 -92 -68.5 -145t-161.5 -53q-98 0 -151 53t-45 145z" />
<glyph unicode="&#x434;" horiz-adv-x="1409" d="M-4 -80l14 180q6 98 63.5 154.5t151.5 56.5h-6q45 102 58.5 191.5t21.5 202.5l8 96q2 98 59.5 154.5t149.5 56.5h494q98 2 150 -50.5t44 -142.5l-41 -508h-18q90 -4 137 -54t39 -138l-16 -199q-8 -92 -63.5 -145.5t-145.5 -53.5q-82 0 -129 46.5t-47 126.5l2 26l6 80 h-541l-8 -80q-8 -92 -63.5 -145.5t-145.5 -53.5q-88 0 -135 54.5t-39 144.5zM526 309h244l33 422h-189q-4 -152 -20 -258t-68 -164z" />
<glyph unicode="&#x435;" horiz-adv-x="1140" d="M69 483q0 156 68.5 283t189.5 198.5t268 71.5q225 0 351.5 -136t126.5 -376q0 -47 -27 -74.5t-74 -27.5h-493q29 -131 192 -131q45 0 74 6t57.5 15.5t42.5 13.5q35 16 70 16q51 0 81 -39t30 -96q0 -49 -22.5 -94t-68.5 -72q-53 -29 -129.5 -44t-167.5 -15 q-168 0 -296.5 62t-200.5 176t-72 263zM479 614h246q-4 70 -32 105t-85 35q-56 0 -86.5 -33t-42.5 -107z" />
<glyph unicode="&#x436;" horiz-adv-x="1867" d="M78 166q0 45 24 96l4 21q61 129 118 190.5t163 93.5l-108 172q-35 53 -35 109q0 70 52 119t122 49q45 0 87 -24.5t70 -76.5l156 -276h14l19 184q8 94 68.5 151.5t150.5 57.5q92 0 144.5 -56t43.5 -149l-18 -188h57l158 270q39 57 88 86t100 29q70 0 120 -45t50 -111 q0 -59 -47 -125l-135 -190q74 -33 109 -90t71 -180v-25q11 -36 11 -63q0 -57 -33 -105.5t-84 -76t-105 -27.5q-55 0 -98 30.5t-61 94.5l-21 102q-16 70 -38.5 113t-82.5 43h-84l-16 -176q-8 -94 -63.5 -150.5t-147.5 -56.5t-148.5 57t-47.5 150l16 176h-80q-51 0 -76.5 -33 t-41 -71t-21.5 -52l-37 -98q-31 -63 -82 -96t-109 -33q-78 0 -137 51t-59 129z" />
<glyph unicode="&#x437;" horiz-adv-x="1193" d="M96 217q0 53 42 91t104 38q53 0 102 -29q98 -49 211 -49q59 0 98 16.5t39 45.5q0 43 -9 54t-46 11h-68h-151q-55 0 -86 34t-31 81q0 49 30.5 83t88.5 34h174q76 0 93.5 13t16 29.5t-1.5 22.5q0 49 -33.5 71.5t-88.5 22.5q-51 0 -111.5 -18t-110.5 -47q-63 -39 -116 -39 t-86 33t-33 82q0 43 27.5 86t85.5 75q145 96 378 97q160 0 272.5 -39t169 -105.5t56.5 -146.5q0 -84 -55.5 -148.5t-151.5 -93.5q102 -37 147.5 -84t45.5 -116q0 -90 -68.5 -164t-191.5 -115t-275 -41q-123 0 -215 21.5t-168 64.5q-84 55 -84 129z" />
<glyph unicode="&#x438;" horiz-adv-x="1349" d="M78 178l51 651q8 92 67.5 147.5t149.5 55.5q82 0 132 -48t50 -128l-2 -27l-24 -299l282 318q76 86 109 118.5t75 49t109 16.5q99 0 151 -50t44 -140l-51 -652q-8 -92 -65.5 -148t-147.5 -56q-84 0 -135.5 49t-51.5 131l2 24l25 299l-283 -329q-61 -76 -103 -112t-84 -49 t-106 -13q-98 0 -150 50t-44 142z" />
<glyph unicode="&#x439;" horiz-adv-x="1349" d="M119 178l51 651q8 92 67.5 147.5t149.5 55.5q82 0 132 -48t50 -128l-2 -27l-24 -299l282 318q76 86 109 118.5t75 49t109 16.5q99 0 151 -50t44 -140l-51 -652q-8 -92 -65.5 -148t-147.5 -56q-84 0 -135.5 49t-51.5 131l2 24l25 299l-283 -329q-61 -76 -103 -112t-84 -49 t-106 -13q-98 0 -150 50t-44 142zM370 1479q0 49 31 81.5t70 32.5q47 0 73 -51q29 -53 86.5 -86t124.5 -33q61 0 123 34t109 85q41 49 88 49q35 0 57.5 -25.5t22.5 -64.5q0 -59 -55.5 -132t-150.5 -123t-212 -50q-98 0 -176 38t-126 95.5t-60 114.5q-4 12 -5 35z" />
<glyph unicode="&#x43a;" horiz-adv-x="1290" d="M113 182l65 654q8 90 69.5 143t160.5 53q98 0 151 -53t45 -143l-20 -177h34l203 291q70 90 170 90q74 0 130.5 -51t56.5 -125q0 -70 -54 -131l-161 -198q78 -57 133 -199l24 -94q16 -45 17 -78q0 -80 -61.5 -132t-139.5 -52q-57 0 -106.5 30.5t-75.5 93.5l-56 160 q-14 41 -41.5 65.5t-89.5 24.5h-10l-18 -172q-8 -90 -70.5 -143t-161.5 -53q-98 0 -150.5 53t-43.5 143z" />
<glyph unicode="&#x43b;" horiz-adv-x="1259" d="M-2 139q0 49 30.5 93t90.5 73q63 27 81.5 83t24.5 163q0 23 4 67l15 179q6 100 62 157.5t151 57.5h532q90 2 142.5 -42t52.5 -124l-2 -25l-52 -635q-6 -94 -68.5 -147t-162.5 -53q-98 0 -149.5 52t-44.5 142l45 520h-129l-7 -69q-16 -217 -62 -347t-116.5 -197 t-175.5 -99q-41 -16 -86 -17q-76 0 -126 50.5t-50 117.5z" />
<glyph unicode="&#x43c;" horiz-adv-x="1488" d="M78 156l2 22l49 643q8 98 62.5 154.5t146.5 56.5q90 0 154.5 -34.5t107.5 -125.5l152 -319l182 285q68 106 130 150t153 44q98 0 150 -51t44 -141l-49 -662q-10 -82 -68.5 -137t-140.5 -55q-80 0 -118 54t-31 142l28 357l-135 -228q-6 -10 -29.5 -50t-53.5 -56.5 t-73 -16.5q-70 0 -103.5 29t-66.5 94l-110 219l-25 -348q-6 -86 -54 -141t-126 -55t-128 48t-50 122z" />
<glyph unicode="&#x43d;" horiz-adv-x="1316" d="M78 160l2 24l49 652q8 90 68.5 143t160.5 53q98 0 151.5 -53t45.5 -143l-12 -162h252l12 162q8 90 68.5 143t160.5 53q98 0 151.5 -53t45.5 -143l-43 -629q-10 -100 -72.5 -160.5t-161.5 -60.5q-98 0 -152 60t-46 161l10 143h-252l-10 -166q-10 -92 -70.5 -145 t-159.5 -53q-92 0 -145 46t-53 128z" />
<glyph unicode="&#x43e;" horiz-adv-x="1298" d="M69 487q0 172 73 296t204 188.5t305 64.5q176 0 307 -62.5t201.5 -176t70.5 -265.5q0 -172 -71.5 -295.5t-202.5 -189t-305 -65.5q-178 0 -309.5 62t-202 177t-70.5 266zM489 481q0 -98 37 -143t115 -45q170 0 170 250q0 96 -35 139t-117 43q-170 0 -170 -244z" />
<glyph unicode="&#x43f;" horiz-adv-x="1294" d="M78 184l51 617q2 96 60.5 153.5t148.5 57.5h686q96 2 149.5 -50.5t45.5 -142.5l-52 -635q-8 -92 -69.5 -145t-159.5 -53q-100 0 -152.5 53t-44.5 145l43 516h-237l-43 -516q-8 -92 -68.5 -145t-161.5 -53q-98 0 -151 53t-45 145z" />
<glyph unicode="&#x440;" horiz-adv-x="1347" d="M55 -195l80 1031q6 88 64.5 142t156.5 54q76 0 124 -33.5t66 -93.5q49 63 124 97t173 34q127 0 224.5 -57t151.5 -167t54 -261q0 -164 -61.5 -293t-173 -202.5t-254.5 -73.5q-88 0 -155.5 27.5t-123.5 80.5l-24 -295q-6 -82 -66.5 -133t-154.5 -51q-98 0 -154.5 55 t-50.5 139zM526 508q0 -106 41 -160.5t117 -54.5q79 0 124.5 61.5t45.5 165.5q0 100 -43 152.5t-123 52.5q-74 0 -118 -60.5t-44 -156.5z" />
<glyph unicode="&#x441;" horiz-adv-x="1077" d="M69 481q0 172 74 297t210 191.5t322 66.5q201 0 322 -57q39 -18 57.5 -56t18.5 -83q0 -66 -35 -116t-92 -50q-35 0 -66 16q-115 29 -176 29q-94 0 -146.5 -58.5t-52.5 -166.5q0 -92 46.5 -143.5t125.5 -51.5q47 0 86 5t86 20q41 18 72 18q51 0 80 -39t29 -96 q0 -51 -23.5 -97.5t-68.5 -74.5q-53 -23 -134.5 -38t-152.5 -15q-174 0 -306 61t-204 175t-72 263z" />
<glyph unicode="&#x442;" horiz-adv-x="1132" d="M90 840q0 78 49 125t129 47h680q70 0 110 -38t40 -102q0 -78 -48.5 -125t-125.5 -47h-127l-43 -516q-8 -92 -69.5 -145t-160.5 -53q-98 0 -151.5 53t-44.5 145l43 516h-127q-70 0 -112 38t-42 102z" />
<glyph unicode="&#x443;" horiz-adv-x="1165" d="M79 846q0 51 34 96t88.5 71.5t107.5 26.5t96 -29.5t64 -88.5l124 -394l179 390q28 61 76.5 90.5t103.5 29.5q76 0 135 -49t59 -119q0 -37 -22 -82l-553 -1054q-33 -59 -78 -89t-94 -30q-72 0 -123 49t-51 125q0 43 24 96l95 189l-256 723q-8 23 -9 49z" />
<glyph unicode="&#x444;" horiz-adv-x="1665" d="M68 451q0 170 87 301t229 200.5t298 61.5l18 241q10 92 66.5 148.5t148.5 56.5q90 0 139.5 -56t41.5 -149l-19 -237q117 -6 235 -53t200.5 -151.5t82.5 -272.5q0 -256 -152.5 -400.5t-447.5 -150.5l-14 -174q-8 -90 -64.5 -145.5t-148.5 -55.5t-141 55.5t-41 145.5 l14 172q-115 4 -235.5 46t-208.5 144.5t-88 272.5zM426 451q0 -91 48 -129.5t149 -40.5l34 440q-113 2 -172 -69.5t-59 -200.5zM1018 287q90 4 139 27.5t70.5 80t21.5 160.5q0 78 -45 123t-151 49z" />
<glyph unicode="&#x445;" horiz-adv-x="1183" d="M28 158q0 82 74 153l237 207l-188 189q-51 59 -51 129q0 80 61.5 140t141.5 60t143 -71l172 -183l201 179q72 72 155 71q70 0 120 -50t50 -120q0 -78 -69 -145l-224 -197l201 -207q51 -59 51 -125q0 -80 -62.5 -141t-139.5 -61q-80 0 -144 71l-184 201l-223 -205 q-68 -68 -148 -67q-72 0 -123 50t-51 122z" />
<glyph unicode="&#x446;" horiz-adv-x="1386" d="M78 193l51 643q8 90 68.5 143t160.5 53q98 0 151.5 -53t45.5 -143l-39 -525h199l39 525q10 90 70.5 143t158.5 53q92 0 145.5 -46t53.5 -126l-2 -24l-39 -525h-17q88 -2 134.5 -54t39.5 -138l-14 -199q-10 -92 -65.5 -145.5t-145.5 -53.5q-88 0 -136 54.5t-40 144.5l4 80 h-629q-96 -2 -147 49t-47 144z" />
<glyph unicode="&#x447;" horiz-adv-x="1173" d="M57 614l17 209q6 90 66.5 143.5t160.5 53.5q98 0 152.5 -53.5t48.5 -143.5l-10 -133q-4 -29 -5 -43q0 -37 22.5 -58.5t82.5 -21.5q45 0 57 11l19 245q6 90 66.5 143.5t160.5 53.5q98 0 151.5 -53.5t47.5 -143.5l-50 -639q-6 -92 -66 -145t-159 -53q-100 0 -153.5 53 t-47.5 145l7 88q-39 -10 -170 -10q-180 0 -295 88t-103 264z" />
<glyph unicode="&#x448;" horiz-adv-x="1800" d="M82 193l49 643q6 88 66.5 142t150.5 54q92 0 144.5 -54t44.5 -142l-43 -525h198l43 525q8 88 63.5 142t137.5 54q90 0 137 -53t41 -143l-39 -525h201l41 525q10 90 67.5 143t147.5 53q88 0 139 -47t51 -125l-2 -24l-49 -625q-2 -94 -60.5 -152.5t-146.5 -58.5h-1188 q-94 0 -147 52t-47 141z" />
<glyph unicode="&#x449;" horiz-adv-x="1929" d="M82 193l49 643q6 88 67.5 142t155.5 54q90 0 139.5 -53t43.5 -143l-39 -525h198l39 525q6 88 62.5 142t138.5 54q90 0 139 -53t43 -143l-39 -525h199l33 525q6 88 64.5 142t148.5 54q96 0 149 -53t47 -143l-37 -525h-38q94 0 147 -52t47 -140l-14 -199 q-6 -90 -63.5 -144.5t-145.5 -54.5q-86 0 -134 54.5t-42 144.5l2 80h-1166q-96 0 -148 53t-46 140z" />
<glyph unicode="&#x44a;" horiz-adv-x="1359" d="M90 848q0 63 44 113.5t116 50.5h328q76 2 119.5 -41t43.5 -121q0 -18 -2 -29l-8 -96h174q197 0 304.5 -75t107.5 -232q0 -125 -64.5 -220.5t-174 -146.5t-242.5 -51h-314q-98 -2 -149 48t-45 142l43 525h-148q-63 0 -98 39t-35 94zM690 274h117q57 0 90 37t33 99 q0 43 -29 64.5t-78 21.5h-116z" />
<glyph unicode="&#x44b;" horiz-adv-x="1710" d="M78 190l51 644q8 92 69.5 145t161.5 53q98 0 150.5 -52t44.5 -142l-8 -113h143q412 0 412 -297q0 -125 -65.5 -223.5t-177 -151.5t-243.5 -53h-346q-96 -2 -148 49t-44 141zM504 274h127q57 0 88 38t31 102q0 49 -28 65.5t-75 16.5h-127zM1157 184l49 652q6 90 67.5 143 t162.5 53q98 0 150 -53t46 -143l-49 -652q-6 -92 -68.5 -145t-160.5 -53q-99 0 -151 53t-46 145z" />
<glyph unicode="&#x44c;" horiz-adv-x="1185" d="M78 190l51 644q8 92 69.5 145t161.5 53q98 0 150.5 -52t44.5 -142l-8 -113h151q444 0 445 -309q0 -125 -71 -219.5t-189.5 -145.5t-257.5 -51h-355q-96 -2 -148 49t-44 141zM506 274h125q55 0 90 33t35 90q0 53 -32 76t-79 23h-123z" />
<glyph unicode="&#x44d;" horiz-adv-x="1146" d="M102 199q0 53 36 91t91 38q47 0 99 -33q106 -63 200 -64q84 0 141.5 48.5t78.5 138.5h-281q-66 0 -102.5 37t-36.5 86q0 45 32.5 76.5t92.5 31.5h282q-53 141 -209 142q-78 0 -178 -39q-55 -27 -102 -27q-49 0 -79 26.5t-30 67.5q0 35 24.5 72t74.5 67q65 39 149 59.5 t172 20.5q143 0 269 -53t205 -162.5t79 -271.5q0 -172 -82 -304t-218 -204t-292 -72q-176 0 -334 95q-41 27 -61.5 61.5t-20.5 71.5z" />
<glyph unicode="&#x44e;" horiz-adv-x="1787" d="M78 160l2 24l49 652q8 90 68.5 143t160.5 53q98 0 151.5 -53t45.5 -143l-12 -162h90q53 172 198.5 267t339.5 95q265 0 407 -136t142 -368q0 -166 -78.5 -290.5t-218 -192t-313.5 -67.5q-203 0 -329 98t-163 270h-102l-10 -166q-10 -92 -70.5 -145t-159.5 -53 q-92 0 -145 46t-53 128zM1026 481q0 -98 33 -143t102 -45q139 0 139 250q0 96 -28.5 139t-91.5 43q-86 0 -120 -69.5t-34 -174.5z" />
<glyph unicode="&#x44f;" horiz-adv-x="1222" d="M41 117q0 51 31 106q66 80 146.5 136.5t150.5 70.5q-70 -2 -132.5 38t-100.5 106.5t-38 136.5q0 156 126 228.5t345 72.5h377q98 0 152.5 -51.5t46.5 -141.5l-51 -637q-10 -96 -57.5 -146t-141.5 -50q-100 0 -153.5 53t-45.5 143l6 86h9q-45 0 -77 -5t-56 -30l-164 -188 q-41 -49 -90.5 -73.5t-100.5 -24.5q-76 0 -129 49t-53 121zM49 195l39 55l-16 -27q2 2 -23 -28zM88 250q2 0 2 1v1zM487 635q0 -47 27 -69.5t55 -22.5h160l14 190h-157q-53 0 -76 -22.5t-23 -75.5z" />
<glyph unicode="&#x450;" horiz-adv-x="1140" d="M69 483q0 156 68.5 283t189.5 198.5t268 71.5q225 0 351.5 -136t126.5 -376q0 -47 -27 -74.5t-74 -27.5h-493q29 -131 192 -131q45 0 74 6t57.5 15.5t42.5 13.5q35 16 70 16q51 0 81 -39t30 -96q0 -49 -22.5 -94t-68.5 -72q-53 -29 -129.5 -44t-167.5 -15 q-168 0 -296.5 62t-200.5 176t-72 263zM344 1452q0 53 42 89t95 36q41 0 78 -24.5t55 -73.5l76 -201q10 -27 10 -47q0 -41 -28.5 -66.5t-69.5 -25.5q-29 0 -57.5 14t-47.5 43l-120 162q-33 51 -33 94zM479 614h246q-4 70 -32 105t-85 35q-56 0 -86.5 -33t-42.5 -107z" />
<glyph unicode="&#x451;" horiz-adv-x="1140" d="M69 483q0 156 68.5 283t189.5 198.5t268 71.5q225 0 351.5 -136t126.5 -376q0 -47 -27 -74.5t-74 -27.5h-493q29 -131 192 -131q45 0 74 6t57.5 15.5t42.5 13.5q35 16 70 16q51 0 81 -39t30 -96q0 -49 -22.5 -94t-68.5 -72q-53 -29 -129.5 -44t-167.5 -15 q-168 0 -296.5 62t-200.5 176t-72 263zM274 1354q0 76 48.5 121t126.5 45q80 0 129 -45.5t49 -120.5q0 -78 -49.5 -124t-128.5 -46q-78 0 -126.5 46t-48.5 124zM479 614h246q-4 70 -32 105t-85 35q-56 0 -86.5 -33t-42.5 -107zM682 1354q0 76 48 121t130 45q76 0 125 -45.5 t49 -120.5q0 -78 -48 -124t-126 -46q-82 0 -130 46t-48 124z" />
<glyph unicode="&#x452;" horiz-adv-x="1464" d="M33 1096q0 49 38 80.5t93 31.5h108l4 54q6 90 69 143t161 53t151.5 -53t44.5 -143l-4 -54h297q55 0 94 -31.5t41 -80.5q0 -49 -37.5 -81t-95.5 -32h-317l-21 -250q131 143 332 144q158 0 249 -105.5t91 -353.5q0 -270 -87 -428t-257 -279q-51 -27 -102 -26 q-78 0 -133.5 54t-55.5 126q0 96 101 155q68 68 101.5 149t33.5 189q0 123 -38 159t-103 36q-37 0 -75 -25.5t-62.5 -69.5t-22.5 -100l-15 -176q-4 -90 -67.5 -143t-161.5 -53t-151.5 53t-45.5 143l64 801h-86q-57 0 -95 30.5t-40 82.5z" />
<glyph unicode="&#x453;" horiz-adv-x="991" d="M119 184l51 617q2 98 59.5 154.5t149.5 56.5h461q84 0 131 -38t47 -106q2 -88 -47 -128t-156 -40h-227l-43 -516q-8 -92 -68.5 -145t-161.5 -53q-98 0 -151 53t-45 145zM532 1210q0 29 17 60l76 211q23 45 57.5 67.5t73.5 22.5q55 0 98 -38t43 -91q0 -51 -45 -103 l-125 -157q-48 -53 -109 -53q-37 0 -61.5 22.5t-24.5 58.5z" />
<glyph unicode="&#x454;" horiz-adv-x="1073" d="M70 481q0 172 73.5 297t209.5 191.5t323 66.5q121 0 181.5 -5t107.5 -27q53 -25 80.5 -64t27.5 -82q0 -53 -39 -93t-102 -40q-43 0 -82 16q-25 10 -76 11l-69 -2q-70 0 -126.5 -27t-89.5 -74h244q66 0 99.5 -30.5t33.5 -73.5q0 -51 -43 -89t-118 -38h-252q23 -68 82 -109 t143 -41l47 -2q14 -2 43 -2q45 0 82 12q43 18 78 19q49 0 76.5 -33t27.5 -82q0 -45 -24.5 -88t-69.5 -72q-86 -39 -287 -38q-174 0 -306 61t-203.5 175t-71.5 263z" />
<glyph unicode="&#x455;" horiz-adv-x="1052" d="M20 197q0 61 40 107t99 46q37 0 76 -20q61 -25 145 -41.5t152 -16.5q86 0 86 29q0 23 -36 38t-113 34q-115 31 -191 60.5t-133 93t-57 165.5q0 98 62.5 177t178 123t269.5 44q57 0 142 -13t142 -32q53 -27 79 -69.5t26 -90.5q0 -59 -36 -102t-91 -43q-33 0 -64 14 q-63 27 -120.5 37.5t-120.5 10.5q-45 0 -71 -7.5t-26 -19.5q0 -25 36 -40t116 -36q111 -29 187.5 -60.5t134 -95t57.5 -163.5q0 -164 -127 -254t-369 -90q-188 0 -350 53q-61 25 -92 68.5t-31 93.5z" />
<glyph unicode="&#x456;" horiz-adv-x="649" d="M86 182l53 652q8 98 72.5 148t156.5 50q90 0 147.5 -50t49.5 -148l-53 -652q-8 -96 -72 -146t-154 -50q-92 0 -150.5 50t-49.5 146zM185 1354q0 82 55 129t151 47q92 0 149.5 -48t57.5 -128q0 -82 -56 -131.5t-151 -49.5q-94 0 -150 49.5t-56 131.5z" />
<glyph unicode="&#x457;" horiz-adv-x="649" d="M12 1354q0 76 48.5 121t126.5 45q80 0 129 -45.5t49 -120.5q0 -78 -49.5 -124t-128.5 -46q-78 0 -126.5 46t-48.5 124zM86 182l53 652q8 98 72.5 148t156.5 50q90 0 147.5 -50t49.5 -148l-53 -652q-8 -96 -72 -146t-154 -50q-92 0 -150.5 50t-49.5 146zM420 1354 q0 76 48 121t130 45q76 0 125 -45.5t49 -120.5q0 -78 -48 -124t-126 -46q-82 0 -130 46t-48 124z" />
<glyph unicode="&#x458;" horiz-adv-x="649" d="M-199 -215q8 68 48 102.5t124 40.5l59 4q10 0 22.5 12.5t14.5 24.5l70 867q8 96 73.5 146t157.5 50q90 0 146.5 -49t48.5 -147l-68 -836q-10 -158 -108.5 -255t-274.5 -112l-67 -4q-16 -2 -47 -2q-100 0 -152.5 39t-46.5 119zM183 1354q0 82 55 129t151 47 q92 0 149.5 -48t57.5 -128q0 -82 -56 -131.5t-151 -49.5q-94 0 -150 49.5t-56 131.5z" />
<glyph unicode="&#x459;" horiz-adv-x="1892" d="M-2 127q0 57 40 110.5t118 81.5q123 33 141 299l14 179q6 100 63.5 157.5t149.5 57.5h551q96 2 148.5 -49.5t44.5 -141.5l-6 -96h145q442 0 442 -303q0 -123 -70.5 -219.5t-188 -149.5t-257.5 -53h-348q-96 -2 -148.5 49t-43.5 141l41 510h-144l-8 -69 q-25 -299 -150.5 -450.5t-291.5 -192.5q-43 -13 -80 -13q-74 0 -118 44t-44 108zM1214 274h129q68 0 93.5 30t23.5 102q0 39 -25.5 64.5t-70.5 25.5h-129z" />
<glyph unicode="&#x45a;" horiz-adv-x="1847" d="M78 160l2 24l49 652q8 90 68.5 143t160.5 53q98 0 151.5 -53t45.5 -143l-10 -140h248l8 140q10 90 70.5 143t158.5 53q92 0 145.5 -46t53.5 -126l-2 -24l-8 -140h202q180 0 281.5 -79.5t101.5 -227.5q0 -123 -77.5 -211t-198.5 -133t-242 -45h-340q-98 -2 -150.5 50 t-43.5 143l12 180h-246l-12 -189q-10 -92 -70.5 -145t-159.5 -53q-92 0 -145 46t-53 128zM1169 274h148q51 0 75.5 32t24.5 89q0 41 -20.5 57.5t-65.5 16.5h-147z" />
<glyph unicode="&#x45b;" horiz-adv-x="1452" d="M39 1083q0 57 40 91t103 34h129l4 52q6 84 68.5 138t163.5 54q94 0 146 -50t48 -132l-4 -62h326q57 0 91 -27.5t34 -72.5q0 -57 -40 -91t-106 -34h-323l-19 -242q55 51 133 79t171 28q167 0 253 -96.5t86 -282.5q0 -23 -4 -80l-20 -207q-8 -90 -67.5 -143t-157.5 -53 q-100 0 -154.5 54t-46.5 142l20 193q2 10 2 28q0 57 -27.5 89t-78.5 32q-117 0 -133 -155l-19 -187q-8 -90 -67.5 -143t-159.5 -53q-98 0 -152.5 54t-46.5 142l62 801h-133q-53 0 -87 27.5t-34 72.5z" />
<glyph unicode="&#x45c;" horiz-adv-x="1290" d="M154 182l65 654q8 90 69.5 143t160.5 53q98 0 151 -53t45 -143l-20 -177h34l203 291q70 90 170 90q74 0 130.5 -51t56.5 -125q0 -70 -54 -131l-161 -198q78 -57 133 -199l24 -94q16 -45 17 -78q0 -80 -61.5 -132t-139.5 -52q-57 0 -106.5 30.5t-75.5 93.5l-56 160 q-14 41 -41.5 65.5t-89.5 24.5h-10l-18 -172q-8 -90 -70.5 -143t-161.5 -53q-98 0 -150.5 53t-43.5 143zM634 1210q0 29 17 60l76 211q23 45 57.5 67.5t73.5 22.5q55 0 98 -38t43 -91q0 -51 -45 -103l-125 -157q-48 -53 -109 -53q-37 0 -61.5 22.5t-24.5 58.5z" />
<glyph unicode="&#x45d;" horiz-adv-x="1349" d="M119 178l51 651q8 92 67.5 147.5t149.5 55.5q82 0 132 -48t50 -128l-2 -27l-24 -299l282 318q76 86 109 118.5t75 49t109 16.5q99 0 151 -50t44 -140l-51 -652q-8 -92 -65.5 -148t-147.5 -56q-84 0 -135.5 49t-51.5 131l2 24l25 299l-283 -329q-61 -76 -103 -112t-84 -49 t-106 -13q-98 0 -150 50t-44 142zM442 1440q0 53 42 89t95 36q41 0 78 -24.5t55 -73.5l76 -201q10 -27 10 -47q0 -41 -28.5 -66.5t-69.5 -25.5q-29 0 -57.5 14t-47.5 43l-120 162q-33 51 -33 94z" />
<glyph unicode="&#x45e;" horiz-adv-x="1165" d="M79 846q0 51 34 96t88.5 71.5t107.5 26.5t96 -29.5t64 -88.5l124 -394l179 390q28 61 76.5 90.5t103.5 29.5q76 0 135 -49t59 -119q0 -37 -22 -82l-553 -1054q-33 -59 -78 -89t-94 -30q-72 0 -123 49t-51 125q0 43 24 96l95 189l-256 723q-8 23 -9 49zM292 1479 q0 49 31 81.5t70 32.5q47 0 73 -51q29 -53 86.5 -86t124.5 -33q61 0 123 34t109 85q41 49 88 49q35 0 57.5 -25.5t22.5 -64.5q0 -59 -55.5 -132t-150.5 -123t-212 -50q-98 0 -176 38t-126 95.5t-60 114.5q-4 12 -5 35z" />
<glyph unicode="&#x45f;" horiz-adv-x="1296" d="M78 193l51 643q8 90 68.5 143t160.5 53q98 0 151.5 -53t45.5 -143l-43 -525h238l41 525q10 90 70.5 143t158.5 53q92 0 145.5 -46t53.5 -126l-2 -24l-50 -625q-6 -98 -62 -154.5t-147 -56.5h-161l-9 -123q-10 -92 -65 -145.5t-143 -53.5q-82 0 -130.5 46.5t-48.5 125.5 l2 27l9 123h-140q-98 -2 -150 50t-44 143z" />
<glyph unicode="&#x462;" horiz-adv-x="1499" d="M33 1104q0 66 44 105.5t120 39.5h211l2 17q8 100 72.5 160.5t164.5 60.5q96 0 149.5 -58.5t45.5 -156.5l-2 -23h227q76 0 120 -40t44 -105q0 -66 -44 -106t-120 -40h-250l-10 -122h215q215 0 326.5 -94.5t111.5 -272.5q0 -233 -151.5 -351t-411.5 -118h-391 q-96 0 -142.5 51t-39.5 150l61 757h-188q-76 0 -120 40t-44 106zM766 330h115q88 0 128 16t40 78q0 47 -36 65.5t-118 18.5h-115z" />
<glyph unicode="&#x463;" horiz-adv-x="1363" d="M92 899q0 49 32 81t83 32h190l21 248q10 92 70.5 145t158.5 53q90 0 136 -44t46 -124q0 -20 -2 -30l-18 -248h217q51 0 83 -32t32 -81t-32 -81t-83 -32h-238l-6 -108h166q184 0 277.5 -68.5t93.5 -220.5q0 -119 -60.5 -208t-161 -135t-216.5 -46h-351q-98 -2 -150 49 t-46 144l45 593h-172q-51 0 -83 32t-32 81zM745 268h150q100 0 100 78q0 68 -90 68h-149z" />
<glyph unicode="&#x46a;" horiz-adv-x="2355" d="M109 186q0 59 30 119l111 191q78 150 133 222.5t157.5 115.5t282.5 43h-2l-119 229q-43 59 -43 133q0 86 61.5 145.5t160.5 59.5h741q96 0 157.5 -55.5t61.5 -135.5q0 -78 -61 -147l-168 -229h-19q178 0 273.5 -43t139.5 -116t97 -222l84 -207q13 -39 13 -74 q0 -63 -35 -114.5t-91.5 -81t-113.5 -29.5q-59 0 -106.5 32.5t-69.5 100.5l-109 321q-20 53 -34.5 77t-50.5 39t-103 15h-82l-39 -370q-8 -100 -69.5 -159.5t-159.5 -59.5q-100 0 -155.5 59t-47.5 160l31 370h-82q-63 0 -99 -16t-53.5 -38.5t-50.5 -76.5l-174 -325 q-33 -66 -85 -98.5t-110 -32.5q-82 0 -142 56t-60 142zM1042 1149l164 -326l219 326h-383z" />
<glyph unicode="&#x46b;" horiz-adv-x="1828" d="M47 170q0 51 31 109l53 79q72 127 168 186.5t272 59.5l-90 129q-35 51 -35 105q0 72 54.5 123t138.5 51h639q74 0 119 -43t45 -105q0 -70 -53 -131l-109 -129h-4q178 0 263 -59.5t136 -186.5l41 -82q12 -37 13 -73q0 -59 -32 -108.5t-81 -77t-103 -27.5q-55 0 -98 31.5 t-63 95.5l-72 182q-18 43 -48 55.5t-102 12.5h-14l-14 -185q-10 -92 -70.5 -144t-159.5 -52q-92 0 -145 46t-53 126l2 24l14 185h-12q-53 0 -80 -17.5t-37 -33t-14 -17.5l-107 -184q-33 -63 -84 -95t-108 -32q-80 0 -140.5 52t-60.5 130zM776 782l148 -260l184 260h-332z " />
<glyph unicode="&#x472;" horiz-adv-x="1650" d="M100 682q0 233 93.5 411.5t263.5 275.5t393 97t389 -86t256 -244.5t90 -373.5q0 -233 -93 -411.5t-262 -276t-392 -97.5t-390 86.5t-257.5 245t-90.5 373.5zM547 575q23 -127 95.5 -194.5t191.5 -67.5q108 0 184 69t108 193h-579zM565 891h570q-27 117 -98.5 178 t-180.5 61q-106 0 -181 -62t-110 -177z" />
<glyph unicode="&#x473;" horiz-adv-x="1298" d="M111 487q0 172 72.5 296t203.5 188.5t305 64.5q176 0 307.5 -62.5t202 -176t70.5 -265.5q0 -172 -72 -295.5t-203 -189t-305 -65.5q-178 0 -309 62t-201.5 177t-70.5 266zM508 381q14 -76 57 -113t117 -37q135 0 182 150h-356zM516 631h361q-12 82 -55.5 119.5 t-121.5 37.5q-141 1 -184 -157z" />
<glyph unicode="&#x474;" horiz-adv-x="1699" d="M100 1251q0 57 36 105.5t92.5 76t113.5 27.5t101 -27.5t65 -86.5l280 -803l254 465q115 211 227.5 315t270.5 129q12 2 35 2q84 0 132 -54t48 -128q0 -63 -37 -115.5t-106 -71.5q-86 -29 -132 -80t-102 -151l-24 -47l-381 -694q-31 -61 -94.5 -95t-137.5 -34t-132 33.5 t-83 95.5l-413 1071q-12 35 -13 67z" />
<glyph unicode="&#x475;" horiz-adv-x="1273" d="M47 848q0 84 68.5 140t152.5 56q57 0 103.5 -30.5t66.5 -91.5l127 -400l105 209q78 156 167 229.5t230 69.5q84 -2 132 -48t48 -110q0 -53 -34.5 -99t-100.5 -68q-35 -16 -57.5 -43t-39 -55.5t-24.5 -43.5l-256 -463q-29 -55 -91 -84.5t-134 -29.5t-128 29.5t-77 84.5 l-246 682q-12 35 -12 66z" />
<glyph unicode="&#x48a;" horiz-adv-x="1722" d="M90 186l86 1051q8 100 71.5 160.5t160.5 60.5q100 0 154 -60.5t46 -160.5l-51 -602l479 661q68 88 127.5 125t161.5 37q92 0 155.5 -56t57.5 -145l-74 -915h54q65 0 101 -31.5t36 -89.5q0 -37 -10 -67l-119 -381q-25 -76 -77 -115t-114 -39q-68 0 -116 44t-48 118 q0 37 15 78l33 123q-98 0 -152.5 60t-46.5 159l51 608l-446 -625q-82 -106 -161 -152t-185 -46q-90 0 -142.5 55t-46.5 145zM469 1905q0 59 36 96t81 37q33 0 60.5 -20.5t43.5 -59.5q27 -74 81 -110t126 -36t135.5 37t108.5 111q25 39 55.5 59.5t63.5 20.5q41 0 69.5 -29 t28.5 -78q0 -39 -21 -82q-51 -115 -170.5 -187.5t-292.5 -72.5q-169 0 -270.5 72t-126.5 184q-8 27 -8 58z" />
<glyph unicode="&#x48b;" horiz-adv-x="1443" d="M41 209l51 620q8 92 67.5 147.5t149.5 55.5q84 0 133.5 -47t49.5 -129l-3 -27l-24 -299l283 318q90 102 159.5 143t151.5 41q96 0 140 -49t36 -141l-41 -531h12q76 0 115 -28.5t39 -81.5q0 -29 -8 -56l-66 -258q-23 -82 -91.5 -127t-145.5 -45q-66 0 -111 34t-45 93 q0 23 10 58l27 86q-74 12 -113 65t-31 133l25 305l-283 -329q-61 -76 -103 -112t-84 -49t-105 -13q-86 0 -144.5 57t-50.5 166zM406 1477q0 49 30.5 81.5t69.5 32.5q49 0 74 -51q29 -53 86 -86t125 -33q61 0 122.5 34t108.5 85q41 49 88 49q35 0 57.5 -25.5t22.5 -64.5 q0 -59 -55.5 -132t-150.5 -123t-212 -50q-98 0 -176 38t-126 95t-60 115q-4 12 -4 35z" />
<glyph unicode="&#x48c;" horiz-adv-x="1419" d="M8 1192q0 61 45 108.5t129 47.5h68q12 109 63.5 164t173.5 55q92 0 146.5 -50.5t54.5 -136.5q0 -18 -2 -28v-4h133q72 0 109 -37t37 -90q0 -61 -46.5 -108.5t-127.5 -47.5h-132l-12 -143h262q230 0 351.5 -101.5t121.5 -292.5q0 -256 -162.5 -392t-439.5 -136h-409 q-104 0 -160.5 45t-56.5 127q0 18 2 29l71 864h-73q-72 0 -109 37t-37 90zM602 330h193q90 0 133 33.5t43 117.5q0 59 -39 86t-117 27h-194z" />
<glyph unicode="&#x48d;" horiz-adv-x="1363" d="M133 899q0 49 32 81t83 32h190l21 248q10 92 70.5 145t158.5 53q90 0 136 -44t46 -124q0 -20 -2 -30l-18 -248h217q51 0 83 -32t32 -81t-32 -81t-83 -32h-238l-6 -108h166q184 0 277.5 -68.5t93.5 -220.5q0 -119 -60.5 -208t-161 -135t-216.5 -46h-351q-98 -2 -150 49 t-46 144l45 593h-172q-51 0 -83 32t-32 81zM786 268h150q100 0 100 78q0 68 -90 68h-149z" />
<glyph unicode="&#x48e;" horiz-adv-x="1406" d="M94 203l82 1038q10 96 66.5 149.5t154.5 53.5h504q236 0 370 -119t134 -324q0 -157 -62.5 -271t-183.5 -171l17 -22q18 -25 18 -52q0 -37 -30.5 -64.5t-67.5 -27.5q-43 0 -66 35l-55 80q-51 -6 -111 -6h-305l-22 -293q-10 -104 -74 -163.5t-168 -59.5q-100 0 -154.5 59 t-46.5 158zM586 827h166l-35 52q-16 27 -17 49q0 35 29 61.5t66 26.5q39 0 65 -35l86 -121q49 41 49 115q0 76 -37.5 107.5t-119.5 31.5h-230z" />
<glyph unicode="&#x48f;" horiz-adv-x="1347" d="M51 -195l80 1031q6 88 64.5 142t156.5 54q76 0 124 -33.5t67 -93.5q49 63 123.5 97t173.5 34q127 0 224 -57t151.5 -167t54.5 -261q0 -131 -40 -240.5t-114 -187.5l45 -55q29 -35 29 -72q0 -49 -47 -84q-35 -27 -74 -27q-47 0 -82 43l-59 76q-72 -23 -148 -22 q-88 0 -155.5 27.5t-122.5 80.5l-25 -295q-6 -82 -66.5 -133t-154.5 -51q-98 0 -154.5 55t-50.5 139zM522 508q0 -106 41 -160.5t117 -54.5q12 0 20 2l-53 65q-27 33 -26 70q0 49 47 84q35 29 69 29q45 0 84 -45l25 -33q4 37 4 55q0 100 -43 152.5t-123 52.5 q-74 0 -118 -60.5t-44 -156.5z" />
<glyph unicode="&#x490;" horiz-adv-x="1191" d="M94 207l82 1036q10 92 68.5 146.5t150.5 54.5h465l8 88q10 96 65.5 154.5t141.5 58.5t134 -58.5t40 -154.5l-20 -229q-4 -90 -64.5 -145.5t-152.5 -55.5h-414l-72 -895q-8 -100 -70.5 -160.5t-160.5 -60.5q-100 0 -154.5 59t-46.5 162z" />
<glyph unicode="&#x491;" horiz-adv-x="962" d="M78 160l2 24l47 617q6 98 61.5 154.5t147.5 56.5h264l4 32q6 82 59.5 131.5t135.5 49.5t128 -49.5t40 -131.5l-15 -133q-2 -98 -58 -154.5t-149 -56.5h-200l-39 -516q-10 -92 -70.5 -145t-159.5 -53q-92 0 -145 46t-53 128z" />
<glyph unicode="&#x492;" horiz-adv-x="1312" d="M-27 700q0 72 42 116t112 44h104l31 381q8 90 67.5 146.5t151.5 56.5h674q190 0 191 -170q2 -80 -48.5 -126t-146.5 -46h-467l-18 -242h102q68 0 110 -44t42 -116q0 -70 -42 -113.5t-110 -43.5h-129l-27 -336q-10 -100 -72.5 -160.5t-160.5 -60.5t-152.5 60t-46.5 161 l27 336h-80q-70 0 -112 43t-42 114z" />
<glyph unicode="&#x493;" horiz-adv-x="1073" d="M37 473q0 45 29.5 79t83.5 34h43l18 215q2 98 59.5 154.5t149.5 56.5h461q84 0 131 -38t47 -106q2 -88 -47 -128t-156 -40h-227l-11 -114h93q51 0 79.5 -35t28.5 -78q0 -45 -28.5 -79t-79.5 -34h-111l-14 -176q-8 -92 -68.5 -145t-161.5 -53q-98 0 -151 53t-45 145 l14 176h-27q-53 0 -81.5 34t-28.5 79z" />
<glyph unicode="&#x494;" horiz-adv-x="1325" d="M94 207l82 1034q8 90 67.5 146.5t151.5 56.5h674q190 0 191 -170q2 -80 -48.5 -126t-146.5 -46h-467l-18 -225q78 4 155 4q45 0 94 -4q220 -15 331.5 -120.5t111.5 -324.5q0 -186 -63.5 -366.5t-184.5 -299t-281 -128.5q-94 -4 -147 41t-53 108q0 55 44 102.5t126 63.5 q86 31 138 140.5t52 236.5q0 117 -59.5 176t-177.5 59q-92 0 -113 -22l-27 -336q-10 -100 -72.5 -160.5t-160.5 -60.5t-152.5 60t-46.5 161z" />
<glyph unicode="&#x495;" horiz-adv-x="1269" d="M78 184l51 617q2 98 59.5 154.5t149.5 56.5h461q84 0 131 -38t47 -106q2 -88 -47 -128t-156 -40h-227l-12 -135q47 31 102 46.5t131 15.5q178 0 267 -116t89 -296q0 -127 -52 -250t-152.5 -213t-235.5 -121q-25 -4 -35 -4q-61 0 -101 44t-40 102q0 43 23.5 79.5 t70.5 59.5q63 49 110.5 127t47.5 162q0 70 -37 104.5t-76 34.5q-47 0 -94 -35t-41 -88l-4 16l-4 -49q-8 -92 -68.5 -145t-161.5 -53q-98 0 -151 53t-45 145z" />
<glyph unicode="&#x496;" horiz-adv-x="2394" d="M106 178q0 49 31 101l123 208q55 94 98 145.5t81 78t102 59.5l63 33l-213 348q-31 53 -31 102q0 55 31 102.5t79 75t99 27.5q96 0 148 -92l252 -473h41l26 346q10 98 72.5 158.5t161.5 60.5q98 0 152.5 -59.5t45.5 -159.5l-26 -346h26l338 471q33 47 77 69.5t89 22.5 q76 0 134.5 -54t58.5 -130q0 -68 -49 -131l-267 -338q8 -4 55.5 -29.5t93.5 -96.5t89 -190l49 -145q80 -6 123 -49t43 -123q0 -20 -2 -31l-25 -303q-8 -100 -66.5 -159.5t-150.5 -59.5t-142 59.5t-42 159.5l14 164h15q-90 43 -129 150l-105 286q-25 72 -67.5 102.5 t-141.5 30.5h-43l-31 -364q-8 -98 -70.5 -158.5t-160.5 -60.5t-153.5 59t-47.5 160l31 364h-41q-100 0 -160.5 -32.5t-95.5 -100.5l-180 -334q-31 -57 -80 -84.5t-104 -27.5q-84 0 -151 54t-67 134z" />
<glyph unicode="&#x497;" horiz-adv-x="1937" d="M78 166q0 45 24 96l4 21q61 129 118 190.5t163 93.5l-108 172q-35 53 -35 109q0 70 52 119t122 49q45 0 87 -24.5t70 -76.5l156 -276h14l19 184q8 94 68.5 151.5t150.5 57.5q92 0 144.5 -56t43.5 -149l-18 -188h57l158 270q39 57 88 86t100 29q70 0 120 -45t50 -111 q0 -59 -47 -125l-135 -190q70 -31 104.5 -83t67.5 -159q80 -6 126 -49t46 -117l-2 -26l-16 -201q-10 -92 -64.5 -144.5t-142.5 -52.5q-92 0 -140 53.5t-40 143.5l8 66q-100 10 -135 122l-23 107q-16 70 -38.5 113t-82.5 43h-84l-16 -176q-8 -94 -63.5 -150.5t-147.5 -56.5 t-148.5 57t-47.5 150l16 176h-80q-51 0 -76.5 -33t-41 -71t-21.5 -52l-37 -98q-31 -63 -82 -96t-109 -33q-78 0 -137 51t-59 129z" />
<glyph unicode="&#x498;" horiz-adv-x="1323" d="M45 262q0 66 48 112t122 46q57 0 115 -29q90 -37 144 -43t138 -6q182 0 209 78q6 31 6 57q0 47 -33.5 68.5t-121.5 21.5h-137q-90 0 -139.5 48.5t-49.5 115.5q0 68 47 118t127 50h139q74 0 112 9.5t53.5 27.5t23.5 53l2 21q0 61 -57.5 89.5t-157.5 28.5q-78 0 -144.5 -8 t-136.5 -35q-63 -31 -116 -30q-74 0 -122 48t-48 114q0 49 29.5 94t88.5 78q109 53 240 70.5t293 17.5q180 0 313 -50.5t204 -140.5t71 -209q0 -127 -65.5 -216t-188.5 -120q110 -47 165.5 -120.5t55.5 -180.5q0 -170 -128 -287.5t-349 -148.5l-17 -178q-8 -82 -62 -129 t-124 -47q-68 0 -114 45t-40 127l15 180q-174 16 -299 88q-55 35 -83 80t-28 92z" />
<glyph unicode="&#x499;" horiz-adv-x="1155" d="M57 217q0 53 42 91t104 38q53 0 102 -29q96 -49 211 -49q59 0 98 16.5t39 45.5q0 43 -10 54t-47 11h-68h-149q-55 0 -86 34t-31 81t31 82t86 35h174q76 0 94.5 13t17.5 29.5t-1 22.5q0 49 -34 71.5t-91 22.5q-51 0 -111.5 -18t-110.5 -47q-63 -39 -116 -39t-85 33t-32 80 q0 43 27.5 87t83.5 76q150 96 378 97q160 0 272.5 -39t169 -105.5t56.5 -146.5q0 -84 -54 -148.5t-151 -93.5q103 -37 148 -84t45 -116q0 -109 -100.5 -192t-264.5 -114l-10 -127q-8 -80 -60.5 -124t-119.5 -44q-66 0 -109 42t-37 120l13 129q-133 18 -232 76 q-82 53 -82 129z" />
<glyph unicode="&#x49a;" horiz-adv-x="1716" d="M90 205l86 1034q8 98 71.5 158.5t164.5 60.5q98 0 151 -59.5t45 -159.5l-28 -334h79l388 473q66 80 151 80q78 0 138.5 -56t60.5 -132q0 -70 -56 -131l-286 -324q63 -35 96 -65.5t55.5 -68.5t65.5 -128q8 -14 24 -51l76 -160h62q100 0 148 -52t40 -151l-25 -303 q-10 -100 -67 -159.5t-150 -59.5q-92 0 -142 59.5t-42 159.5l10 146q-55 0 -103 29.5t-77 92.5l-152 328q-27 68 -73.5 98.5t-145.5 30.5h-102l-31 -356q-8 -98 -71.5 -158.5t-161.5 -60.5q-100 0 -153.5 59t-45.5 160z" />
<glyph unicode="&#x49b;" horiz-adv-x="1288" d="M78 182l65 654q8 90 68.5 143t161.5 53q98 0 151.5 -53t44.5 -143l-18 -162l188 258q72 90 164 90q66 0 111 -46t45 -114q0 -76 -60 -147l-120 -152q63 -31 104 -81t78 -146l6 -25q82 -8 127 -51t45 -115l-2 -26l-16 -201q-10 -92 -64.5 -144.5t-142.5 -52.5 q-92 0 -140.5 53.5t-39.5 143.5l8 72q-84 25 -123 114l-57 160q-12 41 -39 65.5t-91 24.5h-10l-18 -172q-8 -90 -70.5 -143t-161.5 -53q-98 0 -150 52t-44 144z" />
<glyph unicode="&#x49c;" horiz-adv-x="1845" d="M90 205l86 1034q8 98 71.5 158.5t164.5 60.5q98 0 151 -59.5t45 -159.5l-28 -334h137l14 199q4 51 37 83t80 32t73.5 -32t22.5 -83l-14 -199h59l322 467q63 84 151 84q70 0 122 -52t52 -126q0 -68 -51 -133l-250 -340q68 -35 113 -94.5t117 -208.5l100 -219 q23 -46 23 -95q0 -84 -67 -143t-151 -59q-55 0 -103 30.5t-77 92.5l-145 323q-29 68 -76 98.5t-145 30.5h-21l-16 -219q-2 -51 -36 -83t-83 -32q-45 0 -71.5 31t-22.5 84l16 219h-137l-31 -356q-8 -98 -71.5 -158.5t-163.5 -60.5q-98 0 -151.5 59t-45.5 160z" />
<glyph unicode="&#x49d;" horiz-adv-x="1527" d="M78 182l65 654q8 90 68.5 143t161.5 53q98 0 151.5 -53t44.5 -143l-20 -177h76l8 95q2 45 33.5 72.5t76.5 27.5t71 -26.5t22 -73.5l-5 -60l205 238q76 90 166 90q61 0 104.5 -43t43.5 -107q0 -76 -64 -147l-123 -141q106 -74 176 -248l19 -80q16 -39 16 -82 q0 -78 -60.5 -129t-137.5 -51q-59 0 -108.5 30.5t-76.5 94.5l-51 145q-12 41 -40 65.5t-89 24.5h-6l-8 -100q-2 -47 -34 -74.5t-77 -27.5t-70.5 27.5t-21.5 74.5l8 100h-80l-18 -172q-8 -90 -70.5 -143t-161.5 -53q-98 0 -150 52t-44 144z" />
<glyph unicode="&#x49e;" horiz-adv-x="1851" d="M76 1212q0 66 38 106t101 40h172l4 45q8 98 72.5 158.5t163.5 60.5q98 0 151 -59.5t45 -159.5l-4 -45h103q63 0 102 -40t39 -106t-39 -105.5t-102 -39.5h-125l-15 -162h179l423 484q66 74 148 73q72 0 125 -52t53 -124t-61 -139l-322 -332q70 -41 104.5 -73.5t59.5 -76.5 t80 -163l100 -219q23 -51 23 -95q0 -84 -66.5 -143t-150.5 -59q-57 0 -105.5 30.5t-77.5 92.5l-145 323q-29 68 -76 98.5t-145 30.5h-172l-31 -356q-8 -98 -71.5 -158.5t-164.5 -60.5q-98 0 -151 59t-45 160l72 862h-150q-63 0 -101 40t-38 105z" />
<glyph unicode="&#x49f;" horiz-adv-x="1288" d="M-70 1174q0 51 38 82.5t95 31.5h148q12 84 72.5 131t154.5 47t146.5 -47t50.5 -131h117q57 0 95 -31.5t38 -80.5t-38 -81t-95 -32h-136l-32 -387l200 274q72 90 164 90q66 0 113 -47t47 -114q0 -72 -59 -146l-136 -172q61 -29 101.5 -79t79.5 -146l24 -94q17 -45 17 -78 q0 -80 -60.5 -132t-140.5 -52q-57 0 -106.5 30.5t-75.5 93.5l-58 160q-14 43 -40.5 66.5t-88.5 23.5h-12l-16 -172q-8 -90 -71 -143t-163 -53q-98 0 -149.5 53t-42.5 143l79 881h-127q-57 0 -95 30.5t-38 80.5z" />
<glyph unicode="&#x4a0;" horiz-adv-x="1916" d="M45 1249q0 76 54.5 135.5t146.5 59.5h502q92 0 145 -51.5t53 -139.5l-2 -28l-26 -320h77l387 473q66 80 154 80q78 0 138.5 -56t60.5 -132q0 -70 -56 -131l-288 -324q66 -37 98.5 -66.5t56 -69.5t68.5 -134l20 -43l101 -219q22 -46 22 -95q0 -84 -66.5 -143t-150.5 -59 q-55 0 -104.5 30.5t-77.5 92.5l-146 323q-29 68 -75.5 98.5t-145.5 30.5h-102l-29 -356q-8 -98 -72.5 -158.5t-162.5 -60.5q-92 0 -145.5 51t-53.5 141l2 27l74 885h-287q-82 0 -126 46t-44 113z" />
<glyph unicode="&#x4a1;" horiz-adv-x="1486" d="M90 844q0 63 46 115.5t122 52.5h311q98 0 152.5 -53.5t48.5 -143.5l-12 -156h2l229 285q76 88 168 88q63 0 108.5 -44t45.5 -109q0 -78 -66 -152l-131 -162q14 -10 54 -38.5t70 -71.5t62 -119l17 -51q18 -43 18 -84q0 -57 -33.5 -107.5t-87 -79t-108.5 -28.5 q-51 0 -94 26.5t-68 81.5l-70 170q-16 45 -39.5 67.5t-82.5 22.5h-17l-14 -172q-10 -90 -70.5 -143t-158.5 -53q-92 0 -145.5 46t-53.5 126l2 24l41 518h-109q-68 0 -102.5 42t-34.5 102z" />
<glyph unicode="&#x4a2;" horiz-adv-x="1742" d="M92 176l2 27l82 1032q8 100 70.5 159.5t163.5 59.5q100 0 153 -58.5t45 -154.5l-26 -336h501l27 330q8 100 70.5 159.5t162.5 59.5t153.5 -58.5t45.5 -154.5l-72 -899h17q86 0 135 -44t49 -126l-2 -27l-24 -307q-6 -100 -66.5 -160.5t-153.5 -60.5q-90 0 -140 57.5 t-42 157.5l12 152q-10 -2 -30 -2q-92 0 -145.5 51t-53.5 139l2 27l29 362h-502l-29 -352q-10 -100 -72.5 -161.5t-162.5 -61.5q-92 0 -145.5 51t-53.5 139z" />
<glyph unicode="&#x4a3;" horiz-adv-x="1456" d="M78 160l2 24l49 652q8 90 68.5 143t160.5 53q98 0 151.5 -53t45.5 -143l-12 -162h252l12 162q8 90 68.5 143t160.5 53q98 0 151.5 -53t45.5 -143l-35 -525q86 -8 132 -58t38 -134l-14 -201q-10 -92 -65.5 -144.5t-145.5 -52.5q-88 0 -136.5 53.5t-39.5 143.5l4 64h-15 q-98 0 -152 59t-46 160l10 149h-252l-10 -166q-10 -92 -70.5 -145t-159.5 -53q-92 0 -145 46t-53 128z" />
<glyph unicode="&#x4a4;" horiz-adv-x="1820" d="M94 203l82 1038q8 98 70.5 157.5t161.5 59.5q98 0 153 -58.5t47 -158.5l-24 -336h463l24 338q10 96 66.5 148.5t154.5 52.5h400q74 0 118.5 -42t47.5 -112q0 -84 -52.5 -136t-140.5 -52h-172l-72 -899q-8 -96 -71.5 -156.5t-159.5 -60.5q-98 0 -153.5 58t-47.5 159 l27 358h-463l-27 -358q-10 -98 -72.5 -157.5t-160.5 -59.5t-152.5 59t-46.5 158z" />
<glyph unicode="&#x4a5;" horiz-adv-x="1439" d="M57 160l2 24l50 639q8 90 68.5 143.5t160.5 53.5q98 0 151.5 -53.5t45.5 -143.5l-13 -149h262l11 125q6 98 62 155.5t149 57.5h299q70 0 105.5 -42t37.5 -100q0 -66 -45 -118t-123 -52h-68l-38 -516q-10 -92 -71 -145t-159 -53q-92 0 -145.5 46t-53.5 128l3 24l12 166 h-262l-13 -166q-10 -92 -70.5 -145t-158.5 -53q-92 0 -145.5 46t-53.5 128z" />
<glyph unicode="&#x4a8;" horiz-adv-x="1738" d="M100 659q0 252 94.5 430.5t262.5 271.5t389 99q68 2 108.5 -41t40.5 -98q0 -49 -32.5 -88t-94.5 -49q-334 -86 -333 -531q0 -176 90 -298t262 -138q-66 49 -107 158.5t-41 208.5q0 166 70 297t193.5 204.5t279.5 73.5q135 0 231.5 -64.5t146.5 -168t50 -215.5 q0 -197 -86 -323t-268 -218q18 -4 47 -4q25 0 45 6t39 14q10 2 20.5 6.5t24.5 8.5q31 12 57 12q51 0 83 -34t32 -77q0 -35 -23.5 -64.5t-68.5 -41.5q-119 -31 -215 -31q-150 0 -264 82q-51 -29 -155 -51.5t-187 -15.5q-203 14 -360 100t-244 235.5t-87 343.5zM1094 551 q0 -184 69 -238q54 9 98 73.5t69.5 154.5t25.5 168q0 98 -23.5 142t-75.5 44q-80 0 -121.5 -105.5t-41.5 -238.5z" />
<glyph unicode="&#x4a9;" horiz-adv-x="1669" d="M70 469q0 152 79.5 287t211 217t276.5 82q61 0 95 -32t34 -77q0 -43 -32 -82t-89 -55q-96 -39 -141 -132t-45 -200q0 -127 62.5 -202.5t170.5 -67.5q-45 59 -65.5 119.5t-20.5 136.5q0 133 61.5 228t160 142.5t212.5 47.5q115 0 199 -48.5t128 -130t44 -182.5 q0 -82 -27.5 -140t-68.5 -96t-117 -91q25 -8 55 -9q41 0 90.5 18.5t122.5 59.5q25 12 47 12q37 0 60.5 -29.5t23.5 -70.5q0 -43 -27.5 -82t-82.5 -57q-172 -57 -291 -58q-82 0 -143.5 25t-118.5 72q-150 -92 -326 -92q-141 0 -265 60t-198.5 171t-74.5 256zM903 410 q0 -113 66 -164q49 26 89 84.5t48 138.5q4 49 4 70q0 70 -19.5 101.5t-64.5 31.5q-39 0 -73.5 -56.5t-45.5 -144.5q-4 -23 -4 -61z" />
<glyph unicode="&#x4aa;" horiz-adv-x="1390" d="M100 682q0 236 99.5 413t281 273t418.5 96q164 0 354 -61l47 -12q57 -35 85 -82t28 -99q0 -70 -46 -121t-116 -51q-47 0 -102 31q-10 2 -57 14q-109 33 -168 33q-183 0 -280 -115.5t-97 -316.5q0 -176 73.5 -266t217.5 -90q45 0 86 9t100 28q55 16 74 20q45 23 90 23 q66 0 106.5 -45.5t40.5 -110.5q0 -47 -23.5 -93t-70.5 -81q-47 -27 -137 -55.5t-191 -38.5l-14 -156q-8 -82 -63.5 -129t-124.5 -47q-68 0 -113 44t-39 126l16 190q-225 66 -350 241t-125 429z" />
<glyph unicode="&#x4ab;" horiz-adv-x="1077" d="M70 481q0 172 73.5 297t209.5 191.5t323 66.5q201 0 321 -57q39 -18 57.5 -56t18.5 -83q0 -66 -34.5 -116t-92.5 -50q-35 0 -65 16q-115 29 -176 29q-94 0 -146.5 -58.5t-52.5 -166.5q0 -92 46 -143.5t126 -51.5q47 0 86 5t86 20q41 18 72 18q51 0 79.5 -39t28.5 -96 q0 -51 -23.5 -97.5t-68.5 -74.5q-68 -31 -170 -43l-8 -103q-8 -80 -59.5 -124t-118.5 -44q-66 0 -109 42t-37 120l10 123q-176 47 -276 172t-100 303z" />
<glyph unicode="&#x4ac;" horiz-adv-x="1314" d="M45 1249q0 104 55.5 149.5t169.5 45.5h930q195 0 195 -164q0 -104 -54.5 -147t-171.5 -43h-239l-62 -748h9q94 0 143 -51t41 -146l-27 -307q-6 -100 -65.5 -160.5t-151.5 -60.5t-142 57.5t-42 157.5l12 154q-8 -2 -29 -2q-102 0 -157.5 58t-46.5 157l73 891h-245 q-195 0 -195 159z" />
<glyph unicode="&#x4ad;" horiz-adv-x="1132" d="M90 840q0 78 49 125t129 47h680q70 0 110 -38t40 -102q0 -78 -48.5 -125t-125.5 -47h-127l-33 -391q84 -10 127 -59t35 -131l-15 -201q-10 -92 -65 -144.5t-146 -52.5q-82 0 -129 45.5t-47 124.5l2 27l4 64h-6q-92 0 -145 46t-53 126l2 24l43 522h-127q-70 0 -112 38 t-42 102z" />
<glyph unicode="&#x4ae;" horiz-adv-x="1363" d="M78 1233q0 55 32.5 106.5t85 83t105.5 31.5q88 0 141 -80l271 -395l346 412q59 71 145 71q78 0 137.5 -60.5t59.5 -139.5q0 -76 -55 -140l-433 -497l-32 -416q-8 -109 -75 -166t-163 -57q-98 0 -155.5 55t-49.5 162l33 426l-360 506q-33 45 -33 98z" />
<glyph unicode="&#x4af;" horiz-adv-x="1165" d="M80 846q0 51 33.5 96t88 71.5t107.5 26.5t96.5 -28.5t63.5 -87.5l125 -404l178 400q29 59 77 88.5t101 29.5q76 0 135.5 -50t59.5 -120q0 -41 -21 -80l-360 -696l-16 -266q-8 -92 -70 -144.5t-160 -52.5q-100 0 -151.5 52.5t-44.5 144.5l20 258l-254 713q-8 23 -8 49z " />
<glyph unicode="&#x4b0;" horiz-adv-x="1320" d="M80 1233q0 55 32.5 106.5t85 83t105.5 31.5q88 0 141 -80l271 -395l346 412q59 71 145 71q78 0 137.5 -60.5t59.5 -139.5q0 -76 -55 -140l-347 -399h80q53 0 86 -35t33 -88q0 -55 -31.5 -89t-85.5 -34h-180l-20 -268q-8 -109 -75 -166t-163 -57q-98 0 -155.5 55 t-49.5 162l23 274h-176q-53 0 -86 34t-33 89q0 53 32.5 88t84.5 35h121l-293 412q-33 45 -33 98z" />
<glyph unicode="&#x4b1;" horiz-adv-x="1103" d="M39 6q0 63 38 103.5t99 40.5h143l-231 647q-8 23 -8 49q0 51 33.5 96t88 71.5t107.5 26.5t96.5 -28.5t63.5 -87.5l125 -404l178 400q29 59 77 88.5t101 29.5q76 0 135.5 -50t59.5 -120q0 -41 -21 -80l-331 -638h131q61 0 100 -40t39 -104q0 -63 -38 -103t-99 -40h-176 l-2 -37q-8 -92 -70 -144.5t-160 -52.5q-100 0 -151.5 52.5t-44.5 144.5l2 37h-148q-61 0 -99 40t-38 103z" />
<glyph unicode="&#x4b2;" horiz-adv-x="1595" d="M49 174q0 78 57 143l371 416l-297 391q-39 53 -39 113q0 57 32 108.5t83 83t104 31.5q80 0 136 -74l264 -350l317 348q61 74 148 74q76 0 132 -57.5t56 -132.5q0 -76 -59 -144l-365 -401l309 -381h19q92 0 142 -52t42 -145l-26 -307q-8 -100 -67.5 -160.5t-150.5 -60.5 q-92 0 -142 57.5t-42 157.5l14 156q-45 18 -75 61l-303 387l-326 -379q-63 -76 -147 -75q-76 0 -131.5 56t-55.5 136z" />
<glyph unicode="&#x4b3;" horiz-adv-x="1294" d="M29 158q0 82 73 153l238 207l-188 189q-51 59 -52 129q0 80 61.5 140t141.5 60t143 -71l172 -183l201 179q72 72 156 71q70 0 120 -50t50 -120q0 -78 -70 -145l-223 -197l207 -209q94 -4 143 -54t41 -138l-18 -201q-8 -92 -62.5 -144.5t-144.5 -52.5q-84 0 -132 46.5 t-48 123.5l2 27l8 74q-45 16 -82 59l-193 207l-223 -205q-68 -68 -147 -67q-72 0 -123 50t-51 122z" />
<glyph unicode="&#x4b4;" horiz-adv-x="1892" d="M45 1247q0 76 52.5 136.5t142.5 60.5h743q80 0 123 -48t43 -116q0 -76 -52.5 -133t-142.5 -57h-123l-57 -748h424l70 897q10 98 72.5 158.5t160.5 60.5t152.5 -59.5t46.5 -159.5l-70 -897h4q96 0 145.5 -52t41.5 -151l-25 -286q-8 -98 -66.5 -158t-150.5 -60t-142.5 58.5 t-41.5 159.5l12 147h-889q-98 0 -146 52t-40 151l67 887h-188q-80 0 -122 46t-44 111z" />
<glyph unicode="&#x4b5;" horiz-adv-x="1550" d="M70 842q0 66 45 118t121 52h471q70 0 104.5 -40t36.5 -98q0 -68 -45 -121t-123 -53h6l-29 -389h242l39 512q10 90 70.5 143.5t158.5 53.5q92 0 145.5 -46t53.5 -126l-2 -25l-39 -512h-18q90 -4 137 -55t39 -137l-15 -203q-10 -92 -65 -144.5t-146 -52.5q-88 0 -136 53.5 t-40 143.5l9 84h-670q-98 -2 -151.5 49t-49.5 144l41 507h-51q-70 0 -104.5 41t-34.5 101z" />
<glyph unicode="&#x4b6;" horiz-adv-x="1574" d="M141 874q0 37 2 56l23 307q8 100 71.5 160.5t161.5 60.5t152.5 -60.5t46.5 -160.5l-16 -217q-16 -219 221 -219q6 0 40 -1t68 9l33 428q8 100 70.5 160.5t163.5 60.5q98 0 152 -60.5t46 -160.5l-71 -895h14q92 0 141 -52t41 -145l-24 -307q-6 -100 -66.5 -160.5 t-153.5 -60.5q-84 0 -134 49t-50 137l2 29l12 152q-8 -2 -26 -2q-98 0 -152.5 59t-46.5 160l23 282q-23 -6 -98.5 -12t-118.5 -6q-244 0 -385.5 99.5t-141.5 309.5z" />
<glyph unicode="&#x4b7;" horiz-adv-x="1306" d="M57 614l17 209q6 90 66.5 143.5t160.5 53.5q98 0 152.5 -53.5t48.5 -143.5l-10 -133q-4 -29 -5 -43q0 -37 22.5 -58.5t82.5 -21.5q45 0 57 11l19 245q6 90 66.5 143.5t160.5 53.5q98 0 151.5 -53.5t47.5 -143.5l-39 -514q84 -10 127 -59t35 -131l-15 -201 q-8 -90 -63.5 -143.5t-145.5 -53.5q-84 0 -131 45.5t-47 124.5l2 27l4 64h-2q-100 0 -153.5 53t-47.5 143l7 94q-39 -10 -170 -10q-180 0 -295 88t-103 264z" />
<glyph unicode="&#x4b8;" horiz-adv-x="1497" d="M141 881q0 33 2 49l23 307q8 100 71.5 160.5t161.5 60.5t152.5 -60.5t46.5 -160.5l-16 -217q-10 -152 98 -199l16 217q2 51 35 83t82 32q47 0 73.5 -30.5t22.5 -84.5l-18 -237q57 0 82 8l33 428q8 100 71.5 160.5t161.5 60.5t152.5 -60.5t46.5 -160.5l-82 -1030 q-8 -100 -70.5 -160.5t-161.5 -60.5q-98 0 -153.5 60t-46.5 161l22 276q-27 -6 -82 -8l-16 -201q-4 -51 -36 -81.5t-79 -30.5t-74.5 30.5t-23.5 81.5l14 191q-238 4 -373 104.5t-135 311.5z" />
<glyph unicode="&#x4b9;" horiz-adv-x="1343" d="M57 614l17 222q10 90 70.5 143t158.5 53q100 0 153.5 -53t45.5 -143l-10 -146q-8 -80 61 -106l10 112q4 45 34 73t77 28q45 0 70.5 -28t23.5 -73l-10 -127q45 4 61 9l19 258q10 90 70.5 143t158.5 53q92 0 145.5 -46t53.5 -126l-2 -24l-50 -652q-8 -92 -69.5 -145 t-159.5 -53t-151.5 53t-45.5 145l7 88l-62 -6l-6 -69q-4 -47 -33.5 -75t-77.5 -28q-45 0 -70.5 28t-23.5 75l6 65h-12q-117 0 -225.5 38t-176 117t-57.5 197z" />
<glyph unicode="&#x4ba;" horiz-adv-x="1435" d="M94 207l82 1030q8 100 70.5 160.5t160.5 60.5q100 0 154.5 -59t46.5 -162l-23 -276q23 6 98.5 12t118.5 6q244 0 385.5 -99.5t141.5 -309.5q0 -37 -2 -56l-23 -307q-8 -100 -71.5 -160.5t-161.5 -60.5t-152.5 60.5t-46.5 160.5l16 217q16 219 -221 219q-6 0 -40 1t-68 -9 l-33 -428q-8 -100 -70.5 -160.5t-163.5 -60.5q-98 0 -152 60.5t-46 160.5z" />
<glyph unicode="&#x4bb;" horiz-adv-x="1304" d="M86 182l84 1078q6 84 69.5 138t163.5 54q94 0 146.5 -51t45.5 -131l-26 -340q55 51 133 78.5t170 27.5q168 0 253 -98t85 -289q0 -47 -2 -71l-33 -396q-8 -90 -67.5 -143t-159.5 -53q-98 0 -152.5 54t-46.5 142l33 381q4 70 -22.5 110t-84.5 40q-119 0 -133 -156 l-30 -375q-4 -88 -64.5 -142t-161.5 -54q-100 0 -154.5 54t-45.5 142z" />
<glyph unicode="&#x4bc;" horiz-adv-x="2011" d="M127 981l2 55l-2 -10q12 92 62.5 143.5t111.5 51.5q59 0 100 -42t41 -118l-2 -27v2q-4 -76 29 -100.5t109 -24.5h24q63 240 238.5 397.5t468.5 157.5q295 0 470 -157.5t175 -454.5q0 -51 -2 -78q-6 -72 -49 -113.5t-111 -41.5h-786q2 -141 88 -219t225 -78q61 0 104 14 t82 33.5t54 25.5q66 37 116 37q66 0 109 -45t43 -108q0 -43 -23.5 -87t-70.5 -79q-96 -68 -198.5 -101.5t-242.5 -33.5q-221 0 -381.5 89t-248 235.5t-95.5 316.5h-67q-203 0 -288 85t-85 275zM1053 911h493q-2 109 -68.5 163t-166.5 54q-197 0 -258 -217z" />
<glyph unicode="&#x4bd;" horiz-adv-x="1484" d="M25 727q-2 70 36.5 111t92.5 41q53 0 92 -39t41 -107h4q8 -63 32.5 -91t94.5 -28h8q27 127 101.5 222.5t184 147.5t236.5 52q211 0 338 -129t129 -364q0 -53 -34.5 -87t-92.5 -34h-467q16 -70 66.5 -100.5t136.5 -30.5h29.5t89.5 12q53 19 94 19q70 0 113 -40t43 -96 q0 -45 -31 -87t-92 -70q-135 -47 -279 -47q-158 0 -283.5 54t-201.5 153.5t-90 232.5h-37q-178 0 -259 74.5t-91 230.5h-4zM821 614h256q-6 74 -34.5 107t-81.5 33q-56 0 -90.5 -32t-49.5 -108z" />
<glyph unicode="&#x4be;" horiz-adv-x="2011" d="M127 981l2 55l-2 -10q12 92 62.5 143.5t111.5 51.5q59 0 100 -42t41 -118l-2 -27v2q-4 -76 29 -100.5t109 -24.5h24q63 240 238.5 397.5t468.5 157.5q295 0 470 -157.5t175 -454.5q0 -51 -2 -78q-6 -72 -49 -113.5t-111 -41.5h-786q2 -141 88 -219t225 -78q61 0 104 14 t82 33.5t54 25.5q66 37 116 37q66 0 109 -45t43 -108q0 -43 -23.5 -87t-70.5 -79q-96 -68 -198.5 -101.5t-242.5 -33.5q-221 0 -381.5 89t-248 235.5t-95.5 316.5h-67q-203 0 -288 85t-85 275zM1053 911h493q-2 109 -68.5 163t-166.5 54q-197 0 -258 -217zM1237 -161 q0 111 89 185.5t257 94.5l29 -76q-141 -47 -142 -147q0 -43 30 -69.5t77 -26.5q33 0 84 14q6 2 16 2q25 0 40 -20.5t15 -48.5q0 -23 -11 -45.5t-34 -34.5q-90 -51 -180 -52q-123 0 -196.5 62.5t-73.5 161.5z" />
<glyph unicode="&#x4bf;" horiz-adv-x="1484" d="M66 727q-2 70 36.5 111t92.5 41q53 0 92 -39t41 -107h4q8 -63 32.5 -91t94.5 -28h8q27 127 101.5 222.5t184 147.5t236.5 52q211 0 338 -129t129 -364q0 -53 -34.5 -87t-92.5 -34h-467q16 -70 66.5 -100.5t136.5 -30.5h29.5t89.5 12q53 19 94 19q70 0 113 -40t43 -96 q0 -45 -31 -87t-92 -70q-135 -47 -279 -47q-158 0 -283.5 54t-201.5 153.5t-90 232.5h-37q-178 0 -259 74.5t-91 230.5h-4zM828 -192q0 111 89 185.5t257 94.5l29 -76q-141 -47 -142 -147q0 -43 30 -69.5t77 -26.5q33 0 84 14q6 2 16 2q25 0 40 -20.5t15 -48.5 q0 -23 -11 -45.5t-34 -34.5q-90 -51 -180 -52q-123 0 -196.5 62.5t-73.5 161.5zM862 614h256q-6 74 -34.5 107t-81.5 33q-56 0 -90.5 -32t-49.5 -108z" />
<glyph unicode="&#x4c0;" horiz-adv-x="673" d="M92 176l2 27l82 1032q8 100 71.5 159.5t166.5 59.5q96 0 150 -50t54 -136l-2 -27l-81 -1032q-8 -102 -72 -162.5t-168 -60.5q-94 0 -148.5 51t-54.5 139z" />
<glyph unicode="&#x4c1;" horiz-adv-x="2336" d="M106 178q0 49 31 101l123 208q55 94 98 146.5t80 78t105 60.5l61 31l-213 348q-31 53 -31 102q0 55 31 102.5t79 75t99 27.5q43 0 82 -22.5t66 -69.5l252 -473h41l26 346q8 98 71.5 158.5t162.5 60.5q98 0 152.5 -59.5t45.5 -159.5l-26 -346h26l338 471q33 47 77 69.5 t89 22.5q76 0 134.5 -54t58.5 -130q0 -68 -49 -131l-267 -338q8 -4 55.5 -29.5t93.5 -96.5t89 -190l70 -206q18 -55 18 -101q0 -88 -56.5 -141t-133.5 -53q-66 0 -124.5 42t-91.5 126l-100 282q-27 72 -70 102.5t-141 30.5h-41l-31 -364q-8 -98 -70.5 -158.5t-160.5 -60.5 t-153.5 59t-47.5 160l31 364h-43q-100 0 -160.5 -32.5t-95.5 -100.5l-178 -334q-31 -57 -80 -84.5t-104 -27.5q-84 0 -151 54t-67 134zM864 1905q0 59 36 96t81 37q33 0 60.5 -20.5t43.5 -59.5q27 -74 81 -110t126 -36t135.5 37t108.5 111q25 39 55.5 59.5t62.5 20.5 q41 0 70 -29t29 -78q0 -39 -21 -82q-51 -115 -171 -187.5t-292 -72.5q-170 0 -271 72t-126 184q-8 27 -8 58z" />
<glyph unicode="&#x4c2;" horiz-adv-x="1867" d="M119 166q0 45 24 96l4 21q61 129 118 190.5t163 93.5l-108 172q-35 53 -35 109q0 70 52 119t122 49q45 0 87 -24.5t70 -76.5l156 -276h14l19 184q8 94 68.5 151.5t150.5 57.5q92 0 144.5 -56t43.5 -149l-18 -188h57l158 270q39 57 88 86t100 29q70 0 120 -45t50 -111 q0 -59 -47 -125l-135 -190q74 -33 109 -90t71 -180v-25q11 -36 11 -63q0 -57 -33 -105.5t-84 -76t-105 -27.5q-55 0 -98 30.5t-61 94.5l-21 102q-16 70 -38.5 113t-82.5 43h-84l-16 -176q-8 -94 -63.5 -150.5t-147.5 -56.5t-148.5 57t-47.5 150l16 176h-80q-51 0 -76.5 -33 t-41 -71t-21.5 -52l-37 -98q-31 -63 -82 -96t-109 -33q-78 0 -137 51t-59 129zM626 1483q0 49 31 81.5t70 32.5q47 0 73 -51q29 -53 86.5 -86t124.5 -33q61 0 123 34t109 85q41 49 88 49q35 0 57.5 -25.5t22.5 -64.5q0 -59 -55.5 -132t-150.5 -123t-212 -50q-98 0 -176 38 t-126 95.5t-60 114.5q-4 12 -5 35z" />
<glyph unicode="&#x4c3;" horiz-adv-x="1622" d="M90 205l86 1034q8 98 70.5 158.5t161.5 60.5q100 0 154 -59.5t46 -159.5l-28 -334h98l371 467q70 82 163 82q72 0 125.5 -50t53.5 -120q0 -74 -64 -143l-231 -285q192 -57 293.5 -185t101.5 -327q0 -152 -66.5 -302.5t-187.5 -260t-276 -141.5q-18 -4 -52 -5 q-86 0 -137 51.5t-51 118.5q0 59 42 108.5t122 68.5q84 37 138 133t54 198q0 137 -90 195.5t-223 58.5h-211l-31 -362q-8 -98 -70.5 -158.5t-160.5 -60.5q-100 0 -154.5 59t-46.5 160z" />
<glyph unicode="&#x4c4;" horiz-adv-x="1314" d="M78 182l53 654q8 90 68.5 143t160.5 53q98 0 151.5 -53t45.5 -143l-14 -164l196 266q76 90 166 90q66 0 112 -45t46 -113q0 -78 -64 -149l-125 -158q111 -39 176.5 -130t65.5 -245q0 -180 -80 -315t-233 -217q-43 -16 -90 -16q-68 0 -107 37.5t-39 93.5q0 45 28 87t81 70 q33 43 43 112t10 161q0 72 -32.5 105.5t-69.5 40.5t-82 7h-27l-14 -172q-6 -90 -66.5 -143t-158.5 -53q-100 0 -153.5 53t-47.5 143z" />
<glyph unicode="&#x4c5;" horiz-adv-x="1701" d="M4 182q0 51 26.5 96.5t80.5 75.5q106 57 167.5 166t77.5 301l31 420q10 98 65.5 150.5t153.5 52.5h721q98 0 146.5 -52.5t39.5 -150.5l-71 -899h55q66 0 101.5 -31.5t35.5 -89.5q0 -37 -10 -67l-119 -381q-25 -76 -77 -115t-113 -39q-68 0 -116 44t-48 118q0 37 14 78 l33 123q-98 0 -152.5 59t-46.5 160l72 901h-270l-15 -203q-20 -250 -84.5 -418t-165 -275.5t-245.5 -182.5q-51 -29 -105 -29q-78 0 -130 57.5t-52 130.5z" />
<glyph unicode="&#x4c6;" horiz-adv-x="1456" d="M-4 125q0 57 37 111.5t106 87.5q74 31 107 105.5t41 188.5l14 179q6 100 63.5 157.5t149.5 57.5h535q98 2 149 -49.5t43 -141.5l-41 -510h19q75 0 114 -28.5t39 -81.5q0 -29 -8 -56l-66 -258q-23 -82 -91 -127t-146 -45q-66 0 -111 34t-45 93q0 23 10 58l25 82 q-90 4 -136 55t-40 137l43 526h-127l-8 -69q-25 -303 -147 -448.5t-298 -194.5q-41 -14 -80 -15q-70 0 -110.5 44t-40.5 108z" />
<glyph unicode="&#x4c7;" horiz-adv-x="1601" d="M94 203l82 1038q8 98 70.5 157.5t161.5 59.5q98 0 153 -58.5t47 -158.5l-24 -336h503l25 336q8 96 71.5 156.5t159.5 60.5q98 0 153.5 -58.5t47.5 -158.5l-92 -1149q-16 -223 -141 -338.5t-367 -126.5h-31q-96 -4 -152 50.5t-56 127.5q0 63 44 111.5t125 56.5l19 4 q70 8 96.5 29t30.5 78l37 477h-504l-27 -358q-10 -98 -72.5 -157.5t-160.5 -59.5t-152.5 59t-46.5 158z" />
<glyph unicode="&#x4c8;" horiz-adv-x="1310" d="M78 160l2 24l49 652q8 90 68.5 143t160.5 53q98 0 151.5 -53t45.5 -143l-12 -162h252l12 162q8 90 68.5 143t160.5 53q98 0 151.5 -53t45.5 -143l-57 -725q-12 -168 -64.5 -269.5t-160 -155t-285.5 -63.5q-86 -4 -135.5 38t-49.5 101q0 61 48.5 108.5t136.5 51.5 q35 4 54 34t23 71l25 323h-252l-10 -166q-10 -92 -70.5 -145t-159.5 -53q-92 0 -145 46t-53 128z" />
<glyph unicode="&#x4c9;" horiz-adv-x="1728" d="M92 176l2 27l82 1032q8 100 70.5 159.5t163.5 59.5q100 0 153 -58.5t45 -154.5l-28 -336h501l29 330q8 100 70.5 159.5t162.5 59.5t153.5 -58.5t45.5 -154.5l-72 -899h54q65 0 101 -31.5t36 -89.5q0 -37 -10 -67l-119 -381q-25 -76 -77 -115t-114 -39q-68 0 -115.5 44 t-47.5 118q0 37 14 78l33 123q-92 0 -145.5 51t-53.5 139l2 27l27 362h-502l-27 -352q-10 -100 -72.5 -161.5t-162.5 -61.5q-92 0 -145.5 51t-53.5 139z" />
<glyph unicode="&#x4ca;" horiz-adv-x="1449" d="M78 160l2 24l49 652q8 90 68.5 143t160.5 53q98 0 151.5 -53t45.5 -143l-12 -162h252l12 162q8 90 68.5 143t160.5 53q98 0 151.5 -53t45.5 -143l-35 -525h14q76 0 115 -28.5t39 -81.5q0 -29 -8 -56l-66 -258q-23 -82 -91 -127t-146 -45q-66 0 -111 34t-45 93q0 23 10 58 l25 82q-82 8 -130 58t-48 134l2 27l10 149h-252l-10 -166q-10 -92 -70.5 -145t-159.5 -53q-92 0 -145 46t-53 128z" />
<glyph unicode="&#x4cb;" horiz-adv-x="1435" d="M137 881q0 33 2 49l27 307q8 100 71.5 160.5t161.5 60.5t152.5 -60.5t46.5 -160.5l-16 -217q-16 -219 221 -219q6 0 40 -1t68 9l33 428q8 100 70.5 160.5t163.5 60.5q98 0 152 -60.5t46 -160.5l-82 -1034q-10 -98 -65 -150.5t-156 -52.5h-20l-15 -162 q-10 -100 -68.5 -160.5t-148.5 -60.5q-92 0 -142 57.5t-42 157.5l25 305q8 100 64 152.5t157 52.5h-11l13 141q-25 -6 -99.5 -12t-117.5 -6q-246 0 -388.5 100.5t-142.5 315.5z" />
<glyph unicode="&#x4cc;" horiz-adv-x="1173" d="M68 735l2 35l4 66q10 90 70.5 143t158.5 53q100 0 153.5 -53t45.5 -143l2 8q-4 -29 -4 -43q0 -37 22.5 -58.5t81.5 -21.5q45 0 58 10l6 105q10 90 70.5 143t158.5 53q92 0 145.5 -46t53.5 -126l-2 -24l-45 -623q-6 -98 -64.5 -155.5t-150.5 -57.5h-21l-4 -80 q-8 -92 -63.5 -145.5t-145.5 -53.5q-82 0 -130 44.5t-48 121.5l2 27l12 184q6 98 63.5 155.5t151.5 57.5h-22l8 115q-49 -10 -170 -10q-170 0 -284.5 79.5t-114.5 239.5z" />
<glyph unicode="&#x4cd;" horiz-adv-x="1847" d="M96 182l86 1055q8 98 69.5 157.5t154.5 59.5q129 0 194 -141l277 -600l376 594q92 145 217 145q92 0 145.5 -61.5t45.5 -159.5l-72 -889h53q66 0 102 -31.5t36 -89.5q0 -37 -11 -67l-118 -381q-25 -76 -77 -115t-114 -39q-68 0 -116 44t-48 118q0 37 15 78l32 125 q-74 10 -115.5 62t-33.5 132l37 467l-189 -301q-49 -80 -95 -112.5t-109 -32.5q-61 0 -103.5 32.5t-77.5 108.5l-143 281l-35 -435q-6 -90 -63.5 -145t-145.5 -55q-84 0 -132 53t-42 143z" />
<glyph unicode="&#x4ce;" horiz-adv-x="1619" d="M78 156l2 22l49 643q8 98 62.5 154.5t146.5 56.5q90 0 153.5 -34.5t104.5 -125.5l160 -327l200 293q74 113 125.5 153.5t135.5 40.5q98 0 150 -51t44 -141l-39 -529h10q76 0 115 -28.5t39 -81.5q0 -29 -8 -56l-66 -258q-23 -82 -91 -127t-146 -45q-66 0 -111 34t-45 93 q0 23 10 58l27 88q-63 16 -100 67t-33 121l20 234l-65 -99q-41 -61 -82 -92t-105 -31q-72 0 -113.5 31t-72.5 92l-66 127l-22 -256q-8 -84 -68.5 -140t-142.5 -56q-78 0 -128 48t-50 122z" />
<glyph unicode="&#x4cf;" horiz-adv-x="649" d="M86 182l84 1071q8 98 71.5 148.5t155.5 50.5t149.5 -50t48.5 -149l-83 -1071q-8 -96 -72 -146t-154 -50q-92 0 -150.5 50t-49.5 146z" />
<glyph unicode="&#x4d0;" horiz-adv-x="1579" d="M10 168q0 49 29 98l590 1059q35 66 100.5 100.5t136.5 34.5q72 0 131.5 -34.5t83.5 -96.5l432 -1081q13 -37 13 -68q0 -82 -67.5 -136t-149.5 -54q-55 0 -99.5 28.5t-64.5 85.5l-62 172h-602l-86 -167q-31 -59 -80 -88t-104 -29q-78 0 -139.5 50t-61.5 126zM459 1905 q0 59 36 96t81 37q33 0 60.5 -20.5t43.5 -59.5q27 -74 81 -110t126 -36t135.5 37t108.5 111q25 39 55.5 59.5t62.5 20.5q41 0 70 -29t29 -78q0 -39 -21 -82q-51 -115 -171 -187.5t-292 -72.5q-170 0 -271 72t-126 184q-8 27 -8 58zM647 604h322l-131 377z" />
<glyph unicode="&#x4d1;" horiz-adv-x="1185" d="M53 287q0 119 56 189.5t179 104t326 33.5h76q6 115 -148 115q-45 0 -160 -29l-43 -10q-39 -16 -79 -16q-61 0 -98.5 38t-37.5 93q0 43 26 85t77 71q152 76 373 75q245 0 366 -104.5t121 -317.5q0 -25 -4 -73l-27 -359q-10 -94 -67.5 -145t-151.5 -51q-72 0 -120 36.5 t-58 98.5q-35 -66 -100.5 -102.5t-149.5 -36.5q-100 0 -181 39.5t-128 110.5t-47 155zM268 1483q0 49 31 81.5t70 32.5q47 0 73 -51q29 -53 86.5 -86t124.5 -33q61 0 123 34t109 85q41 49 88 49q35 0 57.5 -25.5t22.5 -64.5q0 -59 -55.5 -132t-150.5 -123t-212 -50 q-98 0 -176 38t-126 95.5t-60 114.5q-4 12 -5 35zM458 336q0 -33 21.5 -53.5t58.5 -20.5q53 0 91 43t44 113v10h-53q-84 0 -123 -22.5t-39 -69.5z" />
<glyph unicode="&#x4d2;" horiz-adv-x="1579" d="M10 168q0 49 29 98l590 1059q35 66 100.5 100.5t136.5 34.5q72 0 131.5 -34.5t83.5 -96.5l432 -1081q13 -37 13 -68q0 -82 -67.5 -136t-149.5 -54q-55 0 -99.5 28.5t-64.5 85.5l-62 172h-602l-86 -167q-31 -59 -80 -88t-104 -29q-78 0 -139.5 50t-61.5 126zM506 1733 q0 74 48 117.5t126 43.5q80 0 129 -44t49 -117q0 -78 -49 -124t-129 -46q-78 0 -126 46t-48 124zM647 604h322l-131 377zM914 1733q0 74 48 117.5t130 43.5q76 0 125 -44t49 -117q0 -78 -48 -124t-126 -46q-82 0 -130 46t-48 124z" />
<glyph unicode="&#x4d3;" horiz-adv-x="1185" d="M53 287q0 119 56 189.5t179 104t326 33.5h76q6 115 -148 115q-45 0 -160 -29l-43 -10q-39 -16 -79 -16q-61 0 -98.5 38t-37.5 93q0 43 26 85t77 71q152 76 373 75q245 0 366 -104.5t121 -317.5q0 -25 -4 -73l-27 -359q-10 -94 -67.5 -145t-151.5 -51q-72 0 -120 36.5 t-58 98.5q-35 -66 -100.5 -102.5t-149.5 -36.5q-100 0 -181 39.5t-128 110.5t-47 155zM270 1346q0 76 48.5 121t126.5 45q80 0 129 -45.5t49 -120.5q0 -78 -49.5 -124t-128.5 -46q-78 0 -126.5 46t-48.5 124zM458 336q0 -33 21.5 -53.5t58.5 -20.5q53 0 91 43t44 113v10h-53 q-84 0 -123 -22.5t-39 -69.5zM678 1346q0 76 48 121t130 45q76 0 125 -45.5t49 -120.5q0 -78 -48 -124t-126 -46q-82 0 -130 46t-48 124z" />
<glyph unicode="&#x4d4;" horiz-adv-x="2064" d="M6 143q0 80 64 166l741 1018q39 55 107.5 86t146.5 31h854q96 0 145.5 -40t49.5 -114q0 -94 -56.5 -138t-169.5 -44h-553l31 -205h467q96 0 145.5 -40t49.5 -113q0 -96 -54.5 -139.5t-169.5 -43.5h-387l35 -231h379q94 0 143 -41t49 -117q0 -94 -55 -136t-168 -42h-536 q-72 0 -120 30.5t-57 82.5l-24 163h-543l-110 -165q-45 -68 -104.5 -101t-121.5 -33q-74 0 -126 46.5t-52 119.5zM739 604h275l-51 336z" />
<glyph unicode="&#x4d5;" horiz-adv-x="1687" d="M33 287q0 119 57 190.5t179 104t325 32.5h63q2 61 -31.5 88t-111.5 27q-41 0 -139 -27l-56 -12q-39 -16 -79 -16q-61 0 -98.5 38t-37.5 93q0 43 26 85t77 71q152 76 403 75q195 0 297 -98q127 98 293 98q131 0 229.5 -62.5t152.5 -178t54 -271.5q0 -47 -26.5 -74.5 t-73.5 -27.5h-477q29 -131 184 -131q41 0 68.5 5t55.5 15.5t44 14.5q33 16 70 16q51 0 80.5 -39t29.5 -96q0 -49 -22.5 -94t-67.5 -72q-53 -29 -130 -44t-165 -15q-133 0 -235.5 45t-167.5 129q-61 -84 -159.5 -129t-213.5 -45q-121 0 -211 39.5t-138 108.5t-48 157z M438 326q0 -29 22.5 -46.5t57.5 -17.5q49 0 85 41t40 105l2 20h-45q-162 0 -162 -102zM1059 614h231q-10 139 -106 140q-49 0 -81 -32t-44 -108z" />
<glyph unicode="&#x4d6;" horiz-adv-x="1232" d="M92 172l2 29l82 1040q10 96 66.5 149.5t154.5 53.5h690q96 0 145.5 -41t49.5 -113q0 -96 -55.5 -139t-169.5 -43h-463l-16 -205h423q96 0 145.5 -40t49.5 -113q0 -94 -54.5 -138.5t-166.5 -44.5h-424l-19 -231h467q96 0 145.5 -41t49.5 -117q0 -92 -56.5 -135t-168.5 -43 h-690q-90 0 -138.5 45t-48.5 127zM354 1905q0 59 36 96t81 37q33 0 60.5 -20.5t43.5 -59.5q27 -74 81 -110t126 -36t135.5 37t108.5 111q25 39 55.5 59.5t62.5 20.5q41 0 70 -29t29 -78q0 -39 -21 -82q-51 -115 -171 -187.5t-292 -72.5q-170 0 -271 72t-126 184q-8 27 -8 58 z" />
<glyph unicode="&#x4d7;" horiz-adv-x="1140" d="M69 483q0 156 68.5 283t189.5 198.5t268 71.5q225 0 351.5 -136t126.5 -376q0 -47 -27 -74.5t-74 -27.5h-493q29 -131 192 -131q45 0 74 6t57.5 15.5t42.5 13.5q35 16 70 16q51 0 81 -39t30 -96q0 -49 -22.5 -94t-68.5 -72q-53 -29 -129.5 -44t-167.5 -15 q-168 0 -296.5 62t-200.5 176t-72 263zM272 1491q0 49 31 81.5t70 32.5q47 0 73 -51q29 -53 86.5 -86t124.5 -33q61 0 123 34t109 85q41 49 88 49q35 0 57.5 -25.5t22.5 -64.5q0 -59 -55.5 -132t-150.5 -123t-212 -50q-98 0 -176 38t-126 95.5t-60 114.5q-4 12 -5 35z M479 614h246q-4 70 -32 105t-85 35q-56 0 -86.5 -33t-42.5 -107z" />
<glyph unicode="&#x4d8;" horiz-adv-x="1613" d="M98 635l2 76q6 88 54.5 135t130.5 47h813q-31 111 -114 169t-206 58q-147 0 -272 -51q-78 -43 -139 -43q-59 0 -93 40t-34 99q0 49 23.5 97.5t68.5 78.5q96 61 226 92t265 31q224 0 387.5 -91t250.5 -250.5t87 -360.5q0 -233 -93 -410.5t-259 -274.5t-379 -97 q-238 0 -399.5 90t-240.5 238.5t-79 326.5zM524 565q6 -125 85 -187.5t202 -62.5q100 0 173 67t106 183h-566z" />
<glyph unicode="&#x4d9;" horiz-adv-x="1140" d="M69 504q0 41 26.5 67.5t74.5 26.5h497q-14 68 -58 99.5t-120 31.5q-57 0 -90 -6t-61.5 -15.5t-41.5 -13.5q-35 -16 -69 -16q-51 0 -81 39t-30 96q0 49 22.5 94t67.5 72q115 57 322 57q256 0 400.5 -135t144.5 -366q0 -156 -70 -282t-192.5 -198.5t-274.5 -72.5 q-223 0 -345 139t-122 383zM428 403q-2 -137 100 -137q57 0 91 31t46 106h-237z" />
<glyph unicode="&#x4da;" horiz-adv-x="1613" d="M98 635l2 76q6 88 54.5 135t130.5 47h813q-31 111 -114 169t-206 58q-147 0 -272 -51q-78 -43 -139 -43q-59 0 -93 40t-34 99q0 49 23.5 97.5t68.5 78.5q96 61 226 92t265 31q224 0 387.5 -91t250.5 -250.5t87 -360.5q0 -233 -93 -410.5t-259 -274.5t-379 -97 q-238 0 -399.5 90t-240.5 238.5t-79 326.5zM524 565q6 -125 85 -187.5t202 -62.5q100 0 173 67t106 183h-566zM524 1733q0 74 48 117.5t126 43.5q80 0 129 -44t49 -117q0 -78 -49 -124t-129 -46q-78 0 -126 46t-48 124zM932 1733q0 74 48 117.5t130 43.5q76 0 125 -44 t49 -117q0 -78 -48 -124t-126 -46q-82 0 -130 46t-48 124z" />
<glyph unicode="&#x4db;" horiz-adv-x="1140" d="M69 504q0 41 26.5 67.5t74.5 26.5h497q-14 68 -58 99.5t-120 31.5q-57 0 -90 -6t-61.5 -15.5t-41.5 -13.5q-35 -16 -69 -16q-51 0 -81 39t-30 96q0 49 22.5 94t67.5 72q115 57 322 57q256 0 400.5 -135t144.5 -366q0 -156 -70 -282t-192.5 -198.5t-274.5 -72.5 q-223 0 -345 139t-122 383zM196 1346q0 76 48.5 121t126.5 45q80 0 129 -45.5t49 -120.5q0 -78 -49.5 -124t-128.5 -46q-78 0 -126.5 46t-48.5 124zM428 403q-2 -137 100 -137q57 0 91 31t46 106h-237zM604 1346q0 76 48 121t130 45q76 0 125 -45.5t49 -120.5 q0 -78 -48 -124t-126 -46q-82 0 -130 46t-48 124z" />
<glyph unicode="&#x4dc;" horiz-adv-x="2336" d="M106 178q0 49 31 101l123 208q55 94 98 146.5t80 78t105 60.5l61 31l-213 348q-31 53 -31 102q0 55 31 102.5t79 75t99 27.5q43 0 82 -22.5t66 -69.5l252 -473h41l26 346q8 98 71.5 158.5t162.5 60.5q98 0 152.5 -59.5t45.5 -159.5l-26 -346h26l338 471q33 47 77 69.5 t89 22.5q76 0 134.5 -54t58.5 -130q0 -68 -49 -131l-267 -338q8 -4 55.5 -29.5t93.5 -96.5t89 -190l70 -206q18 -55 18 -101q0 -88 -56.5 -141t-133.5 -53q-66 0 -124.5 42t-91.5 126l-100 282q-27 72 -70 102.5t-141 30.5h-41l-31 -364q-8 -98 -70.5 -158.5t-160.5 -60.5 t-153.5 59t-47.5 160l31 364h-43q-100 0 -160.5 -32.5t-95.5 -100.5l-178 -334q-31 -57 -80 -84.5t-104 -27.5q-84 0 -151 54t-67 134zM911 1733q0 74 48 117.5t126 43.5q80 0 129 -44t49 -117q0 -78 -49 -124t-129 -46q-78 0 -126 46t-48 124zM1319 1733q0 74 48 117.5 t130 43.5q76 0 125 -44t49 -117q0 -78 -48 -124t-126 -46q-82 0 -130 46t-48 124z" />
<glyph unicode="&#x4dd;" horiz-adv-x="1867" d="M119 166q0 45 24 96l4 21q61 129 118 190.5t163 93.5l-108 172q-35 53 -35 109q0 70 52 119t122 49q45 0 87 -24.5t70 -76.5l156 -276h14l19 184q8 94 68.5 151.5t150.5 57.5q92 0 144.5 -56t43.5 -149l-18 -188h57l158 270q39 57 88 86t100 29q70 0 120 -45t50 -111 q0 -59 -47 -125l-135 -190q74 -33 109 -90t71 -180v-25q11 -36 11 -63q0 -57 -33 -105.5t-84 -76t-105 -27.5q-55 0 -98 30.5t-61 94.5l-21 102q-16 70 -38.5 113t-82.5 43h-84l-16 -176q-8 -94 -63.5 -150.5t-147.5 -56.5t-148.5 57t-47.5 150l16 176h-80q-51 0 -76.5 -33 t-41 -71t-21.5 -52l-37 -98q-31 -63 -82 -96t-109 -33q-78 0 -137 51t-59 129zM628 1346q0 76 48.5 121t126.5 45q80 0 129 -45.5t49 -120.5q0 -78 -49.5 -124t-128.5 -46q-78 0 -126.5 46t-48.5 124zM1036 1346q0 76 48 121t130 45q76 0 125 -45.5t49 -120.5 q0 -78 -48 -124t-126 -46q-82 0 -130 46t-48 124z" />
<glyph unicode="&#x4de;" horiz-adv-x="1323" d="M45 262q0 66 48 112t122 46q57 0 115 -29q90 -37 144 -43t138 -6q182 0 209 78q6 31 6 57q0 47 -33.5 68.5t-121.5 21.5h-137q-90 0 -139.5 48.5t-49.5 115.5q0 68 47 118t127 50h139q74 0 112 9.5t53.5 27.5t23.5 53l2 21q0 61 -57.5 89.5t-157.5 28.5q-78 0 -144.5 -8 t-136.5 -35q-63 -31 -116 -30q-74 0 -122 48t-48 114q0 49 29.5 94t88.5 78q109 53 240 70.5t293 17.5q180 0 313 -50.5t204 -140.5t71 -209q0 -127 -65.5 -216t-188.5 -120q111 -47 166 -120.5t55 -180.5q0 -129 -76 -230t-215 -158.5t-328 -57.5q-162 0 -278.5 18.5 t-220.5 77.5q-55 35 -83 80t-28 92zM399 1733q0 74 48 117.5t126 43.5q80 0 129 -44t49 -117q0 -78 -49 -124t-129 -46q-78 0 -126 46t-48 124zM807 1733q0 74 48 117.5t130 43.5q76 0 125 -44t49 -117q0 -78 -48 -124t-126 -46q-82 0 -130 46t-48 124z" />
<glyph unicode="&#x4df;" horiz-adv-x="1193" d="M137 217q0 53 42 91t104 38q53 0 102 -29q98 -49 211 -49q59 0 98 16.5t39 45.5q0 43 -9 54t-46 11h-68h-151q-55 0 -86 34t-31 81q0 49 30.5 83t88.5 34h174q76 0 93.5 13t16 29.5t-1.5 22.5q0 49 -33.5 71.5t-88.5 22.5q-51 0 -111.5 -18t-110.5 -47q-63 -39 -116 -39 t-86 33t-33 82q0 43 27.5 86t85.5 75q145 96 378 97q160 0 272.5 -39t169 -105.5t56.5 -146.5q0 -84 -55.5 -148.5t-151.5 -93.5q102 -37 147.5 -84t45.5 -116q0 -90 -68.5 -164t-191.5 -115t-275 -41q-123 0 -215 21.5t-168 64.5q-84 55 -84 129zM260 1346q0 76 48.5 121 t126.5 45q80 0 129 -45.5t49 -120.5q0 -78 -49.5 -124t-128.5 -46q-78 0 -126.5 46t-48.5 124zM668 1346q0 76 48 121t130 45q76 0 125 -45.5t49 -120.5q0 -78 -48 -124t-126 -46q-82 0 -130 46t-48 124z" />
<glyph unicode="&#x4e0;" horiz-adv-x="1316" d="M90 1266q0 72 49 125t135 53h777q96 0 147 -47t51 -117q0 -45 -20.5 -88t-59.5 -78l-311 -274q43 6 84 6q92 0 168 -42t120 -118t44 -172q0 -160 -92 -277.5t-244 -179t-324 -61.5q-111 0 -219 26.5t-202 79.5q-50 31 -73.5 73t-23.5 85q0 70 50.5 122t121.5 52 q59 0 119 -41q84 -57 205 -57q96 0 164.5 41t68.5 110q0 43 -54 67t-132 24q-59 0 -68 -7q-12 -2 -32 -2q-78 0 -125 41t-47 103q0 72 65 135l242 254h-412q-82 0 -127 48t-45 116z" />
<glyph unicode="&#x4e1;" horiz-adv-x="1257" d="M68 -129q0 59 46 100t109 41q61 0 117 -41q96 -68 188 -67q88 0 142.5 60.5t54.5 160.5q0 51 -50 67.5t-128 16.5l-6 2q-86 2 -136.5 43t-50.5 102q0 35 18.5 72t55.5 68l254 204h-334q-82 0 -129 46.5t-47 109.5t47 109.5t129 46.5h672q76 0 115 -38t39 -97 q0 -45 -25 -94.5t-72 -88.5l-274 -215q27 0 46 -2t34 -4q111 -27 182.5 -107.5t71.5 -232.5q0 -147 -88 -268t-231.5 -189.5t-297.5 -68.5q-111 0 -212 37t-183 112q-57 56 -57 115z" />
<glyph unicode="&#x4e2;" horiz-adv-x="1593" d="M90 186l86 1051q8 100 71.5 160.5t160.5 60.5q100 0 154 -60.5t46 -160.5l-51 -602l479 661q68 88 127.5 125t161.5 37q92 0 155.5 -56t57.5 -145l-86 -1050q-8 -100 -71.5 -160.5t-159.5 -60.5q-98 0 -153.5 60t-47.5 161l51 602l-446 -625q-82 -106 -161 -152t-185 -46 q-90 0 -142.5 55t-46.5 145zM532 1718q0 59 36 90t93 31h494q47 0 76.5 -29.5t29.5 -76.5q0 -59 -35.5 -89t-91.5 -30h-495q-43 0 -75 29.5t-32 74.5z" />
<glyph unicode="&#x4e3;" horiz-adv-x="1349" d="M119 178l51 651q8 92 67.5 147.5t149.5 55.5q82 0 132 -48t50 -128l-2 -27l-24 -299l282 318q76 86 109 118.5t75 49t109 16.5q99 0 151 -50t44 -140l-51 -652q-8 -92 -65.5 -148t-147.5 -56q-84 0 -135.5 49t-51.5 131l2 24l25 299l-283 -329q-61 -76 -103 -112t-84 -49 t-106 -13q-98 0 -150 50t-44 142zM387 1335q0 55 36 84t91 29h496q45 0 74.5 -26.5t29.5 -71.5q0 -61 -34.5 -92t-91.5 -31h-494q-47 0 -77 28.5t-30 79.5z" />
<glyph unicode="&#x4e4;" horiz-adv-x="1593" d="M90 186l86 1051q8 100 71.5 160.5t160.5 60.5q100 0 154 -60.5t46 -160.5l-51 -602l479 661q68 88 127.5 125t161.5 37q92 0 155.5 -56t57.5 -145l-86 -1050q-8 -100 -71.5 -160.5t-159.5 -60.5q-98 0 -153.5 60t-47.5 161l51 602l-446 -625q-82 -106 -161 -152t-185 -46 q-90 0 -142.5 55t-46.5 145zM518 1733q0 74 48 117.5t126 43.5q80 0 129 -44t49 -117q0 -78 -49 -124t-129 -46q-78 0 -126 46t-48 124zM926 1733q0 74 48 117.5t130 43.5q76 0 125 -44t49 -117q0 -78 -48 -124t-126 -46q-82 0 -130 46t-48 124z" />
<glyph unicode="&#x4e5;" horiz-adv-x="1349" d="M119 178l51 651q8 92 67.5 147.5t149.5 55.5q82 0 132 -48t50 -128l-2 -27l-24 -299l282 318q76 86 109 118.5t75 49t109 16.5q99 0 151 -50t44 -140l-51 -652q-8 -92 -65.5 -148t-147.5 -56q-84 0 -135.5 49t-51.5 131l2 24l25 299l-283 -329q-61 -76 -103 -112t-84 -49 t-106 -13q-98 0 -150 50t-44 142zM372 1342q0 76 48.5 121t126.5 45q80 0 129 -45.5t49 -120.5q0 -78 -49.5 -124t-128.5 -46q-78 0 -126.5 46t-48.5 124zM780 1342q0 76 48 121t130 45q76 0 125 -45.5t49 -120.5q0 -78 -48 -124t-126 -46q-82 0 -130 46t-48 124z" />
<glyph unicode="&#x4e6;" horiz-adv-x="1650" d="M100 682q0 233 93.5 411.5t263.5 275.5t393 97t389 -86t256 -244.5t90 -373.5q0 -233 -93 -411.5t-262 -276t-392 -97.5q-224 0 -390.5 86.5t-257 245t-90.5 373.5zM539 684q0 -180 75.5 -275.5t219.5 -95.5q145 0 229 119t84 330q0 176 -77 272t-214 96 q-150 0 -233.5 -118.5t-83.5 -327.5zM545 1733q0 74 48 117.5t126 43.5q80 0 129 -44t49 -117q0 -78 -49 -124t-129 -46q-78 0 -126 46t-48 124zM953 1733q0 74 48 117.5t130 43.5q76 0 125 -44t49 -117q0 -78 -48 -124t-126 -46q-82 0 -130 46t-48 124z" />
<glyph unicode="&#x4e7;" horiz-adv-x="1298" d="M69 487q0 172 73 296t204 188.5t305 64.5q176 0 307 -62.5t201.5 -176t70.5 -265.5q0 -172 -71.5 -295.5t-202.5 -189t-305 -65.5q-178 0 -309.5 62t-202 177t-70.5 266zM335 1346q0 76 48.5 121t126.5 45q80 0 129 -45.5t49 -120.5q0 -78 -49.5 -124t-128.5 -46 q-78 0 -126.5 46t-48.5 124zM489 481q0 -98 37 -143t115 -45q170 0 170 250q0 96 -35 139t-117 43q-170 0 -170 -244zM743 1346q0 76 48 121t130 45q76 0 125 -45.5t49 -120.5q0 -78 -48 -124t-126 -46q-82 0 -130 46t-48 124z" />
<glyph unicode="&#x4e8;" horiz-adv-x="1650" d="M100 682q0 233 93.5 411.5t263.5 275.5t393 97t389 -86t256 -244.5t90 -373.5q0 -233 -93 -411.5t-262 -276t-392 -97.5t-390 86.5t-257.5 245t-90.5 373.5zM547 575q23 -127 95.5 -194.5t191.5 -67.5q108 0 184 69t108 193h-579zM565 891h570q-27 117 -98.5 178 t-180.5 61q-106 0 -181 -62t-110 -177z" />
<glyph unicode="&#x4e9;" horiz-adv-x="1298" d="M70 487q0 172 72.5 296t203.5 188.5t305 64.5q176 0 307.5 -62.5t202 -176t70.5 -265.5q0 -172 -72 -295.5t-203 -189t-305 -65.5q-178 0 -309 62t-201.5 177t-70.5 266zM467 381q14 -76 57 -113t117 -37q135 0 182 150h-356zM475 631h361q-12 82 -55.5 119.5 t-121.5 37.5q-141 1 -184 -157z" />
<glyph unicode="&#x4ea;" horiz-adv-x="1650" d="M100 682q0 233 93.5 411.5t263.5 275.5t393 97t389 -86t256 -244.5t90 -373.5q0 -233 -93 -411.5t-262 -276t-392 -97.5t-390 86.5t-257.5 245t-90.5 373.5zM547 575q23 -127 95.5 -194.5t191.5 -67.5q108 0 184 69t108 193h-579zM547 1733q0 74 48 117.5t126 43.5 q80 0 129 -44t49 -117q0 -78 -49 -124t-129 -46q-78 0 -126 46t-48 124zM565 891h570q-27 117 -98.5 178t-180.5 61q-106 0 -181 -62t-110 -177zM955 1733q0 74 48 117.5t130 43.5q76 0 125 -44t49 -117q0 -78 -48 -124t-126 -46q-82 0 -130 46t-48 124z" />
<glyph unicode="&#x4eb;" horiz-adv-x="1298" d="M111 487q0 172 72.5 296t203.5 188.5t305 64.5q176 0 307.5 -62.5t202 -176t70.5 -265.5q0 -172 -72 -295.5t-203 -189t-305 -65.5q-178 0 -309 62t-201.5 177t-70.5 266zM294 1340q0 76 48.5 121t126.5 45q80 0 129 -45.5t49 -120.5q0 -78 -49.5 -124t-128.5 -46 q-78 0 -126.5 46t-48.5 124zM508 381q14 -76 57 -113t117 -37q135 0 182 150h-356zM516 631h361q-12 82 -55.5 119.5t-121.5 37.5q-141 1 -184 -157zM702 1340q0 76 48 121t130 45q76 0 125 -45.5t49 -120.5q0 -78 -48 -124t-126 -46q-82 0 -130 46t-48 124z" />
<glyph unicode="&#x4ec;" horiz-adv-x="1347" d="M10 213q0 70 49.5 124t122.5 54q45 0 90 -22q84 -31 126 -36t106 -5q121 0 201.5 66.5t113.5 174.5h-356q-86 0 -128 50.5t-36 117.5q4 63 55.5 112.5t137.5 49.5h329q-31 123 -101.5 170t-174.5 47q-70 0 -170 -6q-31 -8 -64 -8q-74 0 -114.5 45t-40.5 108 q0 59 34.5 111.5t102.5 79.5q109 16 260 16q225 0 391 -86t253 -239.5t87 -352.5q0 -244 -103.5 -427t-281.5 -281.5t-393 -98.5q-104 0 -210 21.5t-185 52.5q-51 29 -76 72t-25 90zM301 1745q0 74 48 117.5t126 43.5q80 0 129 -44t49 -117q0 -78 -49 -124t-129 -46 q-78 0 -126 46t-48 124zM709 1745q0 74 48 117.5t130 43.5q76 0 125 -44t49 -117q0 -78 -48 -124t-126 -46q-82 0 -130 46t-48 124z" />
<glyph unicode="&#x4ed;" horiz-adv-x="1146" d="M143 199q0 53 36 91t91 38q47 0 99 -33q106 -63 200 -64q84 0 141.5 48.5t78.5 138.5h-281q-66 0 -102.5 37t-36.5 86q0 45 32.5 76.5t92.5 31.5h282q-53 141 -209 142q-78 0 -178 -39q-55 -27 -102 -27q-49 0 -79 26.5t-30 67.5q0 35 24.5 72t74.5 67q65 39 149 59.5 t172 20.5q143 0 269 -53t205 -162.5t79 -271.5q0 -172 -82 -304t-218 -204t-292 -72q-176 0 -334 95q-41 27 -61.5 61.5t-20.5 71.5zM229 1346q0 76 48.5 121t126.5 45q80 0 129 -45.5t49 -120.5q0 -78 -49.5 -124t-128.5 -46q-78 0 -126.5 46t-48.5 124zM637 1346 q0 76 48 121t130 45q76 0 125 -45.5t49 -120.5q0 -78 -48 -124t-126 -46q-82 0 -130 46t-48 124z" />
<glyph unicode="&#x4ee;" horiz-adv-x="1454" d="M152 1270q0 78 58 133t134 55q51 0 97 -29.5t79 -93.5l240 -479l280 483q33 60 83.5 88.5t103.5 28.5q80 0 138 -52t58 -132q0 -59 -34 -117l-609 -1051q-33 -57 -82 -84.5t-102 -27.5q-78 0 -138.5 53t-60.5 129q0 55 31 107l117 202l-369 695q-25 47 -24 92zM444 1718 q0 59 36 90t93 31h494q47 0 76.5 -29.5t29.5 -76.5q0 -59 -35.5 -89t-91.5 -30h-495q-43 0 -75 29.5t-32 74.5z" />
<glyph unicode="&#x4ef;" horiz-adv-x="1165" d="M79 846q0 51 34 96t88.5 71.5t107.5 26.5t96 -29.5t64 -88.5l124 -394l179 390q28 61 76.5 90.5t103.5 29.5q76 0 135 -49t59 -119q0 -37 -22 -82l-553 -1054q-33 -59 -78 -89t-94 -30q-72 0 -123 49t-51 125q0 43 24 96l95 189l-256 723q-8 23 -9 49zM309 1335 q0 55 36 84t91 29h496q45 0 74.5 -26.5t29.5 -71.5q0 -61 -34.5 -92t-91.5 -31h-494q-47 0 -77 28.5t-30 79.5z" />
<glyph unicode="&#x4f0;" horiz-adv-x="1454" d="M152 1270q0 78 58 133t134 55q51 0 97 -29.5t79 -93.5l240 -479l280 483q33 60 83.5 88.5t103.5 28.5q80 0 138 -52t58 -132q0 -59 -34 -117l-609 -1051q-33 -57 -82 -84.5t-102 -27.5q-78 0 -138.5 53t-60.5 129q0 55 31 107l117 202l-369 695q-25 47 -24 92zM430 1733 q0 74 48 117.5t126 43.5q80 0 129 -44t49 -117q0 -78 -49 -124t-129 -46q-78 0 -126 46t-48 124zM838 1733q0 74 48 117.5t130 43.5q76 0 125 -44t49 -117q0 -78 -48 -124t-126 -46q-82 0 -130 46t-48 124z" />
<glyph unicode="&#x4f1;" horiz-adv-x="1165" d="M79 846q0 51 34 96t88.5 71.5t107.5 26.5t96 -29.5t64 -88.5l124 -394l179 390q28 61 76.5 90.5t103.5 29.5q76 0 135 -49t59 -119q0 -37 -22 -82l-553 -1054q-33 -59 -78 -89t-94 -30q-72 0 -123 49t-51 125q0 43 24 96l95 189l-256 723q-8 23 -9 49zM294 1342 q0 76 48.5 121t126.5 45q80 0 129 -45.5t49 -120.5q0 -78 -49.5 -124t-128.5 -46q-78 0 -126.5 46t-48.5 124zM702 1342q0 76 48 121t130 45q76 0 125 -45.5t49 -120.5q0 -78 -48 -124t-126 -46q-82 0 -130 46t-48 124z" />
<glyph unicode="&#x4f2;" horiz-adv-x="1454" d="M152 1270q0 78 58 133t134 55q51 0 97 -29.5t79 -93.5l240 -479l280 483q33 60 83.5 88.5t103.5 28.5q80 0 138 -52t58 -132q0 -59 -34 -117l-609 -1051q-33 -57 -82 -84.5t-102 -27.5q-78 0 -138.5 53t-60.5 129q0 55 31 107l117 202l-369 695q-25 47 -24 92zM608 1616 q0 18 12 43l80 186q27 57 84 58q39 0 70.5 -28t31.5 -67q0 -37 -28 -71l-111 -135q-35 -43 -80 -43q-25 0 -42 16t-17 41zM911 1616q0 23 10 43l82 186q27 57 84 58q39 0 71 -28t32 -69q0 -35 -29 -69l-111 -135q-35 -43 -80 -43q-25 0 -42 16t-17 41z" />
<glyph unicode="&#x4f3;" horiz-adv-x="1165" d="M79 846q0 51 34 96t88.5 71.5t107.5 26.5t96 -29.5t64 -88.5l124 -394l179 390q28 61 76.5 90.5t103.5 29.5q76 0 135 -49t59 -119q0 -37 -22 -82l-553 -1054q-33 -59 -78 -89t-94 -30q-72 0 -123 49t-51 125q0 43 24 96l95 189l-256 723q-8 23 -9 49zM453 1194q0 8 4 29 l41 233q10 55 45 84t76 29q43 0 74.5 -28.5t31.5 -75.5q0 -37 -20 -78l-109 -219q-12 -25 -32.5 -38.5t-41.5 -13.5q-29 0 -49 21.5t-20 56.5zM754 1194q0 8 4 29l41 233q10 55 45 84t76 29q43 0 73.5 -27.5t30.5 -74.5q0 -37 -22 -80l-105 -219q-12 -25 -32.5 -38.5 t-40.5 -13.5q-29 0 -49.5 21.5t-20.5 56.5z" />
<glyph unicode="&#x4f4;" horiz-adv-x="1435" d="M141 874q0 37 2 56l23 307q8 100 71.5 160.5t161.5 60.5t152.5 -60.5t46.5 -160.5l-16 -217q-16 -219 221 -219q6 0 40 -1t68 9l33 428q8 100 70.5 160.5t163.5 60.5q98 0 152 -60.5t46 -160.5l-82 -1030q-8 -100 -70.5 -160.5t-160.5 -60.5q-100 0 -154.5 59t-46.5 162 l23 276q-23 -6 -98.5 -12t-118.5 -6q-244 0 -385.5 99.5t-141.5 309.5zM463 1733q0 74 48 117.5t126 43.5q80 0 129 -44t49 -117q0 -78 -49 -124t-129 -46q-78 0 -126 46t-48 124zM871 1733q0 74 48 117.5t130 43.5q76 0 125 -44t49 -117q0 -78 -48 -124t-126 -46 q-82 0 -130 46t-48 124z" />
<glyph unicode="&#x4f5;" horiz-adv-x="1173" d="M98 614l17 209q6 90 66.5 143.5t160.5 53.5q98 0 152.5 -53.5t48.5 -143.5l-10 -133q-4 -29 -5 -43q0 -37 22.5 -58.5t82.5 -21.5q45 0 57 11l19 245q6 90 66.5 143.5t160.5 53.5q98 0 151.5 -53.5t47.5 -143.5l-50 -639q-6 -92 -66 -145t-159 -53q-100 0 -153.5 53 t-47.5 145l7 88q-39 -10 -170 -10q-180 0 -295 88t-103 264zM272 1346q0 76 48.5 121t126.5 45q80 0 129 -45.5t49 -120.5q0 -78 -49.5 -124t-128.5 -46q-78 0 -126.5 46t-48.5 124zM680 1346q0 76 48 121t130 45q76 0 125 -45.5t49 -120.5q0 -78 -48 -124t-126 -46 q-82 0 -130 46t-48 124z" />
<glyph unicode="&#x4f6;" horiz-adv-x="1226" d="M94 201l82 1040q8 90 67.5 146.5t151.5 56.5h674q190 0 191 -170q2 -80 -48.5 -126t-146.5 -46h-467l-61 -760h14q92 0 141 -52t41 -145l-24 -307q-6 -100 -66.5 -160.5t-153.5 -60.5q-84 0 -134 49t-50 137l2 29l12 152q-8 -2 -26 -2q-98 0 -152.5 59t-46.5 160z" />
<glyph unicode="&#x4f7;" horiz-adv-x="991" d="M78 178l51 623q4 98 61.5 154.5t147.5 56.5h461q84 0 131 -38t47 -106q2 -88 -47 -128t-156 -40h-227l-33 -391q84 -10 127 -59t35 -131l-14 -201q-8 -90 -63.5 -143.5t-145.5 -53.5q-84 0 -131.5 45.5t-47.5 124.5l2 27l5 64h-7q-98 0 -151 53t-45 143z" />
<glyph unicode="&#x4f8;" horiz-adv-x="1957" d="M92 170l2 29l80 1036q8 104 78 162.5t158 58.5t146 -58.5t50 -160.5l-24 -315h241q445 -1 445 -394q0 -260 -149.5 -394t-424.5 -134h-418q-88 0 -136 44t-48 126zM520 330h189q88 0 132 30.5t44 108.5q0 82 -39 120t-117 38h-188zM637 1733q0 74 48 117.5t126 43.5 q80 0 129 -44t49 -117q0 -78 -49 -124t-129 -46q-78 0 -126 46t-48 124zM1045 1733q0 74 48 117.5t130 43.5q76 0 125 -44t49 -117q0 -78 -48 -124t-126 -46q-82 0 -130 46t-48 124zM1386 207l82 1030q9 100 71.5 160.5t160.5 60.5q100 0 154.5 -59.5t46.5 -161.5l-82 -1030 q-8 -100 -70.5 -160.5t-163.5 -60.5q-98 0 -152.5 60t-46.5 161z" />
<glyph unicode="&#x4f9;" horiz-adv-x="1710" d="M119 190l51 644q8 92 69.5 145t161.5 53q98 0 150.5 -52t44.5 -142l-8 -113h143q412 0 412 -297q0 -125 -65.5 -223.5t-177 -151.5t-243.5 -53h-346q-96 -2 -148 49t-44 141zM512 1346q0 76 48.5 121t126.5 45q80 0 129 -45.5t49 -120.5q0 -78 -49.5 -124t-128.5 -46 q-78 0 -126.5 46t-48.5 124zM545 274h127q57 0 88 38t31 102q0 49 -28 65.5t-75 16.5h-127zM920 1346q0 76 48 121t130 45q76 0 125 -45.5t49 -120.5q0 -78 -48 -124t-126 -46q-82 0 -130 46t-48 124zM1198 184l49 652q6 90 67.5 143t162.5 53q98 0 150 -53t46 -143 l-49 -652q-6 -92 -68.5 -145t-160.5 -53q-99 0 -151 53t-46 145z" />
<glyph unicode="&#x4fa;" horiz-adv-x="1304" d="M27 700q0 72 42 116t109 44h45l29 381q10 90 69.5 146.5t149.5 56.5h676q190 0 190 -170q2 -80 -48 -126t-146 -46h-469l-19 -242h162q70 0 113 -44t43 -116t-42 -114.5t-112 -42.5h-188l-17 -201q94 0 143.5 -52t41.5 -147l-2 -47q-18 -225 -150.5 -338.5t-396.5 -128.5 l-39 -2q-76 -6 -117 30t-41 91t42 102.5t116 57.5l39 4q51 6 85 25.5t46 44.5h-10q-98 0 -152.5 59t-46.5 160l27 342h-19q-70 0 -111.5 43t-41.5 114z" />
<glyph unicode="&#x4fb;" horiz-adv-x="1067" d="M18 461q0 53 34 89t85 36h49l19 215q8 98 63.5 154.5t145.5 56.5h489q70 0 110 -37t40 -101q0 -78 -48.5 -126t-125.5 -48h-256l-11 -114h86q45 0 72 -28t27 -71q0 -57 -33 -92t-84 -35h-86l-8 -135h-31q96 0 128 -41t34 -131l2 2q4 -143 -62.5 -230t-177 -129 t-270.5 -65q-12 -2 -37 -2q-59 0 -93 30t-34 75q0 47 39 85t111 50q68 14 99.5 23.5t53 32t27.5 65.5q-10 -8 -25 -8q-92 0 -145 46t-53 126l2 24l14 182h-51q-45 0 -72 28t-27 73z" />
<glyph unicode="&#x4fc;" horiz-adv-x="1449" d="M49 174q0 78 57 143l371 416l-297 391q-39 53 -39 113q0 57 32 108.5t83 83t104 31.5q80 0 136 -74l264 -350l317 348q61 74 148 74q76 0 132 -57.5t56 -132.5q0 -76 -59 -144l-367 -403l230 -293q135 -211 135 -352q0 -217 -281 -395q-47 -23 -100 -23q-74 0 -122 48 t-48 114q0 41 21.5 81t66.5 68q33 33 46 65t13 50q0 57 -48 129t-159 190l-41 31l-317 -377q-63 -76 -147 -75q-76 0 -131.5 56t-55.5 136z" />
<glyph unicode="&#x4fd;" horiz-adv-x="1308" d="M29 158q0 82 73 153l238 207l-188 189q-51 59 -52 129q0 80 61.5 140t141.5 60t143 -71l172 -183l201 179q72 72 156 71q70 0 120 -49t50 -119q0 -80 -70 -147l-227 -199l242 -289q37 -41 45 -79.5t8 -112.5q0 -113 -65.5 -208t-172.5 -151q-49 -20 -96 -20 q-68 0 -112 42t-44 99q0 41 27 81t82 69q8 10 8 22q0 6 -5 20.5t-5 22.5q0 29 -32 70t-153 174l-225 -205q-68 -68 -147 -67q-72 0 -123 50t-51 122z" />
<glyph unicode="&#x4fe;" horiz-adv-x="1429" d="M45 174q0 78 57 143l277 310h-148q-53 0 -80.5 24.5t-27.5 59.5q0 41 33.5 70.5t93.5 29.5h164l-238 313q-39 53 -39 113q0 57 32 108.5t83 83t104 31.5q80 0 136 -74l264 -350l317 348q61 74 148 74q76 0 132 -57.5t56 -132.5q0 -76 -59 -144l-285 -313h125 q53 0 81.5 -24.5t28.5 -59.5q0 -39 -34.5 -69.5t-94.5 -30.5h-108l250 -308q41 -53 41 -116q0 -55 -32 -106.5t-83 -82t-104 -30.5q-78 0 -131 69l-299 383l-326 -379q-63 -76 -148 -75q-76 0 -131 56t-55 136z" />
<glyph unicode="&#x4ff;" horiz-adv-x="1193" d="M29 156q0 80 75 155l156 140h-59q-49 0 -76 25.5t-27 60.5q0 39 33 69.5t88 30.5h82l-108 111q-57 63 -58 135q0 66 49 112.5t115 46.5q86 0 152 -77l172 -183l198 179q80 80 164 79q57 0 96 -37.5t39 -95.5q0 -78 -76 -151l-135 -119h103q51 0 78.5 -24.5t27.5 -59.5 q0 -37 -33.5 -69.5t-89.5 -32.5h-69l131 -138q53 -61 53 -129t-49 -116t-115 -48q-84 0 -147 76l-219 242l-261 -246q-74 -74 -155 -74q-57 0 -96 39t-39 99z" />
<glyph unicode="&#x2000;" horiz-adv-x="1020" />
<glyph unicode="&#x2001;" horiz-adv-x="2040" />
<glyph unicode="&#x2002;" horiz-adv-x="1020" />
<glyph unicode="&#x2003;" horiz-adv-x="2040" />
<glyph unicode="&#x2004;" horiz-adv-x="680" />
<glyph unicode="&#x2005;" horiz-adv-x="510" />
<glyph unicode="&#x2006;" horiz-adv-x="340" />
<glyph unicode="&#x2007;" horiz-adv-x="340" />
<glyph unicode="&#x2008;" horiz-adv-x="255" />
<glyph unicode="&#x2009;" horiz-adv-x="408" />
<glyph unicode="&#x200a;" horiz-adv-x="113" />
<glyph unicode="&#x2010;" horiz-adv-x="925" d="M86 539q0 88 51 132t162 44h365q90 0 137 -41t47 -109q0 -178 -213 -178h-365q-90 0 -137 42t-47 110z" />
<glyph unicode="&#x2011;" horiz-adv-x="925" d="M86 539q0 88 51 132t162 44h365q90 0 137 -41t47 -109q0 -178 -213 -178h-365q-90 0 -137 42t-47 110z" />
<glyph unicode="&#x2012;" horiz-adv-x="925" d="M86 539q0 88 51 132t162 44h365q90 0 137 -41t47 -109q0 -178 -213 -178h-365q-90 0 -137 42t-47 110z" />
<glyph unicode="&#x2013;" horiz-adv-x="1024" d="M4 549q0 55 46 88t124 33h707q68 0 107.5 -31t39.5 -84q0 -57 -45 -90t-123 -33h-706q-68 0 -109 33t-41 84z" />
<glyph unicode="&#x2014;" horiz-adv-x="2048" d="M4 549q0 55 46 88t124 33h1731q68 0 107.5 -31t39.5 -84q0 -57 -45 -90t-123 -33h-1730q-68 0 -109 33t-41 84z" />
<glyph unicode="&#x2018;" horiz-adv-x="583" d="M104 940q0 131 62.5 255t167.5 222q37 37 82 37q41 0 70.5 -28.5t29.5 -69.5t-31 -72q-39 -41 -67.5 -80t-46.5 -92q84 -12 130 -66.5t46 -138.5q0 -113 -64.5 -170t-160.5 -57q-106 0 -162 65.5t-56 194.5z" />
<glyph unicode="&#x2019;" horiz-adv-x="583" d="M125 1227q0 113 64.5 170t160.5 57q107 0 162 -66.5t55 -193.5q0 -129 -62.5 -254t-164.5 -223q-37 -37 -82 -37q-41 0 -71.5 29.5t-30.5 68.5q0 41 30 72q39 41 68 80t49 92q-86 10 -132 65.5t-46 139.5z" />
<glyph unicode="&#x201a;" horiz-adv-x="583" d="M45 209q0 113 64.5 170t160.5 57q107 0 162 -65.5t55 -194.5q0 -131 -62.5 -255t-166.5 -222q-39 -37 -82 -37q-41 0 -72.5 31t-31.5 69q0 37 32 70q82 82 119 172q-86 12 -132 66.5t-46 138.5z" />
<glyph unicode="&#x201c;" horiz-adv-x="1077" d="M104 940q0 131 62.5 255t167.5 222q37 37 82 37q41 0 70.5 -28.5t29.5 -69.5t-31 -72q-39 -41 -67.5 -80t-46.5 -92q84 -12 130 -66.5t46 -138.5q0 -113 -64.5 -170t-160.5 -57q-106 0 -162 65.5t-56 194.5zM598 940q0 131 62.5 255t167.5 222q37 37 82 37 q41 0 70.5 -28.5t29.5 -69.5t-31 -72q-39 -41 -67.5 -80t-46.5 -92q84 -12 130 -66.5t46 -138.5q0 -113 -64.5 -170t-160.5 -57q-106 0 -162 65.5t-56 194.5z" />
<glyph unicode="&#x201d;" horiz-adv-x="1077" d="M125 1227q0 113 64.5 170t160.5 57q107 0 162 -66.5t55 -193.5q0 -129 -62.5 -254t-164.5 -223q-37 -37 -82 -37q-41 0 -71.5 29.5t-30.5 68.5q0 41 30 72q39 41 68 80t49 92q-86 10 -132 65.5t-46 139.5zM619 1227q0 113 64.5 170t160.5 57q107 0 162 -66.5t55 -193.5 q0 -129 -62.5 -254t-164.5 -223q-37 -37 -82 -37q-41 0 -71.5 29.5t-30.5 68.5q0 41 30 72q39 41 68 80t49 92q-86 10 -132 65.5t-46 139.5z" />
<glyph unicode="&#x201e;" horiz-adv-x="1077" d="M45 209q0 113 64.5 170t160.5 57q107 0 162 -65.5t55 -194.5q0 -131 -62.5 -255t-166.5 -222q-39 -37 -82 -37q-41 0 -72.5 31t-31.5 69q0 37 32 70q82 82 119 172q-86 12 -132 66.5t-46 138.5zM539 209q0 113 64.5 170t160.5 57q107 0 162 -65.5t55 -194.5 q0 -131 -62.5 -255t-166.5 -222q-39 -37 -82 -37q-41 0 -72.5 31t-31.5 69q0 37 32 70q82 82 119 172q-86 12 -132 66.5t-46 138.5z" />
<glyph unicode="&#x2020;" horiz-adv-x="786" d="M90 1081q0 57 48 95t118 38h41l6 89q6 68 54.5 112.5t113.5 44.5q68 0 107.5 -45t33.5 -112l-6 -89h41q72 0 106.5 -32.5t34.5 -87.5q0 -63 -41.5 -104.5t-121.5 -41.5h-41l-35 -452q-6 -68 -55.5 -113t-114.5 -45q-66 0 -106 45t-33 113l34 452h-41q-61 0 -102 37 t-41 96z" />
<glyph unicode="&#x2021;" horiz-adv-x="786" d="M61 727q0 49 47.5 83t116.5 34h41l8 108h-41q-63 0 -103 40t-40 91q0 63 48 100.5t118 37.5h41l6 82q6 68 54.5 112.5t113.5 44.5q68 0 107.5 -45t33.5 -112l-6 -82h41q63 0 104.5 -40t41.5 -94q0 -59 -48.5 -97t-119.5 -38h-41l-9 -108h41q61 0 103.5 -38t42.5 -87 q0 -66 -46 -102.5t-120 -36.5h-39l-8 -88q-6 -66 -55.5 -112t-114.5 -46q-64 0 -105 46t-34 112l8 88h-41q-63 0 -104.5 42t-41.5 105z" />
<glyph unicode="&#x2022;" horiz-adv-x="1073" d="M168 543q0 94 48 178t133 135t190 51q98 0 183 -48t136 -131t51 -185q0 -98 -50 -181t-135 -132.5t-185 -49.5q-99 0 -185 48t-136 131t-50 184z" />
<glyph unicode="&#x2026;" horiz-adv-x="1751" d="M45 211q0 96 63.5 160.5t159.5 64.5t160 -64.5t64 -160.5q0 -94 -63.5 -159.5t-160.5 -65.5q-96 0 -159.5 65.5t-63.5 159.5zM629 211q0 96 63.5 160.5t159.5 64.5t159.5 -64.5t63.5 -160.5q0 -94 -63.5 -159.5t-159.5 -65.5t-159.5 65.5t-63.5 159.5zM1212 211 q0 96 63.5 160.5t160.5 64.5q96 0 159.5 -64.5t63.5 -160.5q0 -94 -63.5 -159.5t-159.5 -65.5q-97 0 -160.5 65.5t-63.5 159.5z" />
<glyph unicode="&#x202f;" horiz-adv-x="408" />
<glyph unicode="&#x2030;" horiz-adv-x="2818" d="M84 999q0 219 107.5 346.5t293.5 127.5t290 -108t104 -300q0 -225 -104.5 -350t-297.5 -125q-188 0 -290.5 106.5t-102.5 302.5zM420 963q0 -63 12 -91t41 -28q39 0 54.5 66.5t15.5 191.5q0 61 -12.5 89t-41.5 28q-39 0 -54 -62.5t-15 -193.5zM449 84q0 45 28 88 l828 1253q25 39 58.5 57.5t70.5 18.5q59 0 104 -41t45 -100q0 -45 -29 -88l-827 -1254q-25 -38 -59.5 -56.5t-71.5 -18.5q-57 0 -102 41t-45 100zM1149 395q0 219 107.5 346t293.5 127t290 -107.5t104 -299.5q0 -227 -104.5 -351t-297.5 -124q-188 0 -290.5 106.5 t-102.5 302.5zM1485 356q0 -61 12 -88.5t41 -27.5q39 0 54.5 66.5t15.5 191.5q0 61 -12.5 88.5t-41.5 27.5q-39 0 -54 -62.5t-15 -195.5zM1974 395q0 219 107.5 346t294.5 127q186 0 289.5 -107.5t103.5 -299.5q0 -227 -105.5 -351t-298.5 -124q-188 0 -289.5 106.5 t-101.5 302.5zM2310 356q0 -61 12.5 -88.5t38.5 -27.5q39 0 54.5 65.5t15.5 192.5q0 61 -11.5 88.5t-41.5 27.5q-39 0 -53.5 -62.5t-14.5 -195.5z" />
<glyph unicode="&#x2039;" horiz-adv-x="692" d="M104 537q0 66 54 137l170 221q31 41 70.5 61.5t82.5 20.5q61 0 103.5 -37t42.5 -96q0 -43 -27 -94l-108 -201l73 -201q14 -37 15 -74q0 -70 -49.5 -113.5t-114.5 -43.5q-43 0 -81 21.5t-63 64.5l-133 221q-35 59 -35 113z" />
<glyph unicode="&#x203a;" horiz-adv-x="673" d="M72 248q0 45 26 96l109 203l-74 201q-14 37 -14 73q0 68 49 112t113 44q43 0 81.5 -21.5t63.5 -64.5l133 -221q33 -57 33 -111q0 -68 -51 -137l-168 -221q-31 -43 -72 -63.5t-86 -20.5q-59 0 -101 35.5t-42 95.5z" />
<glyph unicode="&#x2044;" horiz-adv-x="434" d="M-322 74q0 45 29 88l830 1257q49 74 122 74q53 0 91 -36t38 -89q0 -41 -26 -86l-830 -1257q-49 -74 -125 -74q-51 0 -90 34.5t-39 88.5z" />
<glyph unicode="&#x205f;" horiz-adv-x="510" />
<glyph unicode="&#x20ac;" d="M14 559q0 55 39 90t101 35h34q0 29 5 78h-37q-49 0 -83 33.5t-34 85.5q0 53 39 88t100 35h58q68 221 221 340.5t374 119.5q98 0 197.5 -30.5t185.5 -87.5q57 -43 58 -113q0 -72 -54.5 -133.5t-127.5 -61.5q-43 0 -89 27q-61 33 -99 43t-71 10q-106 1 -157 -114h170 q49 0 84 -34t35 -83q0 -55 -40 -90t-100 -35h-200q-4 -49 -5 -78h201q49 0 84 -34t35 -85q0 -53 -40 -88t-99 -35h-168q14 -61 48 -88.5t91 -27.5q43 0 81 10t118 47q37 23 80 23q61 0 103 -50.5t42 -115.5q0 -41 -19.5 -79t-60.5 -65q-100 -61 -192.5 -88.5t-194.5 -27.5 q-203 0 -339 121.5t-179 340.5h-78q-49 0 -83 34t-34 83z" />
<glyph unicode="&#x2122;" horiz-adv-x="1984" d="M61 1286q0 82 46.5 120t146.5 38h506q168 0 168 -137q0 -84 -45 -125t-148 -41h-61l-33 -389q-6 -86 -65.5 -133.5t-139.5 -47.5q-78 0 -130 47.5t-46 133.5l33 389h-64q-86 0 -127 39t-41 106zM952 727q0 20 2 31l39 518q8 86 66.5 133t130.5 47q102 0 153 -119 l103 -229l143 229q74 119 185 119q71 0 117 -47t38 -133l-39 -518q-18 -186 -178 -187q-76 0 -118 47.5t-33 139.5l4 43q-37 -51 -68 -71.5t-80 -20.5q-45 0 -74.5 20.5t-56.5 67.5l-2 -39q-8 -94 -55 -140.5t-125 -46.5q-72 0 -112 39t-40 117z" />
<glyph unicode="&#x2202;" d="M4 453q0 152 60.5 274.5t170 192t246.5 69.5q88 0 156 -26.5t108 -67.5q4 41 5 57q0 137 -99.5 224.5t-288.5 87.5h-24q-76 0 -114 38.5t-38 96.5q0 49 26 94t69 66q53 23 98 29.5t108 6.5q213 0 367 -89t235.5 -260t81.5 -410q0 -264 -77.5 -461t-222 -304.5 t-339.5 -107.5q-252 0 -390 128t-138 362zM436 465q0 -76 28 -120t79 -44q59 0 95 44t36 134q0 80 -29 124t-82 44q-59 0 -93 -45t-34 -137z" />
<glyph unicode="&#x2206;" horiz-adv-x="1716" d="M55 164q0 98 54.5 141t171.5 43h86q-150 209 -203 324.5t-53 230.5q0 170 98 298t279.5 196.5t422.5 68.5q362 0 561 -137t199 -383q0 -133 -89 -273.5t-253 -324.5h88q195 1 195 -153q0 -104 -55.5 -149.5t-170.5 -45.5h-352q-78 0 -120 43t-42 113q0 88 62 176 q129 207 188.5 311.5t84 171t24.5 125.5q0 94 -78 141t-242 47q-174 0 -268 -62t-94 -189q0 -59 44 -174t167 -373q35 -76 35 -140q0 -84 -52.5 -137t-140.5 -53h-352q-195 0 -195 164z" />
<glyph unicode="&#x220f;" d="M61 -182l113 1429q8 86 67.5 141.5t145.5 55.5h606q86 0 137.5 -55.5t43.5 -141.5l-113 -1429q-6 -86 -66.5 -141.5t-144.5 -55.5t-135 55.5t-45 141.5l100 1288h-219l-98 -1288q-6 -86 -66.5 -141.5t-144.5 -55.5t-135.5 55.5t-45.5 141.5z" />
<glyph unicode="&#x2211;" horiz-adv-x="1277" d="M4 -207q0 90 70 180l469 590l-379 541q-45 70 -45 143q0 84 54 140.5t149 56.5h755q195 0 195 -160q0 -98 -54.5 -143t-170.5 -45h-404l266 -394q53 -84 54 -147q0 -82 -82 -182l-316 -393h396q195 0 194 -160q0 -98 -54 -143.5t-171 -45.5h-754q-82 0 -127 45t-45 117z " />
<glyph unicode="&#x221a;" d="M20 584q0 63 43 105t107 42h203q47 0 78.5 -26.5t40.5 -71.5l69 -584l354 1319q18 55 62.5 84t95.5 29q53 0 90 -29t37 -76q0 -23 -4 -35l-430 -1531q-37 -121 -91 -175.5t-140 -54.5q-89 0 -134 51.5t-67 169.5l-98 652h-89q-53 0 -90 38.5t-37 92.5z" />
<glyph unicode="&#x221e;" d="M45 539q0 199 96.5 322.5t266.5 123.5q158 0 233 -143q92 143 242 143q143 0 227 -96t84 -260q0 -219 -95 -335t-261 -116q-160 0 -236 144q-92 -143 -242 -144q-143 0 -229 96.5t-86 264.5zM291 561q0 -66 29.5 -106.5t78.5 -40.5q47 0 83 44t55 126q-6 78 -42 122 t-85 44q-57 0 -88 -53.5t-31 -135.5zM705 584q8 -80 43.5 -125t85.5 -45q57 0 87.5 54t30.5 140q0 61 -29.5 101.5t-78.5 40.5q-47 0 -83 -43t-56 -123z" />
<glyph unicode="&#x222b;" d="M78 -223q0 70 47 121t115 51h20q49 0 79 34.5t34 86.5l73 942q18 217 152.5 329.5t376.5 112.5q96 0 141 -43t45 -117q0 -68 -47 -119t-113 -51h-22q-47 0 -78 -34.5t-35 -85.5l-73 -943q-18 -217 -153.5 -328.5t-377.5 -111.5q-94 0 -139 45t-45 111z" />
<glyph unicode="&#x2248;" d="M135 360q0 39 29 80q49 66 118.5 103t139.5 37q55 0 106.5 -18.5t126.5 -53.5q49 -25 81 -37t59 -12h22q20 0 31 6q66 57 131 57q49 0 82 -31.5t33 -76.5q0 -43 -31 -84q-51 -63 -122 -99t-140 -36q-56 0 -109 19t-121 54q-49 25 -80.5 37t-58.5 12h-24q-23 0 -33 -6 q-61 -61 -127 -61q-47 0 -80 31.5t-33 78.5zM162 770q0 39 28 80q49 66 119 102.5t140 36.5q55 0 106 -18.5t127 -52.5q49 -25 81 -37.5t58 -12.5h23q20 0 30 6q66 57 132 58q49 0 81.5 -32t32.5 -77q0 -43 -30 -84q-51 -63 -122 -99t-141 -36q-55 0 -108 19.5t-121 54.5 q-49 25 -81 37t-58 12h-25q-23 0 -33 -6q-61 -61 -127 -62q-47 0 -79.5 32t-32.5 79z" />
<glyph unicode="&#x2260;" d="M104 375q0 66 43 108.5t107 42.5h192l66 131h-246q-53 0 -90 37t-37 90q0 66 43 109t107 43h360l66 133q20 41 54 62.5t73 21.5q29 0 59 -12q37 -16 56.5 -47t19.5 -68t-16 -68l-11 -22h62q55 0 91 -38t36 -93q0 -63 -44 -105.5t-106 -42.5h-178l-63 -131h229 q55 0 92 -37.5t37 -93.5q0 -66 -44 -106.5t-108 -40.5h-346l-65 -133q-20 -39 -54 -62.5t-75 -23.5q-25 0 -54 12q-37 16 -58 48t-21 69q0 29 16 65l12 25h-78q-53 0 -90 37t-37 90z" />
<glyph unicode="&#x2264;" d="M86 129q0 63 43 106.5t107 43.5h722q56 0 92.5 -38t36.5 -94q0 -63 -44 -105t-107 -42h-723q-53 0 -90 38t-37 91zM135 705q0 68 41 124t103 72l708 176q12 4 33 4q53 0 90 -43t39 -98q0 -45 -29.5 -82t-72.5 -49l-429 -100l383 -95q46 -14 77.5 -54t31.5 -89 q0 -59 -36 -100t-91 -41q-23 0 -43 6l-659 172q-59 16 -101.5 73.5t-44.5 123.5z" />
<glyph unicode="&#x2265;" d="M86 129q0 63 43 106.5t107 43.5h722q56 0 92.5 -38t36.5 -94q0 -63 -44 -105t-107 -42h-723q-53 0 -90 38t-37 91zM119 475q0 45 29.5 82t72.5 49l426 103l-381 92q-45 14 -75.5 52t-30.5 87q-4 66 33.5 104.5t101.5 38.5q20 0 33 -2l659 -172q61 -16 103.5 -74.5 t42.5 -127.5q0 -63 -41 -117.5t-103 -71.5l-708 -180q-21 -4 -31 -4q-53 0 -91 43t-40 98z" />
<glyph unicode="&#x25ca;" d="M106 553q0 51 25 100l342 754q35 68 95.5 106.5t133.5 38.5q70 0 123.5 -39.5t75.5 -105.5l225 -754q8 -27 9 -61q0 -51 -23 -103l-346 -753q-31 -66 -92.5 -106t-134.5 -40q-70 0 -123.5 39t-75.5 107l-223 753q-10 35 -11 64zM403 571l162 -622l285 622l-176 623z" />
<glyph unicode="&#x25fc;" horiz-adv-x="1034" d="M0 0v1034h1034v-1034h-1034z" />
<glyph unicode="&#xf8ff;" horiz-adv-x="1347" d="M55 756h484l151 458l158 -458h485l-391 -295l145 -459l-397 277l-389 -277l143 459zM489 406h58v147l94 -147h45v266h-57v-148l-94 148h-46v-266zM713 434q18 -14 44.5 -22.5t49.5 -8.5q47 0 74.5 23t27.5 59q0 37 -20.5 51.5t-59.5 24.5q-29 6 -41 12.5t-12 22.5 q0 14 11.5 22.5t27.5 8.5q33 0 70 -25l16 41q-14 14 -38.5 22.5t-47.5 8.5q-41 0 -69.5 -23.5t-28.5 -60.5t21.5 -52.5t62.5 -25.5q25 -6 37 -12t12 -21q0 -14 -11.5 -21t-29.5 -7q-39 0 -78 26z" />
</font>
</defs>
</svg>
