<?xml version="1.0" standalone="no"?>
<!DOCTYPE svg PUBLIC "-//W3C//DTD SVG 1.1//EN" "http://www.w3.org/Graphics/SVG/1.1/DTD/svg11.dtd" >
<svg xmlns="http://www.w3.org/2000/svg" xmlns:xlink="http://www.w3.org/1999/xlink" version="1.1">
<metadata></metadata>
<defs>
<font id="nunito_heavyregular" horiz-adv-x="1228" >
<font-face units-per-em="2048" ascent="1638" descent="-410" />
<missing-glyph horiz-adv-x="604" />
<glyph unicode="&#xfb01;" horiz-adv-x="1458" d="M-37 856q0 156 193 156h37q12 188 131.5 298.5t314.5 131.5l37 4q16 2 47 2q174 0 174 -148q0 -70 -40 -109.5t-97 -43.5l-37 -4q-63 -6 -85 -38t-22 -83v-10h558q192 0 192 -156v-674q0 -96 -61.5 -146t-151.5 -50t-151.5 50t-61.5 146v518h-324v-514q0 -98 -60 -147 t-153 -49q-90 0 -151.5 49t-61.5 147v514h-34q-193 0 -193 156zM926 1352q0 90 60.5 142t166.5 52q104 0 166.5 -53t62.5 -141q0 -90 -61 -144.5t-168 -54.5q-104 0 -165.5 54.5t-61.5 144.5z" />
<glyph unicode="&#xfb02;" horiz-adv-x="1579" d="M-37 856q0 156 193 156h34q10 193 131 303t318 127l53 4q18 2 49 2q104 0 148.5 -38t44.5 -110t-43 -110.5t-115 -42.5l-53 -4q-61 -4 -84 -37t-23 -84v-10h76q193 0 193 -156t-193 -156h-76v-514q0 -98 -60 -147t-153 -49q-90 0 -151.5 49t-61.5 147v514h-34 q-193 0 -193 156zM1061 182v1075q0 98 61.5 147.5t151.5 49.5q92 0 152.5 -49t60.5 -148v-1075q0 -96 -60.5 -146t-152.5 -50q-90 0 -151.5 50t-61.5 146z" />
<glyph horiz-adv-x="0" />
<glyph unicode="&#xd;" horiz-adv-x="604" />
<glyph horiz-adv-x="0" />
<glyph horiz-adv-x="0" />
<glyph unicode=" "  horiz-adv-x="604" />
<glyph unicode="&#x09;" horiz-adv-x="604" />
<glyph unicode="&#xa0;" horiz-adv-x="604" />
<glyph unicode="!" horiz-adv-x="583" d="M37 1227q0 106 71.5 166.5t184.5 60.5q111 0 183.5 -61.5t72.5 -167.5q0 -14 -4 -43l-125 -543q-8 -61 -43 -94t-84 -33q-51 0 -86 31.5t-43 95.5l-125 547q-2 14 -2 41zM68 211q0 96 63.5 160.5t159.5 64.5t160.5 -64.5t64.5 -160.5q0 -94 -64.5 -159.5t-160.5 -65.5 t-159.5 65.5t-63.5 159.5z" />
<glyph unicode="&#x22;" horiz-adv-x="1038" d="M68 1243q0 98 60 154.5t163 56.5q100 0 159.5 -55.5t59.5 -153.5q0 -23 -8 -71l-70 -261q-14 -66 -49 -96.5t-94 -30.5q-58 0 -94.5 33t-47.5 94l-71 261q-8 49 -8 69zM529 1243q0 98 60 154.5t163 56.5q100 0 159.5 -55.5t59.5 -153.5q0 -23 -8 -71l-70 -261 q-14 -66 -49 -96.5t-94 -30.5q-58 0 -94.5 33t-47.5 94l-71 261q-8 49 -8 69z" />
<glyph unicode="#" d="M86 436q0 53 36 88t89 35h45l66 342h-70q-53 0 -89 36t-36 89t36 88t89 35h119l43 217q8 43 39.5 68.5t76.5 25.5q59 0 98.5 -37t39.5 -92q0 -12 -4 -33l-31 -149h133l43 217q8 43 40 68.5t79 25.5q61 0 99 -37t38 -92q0 -18 -2 -28l-31 -154q49 -6 80 -41t31 -84 q0 -53 -36 -88t-89 -35h-35l-65 -342h59q53 0 89 -36t36 -89t-36 -88t-89 -35h-109l-45 -227q-8 -43 -39.5 -68.5t-81.5 -25.5q-59 0 -97 36.5t-38 92.5q0 18 2 28l33 164h-137l-45 -227q-8 -41 -41 -67.5t-74 -26.5q-57 0 -95 36.5t-38 92.5q0 18 2 28l33 164q-51 2 -86 37 t-35 88zM516 559h135l66 342h-133z" />
<glyph unicode="$" d="M16 256q0 70 43 123t101 53q29 0 56.5 -9t72.5 -36q86 -41 155.5 -56.5t153.5 -15.5q92 0 137 26t45 81q0 49 -55 73.5t-180 53.5q-152 39 -251 78t-173 127t-74 235q0 164 113.5 287t300.5 168v84q0 72 46 117t118 45q76 0 121 -45.5t45 -116.5v-76q78 -12 151.5 -41 t165.5 -78q41 -27 58.5 -60.5t17.5 -84.5q0 -72 -42 -124t-100 -52q-29 0 -54 9t-75 36q-25 6 -57 22q-61 25 -104 37t-103 12q-74 0 -120 -29.5t-46 -78.5q0 -51 56.5 -76.5t179.5 -52.5q152 -35 252 -75t174 -129t74 -243q0 -168 -113 -286.5t-305 -159.5v-82 q0 -72 -46 -117t-120 -45q-72 0 -119 45t-47 117v74q-195 25 -375 121q-41 27 -59.5 59.5t-18.5 85.5z" />
<glyph unicode="%" horiz-adv-x="1994" d="M43 1034q0 207 106.5 321.5t290.5 114.5t291 -115.5t107 -324.5q0 -213 -105.5 -327.5t-292.5 -114.5q-186 0 -291.5 114.5t-105.5 331.5zM383 1030q0 -106 13.5 -147t43.5 -41q31 0 44.5 41t13.5 147q0 100 -14.5 143.5t-43.5 43.5q-31 0 -44 -42t-13 -145zM494 104 q0 53 32 111l678 1167q31 53 72 79t84 26q57 0 99 -42t42 -106q0 -53 -33 -110l-677 -1168q-31 -53 -72 -78.5t-84 -25.5q-57 0 -99 42t-42 105zM1157 432q0 207 106.5 321.5t290.5 114.5t291 -115.5t107 -324.5q0 -213 -105.5 -327.5t-292.5 -114.5q-186 0 -291.5 114.5 t-105.5 331.5zM1497 428q0 -106 13.5 -147t43.5 -41q31 0 44.5 41t13.5 147q0 100 -14.5 143t-43.5 43q-31 0 -44 -42t-13 -144z" />
<glyph unicode="&#x26;" horiz-adv-x="1460" d="M31 408q0 123 57 218t182 173q-113 127 -112 274q0 111 58 198t165.5 137t249.5 50q195 0 309.5 -98t114.5 -258q0 -221 -221 -350l165 -138q43 84 60 168q10 78 61 120t117 42q72 0 121 -49t41 -135q-25 -190 -137 -365l149 -123q59 -52 59 -122q0 -66 -53 -117 t-123 -51q-66 0 -120 49l-140 116q-100 -80 -217 -122.5t-239 -42.5q-160 0 -284 54t-193.5 151.5t-69.5 220.5zM440 438q0 -61 42 -100t114 -39q96 0 188 59l-280 236q-63 -63 -64 -156zM530 1077q0 -27 16.5 -56.5t61.5 -74.5q66 31 93.5 64.5t27.5 79.5q0 45 -26.5 71.5 t-65.5 26.5q-49 0 -78 -30t-29 -81z" />
<glyph unicode="'" horiz-adv-x="577" d="M68 1243q0 98 60 154.5t163 56.5q100 0 159.5 -55.5t59.5 -153.5q0 -23 -8 -71l-70 -261q-14 -66 -49 -96.5t-94 -30.5q-58 0 -94.5 33t-47.5 94l-71 261q-8 49 -8 69z" />
<glyph unicode="(" horiz-adv-x="868" d="M197 539q0 453 235 774q43 66 99.5 99.5t109.5 33.5q55 0 92 -34t37 -93q0 -37 -18 -86q-63 -166 -91 -330t-28 -364q0 -201 27.5 -361t91.5 -328q18 -47 18 -83q0 -59 -37 -94t-92 -35q-53 0 -109.5 33.5t-99.5 99.5q-235 322 -235 768z" />
<glyph unicode=")" horiz-adv-x="868" d="M98 -236q0 37 19 86q63 168 89.5 329t26.5 360q0 201 -27.5 363.5t-88.5 330.5q-18 49 -19 86q0 59 37 93t92 34q53 0 109.5 -34t99.5 -99q236 -326 236 -774q0 -442 -236 -768q-43 -66 -99 -99.5t-110 -33.5q-55 0 -92 34.5t-37 91.5z" />
<glyph unicode="*" horiz-adv-x="935" d="M29 1055q0 57 31.5 98t86.5 37l103 -8l-57 82q-20 29 -21 59q0 51 49 91t107 40q66 0 94 -57l45 -97l47 97q29 59 94 59q57 0 105.5 -41t48.5 -92q0 -35 -19 -59l-59 -84l104 10q56 2 86.5 -37t30.5 -96t-30.5 -98t-86.5 -37l-106 8l61 -86q18 -31 19 -58q0 -51 -50 -92 t-106 -41q-66 0 -92 58l-47 98l-45 -98q-29 -57 -92 -58q-57 0 -106.5 41t-49.5 94q0 31 19 58l59 84l-105 -8q-57 -2 -87.5 36.5t-30.5 96.5z" />
<glyph unicode="+" d="M115 592q0 59 40 99t97 40h223v221q0 59 40 99.5t99 40.5t99.5 -40t40.5 -100v-221h223q57 0 97 -40t40 -99t-39 -99t-98 -40h-223v-224q0 -59 -40 -98t-100 -39q-59 0 -99 39t-40 98v224h-223q-59 0 -98 39.5t-39 99.5z" />
<glyph unicode="," horiz-adv-x="583" d="M68 211q0 96 61 160.5t156 64.5q102 0 166.5 -73.5t64.5 -206.5q0 -135 -48 -247t-144 -210q-33 -35 -78 -35t-81 32t-36 73q0 35 29 63q78 82 106 172q-88 8 -142 64.5t-54 142.5z" />
<glyph unicode="-" horiz-adv-x="925" d="M82 553q0 162 199 162h364q199 0 199 -162q0 -166 -199 -166h-364q-199 0 -199 166z" />
<glyph unicode="." horiz-adv-x="583" d="M68 211q0 96 63.5 160.5t159.5 64.5t160.5 -64.5t64.5 -160.5q0 -94 -64.5 -159.5t-160.5 -65.5t-159.5 65.5t-63.5 159.5z" />
<glyph unicode="/" horiz-adv-x="757" d="M-14 -27q0 29 8 54l459 1446q18 55 59 82.5t92 27.5q66 0 115 -41t49 -106q0 -29 -8 -54l-459 -1445q-18 -56 -59 -83.5t-90 -27.5q-66 0 -116 41t-50 106z" />
<glyph unicode="0" d="M49 725q0 356 146.5 547.5t418.5 191.5t419 -192.5t147 -548.5q0 -360 -146.5 -551.5t-419.5 -191.5q-274 0 -419.5 192.5t-145.5 552.5zM475 723q0 -225 32 -319.5t107 -94.5q76 0 108 94.5t32 319.5q0 223 -32 317.5t-108 94.5t-107.5 -93.5t-31.5 -318.5z" />
<glyph unicode="1" d="M90 1057q0 45 20.5 84t63.5 63l332 187q102 61 203 61q94 0 153.5 -57.5t59.5 -153.5v-893h139q108 0 158.5 -43t50.5 -129q0 -88 -50.5 -132t-158.5 -44h-721q-109 0 -159 44t-50 132q0 86 50 129t159 43h139v629l-147 -82q-43 -25 -82 -25q-68 0 -114 56.5t-46 130.5z " />
<glyph unicode="2" horiz-adv-x="1232" d="M55 1188q0 53 16.5 86t57.5 59q100 61 220 96t233 35q158 0 278.5 -52t186 -147.5t65.5 -217.5q0 -127 -48 -226.5t-167 -220.5l-252 -252h336q109 0 159 -42t50 -130q0 -90 -51.5 -133t-157.5 -43h-729q-86 0 -137.5 52t-51.5 130q0 102 84 189l418 424q115 115 115 219 q0 111 -119 110q-43 0 -80 -11t-88 -32q-43 -23 -67 -24q-16 -8 -41 -22.5t-45.5 -21.5t-42.5 -7q-59 0 -100.5 54t-41.5 128z" />
<glyph unicode="3" d="M33 258q0 74 41 125t100 51q31 0 53.5 -8t45 -20.5t30.5 -16.5q31 -6 68 -24q53 -20 93 -31.5t91 -11.5q104 0 144 26.5t40 97.5q0 63 -41 89t-141 26h-133q-72 0 -111 50.5t-39 117.5q0 68 39 118t111 50h92q102 0 141 20.5t39 73.5q0 61 -37.5 97t-101.5 36 q-41 0 -73.5 -10t-88.5 -33q-49 -23 -69 -24q-8 -4 -35 -18.5t-48.5 -20.5t-45.5 -6q-59 0 -100.5 51t-41.5 125q0 51 16.5 84t57.5 61q90 61 210 96t241 35q160 0 279.5 -50t186 -142t66.5 -213q0 -113 -58.5 -195t-162.5 -121q123 -34 191.5 -126.5t68.5 -221.5 q0 -125 -70.5 -218t-199.5 -144t-303 -51q-133 0 -256 33.5t-216 97.5q-39 29 -56 62.5t-17 82.5z" />
<glyph unicode="4" d="M8 410q0 82 51 153l562 795q33 47 84 72.5t108 25.5q90 0 154.5 -57.5t64.5 -157.5v-688h10q109 0 159 -41t50 -121q0 -84 -50 -126t-159 -42h-10v-20q0 -106 -60.5 -161.5t-156.5 -55.5q-92 0 -152.5 55t-60.5 162v20h-407q-88 0 -137.5 53.5t-49.5 133.5zM432 553h170 v242z" />
<glyph unicode="5" d="M70 258q0 74 41 125t100 51q31 0 53.5 -8t45 -20.5t30.5 -16.5q12 -2 68 -22q45 -20 86 -32.5t88 -12.5q104 0 149 33.5t45 115.5q0 76 -49 116t-137 40q-68 0 -106 -2t-101 -17q-47 -20 -94 -20q-70 0 -116 40t-46 101v510q0 100 52 152.5t151 52.5h610q209 0 209 -164 q0 -166 -209 -166h-385v-180q70 23 174 22q133 0 236.5 -58t162 -164.5t58.5 -244.5q0 -152 -73 -266t-206 -177.5t-305 -63.5q-125 0 -247 34.5t-212 96.5q-39 29 -56 62.5t-17 82.5z" />
<glyph unicode="6" horiz-adv-x="1230" d="M47 715q0 225 77 394t216 262t326 93q115 0 236.5 -34.5t207.5 -96.5q39 -31 56.5 -62.5t17.5 -82.5q0 -72 -42 -124t-102 -52q-31 0 -53 8t-44.5 20.5t-31.5 16.5q-25 2 -67 24q-94 43 -156 43q-78 0 -130 -70.5t-69 -197.5q45 49 116 78t151 29q121 0 219 -61.5 t153.5 -169t55.5 -243.5q0 -147 -66.5 -262.5t-183.5 -181t-266 -65.5q-299 0 -460 191t-161 544zM510 471q0 -70 36 -113t95 -43q61 0 97 42t36 114t-34.5 114t-98.5 42q-59 0 -95 -42t-36 -114z" />
<glyph unicode="7" d="M23 1268q0 88 50 132t160 44h793q86 0 133 -51.5t47 -128.5q0 -78 -47 -160l-602 -1012q-33 -57 -81 -84.5t-103 -27.5q-84 0 -147.5 56t-63.5 138q0 55 33 115l491 807h-453q-111 0 -160.5 43t-49.5 129z" />
<glyph unicode="8" d="M31 401q0 135 65.5 223.5t188.5 120.5q-102 39 -158.5 123t-56.5 199q0 123 67.5 212t190.5 137t286 48q250 0 397.5 -106.5t147.5 -290.5q0 -119 -56 -203t-159 -119q125 -34 189.5 -122t64.5 -222q0 -195 -157.5 -307t-426.5 -112q-268 0 -425.5 112.5t-157.5 306.5z M432 438q0 -127 182 -127q183 0 183 127t-183 127q-182 0 -182 -127zM475 1014q0 -63 34 -92t105 -29q72 0 106 28.5t34 92.5q0 66 -33 93.5t-107 27.5q-73 0 -106 -28t-33 -93z" />
<glyph unicode="9" d="M45 256q0 72 42 124t101 52q31 0 53.5 -8t45 -20.5t30.5 -16.5q25 -2 68 -25q94 -43 156 -43q78 0 130 71t68 198q-45 -49 -115.5 -78t-150.5 -29q-121 0 -219 61.5t-153.5 169t-55.5 242.5q0 147 66.5 263t183.5 181.5t266 65.5q299 0 460 -191.5t161 -543.5 q0 -225 -77 -394t-216 -262t-326 -93q-115 0 -236.5 34.5t-207.5 96.5q-39 31 -56.5 62.5t-17.5 82.5zM455 973q0 -72 34.5 -114t98.5 -42q59 0 95 42t36 114q0 70 -36 112.5t-95 42.5q-61 0 -97 -42t-36 -113z" />
<glyph unicode=":" horiz-adv-x="583" d="M68 211q0 96 63.5 160.5t159.5 64.5t160.5 -64.5t64.5 -160.5q0 -94 -64.5 -159.5t-160.5 -65.5t-159.5 65.5t-63.5 159.5zM68 807q0 94 63.5 159.5t159.5 65.5t160.5 -65.5t64.5 -159.5q0 -96 -64.5 -160.5t-160.5 -64.5t-159.5 64.5t-63.5 160.5z" />
<glyph unicode=";" horiz-adv-x="583" d="M68 211q0 96 61 160.5t156 64.5q102 0 166.5 -73.5t64.5 -206.5q0 -135 -48 -247t-144 -210q-33 -35 -78 -35t-81 32t-36 73q0 35 29 63q78 82 106 172q-88 8 -142 64.5t-54 142.5zM68 807q0 94 63.5 159.5t159.5 65.5t160.5 -65.5t64.5 -159.5q0 -96 -64.5 -160.5 t-160.5 -64.5t-159.5 64.5t-63.5 160.5z" />
<glyph unicode="&#x3c;" d="M115 592q0 72 40 130t107 87l637 227q35 14 72 15q61 0 102 -42t41 -108q0 -41 -20.5 -71.5t-59.5 -45.5l-534 -192l534 -193q39 -14 59.5 -44.5t20.5 -71.5q0 -66 -41 -108t-102 -42q-37 0 -72 14l-637 230q-70 29 -108.5 84t-38.5 131z" />
<glyph unicode="=" d="M127 385q0 59 40 100t97 41h725q59 0 98 -39t39 -98q0 -61 -39 -101t-98 -40h-725q-57 0 -97 39.5t-40 97.5zM127 795q0 59 40 100t97 41h725q59 0 98 -39t39 -98q0 -61 -39 -101t-98 -40h-725q-57 0 -97 39.5t-40 97.5z" />
<glyph unicode="&#x3e;" d="M115 283q0 41 20.5 71.5t59.5 44.5l534 193l-534 192q-39 14 -59.5 45t-20.5 72q0 66 41 108t102 42q37 0 72 -15l637 -227q67 -29 107 -87t40 -130q0 -76 -39 -131t-108 -84l-637 -230q-35 -14 -72 -14q-61 0 -102 42t-41 108z" />
<glyph unicode="?" horiz-adv-x="1001" d="M-2 1184q0 49 17.5 80.5t56.5 64.5q94 63 212.5 99t239.5 36q135 0 245 -48t172.5 -132t62.5 -188q0 -111 -66 -189t-180 -162q-10 -6 -46 -33.5t-55.5 -50t-25.5 -40.5q-10 -51 -47 -80t-88 -29q-62 0 -96.5 41t-34.5 115q0 86 32.5 139t94.5 115q43 41 62 68.5t19 64.5 q0 33 -24.5 52t-65.5 19q-33 0 -66.5 -12t-78.5 -35q-37 -18 -68 -28q-47 -27 -75.5 -35t-55.5 -8q-59 0 -100 51t-41 125zM279 211q0 96 63.5 160.5t159.5 64.5t160.5 -64.5t64.5 -160.5t-64.5 -160.5t-160.5 -64.5q-94 0 -158.5 64.5t-64.5 160.5z" />
<glyph unicode="@" horiz-adv-x="1945" d="M70 528q0 295 118.5 506t329.5 318.5t481 107.5q272 0 470 -94t302.5 -267t104.5 -409q0 -250 -113.5 -406.5t-322.5 -156.5q-104 0 -177 47t-100 119h-4q-59 -82 -119.5 -124t-165.5 -42q-166 0 -251.5 106.5t-85.5 274.5q0 152 55 269.5t152.5 183t220.5 65.5 q158 0 217 -106h8l-2 -19q18 102 145 103q63 0 99 -37t36 -99q0 -12 -4 -41l-43 -239q-14 -82 -14 -125q0 -106 86 -107q25 0 50.5 34t44 109.5t18.5 190.5q0 530 -607 531q-188 0 -332.5 -79t-225.5 -234.5t-81 -379.5q0 -188 76 -329.5t218.5 -218t338.5 -76.5 q113 0 193 15t174 54q37 16 63 17q53 0 91 -38t38 -87q0 -63 -67 -111q-84 -35 -212 -62.5t-280 -27.5q-281 0 -490.5 110.5t-321 306t-111.5 447.5zM836 504q0 -63 24.5 -105.5t79.5 -42.5q96 0 147.5 87t51.5 204q0 74 -31 112t-86 38q-90 0 -138 -90.5t-48 -202.5z" />
<glyph unicode="A" horiz-adv-x="1579" d="M14 184q0 41 23 90l526 1049q31 66 92.5 100.5t130.5 34.5q72 0 134.5 -34.5t95.5 -100.5l526 -1049q23 -45 23 -90q0 -80 -64.5 -135t-144.5 -55q-53 0 -99.5 27.5t-72.5 87.5l-76 167h-631l-78 -167q-27 -57 -72.5 -86t-99.5 -29q-82 0 -147.5 55t-65.5 135zM627 604 h331l-165 367z" />
<glyph unicode="B" horiz-adv-x="1435" d="M117 203v1038q0 98 51 150.5t149 52.5h535q152 0 265.5 -46t176 -131t62.5 -196t-59.5 -197t-166.5 -124q127 -37 196 -129.5t69 -223.5q0 -119 -64.5 -209t-183.5 -139t-277 -49h-553q-98 0 -149 51t-51 152zM545 330h270q92 0 131 27.5t39 93.5t-38 92t-132 26h-270 v-239zM545 899h231q90 0 129 23.5t39 76.5q0 59 -40 87t-128 28h-231v-215z" />
<glyph unicode="C" horiz-adv-x="1390" d="M84 723q0 223 91 391t258 259t388 91q131 0 242 -31.5t213 -97.5q41 -29 57.5 -60.5t16.5 -84.5q0 -74 -41 -125t-101 -51q-37 0 -63.5 10t-65.5 35q-127 61 -231 61q-164 0 -241 -96t-77 -301q0 -207 77 -303t241 -96q37 0 71.5 9t94.5 29l34.5 11.5t30.5 11.5 q8 4 35 18.5t48.5 20.5t45.5 6q59 0 100.5 -51t41.5 -125q0 -51 -16.5 -84t-57.5 -61q-102 -66 -213 -97.5t-242 -31.5q-221 0 -388 91t-258 260t-91 392z" />
<glyph unicode="D" horiz-adv-x="1603" d="M117 203v1038q0 98 51 150.5t149 52.5h420q242 0 419 -87t271.5 -250t94.5 -384q0 -223 -93.5 -386t-270.5 -250t-421 -87h-420q-98 0 -149 51t-51 152zM557 352h148q188 0 282 89t94 282q0 190 -94 279.5t-282 89.5h-148v-740z" />
<glyph unicode="E" horiz-adv-x="1232" d="M117 203v1038q0 98 51 150.5t149 52.5h693q104 0 156.5 -43t52.5 -123q0 -170 -209 -170h-465v-205h424q104 0 156.5 -43t52.5 -127q0 -166 -209 -166h-424v-231h465q104 0 156.5 -43t52.5 -127q0 -80 -52.5 -123t-156.5 -43h-693q-98 0 -149 51t-51 152z" />
<glyph unicode="F" horiz-adv-x="1196" d="M117 203v1038q0 98 51 150.5t149 52.5h672q109 0 159 -42t50 -130t-50 -129t-159 -41h-438v-197h397q109 0 159 -41t50 -131q0 -88 -50 -129t-159 -41h-397v-360q0 -98 -58.5 -157.5t-156.5 -59.5t-158.5 60t-60.5 157z" />
<glyph unicode="G" horiz-adv-x="1536" d="M84 723q0 223 95 391t270.5 259t408.5 91q143 0 256 -30.5t213 -98.5q41 -29 57.5 -60.5t16.5 -84.5q0 -72 -40 -124t-97 -52q-33 0 -56.5 9t-46 21.5t-31.5 16.5q-70 31 -130 45t-126 14q-180 0 -264 -95t-84 -302q0 -213 89.5 -311.5t279.5 -98.5q68 0 147 13v213h-100 q-78 0 -121 37.5t-43 109.5t43 110t121 38h324q77 0 123.5 -43t46.5 -117v-307q0 -123 -18.5 -188.5t-65.5 -101.5t-144 -63q-80 -16 -172 -25t-164 -9q-242 0 -419 90t-273 257t-96 396z" />
<glyph unicode="H" horiz-adv-x="1601" d="M117 203v1038q0 96 58 154.5t157 58.5q98 0 157.5 -58.5t59.5 -154.5v-336h504v336q0 96 59 154.5t156 58.5q98 0 157.5 -58.5t59.5 -154.5v-1038q0 -96 -59.5 -156.5t-157.5 -60.5q-96 0 -155.5 59t-59.5 158v358h-504v-358q0 -96 -59.5 -156.5t-157.5 -60.5t-156.5 58 t-58.5 159z" />
<glyph unicode="I" horiz-adv-x="673" d="M117 203v1038q0 96 59.5 154.5t159.5 58.5q102 0 161.5 -57.5t59.5 -155.5v-1038q0 -100 -59.5 -158.5t-161.5 -58.5q-100 0 -159.5 58t-59.5 159z" />
<glyph unicode="J" horiz-adv-x="858" d="M-41 164q0 84 40 124t128 46l72 4q47 0 72.5 31.5t25.5 76.5v795q0 96 60.5 154.5t162.5 58.5q100 0 160.5 -58.5t60.5 -154.5v-786q0 -209 -114.5 -329t-337.5 -136l-68 -4q-13 -1 -26 -1q-236 0 -236 179z" />
<glyph unicode="K" horiz-adv-x="1474" d="M117 203v1038q0 96 59.5 154.5t159.5 58.5q102 0 161.5 -57.5t59.5 -155.5v-407l528 555q61 63 142 63q78 0 138 -58.5t60 -136.5q0 -80 -67 -145l-350 -358l383 -422q61 -61 61 -139q0 -80 -60.5 -139.5t-142.5 -59.5q-90 0 -166 78l-526 573v-442q0 -100 -59.5 -158.5 t-161.5 -58.5q-100 0 -159.5 58t-59.5 159z" />
<glyph unicode="L" horiz-adv-x="1191" d="M117 205v1036q0 96 59.5 154.5t159.5 58.5t160.5 -58.5t60.5 -154.5v-887h412q106 0 158.5 -44t52.5 -134t-51.5 -133t-159.5 -43h-650q-100 0 -151 52t-51 153z" />
<glyph unicode="M" horiz-adv-x="1726" d="M123 182v1059q0 94 57.5 153.5t147.5 59.5q66 0 119 -37t88 -104l331 -621l332 621q35 68 87 104.5t114 36.5q90 0 147.5 -59.5t57.5 -153.5v-1059q0 -90 -53.5 -143t-137.5 -53t-138 54t-54 142v465l-168 -301q-39 -76 -83 -107.5t-108 -31.5q-61 0 -106 31.5t-84 107.5 l-166 291v-455q0 -88 -55.5 -142t-139.5 -54q-82 0 -135 53t-53 143z" />
<glyph unicode="N" horiz-adv-x="1562" d="M117 203v1038q0 94 57 153.5t148 59.5q102 0 157 -70l553 -663v520q0 96 56.5 154.5t148.5 58.5t150.5 -59.5t58.5 -153.5v-1038q0 -96 -58.5 -156.5t-148.5 -60.5q-104 0 -160 69l-553 668v-520q0 -98 -55 -157.5t-149 -59.5q-90 0 -147.5 60t-57.5 157z" />
<glyph unicode="O" horiz-adv-x="1650" d="M84 725q0 223 91 390t259 258t393 91t392 -91t257.5 -259t90.5 -391t-90.5 -392t-257 -260t-392.5 -91q-227 0 -395 92t-258 260t-90 393zM522 723q0 -205 81 -306.5t224 -101.5q144 0 225 102.5t81 305.5q0 201 -82 303t-224 102q-143 0 -224 -100t-81 -305z" />
<glyph unicode="P" horiz-adv-x="1406" d="M117 203v1038q0 98 51 150.5t149 52.5h537q242 0 378 -126t136 -347q0 -219 -136 -344t-378 -125h-297v-299q0 -98 -59.5 -157.5t-161.5 -59.5q-100 0 -159.5 59t-59.5 158zM557 827h236q84 0 124.5 34t40.5 108t-40.5 109.5t-124.5 35.5h-236v-287z" />
<glyph unicode="Q" horiz-adv-x="1650" d="M84 725q0 223 91 390t259 258t393 91t392 -91t257.5 -259t90.5 -391q0 -213 -82 -376t-238 -259q115 -29 170 -121l31 -47q39 -61 39 -123q0 -78 -64.5 -129t-150.5 -51q-57 0 -106.5 25.5t-80.5 76.5l-124 213q-16 27 -43 37.5t-91 10.5q-227 0 -395 92t-258 260 t-90 393zM522 723q0 -205 81 -306.5t224 -101.5q144 0 225 102.5t81 305.5q0 201 -82 303t-224 102q-143 0 -224 -100t-81 -305z" />
<glyph unicode="R" horiz-adv-x="1460" d="M117 203v1038q0 98 51 150.5t149 52.5h517q270 0 404 -116t134 -337q0 -164 -89 -278.5t-251 -157.5q78 -8 133.5 -43t106.5 -104l94 -125q43 -60 43 -121q0 -78 -64.5 -129t-148.5 -51q-55 0 -106.5 25.5t-85.5 76.5l-263 375q-51 61 -96 61h-94v-317 q0 -98 -57.5 -157.5t-157.5 -59.5t-159.5 59t-59.5 158zM545 846h217q111 0 157 29.5t46 101.5q0 76 -46.5 106.5t-156.5 30.5h-217v-268z" />
<glyph unicode="S" horiz-adv-x="1388" d="M70 254q0 70 42 123t99 53q31 0 57.5 -9t73.5 -36q78 -39 153.5 -54.5t176.5 -15.5q102 0 155.5 27t53.5 76q0 33 -49.5 61.5t-206.5 59.5q-217 43 -332 107.5t-155 144t-40 192.5q0 135 82 244.5t223.5 173t315.5 63.5q150 0 264.5 -29.5t216.5 -95.5q43 -31 60.5 -64.5 t17.5 -84.5q0 -72 -42 -124t-99 -52q-29 0 -54.5 9t-74.5 36q-14 2 -41 16q-53 23 -109.5 38t-136.5 15q-84 0 -137.5 -30.5t-53.5 -77.5q0 -27 16.5 -44.5t75 -39t181.5 -45.5q209 -43 320.5 -108.5t150.5 -145.5t39 -186q0 -139 -79 -247t-221.5 -166t-328.5 -58 q-166 0 -306 32.5t-233 91.5q-41 29 -58 63t-17 87z" />
<glyph unicode="T" horiz-adv-x="1314" d="M-16 1268q0 90 51 133t158 43h929q106 0 157.5 -43t51.5 -133q0 -92 -50 -135t-159 -43h-241v-887q0 -96 -61.5 -154.5t-162.5 -58.5q-100 0 -160.5 58t-60.5 155v887h-243q-106 0 -157.5 43t-51.5 135z" />
<glyph unicode="U" horiz-adv-x="1538" d="M109 621v620q0 96 58 154.5t159 58.5q98 0 156.5 -58.5t58.5 -154.5v-635q0 -139 59 -215t170 -76q106 0 166.5 77t60.5 214v635q0 96 58.5 154.5t156.5 58.5q100 0 159 -58.5t59 -154.5v-620q0 -309 -170 -475t-490 -166q-326 0 -493.5 163.5t-167.5 477.5z" />
<glyph unicode="V" horiz-adv-x="1554" d="M2 1257q0 84 71.5 141.5t159.5 57.5q59 0 108.5 -28.5t76.5 -88.5l364 -776l365 776q29 60 76 88.5t104 28.5q86 0 154.5 -56.5t68.5 -137.5q0 -43 -20 -86l-526 -1059q-31 -63 -93.5 -98t-134.5 -35t-133 34.5t-92 98.5l-528 1059q-20 41 -21 81z" />
<glyph unicode="W" horiz-adv-x="2308" d="M55 1268q0 88 62.5 140t148.5 52q68 0 125.5 -35.5t79.5 -105.5l244 -696l262 702q25 66 77 101.5t115 35.5t115.5 -35.5t77.5 -103.5l242 -725l256 721q24 70 78.5 105.5t119.5 35.5q78 0 136.5 -51t58.5 -135q0 -45 -21 -98l-395 -1055q-25 -68 -88 -104.5t-139 -36.5 t-138.5 36.5t-87.5 104.5l-225 643l-239 -643q-25 -68 -87.5 -104.5t-138.5 -36.5q-74 0 -136 36.5t-87 104.5l-397 1055q-18 49 -19 92z" />
<glyph unicode="X" horiz-adv-x="1429" d="M43 188q0 70 53 131l363 404l-357 401q-51 59 -51 129q0 80 63.5 141.5t143.5 61.5q82 0 143 -70l316 -360l313 360q59 72 141 72q80 0 144.5 -62.5t64.5 -142.5q0 -70 -53 -129l-356 -401l362 -404q53 -61 53 -131q0 -82 -63 -143t-145 -61q-80 0 -144 71l-317 367 l-324 -367q-56 -69 -141 -69h-2q-82 0 -144.5 60t-62.5 142z" />
<glyph unicode="Y" horiz-adv-x="1363" d="M2 1257q0 80 62.5 140.5t142.5 60.5t143 -72l332 -382l330 382q63 72 145 72q80 0 143.5 -61.5t63.5 -141.5q0 -70 -53 -131l-408 -456v-465q0 -106 -62.5 -161.5t-156.5 -55.5q-98 0 -160.5 55t-62.5 162v465l-404 456q-55 61 -55 133z" />
<glyph unicode="Z" horiz-adv-x="1282" d="M68 184q0 80 55 156l573 762h-415q-109 0 -160 41t-51 129t51 130t160 42h753q86 0 138.5 -52.5t52.5 -129.5q0 -82 -56 -158l-573 -762h451q108 0 158 -41t50 -129t-50 -130t-158 -42h-791q-84 0 -136 53t-52 131z" />
<glyph unicode="[" horiz-adv-x="862" d="M205 -45v1165q0 152 87 238t238 86h181q61 0 106 -39t45 -117t-45 -116.5t-106 -38.5h-11q-41 0 -61.5 -17.5t-20.5 -68.5v-1018q0 -51 20.5 -68.5t61.5 -17.5h11q61 0 106 -39t45 -117t-45 -117t-106 -39h-181q-151 0 -238 86t-87 238z" />
<glyph unicode="\" horiz-adv-x="753" d="M-14 1436q0 66 50 106.5t116 40.5q49 0 90 -27.5t59 -82.5l459 -1446q8 -25 8 -54q0 -66 -49 -106.5t-115 -40.5q-51 0 -92 27.5t-59 83.5l-459 1445q-8 25 -8 54z" />
<glyph unicode="]" horiz-adv-x="862" d="M0 -213q0 78 45 117t107 39h10q41 0 60.5 17t19.5 69v1018q0 51 -19.5 68.5t-60.5 17.5h-10q-61 0 -106.5 38.5t-45.5 116.5t45 117t107 39h178q152 0 238.5 -86t86.5 -238v-1165q0 -152 -87 -238t-238 -86h-178q-62 0 -107 39t-45 117z" />
<glyph unicode="^" d="M154 440q0 33 14 68l231 641q29 68 86.5 107.5t128.5 39.5q74 0 131.5 -39.5t83.5 -107.5l232 -641q14 -35 14 -70q0 -63 -46 -102t-105 -39q-39 0 -70 19.5t-45 58.5l-195 540l-194 -540q-14 -39 -45 -59.5t-68 -20.5q-59 0 -106 41t-47 104z" />
<glyph unicode="_" horiz-adv-x="1024" d="M0 -119q0 55 43 87t115 32h708q72 0 115 -31.5t43 -87.5q0 -53 -43 -86t-115 -33h-708q-72 0 -115 33t-43 86z" />
<glyph unicode="`" horiz-adv-x="636" d="M-66 1421q0 57 45.5 100.5t106.5 43.5q84 0 143 -80l148 -203q20 -29 20 -59q0 -39 -27.5 -67t-64.5 -28q-31 0 -63 23l-232 145q-76 51 -76 125z" />
<glyph unicode="a" horiz-adv-x="1144" d="M45 317q2 109 57.5 173.5t176 94t323.5 29.5h57v13q0 55 -27.5 78.5t-94.5 23.5q-76 0 -234 -51q-37 -10 -82 -10q-59 0 -94 42t-35 111q0 51 19.5 82t60.5 51q72 37 184.5 59.5t223.5 22.5q245 0 363 -115.5t118 -355.5v-387q0 -90 -53.5 -141t-147.5 -51q-76 0 -128 41 t-64 110q-25 -72 -89.5 -113.5t-158.5 -41.5q-106 0 -191.5 43t-134.5 119.5t-49 172.5zM449 346q0 -37 21.5 -60.5t53.5 -23.5q60 0 97.5 41t37.5 111v14h-32q-178 0 -178 -82z" />
<glyph unicode="b" horiz-adv-x="1306" d="M90 182v1082q0 84 60.5 137t158.5 53q94 0 150.5 -49t56.5 -131v-371q45 61 125 97t170 36q129 0 230.5 -64.5t158.5 -182t57 -273.5t-57 -277.5t-159.5 -189t-229.5 -67.5q-98 0 -181 40.5t-126 108.5q-16 -68 -69.5 -106.5t-133.5 -38.5q-96 0 -153.5 53t-57.5 143z M510 512q0 -104 43 -159.5t121 -55.5t121 57.5t43 161.5q0 100 -42 153.5t-120 53.5q-80 0 -123 -54.5t-43 -156.5z" />
<glyph unicode="c" horiz-adv-x="1036" d="M49 504q0 160 73 279.5t203 186t300 66.5q86 0 176 -23.5t157 -64.5q29 -16 45.5 -48t16.5 -77q0 -74 -34 -120t-87 -46q-37 0 -66.5 8.5t-74.5 26.5q-33 14 -55.5 20.5t-49.5 6.5q-168 0 -168 -205q0 -215 170 -215q41 0 103 27q41 18 70.5 26t66.5 8q53 0 87 -45 t34 -118q0 -45 -16.5 -80t-43.5 -49q-147 -86 -356 -86q-256 0 -403.5 139t-147.5 383z" />
<glyph unicode="d" horiz-adv-x="1306" d="M49 516q0 156 57.5 273.5t159 182t230.5 64.5q90 0 169.5 -35.5t125.5 -97.5v371q0 82 56 131t150 49q97 0 158.5 -53t61.5 -137v-1082q0 -88 -57.5 -142t-153.5 -54q-80 0 -133.5 38.5t-69.5 106.5q-43 -68 -126 -108.5t-181 -40.5q-127 0 -229.5 67.5t-160 189 t-57.5 277.5zM469 516q0 -104 43 -161.5t121 -57.5q80 0 122 55.5t42 159.5q0 102 -43 156.5t-123 54.5q-78 0 -120 -53.5t-42 -153.5z" />
<glyph unicode="e" horiz-adv-x="1099" d="M49 510q0 152 66.5 271.5t184.5 187t265 67.5q143 0 254 -63.5t171.5 -178t60.5 -268.5q0 -51 -23.5 -77.5t-64.5 -26.5h-502q14 -72 52 -101.5t116 -29.5q53 0 105 15.5t63 17.5q33 10 66.5 19t62.5 9q53 0 87 -43t34 -112q0 -43 -23 -79t-59 -55q-70 -33 -168.5 -57 t-178.5 -24q-172 0 -301 64.5t-198.5 184t-69.5 279.5zM455 614h241q-12 139 -118 140q-107 -1 -123 -140z" />
<glyph unicode="f" horiz-adv-x="847" d="M-37 856q0 156 193 156h34q10 193 131 303t318 127l53 4q18 2 49 2q104 0 148.5 -38t44.5 -110t-43 -110.5t-115 -42.5l-53 -4q-61 -4 -84 -37t-23 -84v-10h76q193 0 193 -156t-193 -156h-76v-514q0 -98 -60 -147t-153 -49q-90 0 -151.5 49t-61.5 147v514h-34 q-193 0 -193 156z" />
<glyph unicode="g" horiz-adv-x="1314" d="M49 530q0 152 58.5 266.5t161 177t231.5 62.5q96 0 181 -41t128 -106q16 66 70.5 104.5t134.5 38.5q96 0 153.5 -53t57.5 -143v-697q0 -258 -162 -392t-475 -134q-111 0 -214.5 21.5t-174.5 58.5q-37 18 -58.5 55t-21.5 80q0 70 33.5 113t87.5 43q31 0 72.5 -9.5 t82.5 -19.5q119 -33 180 -33q119 0 173.5 45t54.5 146v49q-45 -61 -127 -98t-176 -37q-129 0 -231.5 62.5t-161 176t-58.5 264.5zM469 530q0 -88 45 -138t123 -50q80 0 124 49t44 139t-44 141.5t-124 51.5t-124 -50t-44 -143z" />
<glyph unicode="h" horiz-adv-x="1263" d="M90 182v1082q0 84 60.5 137t158.5 53q94 0 150.5 -49t56.5 -131v-377q117 139 320 139q174 0 259 -110.5t85 -337.5v-406q0 -90 -57.5 -143t-155.5 -53t-155.5 53t-57.5 143v420q0 111 -95 111q-66 0 -104.5 -43t-38.5 -113v-375q0 -90 -57.5 -143t-155.5 -53t-155.5 53 t-57.5 143z" />
<glyph unicode="i" horiz-adv-x="608" d="M90 182v654q0 98 61.5 147t151.5 49t151.5 -49t61.5 -147v-654q0 -96 -61.5 -146t-151.5 -50t-151.5 50t-61.5 146zM96 1354q0 82 55.5 129t151.5 47q92 0 149.5 -48t57.5 -128q0 -82 -56.5 -131.5t-150.5 -49.5t-150.5 49.5t-56.5 131.5z" />
<glyph unicode="j" horiz-adv-x="608" d="M-180 -217q0 70 39 104.5t118 38.5l60 4q20 2 36.5 21.5t16.5 36.5v848q0 98 61.5 147t151.5 49t151.5 -49t61.5 -147v-813q0 -170 -97 -273.5t-294 -118.5l-57 -4l-37 -2q-96 0 -153.5 40t-57.5 118zM94 1354q0 82 55.5 129t151.5 47q92 0 149.5 -48t57.5 -128 q0 -82 -56.5 -131.5t-150.5 -49.5t-150.5 49.5t-56.5 131.5z" />
<glyph unicode="k" horiz-adv-x="1239" d="M90 186v1071q0 98 61.5 147.5t151.5 49.5q92 0 152.5 -49t60.5 -148v-653l346 367q61 61 137 61q78 0 136.5 -58.5t58.5 -133.5q0 -72 -61 -133l-168 -177l196 -200q62 -59 62 -137t-57.5 -140.5t-135.5 -62.5q-72 0 -133 59l-381 377v-240q0 -98 -60.5 -147t-152.5 -49 q-90 0 -151.5 49t-61.5 147z" />
<glyph unicode="l" horiz-adv-x="608" d="M90 182v1075q0 98 61.5 147.5t151.5 49.5q92 0 152.5 -49t60.5 -148v-1075q0 -96 -60.5 -146t-152.5 -50q-90 0 -151.5 50t-61.5 146z" />
<glyph unicode="m" horiz-adv-x="1865" d="M90 182v660q0 92 64.5 141t152.5 49q74 0 128 -37t67 -104q106 145 309 145q100 0 173 -40t116 -134q55 80 141 127t193 47q165 0 256.5 -100t91.5 -348v-406q0 -98 -60.5 -147t-152.5 -49q-90 0 -151.5 49t-61.5 147v420q0 66 -22.5 88.5t-61.5 22.5q-55 0 -89 -40 t-34 -116v-375q0 -98 -60.5 -147t-152.5 -49q-90 0 -151.5 49t-61.5 147v420q0 66 -22.5 88.5t-61.5 22.5q-55 0 -89 -40t-34 -116v-375q0 -98 -61.5 -147t-151.5 -49t-151.5 49t-61.5 147z" />
<glyph unicode="n" horiz-adv-x="1263" d="M90 182v660q0 84 60.5 137t156.5 53q80 0 133.5 -41t63.5 -108q118 153 318 153h3q181 0 268 -109.5t87 -338.5v-406q0 -90 -57.5 -143t-155.5 -53t-155.5 53t-57.5 143v389q0 76 -23.5 109t-71.5 33q-66 0 -104.5 -43t-38.5 -113v-375q0 -90 -57.5 -143t-155.5 -53 t-155.5 53t-57.5 143z" />
<glyph unicode="o" horiz-adv-x="1257" d="M49 512q0 162 72 279.5t202 181t306 63.5t306 -63.5t201.5 -181t71.5 -279.5t-71.5 -281.5t-202.5 -184t-305 -64.5t-305 64.5t-203 184t-72 281.5zM469 512q0 -113 41 -164t121 -51t118.5 50t38.5 165t-38.5 164t-120.5 49q-80 0 -120 -49t-40 -164z" />
<glyph unicode="p" horiz-adv-x="1306" d="M90 -188v1024q0 90 57.5 143t153.5 53q80 0 133 -39t70 -106q43 68 126 108.5t181 40.5q129 0 230.5 -66.5t158.5 -188.5t57 -277q0 -156 -57 -274.5t-158.5 -183t-230.5 -64.5q-90 0 -170 35.5t-125 97.5v-314q0 -82 -56.5 -131t-150.5 -49q-98 0 -158.5 53.5 t-60.5 137.5zM510 508q0 -102 43 -156.5t123 -54.5q78 0 120 53t42 154q0 104 -43 161.5t-121 57.5t-121 -55.5t-43 -159.5z" />
<glyph unicode="q" horiz-adv-x="1306" d="M49 504q0 156 57.5 277.5t159 188t230.5 66.5q98 0 181 -41t126 -108q16 68 69.5 106.5t133.5 38.5q96 0 153.5 -54t57.5 -142v-1024q0 -84 -61.5 -137.5t-158.5 -53.5q-94 0 -150 49t-56 131v314q-45 -61 -125 -97t-170 -36q-129 0 -230.5 64.5t-159 183t-57.5 274.5z M469 504q0 -100 42 -153.5t120 -53.5q80 0 123 54.5t43 156.5q0 104 -43 159.5t-121 55.5t-121 -57.5t-43 -161.5z" />
<glyph unicode="r" horiz-adv-x="901" d="M90 182v660q0 90 62.5 140t148.5 50q88 0 141.5 -47t53.5 -133v-12q33 88 103.5 137t145.5 53l29 2q10 1 19 1q67 0 108 -39q47 -44 47 -130q0 -94 -44 -137t-159 -55l-61 -6q-94 -10 -131 -53.5t-37 -127.5v-303q0 -96 -61.5 -146t-151.5 -50t-151.5 50t-61.5 146z" />
<glyph unicode="s" horiz-adv-x="1011" d="M31 205q0 66 33.5 106.5t87.5 40.5q37 0 65.5 -6t69.5 -20q55 -20 107 -30.5t128 -10.5q39 0 62.5 8t23.5 22t-13 22.5t-63.5 20t-132.5 25.5q-182 33 -263 105.5t-81 203.5q0 96 61.5 175t168 124t239.5 45q96 0 186.5 -22.5t161.5 -65.5q59 -35 60 -125 q0 -68 -34 -111.5t-87 -43.5q-39 0 -68.5 8t-74.5 24q-45 18 -79 27.5t-79 9.5q-76 0 -76 -28q0 -25 38 -39.5t149 -30.5q199 -35 281.5 -106.5t82.5 -208.5q0 -156 -129 -249t-348 -93q-148 0 -245 20.5t-173 65.5q-27 14 -43 52t-16 85z" />
<glyph unicode="t" horiz-adv-x="870" d="M-37 856q0 156 193 156h34v102q0 90 57.5 143.5t155.5 53.5q100 0 156.5 -53.5t56.5 -143.5v-102h76q193 0 193 -156t-193 -156h-76v-352q0 -16 16.5 -35.5t37.5 -21.5l59 -4q80 -4 119 -39t39 -103q-1 -83 -65 -123q-54 -33 -144 -33q-18 0 -39 1l-57 4 q-193 14 -292.5 114.5t-99.5 274.5v317h-34q-193 0 -193 156z" />
<glyph unicode="u" horiz-adv-x="1253" d="M84 430v406q0 90 57.5 143t155.5 53t155.5 -53t57.5 -143v-418q0 -113 96 -113q57 0 94 44t37 114v373q0 90 57.5 143t155.5 53q97 0 155 -53t58 -143v-660q0 -84 -61.5 -137t-155.5 -53q-76 0 -128 37.5t-66 103.5q-100 -145 -279 -145q-199 0 -294 110.5t-95 337.5z " />
<glyph unicode="v" horiz-adv-x="1124" d="M0 848q0 76 66.5 129t148.5 53q57 0 105.5 -29.5t76.5 -89.5l178 -379l177 381q26 60 71 88.5t101 28.5q80 0 141 -52t61 -126q0 -39 -20 -80l-344 -668q-29 -59 -82 -89.5t-117 -30.5q-61 0 -115.5 31.5t-85.5 88.5l-344 668q-18 41 -18 76z" />
<glyph unicode="w" horiz-adv-x="1804" d="M6 846q0 78 65.5 131t147.5 53q57 0 104.5 -29.5t71.5 -89.5l168 -389l170 387q25 57 73 89t105 32q55 0 105.5 -31.5t75.5 -89.5l178 -387l162 391q22 60 66 89.5t97 29.5q78 0 140.5 -54t62.5 -132q0 -37 -18 -78l-328 -664q-27 -59 -80 -89.5t-117 -30.5 q-63 0 -116.5 31.5t-77.5 88.5l-164 351l-156 -351q-25 -57 -77 -88.5t-115 -31.5q-61 0 -115.5 30.5t-81.5 89.5l-327 666q-18 41 -19 76z" />
<glyph unicode="x" horiz-adv-x="1142" d="M31 170q0 76 61 137l225 213l-204 187q-61 61 -62 135q0 76 57.5 132t135.5 56t139 -63l188 -181l191 181q61 63 139 63q76 0 133.5 -55t57.5 -131t-62 -137l-203 -187l226 -213q61 -61 61 -135q0 -76 -57.5 -132t-132.5 -56q-78 0 -142 65l-211 207l-211 -207 q-62 -65 -137 -65h-2q-76 0 -133 55t-57 131z" />
<glyph unicode="y" horiz-adv-x="1124" d="M0 848q0 76 66.5 129t148.5 53q57 0 105.5 -29.5t76.5 -89.5l181 -379l174 381q26 60 71 87.5t99 27.5q80 0 142 -52t62 -126q0 -39 -20 -78l-531 -1038q-29 -59 -76.5 -89t-101.5 -30q-80 0 -140 51t-60 125q0 43 20 84l129 252l-328 645q-18 41 -18 76z" />
<glyph unicode="z" horiz-adv-x="1073" d="M233 1012h596q82 0 134.5 -53.5t52.5 -127.5q0 -80 -60 -141l-374 -379h284h2q191 0 191 -155q0 -156 -193 -156h-624q-82 0 -133.5 53t-51.5 127q0 78 58 142l377 378h-259q-192 0 -192 154q0 158 192 158z" />
<glyph unicode="{" horiz-adv-x="937" d="M25 539q0 68 37.5 109.5t111.5 47.5q59 8 83 42t24 112v270q0 152 87 238t238 86h180q61 0 106.5 -39t45.5 -117t-45 -116.5t-107 -38.5h-10q-41 0 -61.5 -17.5t-20.5 -68.5v-250q0 -96 -56 -170t-128 -92q72 -18 128 -92t56 -169v-245q0 -51 20.5 -68.5t61.5 -17.5h10 q62 0 107 -39t45 -117t-45 -117t-107 -39h-180q-152 0 -238.5 86t-86.5 238v266q0 78 -24 112t-83 42q-74 6 -111.5 48t-37.5 116z" />
<glyph unicode="|" horiz-adv-x="641" d="M127 -186v1448q0 84 54.5 138t140.5 54q84 0 139 -54t55 -138v-1448q0 -84 -55 -138.5t-139 -54.5t-139.5 54.5t-55.5 138.5z" />
<glyph unicode="}" horiz-adv-x="937" d="M0 -213q0 78 45 117t107 39h10q41 0 60.5 17t19.5 69v245q0 94 57 168t129 93q-72 18 -129 92.5t-57 169.5v250q0 51 -19.5 68.5t-60.5 17.5h-10q-61 0 -106.5 38.5t-45.5 116.5t45 117t107 39h178q152 0 238.5 -86t86.5 -238v-270q0 -78 25 -111.5t84 -42.5 q74 -6 111.5 -48t37.5 -109q0 -74 -37.5 -116t-111.5 -48q-61 -8 -86 -42t-25 -112l2 -266q0 -152 -87 -238t-238 -86h-178q-61 0 -106.5 39t-45.5 117z" />
<glyph unicode="~" d="M145 584q0 35 17 61q45 66 112.5 102.5t135.5 36.5q55 0 109 -18t130 -53q53 -25 84 -37t58 -12h16q25 0 39 6q63 59 117 59q31 0 65 -22q27 -20 42 -49t15 -62t-18 -61q-43 -63 -110.5 -99.5t-137.5 -36.5q-55 0 -111.5 19.5t-127.5 54.5q-53 25 -84 37t-58 12h-16 q-25 0 -39 -6q-70 -61 -119 -61q-31 0 -65 24q-25 18 -39.5 46t-14.5 59z" />
<glyph unicode="&#xa1;" horiz-adv-x="583" d="M43 -160q0 16 4 49l117 490q8 61 43 94t84 33q51 0 85 -32t44 -95l117 -492q4 -33 4 -49q0 -102 -71 -161.5t-179 -59.5q-109 0 -178.5 59.5t-69.5 163.5zM68 807q0 96 63.5 160.5t161.5 64.5q94 0 158.5 -64.5t64.5 -160.5t-64.5 -160.5t-158.5 -64.5q-98 0 -161.5 64.5 t-63.5 160.5z" />
<glyph unicode="&#xa2;" d="M133 504q0 180 92 310t254 185v103q0 74 46 119t118 45q76 0 121 -45t45 -119v-74q131 -18 233 -80q29 -16 45.5 -48t16.5 -77q0 -74 -34 -120t-87 -46q-37 0 -66.5 8.5t-74.5 26.5q-33 14 -55.5 20.5t-49.5 6.5q-168 0 -168 -205q0 -215 170 -215q41 0 103 27 q41 18 70.5 26t66.5 8q53 0 87 -45t34 -118q0 -45 -16.5 -80t-43.5 -49q-102 -59 -231 -78v-74q0 -72 -45 -117t-121 -45q-72 0 -118 45t-46 117v94q-164 47 -255 176t-91 318z" />
<glyph unicode="&#xa3;" d="M33 176q0 76 36.5 117t112.5 51v258h-20q-55 0 -92 35t-37 86t36.5 86t92.5 35h20v198q0 123 65.5 219.5t183.5 149.5t269 53q117 0 241 -34.5t208 -94.5q39 -31 56.5 -62.5t17.5 -82.5q0 -72 -42 -124t-102 -52q-31 0 -53 8t-45 20.5t-31 16.5q-14 0 -67 22 q-51 20 -87 31.5t-75 11.5q-53 0 -79 -31.5t-26 -78.5v-170h213q53 0 90 -35t37 -86t-36.5 -86t-90.5 -35h-213v-254h398q106 0 157.5 -42t51.5 -130q0 -90 -51.5 -133t-157.5 -43h-772q-106 0 -157.5 43t-51.5 133z" />
<glyph unicode="&#xa5;" d="M8 1262q0 80 61.5 139t141.5 59q86 0 145 -71l256 -302l258 299q60 72 144 72q80 0 142.5 -61.5t62.5 -141.5q0 -72 -52 -131l-241 -270h94q51 0 89 -33t38 -88t-38 -88t-89 -33h-186v-77h186q51 0 89 -33t38 -88t-38 -88t-89 -33h-186v-90q0 -106 -62.5 -161.5 t-157.5 -55.5q-96 0 -159.5 56t-63.5 161v90h-182q-51 0 -89 32.5t-38 88.5q0 55 38 88t89 33h182v77h-182q-51 0 -89 33t-38 88t38 88t89 33h92l-240 274q-53 66 -53 134z" />
<glyph unicode="&#xa7;" horiz-adv-x="1259" d="M45 563q0 186 154 309q-35 41 -53.5 85t-18.5 83q0 193 144.5 305.5t392.5 112.5q98 0 191 -23.5t167 -66.5q29 -14 44 -47t15 -76q0 -68 -34.5 -111.5t-85.5 -43.5q-41 0 -71 8t-75 26q-41 16 -71.5 25.5t-69.5 9.5q-61 0 -97 -18.5t-36 -46.5q0 -27 22.5 -48.5 t61.5 -35.5l325 -142q129 -53 196.5 -143t67.5 -209q1 -190 -149 -311q66 -88 65 -170q0 -205 -137 -311.5t-399 -106.5q-150 0 -249 19.5t-177 64.5q-27 14 -44.5 52t-17.5 87q0 63 35 104.5t88 41.5q35 0 64 -6.5t72 -20.5q61 -20 113 -30.5t132 -10.5q47 0 77 20.5 t30 53.5q0 23 -18.5 40t-63.5 34l-328 141q-262 102 -262 356zM414 666q0 -49 34.5 -92.5t88.5 -65.5l297 -133q10 20 10 35q0 47 -35 93t-86 68l-293 138q-16 -27 -16 -43z" />
<glyph unicode="&#xa8;" horiz-adv-x="702" d="M-29 1350q0 76 48.5 121t125.5 45q80 0 129.5 -45.5t49.5 -120.5q0 -78 -49.5 -124t-129.5 -46q-77 0 -125.5 46t-48.5 124zM379 1350q0 76 48 121t130 45q76 0 125 -45.5t49 -120.5q0 -78 -48 -124t-126 -46q-82 0 -130 46t-48 124z" />
<glyph unicode="&#xa9;" horiz-adv-x="1669" d="M102 723q0 205 96.5 372t264.5 263t373 96t371.5 -96t263 -263t96.5 -372t-96.5 -372t-264.5 -264t-370 -97q-205 0 -373 97t-264.5 264t-96.5 372zM256 723q0 -168 73.5 -302t206 -211t300.5 -77q165 0 297.5 77t206 211t73.5 302t-73.5 302t-206 210t-297.5 76 q-168 0 -300.5 -76t-206 -210t-73.5 -302zM412 723q0 131 56 230.5t158.5 154.5t235.5 55q174 0 258 -63q33 -25 44.5 -47.5t11.5 -61.5q0 -47 -30 -88t-81 -41q-25 0 -43 5t-53 22q-6 2 -33 9t-51 7q-72 0 -104.5 -39t-32.5 -143q0 -106 32.5 -145t104.5 -39q25 0 51.5 7 t32.5 9q35 16 53 21.5t43 5.5q51 0 81 -41t30 -88q0 -41 -10.5 -66t-45.5 -43q-66 -31 -122 -47t-136 -16q-133 0 -235.5 55t-158.5 155.5t-56 231.5z" />
<glyph unicode="&#xaa;" horiz-adv-x="747" d="M37 1020q0 84 73.5 128t243.5 44h54v20q0 14 -12.5 19.5t-49.5 5.5q-18 0 -58 -7t-69 -16q-14 -6 -30.5 -5t-22.5 1q-47 0 -71.5 33t-24.5 72q0 66 53 88q43 18 114.5 34.5t141.5 16.5q162 0 239.5 -73.5t77.5 -227.5v-190q0 -76 -41 -112t-106 -36q-49 0 -89 29.5 t-46 91.5q-20 -59 -65.5 -90t-104.5 -31q-90 0 -148.5 62.5t-58.5 142.5zM305 1030q0 -25 37 -24q29 0 47.5 13t18.5 38v6h-19q-45 0 -64.5 -10.5t-19.5 -22.5zM412 954v9v-9z" />
<glyph unicode="&#xab;" horiz-adv-x="1216" d="M102 547q0 57 41 123l146 221q29 43 67.5 64.5t79.5 21.5q63 0 110.5 -41t47.5 -107q0 -39 -21 -81l-86 -201l86 -203q18 -43 19 -80q0 -63 -46 -105t-110 -42q-41 0 -79 21.5t-66 62.5l-148 221q-41 66 -41 125zM626 547q0 57 41 123l146 221q29 43 67.5 64.5t79.5 21.5 q63 0 110.5 -41t47.5 -107q0 -39 -21 -81l-86 -201l86 -203q18 -43 19 -80q0 -63 -46 -105t-110 -42q-41 0 -79 21.5t-66 62.5l-148 221q-41 66 -41 125z" />
<glyph unicode="&#xac;" d="M115 788q0 59 40 100.5t97 41.5h725q59 0 98 -39t39 -98v-402q0 -59 -40 -99t-101 -40q-70 0 -110 41t-40 98v260h-571q-57 0 -97 40t-40 97z" />
<glyph unicode="&#xad;" horiz-adv-x="925" d="M82 553q0 162 199 162h364q199 0 199 -162q0 -166 -199 -166h-364q-199 0 -199 166z" />
<glyph unicode="&#xae;" horiz-adv-x="1669" d="M102 723q0 205 96.5 372t264.5 263t373 96q204 0 371 -96t263.5 -263t96.5 -372t-96.5 -372t-264.5 -264t-370 -97q-205 0 -373 97t-264.5 264t-96.5 372zM256 723q0 -168 73.5 -302t206 -211t300.5 -77q165 0 297.5 77t206 211t73.5 302t-73.5 302t-206 210t-297.5 76 q-168 0 -300.5 -76t-206 -210t-73.5 -302zM455 444v564q0 76 38.5 113.5t112.5 37.5h289q166 0 254 -77.5t88 -207.5q0 -94 -51 -166.5t-148 -103.5q47 -4 83 -23.5t75 -64.5l23 -6q36 -43 36 -88q0 -57 -54 -98t-120 -41q-84 0 -133 65l-162 223l-2 2t-4 5v-134 q0 -78 -45 -120.5t-110 -42.5q-76 0 -123 42t-47 121zM776 815h74q49 0 62.5 9.5t13.5 37.5q0 31 -13.5 41t-62.5 10h-74v-98z" />
<glyph unicode="&#xaf;" horiz-adv-x="649" d="M-39 1346q0 53 33 81.5t84 28.5h495q49 0 82 -28.5t33 -81.5q0 -51 -32.5 -81t-82.5 -30h-495q-49 0 -83 29.5t-34 81.5z" />
<glyph unicode="&#xb0;" horiz-adv-x="757" d="M51 1137q0 90 43 162.5t118 113.5t167 41t167 -41t118 -113.5t43 -162.5t-43 -163t-118 -114t-167 -41t-167 41t-118 114t-43 163zM262 1137q0 -53 35 -88t82 -35t82 34.5t35 88.5q0 53 -35 88t-82 35t-82 -35t-35 -88z" />
<glyph unicode="&#xb1;" d="M115 705q0 61 39 102t98 41h223v104q0 59 40 99.5t97 40.5q59 0 100.5 -40t41.5 -100v-104h223q59 0 98 -39t39 -98q0 -63 -39 -104.5t-98 -41.5h-223v-104q0 -57 -39 -97t-99 -40q-59 0 -100 39.5t-41 99.5v102h-223q-59 0 -98 40t-39 100zM127 137q0 59 40 100.5 t97 41.5h725q60 0 98.5 -39t38.5 -99q0 -61 -38.5 -101t-98.5 -40h-725q-57 0 -97 40t-40 97z" />
<glyph unicode="&#xb4;" horiz-adv-x="636" d="M238 1221q0 33 22 61l148 203q59 80 141 80q61 0 107 -44t46 -102q0 -70 -75 -123l-232 -145q-28 -21 -63 -21q-39 0 -66.5 27t-27.5 64z" />
<glyph unicode="&#xb5;" horiz-adv-x="1253" d="M84 -199v1035q0 90 56.5 143t156.5 53q98 0 155.5 -53t57.5 -143v-418q0 -113 96 -113q61 0 96 46t35 112v373q0 90 56.5 143t156.5 53q99 0 156 -53t57 -143v-660q0 -84 -60.5 -137t-156.5 -53q-78 0 -130 37.5t-64 103.5q-88 -127 -242 -143v-172q0 -84 -60.5 -137.5 t-158.5 -53.5q-94 0 -150.5 50t-56.5 130z" />
<glyph unicode="&#xb6;" horiz-adv-x="1368" d="M39 958q0 147 61.5 257t174 169.5t262.5 59.5h583q57 0 94 -37t37 -94v-1561q0 -57 -36.5 -94t-92.5 -37q-57 0 -95 37t-38 94v1460h-198v-1460q0 -57 -37 -94t-92 -37q-58 0 -96 37t-38 94v717q-145 0 -255.5 60.5t-172 171t-61.5 257.5z" />
<glyph unicode="&#xb7;" horiz-adv-x="583" d="M68 553q0 94 63.5 158.5t159.5 64.5t160.5 -64.5t64.5 -158.5q0 -96 -64.5 -160.5t-160.5 -64.5t-159.5 64.5t-63.5 160.5z" />
<glyph unicode="&#xb8;" horiz-adv-x="643" d="M98 -322q0 33 18.5 56.5t47.5 17.5q49 -16 115 -16q39 0 61 8t22 35q0 14 -12 23.5t-33 9.5q-14 0 -40.5 -5.5t-40.5 -5.5q-20 0 -33 11.5t-8 29.5l26 199h189l-21 -123q14 2 41 2q64 0 108 -40t44 -101q0 -84 -75 -135.5t-216 -51.5q-92 0 -146 19q-47 14 -47 67z" />
<glyph unicode="&#xba;" horiz-adv-x="813" d="M35 1137q0 133 93 225t278 92q188 0 280 -92t92 -225q0 -135 -92 -228.5t-280 -93.5q-185 0 -278 93t-93 229zM334 1137q0 -39 20.5 -62.5t51.5 -23.5q34 0 55.5 23.5t21.5 62.5q0 84 -77 84q-72 0 -72 -84z" />
<glyph unicode="&#xbb;" horiz-adv-x="1198" d="M100 831q0 63 47.5 104.5t110.5 41.5q43 0 82 -21.5t63 -64.5l132 -221q39 -63 38 -123q0 -61 -38 -125l-132 -221q-24 -43 -62 -64.5t-81 -21.5q-61 0 -109.5 42t-48.5 105q0 41 21 82l88 203l-88 201q-23 49 -23 83zM624 831q0 63 47.5 104.5t110.5 41.5q43 0 82 -21.5 t63 -64.5l132 -221q39 -63 38 -123q0 -61 -38 -125l-132 -221q-24 -43 -62 -64.5t-81 -21.5q-61 0 -109.5 42t-48.5 105q0 41 21 82l88 203l-88 201q-23 49 -23 83z" />
<glyph unicode="&#xbf;" horiz-adv-x="1001" d="M-2 -20q0 72 35 126t82 90.5t123 86.5q61 37 92.5 61.5t40.5 52.5q10 51 46 80t89 29q61 0 95 -40t34 -114q0 -90 -35 -140t-98 -97q-39 -27 -56.5 -46.5t-17.5 -48.5q0 -68 90 -67q33 0 66.5 11t79.5 32q49 20 67 24q47 27 76 36.5t55 9.5q59 0 100.5 -51.5t41.5 -125.5 q0 -51 -17.5 -82.5t-56.5 -62.5q-88 -63 -207 -97t-246 -34q-137 0 -246.5 47t-171 131t-61.5 189zM274 807q0 96 64.5 160.5t161.5 64.5q94 0 157.5 -64.5t63.5 -160.5t-63.5 -160.5t-157.5 -64.5q-97 0 -161.5 64.5t-64.5 160.5z" />
<glyph unicode="&#xc0;" horiz-adv-x="1579" d="M14 184q0 41 23 90l526 1049q31 66 92.5 100.5t130.5 34.5q72 0 134.5 -34.5t95.5 -100.5l526 -1049q23 -45 23 -90q0 -80 -64.5 -135t-144.5 -55q-53 0 -99.5 27.5t-72.5 87.5l-76 167h-631l-78 -167q-27 -57 -72.5 -86t-99.5 -29q-82 0 -147.5 55t-65.5 135zM436 1769 q0 51 38 90t93 39q61 0 115 -51l164 -149q29 -29 28 -64q0 -33 -24.5 -55.5t-59.5 -22.5q-23 0 -41 9l-217 80q-49 23 -72.5 55.5t-23.5 68.5zM627 604h331l-165 367z" />
<glyph unicode="&#xc1;" horiz-adv-x="1579" d="M14 184q0 41 23 90l526 1049q31 66 92.5 100.5t130.5 34.5q72 0 134.5 -34.5t95.5 -100.5l526 -1049q23 -45 23 -90q0 -80 -64.5 -135t-144.5 -55q-53 0 -99.5 27.5t-72.5 87.5l-76 167h-631l-78 -167q-27 -57 -72.5 -86t-99.5 -29q-82 0 -147.5 55t-65.5 135zM627 604 h331l-165 367zM700 1634q0 35 31 64l164 149q55 53 113 54q55 0 94 -40t39 -92q0 -37 -23.5 -69.5t-73.5 -54.5l-217 -80q-18 -9 -41 -9q-35 0 -60.5 23t-25.5 55z" />
<glyph unicode="&#xc2;" horiz-adv-x="1579" d="M14 184q0 41 23 90l526 1049q31 66 92.5 100.5t130.5 34.5q72 0 134.5 -34.5t95.5 -100.5l526 -1049q23 -45 23 -90q0 -80 -64.5 -135t-144.5 -55q-53 0 -99.5 27.5t-72.5 87.5l-76 167h-631l-78 -167q-27 -57 -72.5 -86t-99.5 -29q-82 0 -147.5 55t-65.5 135zM471 1659 q0 43 45 80l152 114q49 43 120 43q68 0 119 -43l154 -114q43 -35 43 -82q0 -41 -31 -71t-76 -30t-84 37l-125 111l-127 -111q-36 -34 -83 -34q-43 0 -75 29.5t-32 70.5zM627 604h331l-165 367z" />
<glyph unicode="&#xc3;" horiz-adv-x="1579" d="M14 184q0 41 23 90l526 1049q31 66 92.5 100.5t130.5 34.5q72 0 134.5 -34.5t95.5 -100.5l526 -1049q23 -45 23 -90q0 -80 -64.5 -135t-144.5 -55q-53 0 -99.5 27.5t-72.5 87.5l-76 167h-631l-78 -167q-27 -57 -72.5 -86t-99.5 -29q-82 0 -147.5 55t-65.5 135zM426 1661 q0 45 27.5 94t74.5 82t105 33q61 0 155 -27q102 -25 154 -24q31 0 61 26q35 31 74 31q74 0 74 -78q0 -45 -27.5 -94t-75 -82t-102.5 -33q-60 0 -158 27q-102 25 -153 24q-18 0 -30.5 -6t-29.5 -20q-18 -16 -33.5 -24.5t-41.5 -8.5q-35 0 -54.5 21.5t-19.5 58.5zM627 604h331 l-165 367z" />
<glyph unicode="&#xc4;" horiz-adv-x="1579" d="M14 184q0 41 23 90l526 1049q31 66 92.5 100.5t130.5 34.5q72 0 134.5 -34.5t95.5 -100.5l526 -1049q23 -45 23 -90q0 -80 -64.5 -135t-144.5 -55q-53 0 -99.5 27.5t-72.5 87.5l-76 167h-631l-78 -167q-27 -57 -72.5 -86t-99.5 -29q-82 0 -147.5 55t-65.5 135zM410 1733 q0 74 48 117.5t126 43.5q80 0 129 -44t49 -117q0 -78 -49 -124t-129 -46q-78 0 -126 46t-48 124zM627 604h331l-165 367zM817 1733q0 74 48.5 117.5t130.5 43.5q76 0 125 -44t49 -117q0 -78 -48.5 -124t-125.5 -46q-82 0 -130.5 46t-48.5 124z" />
<glyph unicode="&#xc5;" horiz-adv-x="1579" d="M14 184q0 39 23 90l581 1164q-66 70 -65 164q0 98 69.5 165.5t168.5 67.5q100 0 168.5 -67.5t68.5 -165.5t-65 -164l579 -1164q23 -45 23 -92q0 -80 -63.5 -134t-145.5 -54q-53 0 -99.5 27.5t-72.5 87.5l-76 167h-631l-78 -167q-27 -59 -72.5 -87t-101.5 -28 q-82 0 -146.5 54t-64.5 136zM627 604h331l-165 367zM711 1602q0 -37 22.5 -61.5t57.5 -24.5t58 25.5t23 60.5t-23.5 59.5t-57.5 24.5q-35 0 -57.5 -25t-22.5 -59z" />
<glyph unicode="&#xc6;" horiz-adv-x="2064" d="M-6 156q0 57 41 118l708 1049q37 53 102.5 87t141.5 34h852q211 0 211 -166q0 -82 -54 -126t-157 -44h-555l47 -205h467q211 0 211 -170q0 -166 -211 -166h-387l53 -231h375q211 0 211 -170q0 -166 -211 -166h-536q-74 0 -125.5 28.5t-63.5 80.5l-39 167h-577l-107 -167 q-39 -59 -92 -89t-113 -30q-78 0 -135 47t-57 119zM707 604h294l-77 342z" />
<glyph unicode="&#xc7;" horiz-adv-x="1390" d="M84 723q0 223 91 391t258 259t388 91q131 0 242 -31.5t213 -97.5q41 -29 57.5 -60.5t16.5 -84.5q0 -74 -41 -125t-101 -51q-37 0 -63.5 10t-65.5 35q-127 61 -231 61q-164 0 -241 -96t-77 -301q0 -207 77 -303t241 -96q37 0 71.5 9t94.5 29l34.5 11.5t30.5 11.5 q8 4 35 18.5t48.5 20.5t45.5 6q59 0 100.5 -51t41.5 -125q0 -51 -16.5 -84t-57.5 -61q-102 -66 -213 -97.5t-242 -31.5q-221 0 -388 91t-258 260t-91 392zM590 -322q0 33 18.5 56.5t47.5 17.5q49 -16 115 -16q39 0 61 8t22 35q0 14 -12 23.5t-33 9.5q-14 0 -40.5 -5.5 t-40.5 -5.5q-20 0 -33 11.5t-8 29.5l26 199h189l-21 -123q14 2 41 2q64 0 108 -40t44 -101q0 -84 -75 -135.5t-216 -51.5q-92 0 -146 19q-47 14 -47 67z" />
<glyph unicode="&#xc8;" horiz-adv-x="1232" d="M117 203v1038q0 98 51 150.5t149 52.5h693q104 0 156.5 -43t52.5 -123q0 -170 -209 -170h-465v-205h424q104 0 156.5 -43t52.5 -127q0 -166 -209 -166h-424v-231h465q104 0 156.5 -43t52.5 -127q0 -80 -52.5 -123t-156.5 -43h-693q-98 0 -149 51t-51 152zM336 1769 q0 51 38 90t93 39q61 0 115 -51l164 -149q29 -29 28 -64q0 -33 -24.5 -55.5t-59.5 -22.5q-23 0 -41 9l-217 80q-49 23 -72.5 55.5t-23.5 68.5z" />
<glyph unicode="&#xc9;" horiz-adv-x="1232" d="M117 203v1038q0 98 51 150.5t149 52.5h693q104 0 156.5 -43t52.5 -123q0 -170 -209 -170h-465v-205h424q104 0 156.5 -43t52.5 -127q0 -166 -209 -166h-424v-231h465q104 0 156.5 -43t52.5 -127q0 -80 -52.5 -123t-156.5 -43h-693q-98 0 -149 51t-51 152zM600 1634 q0 35 31 64l164 149q55 53 113 54q55 0 94 -40t39 -92q0 -37 -23.5 -69.5t-73.5 -54.5l-217 -80q-18 -9 -41 -9q-35 0 -60.5 23t-25.5 55z" />
<glyph unicode="&#xca;" horiz-adv-x="1232" d="M117 203v1038q0 98 51 150.5t149 52.5h693q104 0 156.5 -43t52.5 -123q0 -170 -209 -170h-465v-205h424q104 0 156.5 -43t52.5 -127q0 -166 -209 -166h-424v-231h465q104 0 156.5 -43t52.5 -127q0 -80 -52.5 -123t-156.5 -43h-693q-98 0 -149 51t-51 152zM371 1659 q0 43 45 80l152 114q49 43 120 43q68 0 119 -43l154 -114q43 -35 43 -82q0 -41 -31 -71t-76 -30t-84 37l-125 111l-127 -111q-36 -34 -83 -34q-43 0 -75 29.5t-32 70.5z" />
<glyph unicode="&#xcb;" horiz-adv-x="1232" d="M117 203v1038q0 98 51 150.5t149 52.5h693q104 0 156.5 -43t52.5 -123q0 -170 -209 -170h-465v-205h424q104 0 156.5 -43t52.5 -127q0 -166 -209 -166h-424v-231h465q104 0 156.5 -43t52.5 -127q0 -80 -52.5 -123t-156.5 -43h-693q-98 0 -149 51t-51 152zM309 1733 q0 74 48 117.5t126 43.5q80 0 129 -44t49 -117q0 -78 -49 -124t-129 -46q-78 0 -126 46t-48 124zM716 1733q0 74 48.5 117.5t130.5 43.5q76 0 125 -44t49 -117q0 -78 -48.5 -124t-125.5 -46q-82 0 -130.5 46t-48.5 124z" />
<glyph unicode="&#xcc;" horiz-adv-x="673" d="M-16 1769q0 51 38 90t93 39q61 0 115 -51l164 -149q29 -29 28 -64q0 -33 -24.5 -55.5t-59.5 -22.5q-23 0 -41 9l-217 80q-49 23 -72.5 55.5t-23.5 68.5zM117 203v1038q0 96 59.5 154.5t159.5 58.5q102 0 161.5 -57.5t59.5 -155.5v-1038q0 -100 -59.5 -158.5t-161.5 -58.5 q-100 0 -159.5 58t-59.5 159z" />
<glyph unicode="&#xcd;" horiz-adv-x="673" d="M117 203v1038q0 96 59.5 154.5t159.5 58.5q102 0 161.5 -57.5t59.5 -155.5v-1038q0 -100 -59.5 -158.5t-161.5 -58.5q-100 0 -159.5 58t-59.5 159zM247 1634q0 35 31 64l164 149q55 53 113 54q55 0 94 -40t39 -92q0 -37 -23.5 -69.5t-73.5 -54.5l-217 -80q-18 -9 -41 -9 q-35 0 -60.5 23t-25.5 55z" />
<glyph unicode="&#xce;" horiz-adv-x="673" d="M18 1659q0 43 45 80l152 114q49 43 120 43q68 0 119 -43l154 -114q43 -35 43 -82q0 -41 -31 -71t-76 -30t-84 37l-125 111l-127 -111q-36 -34 -83 -34q-43 0 -75 29.5t-32 70.5zM117 203v1038q0 96 59.5 154.5t159.5 58.5q102 0 161.5 -57.5t59.5 -155.5v-1038 q0 -100 -59.5 -158.5t-161.5 -58.5q-100 0 -159.5 58t-59.5 159z" />
<glyph unicode="&#xcf;" horiz-adv-x="673" d="M-43 1733q0 74 48 117.5t126 43.5q80 0 129 -44t49 -117q0 -78 -49 -124t-129 -46q-78 0 -126 46t-48 124zM117 203v1038q0 96 59.5 154.5t159.5 58.5q102 0 161.5 -57.5t59.5 -155.5v-1038q0 -100 -59.5 -158.5t-161.5 -58.5q-100 0 -159.5 58t-59.5 159zM364 1733 q0 74 48.5 117.5t130.5 43.5q76 0 125 -44t49 -117q0 -78 -48.5 -124t-125.5 -46q-82 0 -130.5 46t-48.5 124z" />
<glyph unicode="&#xd0;" horiz-adv-x="1693" d="M0 727q0 78 51 121t146 43h8v350q0 98 51 150.5t150 52.5h419q242 0 419 -87t271.5 -250t94.5 -384q0 -223 -93.5 -386t-270.5 -250t-421 -87h-419q-98 0 -149.5 51t-51.5 152v360h-8q-94 0 -145.5 43t-51.5 121zM647 352h146q188 0 283 90t95 281q0 190 -95 279.5 t-283 89.5h-146v-201h211q94 0 146.5 -43t52.5 -121t-52.5 -121t-146.5 -43h-211v-211z" />
<glyph unicode="&#xd1;" horiz-adv-x="1562" d="M117 203v1038q0 94 57 153.5t148 59.5q102 0 157 -70l553 -663v520q0 96 56.5 154.5t148.5 58.5t150.5 -59.5t58.5 -153.5v-1038q0 -96 -58.5 -156.5t-148.5 -60.5q-104 0 -160 69l-553 668v-520q0 -98 -55 -157.5t-149 -59.5q-90 0 -147.5 60t-57.5 157zM418 1661 q0 45 27.5 94t74.5 82t105 33q61 0 155 -27q102 -25 154 -24q31 0 61 26q35 31 74 31q74 0 74 -78q0 -45 -27.5 -94t-75 -82t-102.5 -33q-60 0 -158 27q-102 25 -153 24q-18 0 -30.5 -6t-29.5 -20q-18 -16 -33.5 -24.5t-41.5 -8.5q-35 0 -54.5 21.5t-19.5 58.5z" />
<glyph unicode="&#xd2;" horiz-adv-x="1650" d="M84 725q0 223 91 390t259 258t393 91t392 -91t257.5 -259t90.5 -391t-90.5 -392t-257 -260t-392.5 -91q-227 0 -395 92t-258 260t-90 393zM473 1769q0 51 38 90t93 39q61 0 115 -51l164 -149q29 -29 28 -64q0 -33 -24.5 -55.5t-59.5 -22.5q-23 0 -41 9l-217 80 q-49 23 -72.5 55.5t-23.5 68.5zM522 723q0 -205 81 -306.5t224 -101.5q144 0 225 102.5t81 305.5q0 201 -82 303t-224 102q-143 0 -224 -100t-81 -305z" />
<glyph unicode="&#xd3;" horiz-adv-x="1650" d="M84 725q0 223 91 390t259 258t393 91t392 -91t257.5 -259t90.5 -391t-90.5 -392t-257 -260t-392.5 -91q-227 0 -395 92t-258 260t-90 393zM522 723q0 -205 81 -306.5t224 -101.5q144 0 225 102.5t81 305.5q0 201 -82 303t-224 102q-143 0 -224 -100t-81 -305zM737 1634 q0 35 31 64l164 149q55 53 113 54q55 0 94 -40t39 -92q0 -37 -23.5 -69.5t-73.5 -54.5l-217 -80q-18 -9 -41 -9q-35 0 -60.5 23t-25.5 55z" />
<glyph unicode="&#xd4;" horiz-adv-x="1650" d="M84 725q0 223 91 390t259 258t393 91t392 -91t257.5 -259t90.5 -391t-90.5 -392t-257 -260t-392.5 -91q-227 0 -395 92t-258 260t-90 393zM508 1659q0 43 45 80l152 114q49 43 120 43q68 0 119 -43l154 -114q43 -35 43 -82q0 -41 -31 -71t-76 -30t-84 37l-125 111 l-127 -111q-36 -34 -83 -34q-43 0 -75 29.5t-32 70.5zM522 723q0 -205 81 -306.5t224 -101.5q144 0 225 102.5t81 305.5q0 201 -82 303t-224 102q-143 0 -224 -100t-81 -305z" />
<glyph unicode="&#xd5;" horiz-adv-x="1650" d="M84 725q0 223 91 390t259 258t393 91t392 -91t257.5 -259t90.5 -391t-90.5 -392t-257 -260t-392.5 -91q-227 0 -395 92t-258 260t-90 393zM463 1661q0 45 27.5 94t74.5 82t105 33q61 0 155 -27q102 -25 154 -24q31 0 61 26q35 31 74 31q74 0 74 -78q0 -45 -27.5 -94 t-75 -82t-102.5 -33q-60 0 -158 27q-102 25 -153 24q-18 0 -30.5 -6t-29.5 -20q-18 -16 -33.5 -24.5t-41.5 -8.5q-35 0 -54.5 21.5t-19.5 58.5zM522 723q0 -205 81 -306.5t224 -101.5q144 0 225 102.5t81 305.5q0 201 -82 303t-224 102q-143 0 -224 -100t-81 -305z" />
<glyph unicode="&#xd6;" horiz-adv-x="1650" d="M84 725q0 223 91 390t259 258t393 91t392 -91t257.5 -259t90.5 -391t-90.5 -392t-257 -260t-392.5 -91q-227 0 -395 92t-258 260t-90 393zM447 1733q0 74 48 117.5t126 43.5q80 0 129 -44t49 -117q0 -78 -49 -124t-129 -46q-78 0 -126 46t-48 124zM522 723 q0 -205 81 -306.5t224 -101.5q144 0 225 102.5t81 305.5q0 201 -82 303t-224 102q-143 0 -224 -100t-81 -305zM854 1733q0 74 48.5 117.5t130.5 43.5q76 0 125 -44t49 -117q0 -78 -48.5 -124t-125.5 -46q-82 0 -130.5 46t-48.5 124z" />
<glyph unicode="&#xd8;" horiz-adv-x="1650" d="M84 725q0 223 91 390t259 258t393 91q113 0 230 -26l18 32q35 57 79 86t89 29q59 0 102.5 -43t43.5 -108q0 -55 -37 -121l-13 -23q111 -98 169.5 -242.5t58.5 -324.5q0 -223 -90.5 -392t-257 -260t-392.5 -91q-121 0 -231 28l-21 -37q-35 -57 -77.5 -84.5t-89.5 -27.5 q-59 0 -102.5 43t-43.5 108q0 57 35 119l14 27q-111 98 -169 243.5t-58 325.5zM522 723q1 -98 19 -172l333 573q-29 4 -47 4q-143 0 -224 -100t-81 -305zM776 319q33 -4 51 -4q144 0 225 102.5t81 305.5q0 90 -21 176z" />
<glyph unicode="&#xd9;" horiz-adv-x="1538" d="M109 621v620q0 96 58 154.5t159 58.5q98 0 156.5 -58.5t58.5 -154.5v-635q0 -139 59 -215t170 -76q106 0 166.5 77t60.5 214v635q0 96 58.5 154.5t156.5 58.5q100 0 159 -58.5t59 -154.5v-620q0 -309 -170 -475t-490 -166q-326 0 -493.5 163.5t-167.5 477.5zM418 1769 q0 51 38 90t93 39q61 0 115 -51l164 -149q29 -29 28 -64q0 -33 -24.5 -55.5t-59.5 -22.5q-23 0 -41 9l-217 80q-49 23 -72.5 55.5t-23.5 68.5z" />
<glyph unicode="&#xda;" horiz-adv-x="1538" d="M109 621v620q0 96 58 154.5t159 58.5q98 0 156.5 -58.5t58.5 -154.5v-635q0 -139 59 -215t170 -76q106 0 166.5 77t60.5 214v635q0 96 58.5 154.5t156.5 58.5q100 0 159 -58.5t59 -154.5v-620q0 -309 -170 -475t-490 -166q-326 0 -493.5 163.5t-167.5 477.5zM682 1634 q0 35 31 64l164 149q55 53 113 54q55 0 94 -40t39 -92q0 -37 -23.5 -69.5t-73.5 -54.5l-217 -80q-18 -9 -41 -9q-35 0 -60.5 23t-25.5 55z" />
<glyph unicode="&#xdb;" horiz-adv-x="1538" d="M109 621v620q0 96 58 154.5t159 58.5q98 0 156.5 -58.5t58.5 -154.5v-635q0 -139 59 -215t170 -76q106 0 166.5 77t60.5 214v635q0 96 58.5 154.5t156.5 58.5q100 0 159 -58.5t59 -154.5v-620q0 -309 -170 -475t-490 -166q-326 0 -493.5 163.5t-167.5 477.5zM453 1659 q0 43 45 80l152 114q49 43 120 43q68 0 119 -43l154 -114q43 -35 43 -82q0 -41 -31 -71t-76 -30t-84 37l-125 111l-127 -111q-36 -34 -83 -34q-43 0 -75 29.5t-32 70.5z" />
<glyph unicode="&#xdc;" horiz-adv-x="1538" d="M109 621v620q0 96 58 154.5t159 58.5q98 0 156.5 -58.5t58.5 -154.5v-635q0 -139 59 -215t170 -76q106 0 166.5 77t60.5 214v635q0 96 58.5 154.5t156.5 58.5q100 0 159 -58.5t59 -154.5v-620q0 -309 -170 -475t-490 -166q-326 0 -493.5 163.5t-167.5 477.5zM391 1733 q0 74 48 117.5t126 43.5q80 0 129 -44t49 -117q0 -78 -49 -124t-129 -46q-78 0 -126 46t-48 124zM798 1733q0 74 48.5 117.5t130.5 43.5q76 0 125 -44t49 -117q0 -78 -48.5 -124t-125.5 -46q-82 0 -130.5 46t-48.5 124z" />
<glyph unicode="&#xdd;" horiz-adv-x="1363" d="M2 1257q0 80 62.5 140.5t142.5 60.5t143 -72l332 -382l330 382q63 72 145 72q80 0 143.5 -61.5t63.5 -141.5q0 -70 -53 -131l-408 -456v-465q0 -106 -62.5 -161.5t-156.5 -55.5q-98 0 -160.5 55t-62.5 162v465l-404 456q-55 61 -55 133zM591 1634q0 35 31 64l164 149 q55 53 113 54q55 0 94 -40t39 -92q0 -37 -23.5 -69.5t-73.5 -54.5l-217 -80q-18 -9 -41 -9q-35 0 -60.5 23t-25.5 55z" />
<glyph unicode="&#xde;" horiz-adv-x="1411" d="M117 203v1038q0 96 58 154.5t157 58.5q100 0 158.5 -58.5t58.5 -154.5v-65h297q244 0 383 -119t139 -326q0 -205 -140.5 -322.5t-381.5 -117.5h-297v-88q0 -98 -59.5 -157.5t-157.5 -59.5t-156.5 59t-58.5 158zM549 621h217q102 0 147 24.5t45 85.5t-45 87t-147 26h-217 v-223z" />
<glyph unicode="&#xdf;" horiz-adv-x="1492" d="M90 182v674q0 297 167 452.5t480 155.5q233 0 363.5 -87t130.5 -244q0 -74 -32 -132.5t-91 -130.5q-41 -47 -58.5 -75.5t-17.5 -55.5q0 -23 26.5 -35t92.5 -30q92 -25 156.5 -54.5t112.5 -93t48 -172.5q0 -174 -122.5 -273t-335.5 -99q-220 0 -365 86q-25 14 -42 52 t-17 85q0 66 33.5 106.5t87.5 40.5q39 0 69.5 -8t71.5 -22q49 -18 88 -27.5t90 -9.5q33 0 48.5 7t15.5 23q0 25 -30 39.5t-99 36.5q-92 27 -155 55.5t-109 88t-46 157.5q0 80 34 144.5t91 140.5q35 47 48.5 69.5t13.5 43.5q0 82 -123 81q-92 0 -145.5 -64.5t-53.5 -180.5 v-744q0 -90 -57.5 -143t-155.5 -53t-155.5 53t-57.5 143z" />
<glyph unicode="&#xe0;" horiz-adv-x="1144" d="M45 317q2 109 57.5 173.5t176 94t323.5 29.5h57v13q0 55 -27.5 78.5t-94.5 23.5q-76 0 -234 -51q-37 -10 -82 -10q-59 0 -94 42t-35 111q0 51 19.5 82t60.5 51q72 37 184.5 59.5t223.5 22.5q245 0 363 -115.5t118 -355.5v-387q0 -90 -53.5 -141t-147.5 -51q-76 0 -128 41 t-64 110q-25 -72 -89.5 -113.5t-158.5 -41.5q-106 0 -191.5 43t-134.5 119.5t-49 172.5zM203 1425q0 57 45 100.5t106 43.5q84 0 143 -80l148 -203q20 -29 20 -59q0 -39 -27.5 -67t-64.5 -28q-31 0 -63 23l-232 145q-76 51 -75 125zM449 346q0 -37 21.5 -60.5t53.5 -23.5 q60 0 97.5 41t37.5 111v14h-32q-178 0 -178 -82z" />
<glyph unicode="&#xe1;" horiz-adv-x="1144" d="M45 317q2 109 57.5 173.5t176 94t323.5 29.5h57v13q0 55 -27.5 78.5t-94.5 23.5q-76 0 -234 -51q-37 -10 -82 -10q-59 0 -94 42t-35 111q0 51 19.5 82t60.5 51q72 37 184.5 59.5t223.5 22.5q245 0 363 -115.5t118 -355.5v-387q0 -90 -53.5 -141t-147.5 -51q-76 0 -128 41 t-64 110q-25 -72 -89.5 -113.5t-158.5 -41.5q-106 0 -191.5 43t-134.5 119.5t-49 172.5zM449 346q0 -37 21.5 -60.5t53.5 -23.5q60 0 97.5 41t37.5 111v14h-32q-178 0 -178 -82zM492 1225q0 33 22 61l148 203q59 80 141 80q61 0 107.5 -44t46.5 -102q0 -70 -76 -123 l-232 -145q-28 -21 -63 -21q-39 0 -66.5 27t-27.5 64z" />
<glyph unicode="&#xe2;" horiz-adv-x="1144" d="M45 317q2 109 57.5 173.5t176 94t323.5 29.5h57v13q0 55 -27.5 78.5t-94.5 23.5q-76 0 -234 -51q-37 -10 -82 -10q-59 0 -94 42t-35 111q0 51 19.5 82t60.5 51q72 37 184.5 59.5t223.5 22.5q245 0 363 -115.5t118 -355.5v-387q0 -90 -53.5 -141t-147.5 -51q-76 0 -128 41 t-64 110q-25 -72 -89.5 -113.5t-158.5 -41.5q-106 0 -191.5 43t-134.5 119.5t-49 172.5zM252 1239q0 37 26 70l164 192q33 39 63.5 57.5t73.5 18.5q45 0 75 -17.5t63 -62.5l163 -188q29 -35 29 -70q0 -43 -34 -74t-77 -31q-59 0 -96 56l-123 166l-121 -166q-37 -56 -96 -56 q-43 0 -76.5 31t-33.5 74zM449 346q0 -37 21.5 -60.5t53.5 -23.5q60 0 97.5 41t37.5 111v14h-32q-178 0 -178 -82z" />
<glyph unicode="&#xe3;" horiz-adv-x="1144" d="M45 317q2 109 57.5 173.5t176 94t323.5 29.5h57v13q0 55 -27.5 78.5t-94.5 23.5q-76 0 -234 -51q-37 -10 -82 -10q-59 0 -94 42t-35 111q0 51 19.5 82t60.5 51q72 37 184.5 59.5t223.5 22.5q245 0 363 -115.5t118 -355.5v-387q0 -90 -53.5 -141t-147.5 -51q-76 0 -128 41 t-64 110q-25 -72 -89.5 -113.5t-158.5 -41.5q-106 0 -191.5 43t-134.5 119.5t-49 172.5zM217 1276q0 45 27.5 102.5t75.5 97t104 39.5q39 0 75.5 -14t88.5 -41q82 -45 120 -45q31 0 50.5 13.5t40.5 39.5q20 25 35.5 36t39.5 11q33 0 50.5 -23.5t17.5 -66.5q0 -47 -27.5 -104 t-75 -97t-102.5 -40q-37 0 -72.5 14t-95.5 43q-78 45 -119 45q-31 0 -49 -14.5t-39 -40.5q-20 -25 -36.5 -37t-40.5 -12q-31 0 -49.5 25.5t-18.5 68.5zM449 346q0 -37 21.5 -60.5t53.5 -23.5q60 0 97.5 41t37.5 111v14h-32q-178 0 -178 -82z" />
<glyph unicode="&#xe4;" horiz-adv-x="1144" d="M45 317q2 109 57.5 173.5t176 94t323.5 29.5h57v13q0 55 -27.5 78.5t-94.5 23.5q-76 0 -234 -51q-37 -10 -82 -10q-59 0 -94 42t-35 111q0 51 19.5 82t60.5 51q72 37 184.5 59.5t223.5 22.5q245 0 363 -115.5t118 -355.5v-387q0 -90 -53.5 -141t-147.5 -51q-76 0 -128 41 t-64 110q-25 -72 -89.5 -113.5t-158.5 -41.5q-106 0 -191.5 43t-134.5 119.5t-49 172.5zM201 1354q0 76 48 121t126 45q80 0 129 -45.5t49 -120.5q0 -78 -49 -124t-129 -46q-78 0 -126 46t-48 124zM449 346q0 -37 21.5 -60.5t53.5 -23.5q60 0 97.5 41t37.5 111v14h-32 q-178 0 -178 -82zM608 1354q0 76 48.5 121t130.5 45q76 0 125 -45.5t49 -120.5q0 -78 -48.5 -124t-125.5 -46q-82 0 -130.5 46t-48.5 124z" />
<glyph unicode="&#xe5;" horiz-adv-x="1144" d="M45 317q2 109 57.5 173.5t176 94t323.5 29.5h57v13q0 55 -27.5 78.5t-94.5 23.5q-76 0 -234 -51q-37 -10 -82 -10q-59 0 -94 42t-35 111q0 51 19.5 82t60.5 51q72 37 184.5 59.5t223.5 22.5q245 0 363 -115.5t118 -355.5v-387q0 -90 -53.5 -141t-147.5 -51q-76 0 -128 41 t-64 110q-25 -72 -89.5 -113.5t-158.5 -41.5q-106 0 -191.5 43t-134.5 119.5t-49 172.5zM348 1356q0 96 67.5 161.5t164.5 65.5q96 0 163.5 -65.5t67.5 -161.5t-67.5 -162t-163.5 -66q-97 0 -164.5 65.5t-67.5 162.5zM449 346q0 -37 21.5 -60.5t53.5 -23.5q60 0 97.5 41 t37.5 111v14h-32q-178 0 -178 -82zM496 1356q0 -37 23.5 -62.5t60.5 -25.5q36 0 60 25.5t24 62.5q0 39 -23 63.5t-61 24.5q-37 0 -60.5 -24.5t-23.5 -63.5z" />
<glyph unicode="&#xe6;" horiz-adv-x="1687" d="M45 317q2 109 56.5 173.5t173 94t315.5 29.5h59v17q0 51 -27.5 74.5t-91.5 23.5q-55 0 -97 -9t-97 -26q-31 -10 -62.5 -18t-60.5 -8q-53 0 -87 42t-34 111q0 88 80 133q70 39 176.5 60.5t216.5 21.5q217 0 320 -102q125 102 305 102q131 0 232.5 -64.5t158.5 -180 t57 -265.5q0 -49 -23.5 -76.5t-64.5 -27.5h-491q14 -70 52 -100.5t110 -30.5q39 0 76.5 8t86.5 25q86 29 129 28q54 0 87.5 -43t33.5 -112q0 -43 -22.5 -78t-59.5 -56q-68 -33 -167 -57t-175 -24q-272 0 -403 168q-51 -82 -137 -125t-197 -43q-123 0 -220 43t-152.5 119.5 t-55.5 172.5zM449 346q0 -39 23.5 -61.5t62.5 -22.5q47 0 80.5 44t33.5 104v18h-33q-168 0 -167 -82zM1053 614h231q-12 139 -104 140q-113 -1 -127 -140z" />
<glyph unicode="&#xe7;" horiz-adv-x="1036" d="M49 504q0 160 73 279.5t203 186t300 66.5q86 0 176 -23.5t157 -64.5q29 -16 45.5 -48t16.5 -77q0 -74 -34 -120t-87 -46q-37 0 -66.5 8.5t-74.5 26.5q-33 14 -55.5 20.5t-49.5 6.5q-168 0 -168 -205q0 -215 170 -215q41 0 103 27q41 18 70.5 26t66.5 8q53 0 87 -45 t34 -118q0 -45 -16.5 -80t-43.5 -49q-147 -86 -356 -86q-256 0 -403.5 139t-147.5 383zM366 -322q0 33 18.5 56.5t47.5 17.5q49 -16 114 -16q39 0 61.5 8t22.5 35q0 14 -12 23.5t-33 9.5q-14 0 -40.5 -5.5t-41.5 -5.5q-20 0 -32.5 11.5t-8.5 29.5l27 199h189l-21 -123 q14 2 41 2q63 0 107.5 -40t44.5 -101q0 -84 -75 -135.5t-216 -51.5q-92 0 -146 19q-47 14 -47 67z" />
<glyph unicode="&#xe8;" horiz-adv-x="1099" d="M49 510q0 152 66.5 271.5t184.5 187t265 67.5q143 0 254 -63.5t171.5 -178t60.5 -268.5q0 -51 -23.5 -77.5t-64.5 -26.5h-502q14 -72 52 -101.5t116 -29.5q53 0 105 15.5t63 17.5q33 10 66.5 19t62.5 9q53 0 87 -43t34 -112q0 -43 -23 -79t-59 -55q-70 -33 -168.5 -57 t-178.5 -24q-172 0 -301 64.5t-198.5 184t-69.5 279.5zM189 1425q0 57 45 100.5t106 43.5q84 0 143 -80l148 -203q20 -29 20 -59q0 -39 -27.5 -67t-64.5 -28q-31 0 -63 23l-232 145q-76 51 -75 125zM455 614h241q-12 139 -118 140q-107 -1 -123 -140z" />
<glyph unicode="&#xe9;" horiz-adv-x="1099" d="M49 510q0 152 66.5 271.5t184.5 187t265 67.5q143 0 254 -63.5t171.5 -178t60.5 -268.5q0 -51 -23.5 -77.5t-64.5 -26.5h-502q14 -72 52 -101.5t116 -29.5q53 0 105 15.5t63 17.5q33 10 66.5 19t62.5 9q53 0 87 -43t34 -112q0 -43 -23 -79t-59 -55q-70 -33 -168.5 -57 t-178.5 -24q-172 0 -301 64.5t-198.5 184t-69.5 279.5zM455 614h241q-12 139 -118 140q-107 -1 -123 -140zM478 1225q0 33 22 61l148 203q59 80 141 80q61 0 107.5 -44t46.5 -102q0 -70 -76 -123l-232 -145q-28 -21 -63 -21q-39 0 -66.5 27t-27.5 64z" />
<glyph unicode="&#xea;" horiz-adv-x="1099" d="M49 510q0 152 66.5 271.5t184.5 187t265 67.5q143 0 254 -63.5t171.5 -178t60.5 -268.5q0 -51 -23.5 -77.5t-64.5 -26.5h-502q14 -72 52 -101.5t116 -29.5q53 0 105 15.5t63 17.5q33 10 66.5 19t62.5 9q53 0 87 -43t34 -112q0 -43 -23 -79t-59 -55q-70 -33 -168.5 -57 t-178.5 -24q-172 0 -301 64.5t-198.5 184t-69.5 279.5zM238 1239q0 37 26 70l164 192q33 39 63.5 57.5t73.5 18.5q45 0 75 -17.5t63 -62.5l163 -188q29 -35 29 -70q0 -43 -34 -74t-77 -31q-59 0 -96 56l-123 166l-121 -166q-37 -56 -96 -56q-43 0 -76.5 31t-33.5 74z M455 614h241q-12 139 -118 140q-107 -1 -123 -140z" />
<glyph unicode="&#xeb;" horiz-adv-x="1099" d="M49 510q0 152 66.5 271.5t184.5 187t265 67.5q143 0 254 -63.5t171.5 -178t60.5 -268.5q0 -51 -23.5 -77.5t-64.5 -26.5h-502q14 -72 52 -101.5t116 -29.5q53 0 105 15.5t63 17.5q33 10 66.5 19t62.5 9q53 0 87 -43t34 -112q0 -43 -23 -79t-59 -55q-70 -33 -168.5 -57 t-178.5 -24q-172 0 -301 64.5t-198.5 184t-69.5 279.5zM187 1354q0 76 48 121t126 45q80 0 129 -45.5t49 -120.5q0 -78 -49 -124t-129 -46q-78 0 -126 46t-48 124zM455 614h241q-12 139 -118 140q-107 -1 -123 -140zM594 1354q0 76 48.5 121t130.5 45q76 0 125 -45.5 t49 -120.5q0 -78 -48.5 -124t-125.5 -46q-82 0 -130.5 46t-48.5 124z" />
<glyph unicode="&#xec;" horiz-adv-x="608" d="M-73 1425q0 57 45 100.5t106 43.5q84 0 143 -80l148 -203q20 -29 20 -59q0 -39 -27.5 -67t-64.5 -28q-31 0 -63 23l-232 145q-76 51 -75 125zM90 182v654q0 98 61.5 147t151.5 49t151.5 -49t61.5 -147v-654q0 -96 -61.5 -146t-151.5 -50t-151.5 50t-61.5 146z" />
<glyph unicode="&#xed;" horiz-adv-x="608" d="M90 182v654q0 98 61.5 147t151.5 49t151.5 -49t61.5 -147v-654q0 -96 -61.5 -146t-151.5 -50t-151.5 50t-61.5 146zM215 1225q0 33 22 61l148 203q59 80 141 80q61 0 107.5 -44t46.5 -102q0 -70 -76 -123l-232 -145q-28 -21 -63 -21q-39 0 -66.5 27t-27.5 64z" />
<glyph unicode="&#xee;" horiz-adv-x="608" d="M-24 1239q0 37 26 70l164 192q33 39 63.5 57.5t73.5 18.5q45 0 75 -17.5t63 -62.5l163 -188q29 -35 29 -70q0 -43 -34 -74t-77 -31q-59 0 -96 56l-123 166l-121 -166q-37 -56 -96 -56q-43 0 -76.5 31t-33.5 74zM90 182v654q0 98 61.5 147t151.5 49t151.5 -49t61.5 -147 v-654q0 -96 -61.5 -146t-151.5 -50t-151.5 50t-61.5 146z" />
<glyph unicode="&#xef;" horiz-adv-x="608" d="M-76 1354q0 76 48 121t126 45q80 0 129 -45.5t49 -120.5q0 -78 -49 -124t-129 -46q-78 0 -126 46t-48 124zM90 182v654q0 98 61.5 147t151.5 49t151.5 -49t61.5 -147v-654q0 -96 -61.5 -146t-151.5 -50t-151.5 50t-61.5 146zM331 1354q0 76 48.5 121t130.5 45 q76 0 125 -45.5t49 -120.5q0 -78 -48.5 -124t-125.5 -46q-82 0 -130.5 46t-48.5 124z" />
<glyph unicode="&#xf0;" horiz-adv-x="1277" d="M49 463q0 133 66.5 240.5t184.5 168t265 60.5q123 0 199 -37q-39 53 -90 94l-252 -53q-12 -4 -37 -4q-47 0 -75.5 29.5t-28.5 68.5q0 37 24.5 66.5t71.5 42.5l49 10q-23 14 -47 25q-49 23 -72.5 57.5t-23.5 75.5q0 61 48 108t122 47q41 0 82 -14q176 -61 342 -205l196 41 q12 4 37 4q47 0 74.5 -29.5t27.5 -70.5q0 -37 -24.5 -65.5t-71.5 -41.5l-74 -14q86 -115 135.5 -235.5t49.5 -229.5q0 -190 -74 -330.5t-212 -215t-329 -74.5q-164 0 -291.5 60t-199.5 170t-72 251zM469 463q0 -86 40 -126t122 -40q157 0 157 164q0 88 -38.5 127t-120.5 39 t-121 -39t-39 -125z" />
<glyph unicode="&#xf1;" horiz-adv-x="1263" d="M90 182v660q0 84 60.5 137t156.5 53q80 0 133.5 -41t63.5 -108q119 154 321 153q181 0 268 -109.5t87 -338.5v-406q0 -90 -57.5 -143t-155.5 -53t-155.5 53t-57.5 143v389q0 76 -23.5 109t-71.5 33q-66 0 -104.5 -43t-38.5 -113v-375q0 -90 -57.5 -143t-155.5 -53 t-155.5 53t-57.5 143zM275 1276q0 45 27.5 102.5t75.5 97t104 39.5q39 0 75.5 -14t88.5 -41q82 -45 120 -45q31 0 50.5 13.5t40.5 39.5q20 25 35.5 36t39.5 11q33 0 50.5 -23.5t17.5 -66.5q0 -47 -27.5 -104t-75 -97t-102.5 -40q-37 0 -72.5 14t-95.5 43q-78 45 -119 45 q-31 0 -49 -14.5t-39 -40.5q-20 -25 -36.5 -37t-40.5 -12q-31 0 -49.5 25.5t-18.5 68.5z" />
<glyph unicode="&#xf2;" horiz-adv-x="1257" d="M49 512q0 162 72 279.5t202 181t306 63.5t306 -63.5t201.5 -181t71.5 -279.5t-71.5 -281.5t-202.5 -184t-305 -64.5t-305 64.5t-203 184t-72 281.5zM252 1425q0 57 45 100.5t106 43.5q84 0 143 -80l148 -203q20 -29 20 -59q0 -39 -27.5 -67t-64.5 -28q-31 0 -63 23 l-232 145q-76 51 -75 125zM469 512q0 -113 41 -164t121 -51t118.5 50t38.5 165t-38.5 164t-120.5 49q-80 0 -120 -49t-40 -164z" />
<glyph unicode="&#xf3;" horiz-adv-x="1257" d="M49 512q0 162 72 279.5t202 181t306 63.5t306 -63.5t201.5 -181t71.5 -279.5t-71.5 -281.5t-202.5 -184t-305 -64.5t-305 64.5t-203 184t-72 281.5zM469 512q0 -113 41 -164t121 -51t118.5 50t38.5 165t-38.5 164t-120.5 49q-80 0 -120 -49t-40 -164zM541 1225 q0 33 22 61l148 203q59 80 141 80q61 0 107.5 -44t46.5 -102q0 -70 -76 -123l-232 -145q-28 -21 -63 -21q-39 0 -66.5 27t-27.5 64z" />
<glyph unicode="&#xf4;" horiz-adv-x="1257" d="M49 512q0 162 72 279.5t202 181t306 63.5t306 -63.5t201.5 -181t71.5 -279.5t-71.5 -281.5t-202.5 -184t-305 -64.5t-305 64.5t-203 184t-72 281.5zM301 1239q0 37 26 70l164 192q33 39 63.5 57.5t73.5 18.5q45 0 75 -17.5t63 -62.5l163 -188q29 -35 29 -70 q0 -43 -34 -74t-77 -31q-59 0 -96 56l-123 166l-121 -166q-37 -56 -96 -56q-43 0 -76.5 31t-33.5 74zM469 512q0 -113 41 -164t121 -51t118.5 50t38.5 165t-38.5 164t-120.5 49q-80 0 -120 -49t-40 -164z" />
<glyph unicode="&#xf5;" horiz-adv-x="1257" d="M49 512q0 162 72 279.5t202 181t306 63.5t306 -63.5t201.5 -181t71.5 -279.5t-71.5 -281.5t-202.5 -184t-305 -64.5t-305 64.5t-203 184t-72 281.5zM266 1276q0 45 27.5 102.5t75.5 97t104 39.5q39 0 75.5 -14t88.5 -41q82 -45 120 -45q31 0 50.5 13.5t40.5 39.5 q20 25 35.5 36t39.5 11q33 0 50.5 -23.5t17.5 -66.5q0 -47 -27.5 -104t-75 -97t-102.5 -40q-37 0 -72.5 14t-95.5 43q-78 45 -119 45q-31 0 -49 -14.5t-39 -40.5q-20 -25 -36.5 -37t-40.5 -12q-31 0 -49.5 25.5t-18.5 68.5zM469 512q0 -113 41 -164t121 -51t118.5 50 t38.5 165t-38.5 164t-120.5 49q-80 0 -120 -49t-40 -164z" />
<glyph unicode="&#xf6;" horiz-adv-x="1257" d="M49 512q0 162 72 279.5t202 181t306 63.5t306 -63.5t201.5 -181t71.5 -279.5t-71.5 -281.5t-202.5 -184t-305 -64.5t-305 64.5t-203 184t-72 281.5zM250 1354q0 76 48 121t126 45q80 0 129 -45.5t49 -120.5q0 -78 -49 -124t-129 -46q-78 0 -126 46t-48 124zM469 512 q0 -113 41 -164t121 -51t118.5 50t38.5 165t-38.5 164t-120.5 49q-80 0 -120 -49t-40 -164zM657 1354q0 76 48.5 121t130.5 45q76 0 125 -45.5t49 -120.5q0 -78 -48.5 -124t-125.5 -46q-82 0 -130.5 46t-48.5 124z" />
<glyph unicode="&#xf7;" d="M127 590q0 59 40 100t97 41h725q59 0 98 -39t39 -98q0 -61 -38.5 -101t-98.5 -40h-725q-57 0 -97 39.5t-40 97.5zM477 201q0 57 41 99t100 42t99.5 -42t40.5 -99q0 -59 -40 -101.5t-100 -42.5q-59 0 -100 42t-41 102zM477 981q0 59 41 101t100 42t99.5 -42t40.5 -101 q0 -57 -40 -99t-100 -42q-59 0 -100 42t-41 99z" />
<glyph unicode="&#xf8;" horiz-adv-x="1257" d="M49 512q0 162 72 279.5t202 181t306 63.5q92 0 172 -18l37 63q18 29 44.5 44.5t55.5 15.5q43 0 76 -28t33 -69q0 -27 -19 -57l-29 -51q101 -68 155 -176.5t54 -247.5q0 -162 -71.5 -281.5t-202.5 -184t-305 -64.5q-90 0 -174 18l-35 -61q-18 -29 -45 -44.5t-56 -15.5 q-43 0 -74.5 27.5t-31.5 68.5q0 31 16 58l29 51q-100 68 -154.5 177.5t-54.5 250.5zM461 512q0 -31 4 -72l168 289h-4q-88 0 -128 -50t-40 -167zM625 293h6q84 0 126 51t42 168q0 31 -4 72z" />
<glyph unicode="&#xf9;" horiz-adv-x="1253" d="M84 430v406q0 90 57.5 143t155.5 53t155.5 -53t57.5 -143v-418q0 -113 96 -113q57 0 94 44t37 114v373q0 90 57.5 143t155.5 53q97 0 155 -53t58 -143v-660q0 -84 -61.5 -137t-155.5 -53q-76 0 -128 37.5t-66 103.5q-100 -145 -279 -145q-199 0 -294 110.5t-95 337.5z M248 1425q0 57 45 100.5t106 43.5q84 0 143 -80l148 -203q20 -29 20 -59q0 -39 -27.5 -67t-64.5 -28q-31 0 -63 23l-232 145q-76 51 -75 125z" />
<glyph unicode="&#xfa;" horiz-adv-x="1253" d="M84 430v406q0 90 57.5 143t155.5 53t155.5 -53t57.5 -143v-418q0 -113 96 -113q57 0 94 44t37 114v373q0 90 57.5 143t155.5 53q97 0 155 -53t58 -143v-660q0 -84 -61.5 -137t-155.5 -53q-76 0 -128 37.5t-66 103.5q-100 -145 -279 -145q-199 0 -294 110.5t-95 337.5z M537 1225q0 33 22 61l148 203q59 80 141 80q61 0 107.5 -44t46.5 -102q0 -70 -76 -123l-232 -145q-28 -21 -63 -21q-39 0 -66.5 27t-27.5 64z" />
<glyph unicode="&#xfb;" horiz-adv-x="1253" d="M84 430v406q0 90 57.5 143t155.5 53t155.5 -53t57.5 -143v-418q0 -113 96 -113q57 0 94 44t37 114v373q0 90 57.5 143t155.5 53q97 0 155 -53t58 -143v-660q0 -84 -61.5 -137t-155.5 -53q-76 0 -128 37.5t-66 103.5q-100 -145 -279 -145q-199 0 -294 110.5t-95 337.5z M297 1239q0 37 26 70l164 192q33 39 63.5 57.5t73.5 18.5q45 0 75 -17.5t63 -62.5l163 -188q29 -35 29 -70q0 -43 -34 -74t-77 -31q-59 0 -96 56l-123 166l-121 -166q-37 -56 -96 -56q-43 0 -76.5 31t-33.5 74z" />
<glyph unicode="&#xfc;" horiz-adv-x="1253" d="M84 430v406q0 90 57.5 143t155.5 53t155.5 -53t57.5 -143v-418q0 -113 96 -113q57 0 94 44t37 114v373q0 90 57.5 143t155.5 53q97 0 155 -53t58 -143v-660q0 -84 -61.5 -137t-155.5 -53q-76 0 -128 37.5t-66 103.5q-100 -145 -279 -145q-199 0 -294 110.5t-95 337.5z M246 1354q0 76 48 121t126 45q80 0 129 -45.5t49 -120.5q0 -78 -49 -124t-129 -46q-78 0 -126 46t-48 124zM653 1354q0 76 48.5 121t130.5 45q76 0 125 -45.5t49 -120.5q0 -78 -48.5 -124t-125.5 -46q-82 0 -130.5 46t-48.5 124z" />
<glyph unicode="&#xfd;" horiz-adv-x="1124" d="M0 848q0 76 66.5 129t148.5 53q57 0 105.5 -29.5t76.5 -89.5l181 -379l174 381q26 60 71 87.5t99 27.5q80 0 142 -52t62 -126q0 -39 -20 -78l-531 -1038q-29 -59 -76.5 -89t-101.5 -30q-80 0 -140 51t-60 125q0 43 20 84l129 252l-328 645q-18 41 -18 76zM475 1225 q0 33 22 61l148 203q59 80 141 80q61 0 107.5 -44t46.5 -102q0 -70 -76 -123l-232 -145q-28 -21 -63 -21q-39 0 -66.5 27t-27.5 64z" />
<glyph unicode="&#xfe;" horiz-adv-x="1306" d="M90 -188v1452q0 84 60.5 137t158.5 53q94 0 150.5 -50t56.5 -130v-371q45 61 125 97t170 36q131 0 232.5 -69.5t157.5 -191.5t56 -271q0 -150 -56 -268.5t-157.5 -186t-232.5 -67.5q-90 0 -170 35.5t-125 97.5v-314q0 -80 -56.5 -130t-150.5 -50q-98 0 -158.5 53.5 t-60.5 137.5zM510 508q0 -102 43 -156.5t123 -54.5q78 0 120 52t42 155q0 106 -43 162.5t-121 56.5t-121 -55.5t-43 -159.5z" />
<glyph unicode="&#xff;" horiz-adv-x="1124" d="M0 848q0 76 66.5 129t148.5 53q57 0 105.5 -29.5t76.5 -89.5l181 -379l174 381q26 60 71 87.5t99 27.5q80 0 142 -52t62 -126q0 -39 -20 -78l-531 -1038q-29 -59 -76.5 -89t-101.5 -30q-80 0 -140 51t-60 125q0 43 20 84l129 252l-328 645q-18 41 -18 76zM184 1354 q0 76 48 121t126 45q80 0 129 -45.5t49 -120.5q0 -78 -49 -124t-129 -46q-78 0 -126 46t-48 124zM591 1354q0 76 48.5 121t130.5 45q76 0 125 -45.5t49 -120.5q0 -78 -48.5 -124t-125.5 -46q-82 0 -130.5 46t-48.5 124z" />
<glyph unicode="&#x131;" horiz-adv-x="608" d="M90 182v654q0 98 61.5 147t151.5 49t151.5 -49t61.5 -147v-654q0 -96 -61.5 -146t-151.5 -50t-151.5 50t-61.5 146z" />
<glyph unicode="&#x152;" horiz-adv-x="2136" d="M84 723q0 221 94 384t271.5 250t418.5 87h1051q203 0 203 -166q0 -84 -52.5 -127t-156.5 -43h-467v-205h426q104 0 156.5 -43t52.5 -127q0 -166 -209 -166h-426v-231h467q104 0 156.5 -43t52.5 -127q0 -166 -207 -166h-1047q-243 0 -420.5 87t-270.5 250t-93 386z M522 723q0 -387 377 -387h117v772h-117q-377 0 -377 -385z" />
<glyph unicode="&#x153;" horiz-adv-x="1830" d="M49 512q0 160 69.5 277.5t197.5 182t300 64.5q240 0 377 -133q129 133 340 133q129 0 231.5 -64.5t160 -180t57.5 -265.5q0 -49 -23.5 -76.5t-64.5 -27.5h-488q14 -72 50 -101.5t110 -29.5q61 0 160 33q86 29 129 28q53 0 88 -43t35 -112q0 -43 -22.5 -78t-59.5 -56 q-66 -33 -164 -57t-176 -24q-231 0 -367 131q-137 -131 -373 -131q-172 0 -300 65.5t-197.5 185t-69.5 279.5zM469 512q0 -111 38 -163t118 -52q77 0 114 52t37 163q0 113 -37 163t-116 50q-80 0 -117 -51t-37 -162zM1200 614h227q-12 139 -102 140q-109 -1 -125 -140z" />
<glyph unicode="&#x178;" horiz-adv-x="1363" d="M2 1257q0 80 62.5 140.5t142.5 60.5t143 -72l332 -382l330 382q63 72 145 72q80 0 143.5 -61.5t63.5 -141.5q0 -70 -53 -131l-408 -456v-465q0 -106 -62.5 -161.5t-156.5 -55.5q-98 0 -160.5 55t-62.5 162v465l-404 456q-55 61 -55 133zM301 1733q0 74 48 117.5t126 43.5 q80 0 129 -44t49 -117q0 -78 -49 -124t-129 -46q-78 0 -126 46t-48 124zM708 1733q0 74 48.5 117.5t130.5 43.5q76 0 125 -44t49 -117q0 -78 -48.5 -124t-125.5 -46q-82 0 -130.5 46t-48.5 124z" />
<glyph unicode="&#x192;" d="M-8 -223q0 70 52 122t144 52h23q35 0 61.5 32.5t34.5 86.5l154 727h-111q-51 0 -89 31.5t-38 82.5t38 84t89 33h160q51 231 194.5 329.5t305.5 98.5h45q88 0 136 -47t48 -113q0 -70 -52 -122t-145 -52h-22q-31 0 -55.5 -25.5t-34.5 -68.5h108q51 0 89 -32.5t38 -84.5 q0 -51 -37.5 -82.5t-89.5 -31.5h-159l-156 -736q-49 -240 -192.5 -340t-311.5 -100h-45q-86 0 -134 46t-48 110z" />
<glyph unicode="&#x2c6;" horiz-adv-x="655" d="M0 1235q0 37 27 70l163 192q33 39 64 57.5t74 18.5q45 0 74.5 -17.5t62.5 -62.5l164 -188q29 -35 28 -70q0 -43 -33.5 -74t-76.5 -31q-59 0 -96 56l-123 166l-121 -166q-37 -56 -96 -56q-43 0 -77 31t-34 74z" />
<glyph unicode="&#x2c7;" horiz-adv-x="653" d="M-2 1468q0 43 34 74t79 31q57 0 94 -53l123 -172l123 172q37 53 92 53q45 0 78.5 -31t33.5 -74q0 -37 -26 -69l-164 -195q-35 -39 -64.5 -57.5t-72.5 -18.5q-45 0 -74 17.5t-66 60.5l-161 193q-29 31 -29 69z" />
<glyph unicode="&#x2d8;" horiz-adv-x="659" d="M-47 1444q0 43 28.5 70.5t67.5 27.5q53 0 86 -49q76 -94 195 -94q121 0 196 94q33 49 84 49q39 0 68 -27.5t29 -68.5q0 -18 -7 -41q-37 -102 -140 -171t-230 -69t-231.5 69t-139.5 171q-6 23 -6 39z" />
<glyph unicode="&#x2d9;" horiz-adv-x="696" d="M141 1350q0 82 55.5 129t151.5 47q92 0 149.5 -48t57.5 -128q0 -82 -56.5 -131.5t-150.5 -49.5t-150.5 49.5t-56.5 131.5z" />
<glyph unicode="&#x2da;" horiz-adv-x="634" d="M86 1352q0 96 67.5 161.5t163.5 65.5t164 -65.5t68 -161.5t-67.5 -162t-164.5 -66q-96 0 -163.5 65.5t-67.5 162.5zM233 1352q0 -37 24 -62.5t60 -25.5q37 0 60.5 25.5t23.5 62.5q0 39 -22.5 63.5t-61.5 24.5q-37 0 -60.5 -24.5t-23.5 -63.5z" />
<glyph unicode="&#x2db;" horiz-adv-x="649" d="M-29 -176q0 104 83 179t239 93l37 -76q-63 -23 -96 -56.5t-33 -84.5q0 -49 28.5 -75.5t69.5 -26.5q45 0 98 14q33 8 55.5 -15.5t22.5 -60.5q0 -47 -39 -71q-88 -51 -192 -52q-117 0 -195 63.5t-78 168.5z" />
<glyph unicode="&#x2dc;" horiz-adv-x="647" d="M-39 1272q0 45 27.5 102.5t76 97t103.5 39.5q39 0 76 -14t88 -41q82 -45 121 -45q31 0 50 13.5t40 39.5q20 25 35.5 36t39.5 11q33 0 50.5 -23.5t17.5 -66.5q0 -47 -27.5 -104t-74.5 -97t-103 -40q-37 0 -72.5 14t-95.5 43q-78 45 -118 45q-31 0 -49.5 -14.5t-39.5 -40.5 q-20 -25 -36.5 -37t-40.5 -12q-31 0 -49.5 25.5t-18.5 68.5z" />
<glyph unicode="&#x2dd;" horiz-adv-x="661" d="M102 1206q0 14 2 21l35 219q12 63 50 96t87 33q51 0 89 -34t38 -85q0 -41 -22 -80l-121 -202q-27 -48 -76 -48q-33 0 -57.5 22.5t-24.5 57.5zM406 1206q0 14 2 21l32 219q12 63 50 96t88 33q49 0 86.5 -33t37.5 -84q0 -41 -24 -82l-115 -202q-12 -23 -33.5 -35.5 t-44.5 -12.5q-33 0 -56 22.5t-23 57.5z" />
<glyph unicode="&#x3a9;" horiz-adv-x="1716" d="M80 176q0 90 50 131t159 41h90q-121 154 -184.5 252t-89 173t-25.5 153q0 168 93 289.5t268 186t417 64.5q236 0 412 -65.5t271 -188t95 -286.5q0 -76 -23.5 -147.5t-87 -170t-188.5 -260.5h90q109 0 159 -41t50 -131q0 -92 -50 -134t-159 -42h-340q-84 0 -133 51 t-49 131q0 78 47 158q145 264 195.5 380t50.5 189q0 219 -340 219t-340 -219q0 -72 49 -185.5t197 -383.5q49 -82 49 -160t-49 -129t-133 -51h-342q-109 0 -159 42t-50 134z" />
<glyph unicode="&#x3c0;" horiz-adv-x="1323" d="M-37 856q0 156 193 156h950q193 0 192 -156q0 -156 -192 -156h-35v-352q0 -18 15.5 -36.5t37.5 -20.5l58 -4q82 -4 120.5 -39t38.5 -103q0 -78 -56 -117.5t-155 -39.5l-36 2l-60 4q-195 14 -292 116.5t-97 272.5v317h-16q-4 -166 -24.5 -303t-65.5 -272 q-23 -70 -79.5 -104.5t-125.5 -34.5q-88 0 -153.5 51t-65.5 133q0 25 6 51q10 53 29 133q23 104 36 179t19 167h-49q-193 0 -193 156z" />
<glyph unicode="&#x400;" horiz-adv-x="1232" d="M117 203v1038q0 98 51 150.5t149 52.5h693q104 0 156.5 -43t52.5 -123q0 -170 -209 -170h-465v-205h424q104 0 156.5 -43t52.5 -127q0 -166 -209 -166h-424v-231h465q104 0 156.5 -43t52.5 -127q0 -80 -52.5 -123t-156.5 -43h-693q-98 0 -149 51t-51 152zM315 1769 q0 51 38 90t93 39q61 0 115 -51l164 -149q29 -29 28 -64q0 -33 -24.5 -55.5t-59.5 -22.5q-23 0 -41 9l-217 80q-49 23 -72.5 55.5t-23.5 68.5z" />
<glyph unicode="&#x401;" horiz-adv-x="1232" d="M117 203v1038q0 98 51 150.5t149 52.5h693q104 0 156.5 -43t52.5 -123q0 -170 -209 -170h-465v-205h424q104 0 156.5 -43t52.5 -127q0 -166 -209 -166h-424v-231h465q104 0 156.5 -43t52.5 -127q0 -80 -52.5 -123t-156.5 -43h-693q-98 0 -149 51t-51 152zM289 1733 q0 74 48 117.5t126 43.5q80 0 129 -44t49 -117q0 -78 -49 -124t-129 -46q-78 0 -126 46t-48 124zM696 1733q0 74 48.5 117.5t130.5 43.5q76 0 125 -44t49 -117q0 -78 -48.5 -124t-125.5 -46q-82 0 -130.5 46t-48.5 124z" />
<glyph unicode="&#x402;" horiz-adv-x="1662" d="M-16 1268q0 76 59 126t147 50h854q90 0 148.5 -49t58.5 -127t-58 -128t-149 -50h-210v-203q109 12 247 12q272 0 406.5 -121t134.5 -336q0 -344 -328 -438q-32 -8 -71 -8q-84 0 -140.5 45t-56.5 106q0 68 28.5 108t86.5 69q43 45 43 94q0 14 -2 23.5t-2 15.5 q0 106 -185 106q-57 0 -114 -4l-47 -2v-350q0 -100 -58.5 -160.5t-157.5 -60.5q-98 0 -157.5 60t-59.5 161v883h-211q-90 0 -148 50t-58 128z" />
<glyph unicode="&#x403;" d="M117 207v1034q0 90 55 146.5t147 56.5h697q94 0 141 -45t47 -125t-47 -126t-141 -46h-467v-895q0 -100 -58.5 -160.5t-158.5 -60.5q-99 0 -157 60t-58 161zM567 1634q0 35 31 64l164 149q55 53 113 54q55 0 94 -40t39 -92q0 -37 -23.5 -69.5t-73.5 -54.5l-217 -80 q-18 -9 -41 -9q-35 0 -60.5 23t-25.5 55z" />
<glyph unicode="&#x404;" horiz-adv-x="1392" d="M84 723q0 219 92 387t264 261t404 93q131 0 224 -27.5t181 -80.5q102 -74 103 -174q0 -68 -46 -117t-112 -49q-53 0 -102 35q-66 33 -122.5 51t-115.5 18q-121 0 -197.5 -54t-111.5 -167h344q74 0 119 -44t45 -118q0 -76 -45 -122t-119 -46h-350q66 -242 315 -241 q31 0 94.5 15t128.5 46q55 31 103 31q68 0 112.5 -48t44.5 -118q0 -53 -31.5 -104.5t-95.5 -90.5q-76 -33 -175 -56t-191 -23q-232 0 -404 93t-264 262t-92 388z" />
<glyph unicode="&#x405;" horiz-adv-x="1388" d="M70 254q0 70 42 123t99 53q31 0 57.5 -9t73.5 -36q78 -39 153.5 -54.5t176.5 -15.5q102 0 155.5 27t53.5 76q0 33 -49.5 61.5t-206.5 59.5q-217 43 -332 107.5t-155 144t-40 192.5q0 135 82 244.5t223.5 173t315.5 63.5q150 0 264.5 -29.5t216.5 -95.5q43 -31 60.5 -64.5 t17.5 -84.5q0 -72 -42 -124t-99 -52q-29 0 -54.5 9t-74.5 36q-14 2 -41 16q-53 23 -109.5 38t-136.5 15q-84 0 -137.5 -30.5t-53.5 -77.5q0 -27 16.5 -44.5t75 -39t181.5 -45.5q209 -43 320.5 -108.5t150.5 -145.5t39 -186q0 -139 -79 -247t-221.5 -166t-328.5 -58 q-166 0 -306 32.5t-233 91.5q-41 29 -58 63t-17 87z" />
<glyph unicode="&#x406;" horiz-adv-x="673" d="M117 203v1038q0 96 59.5 154.5t159.5 58.5q102 0 161.5 -57.5t59.5 -155.5v-1038q0 -100 -59.5 -158.5t-161.5 -58.5q-100 0 -159.5 58t-59.5 159z" />
<glyph unicode="&#x407;" horiz-adv-x="673" d="M-43 1733q0 74 48 117.5t126 43.5q80 0 129 -44t49 -117q0 -78 -49 -124t-129 -46q-78 0 -126 46t-48 124zM117 203v1038q0 96 59.5 154.5t159.5 58.5q102 0 161.5 -57.5t59.5 -155.5v-1038q0 -100 -59.5 -158.5t-161.5 -58.5q-100 0 -159.5 58t-59.5 159zM364 1733 q0 74 48.5 117.5t130.5 43.5q76 0 125 -44t49 -117q0 -78 -48.5 -124t-125.5 -46q-82 0 -130.5 46t-48.5 124z" />
<glyph unicode="&#x408;" horiz-adv-x="858" d="M-41 164q0 84 40 124t128 46l72 4q47 0 72.5 31.5t25.5 76.5v795q0 96 60.5 154.5t162.5 58.5q100 0 160.5 -58.5t60.5 -154.5v-786q0 -209 -114.5 -329t-337.5 -136l-68 -4q-262 -10 -262 178z" />
<glyph unicode="&#x409;" horiz-adv-x="2220" d="M29 180q0 57 35.5 113.5t109.5 99.5q76 53 108.5 150.5t32.5 277.5v420q0 98 52.5 150.5t150.5 52.5h717q96 0 149.5 -52.5t53.5 -148.5v-321h239q244 0 376 -117t132 -332q0 -238 -152.5 -355.5t-410.5 -117.5h-416q-96 0 -148 52t-52 149v901h-267v-203 q0 -360 -100 -556t-283 -294q-77 -45 -147 -45q-80 0 -130 51t-50 125zM1438 330h172q166 0 166 121q0 80 -40 111.5t-126 31.5h-172v-264z" />
<glyph unicode="&#x40a;" horiz-adv-x="2211" d="M117 207v1030q0 100 58 160.5t157 60.5q100 0 158.5 -59.5t58.5 -161.5v-332h450v332q0 100 58.5 160.5t159.5 60.5q98 0 156.5 -59.5t58.5 -161.5v-334h247q240 0 369 -115.5t129 -322.5q0 -231 -149.5 -348t-403.5 -117h-422q-98 0 -150.5 52t-52.5 149v358h-450v-352 q0 -100 -58.5 -160.5t-158.5 -60.5q-101 0 -158 59t-57 162zM1432 330h180q80 0 117.5 34.5t37.5 94.5q0 61 -36.5 90t-118.5 29h-180v-248z" />
<glyph unicode="&#x40b;" horiz-adv-x="1689" d="M-16 1268q0 80 56 128t150 48h854q94 0 150.5 -48t56.5 -128q0 -82 -55 -130t-152 -48h-210v-218q33 10 105.5 18.5t102.5 8.5q532 0 533 -465v-227q0 -100 -58.5 -160.5t-156.5 -60.5t-157.5 60t-59.5 161v137q0 82 -9.5 124t-53.5 68.5t-142 26.5l-39 -5t-65 -13v-338 q0 -100 -58.5 -160.5t-157.5 -60.5q-98 0 -157.5 60t-59.5 161v883h-211q-94 0 -150 48t-56 130z" />
<glyph unicode="&#x40c;" horiz-adv-x="1560" d="M117 205v1034q0 98 58 158.5t157 60.5q100 0 158.5 -59.5t58.5 -159.5v-334h69l388 467q68 82 159 82q74 0 129.5 -52t55.5 -126q0 -66 -54 -131l-286 -328q72 -37 109.5 -67.5t66 -71.5t84.5 -139q6 -6 22 -37l105 -187q33 -59 33 -118q0 -86 -63.5 -146.5t-145.5 -60.5 q-51 0 -97.5 28.5t-81.5 87.5l-178 326q-37 72 -80 100.5t-141 28.5h-94v-356q0 -98 -59.5 -158.5t-157.5 -60.5q-99 0 -157 59t-58 160zM692 1634q0 35 31 64l164 149q55 53 113 54q55 0 94 -40t39 -92q0 -37 -23.5 -69.5t-73.5 -54.5l-217 -80q-18 -9 -41 -9 q-35 0 -60.5 23t-25.5 55z" />
<glyph unicode="&#x40d;" horiz-adv-x="1591" d="M117 186v1051q0 100 58 160.5t157 60.5q100 0 158.5 -59.5t58.5 -161.5v-610l436 688q39 57 73 87t84 43t132 13q98 0 149.5 -52t51.5 -149v-1050q0 -100 -58.5 -160.5t-156.5 -60.5t-158 60t-60 161v612l-393 -635q-61 -86 -109 -128t-97.5 -56t-125.5 -14 q-98 0 -149 52t-51 148zM444 1769q0 51 38 90t93 39q61 0 115 -51l164 -149q29 -29 28 -64q0 -33 -24.5 -55.5t-59.5 -22.5q-23 0 -41 9l-217 80q-49 23 -72.5 55.5t-23.5 68.5z" />
<glyph unicode="&#x40e;" horiz-adv-x="1470" d="M90 1266q0 80 59.5 136t137.5 56q49 0 93 -25.5t77 -80.5l288 -500l244 487q31 60 79 88.5t103 28.5q82 0 144.5 -56.5t62.5 -139.5q0 -51 -26 -105l-521 -1044q-31 -63 -77.5 -93t-102.5 -30q-82 0 -146.5 60.5t-64.5 141.5q0 47 25 97l78 153l-418 707q-35 57 -35 119z M297 1911q0 53 29.5 85t70.5 32q33 0 63.5 -21.5t51.5 -62.5q35 -76 94 -112t131 -36q70 0 130.5 37t94.5 111q20 41 51 62.5t64 21.5q41 0 71.5 -32t30.5 -83q0 -25 -10 -62q-33 -111 -150.5 -185.5t-281.5 -74.5q-162 0 -277.5 74t-152.5 182q-10 29 -10 64z" />
<glyph unicode="&#x40f;" horiz-adv-x="1585" d="M117 201v1036q0 100 58 160.5t157 60.5q100 0 158.5 -59.5t58.5 -161.5v-895h485v895q0 100 59.5 160.5t157.5 60.5t156.5 -60.5t58.5 -160.5v-1036q0 -96 -51 -148.5t-149 -52.5h-273v-219q0 -100 -55 -159.5t-145 -59.5q-93 0 -147 59.5t-54 159.5v219h-275 q-98 0 -149 52t-51 149z" />
<glyph unicode="&#x410;" horiz-adv-x="1579" d="M14 184q0 41 23 90l526 1049q31 66 92.5 100.5t130.5 34.5q72 0 134.5 -34.5t95.5 -100.5l526 -1049q23 -45 23 -90q0 -80 -64.5 -135t-144.5 -55q-53 0 -99.5 27.5t-72.5 87.5l-76 167h-631l-78 -167q-27 -57 -72.5 -86t-99.5 -29q-82 0 -147.5 55t-65.5 135zM627 604 h331l-165 367z" />
<glyph unicode="&#x411;" horiz-adv-x="1353" d="M117 215v1014q0 96 60.5 155.5t154.5 59.5h708q98 0 159 -47t61 -123q0 -78 -60.5 -125t-159.5 -47h-491v-160h260q240 0 374 -124t134 -341q0 -145 -64.5 -253.5t-184.5 -166t-280 -57.5h-456q-94 0 -154.5 60.5t-60.5 154.5zM549 330h178q84 0 132 38t48 109 q0 74 -40 106.5t-126 32.5h-192v-286z" />
<glyph unicode="&#x412;" horiz-adv-x="1435" d="M117 203v1038q0 98 51 150.5t149 52.5h535q152 0 265.5 -46t176 -131t62.5 -196t-59.5 -197t-166.5 -124q127 -37 196 -129.5t69 -223.5q0 -119 -64.5 -209t-183.5 -139t-277 -49h-553q-98 0 -149 51t-51 152zM545 330h270q92 0 131 27.5t39 93.5t-38 92t-132 26h-270 v-239zM545 899h231q90 0 129 23.5t39 76.5q0 59 -40 87t-128 28h-231v-215z" />
<glyph unicode="&#x413;" d="M117 207v1034q0 90 55 146.5t147 56.5h697q94 0 141 -45t47 -125t-47 -126t-141 -46h-467v-895q0 -100 -58.5 -160.5t-158.5 -60.5q-99 0 -157 60t-58 161z" />
<glyph unicode="&#x414;" horiz-adv-x="1734" d="M35 139q0 98 53 150.5t150 52.5h41q53 180 69.5 370.5t16.5 426.5v102q0 98 53 150.5t149 52.5h713q96 0 149.5 -52.5t53.5 -150.5v-899h2q98 0 150.5 -52t52.5 -151v-303q0 -98 -54.5 -158.5t-146.5 -60.5t-146.5 59.5t-54.5 159.5v164h-850v-164q0 -98 -54 -158.5 t-146 -60.5q-93 0 -147 59.5t-54 159.5v303zM635 340h416v768h-308v43q0 -254 -24.5 -441.5t-83.5 -369.5z" />
<glyph unicode="&#x415;" horiz-adv-x="1232" d="M117 203v1038q0 98 51 150.5t149 52.5h693q104 0 156.5 -43t52.5 -123q0 -170 -209 -170h-465v-205h424q104 0 156.5 -43t52.5 -127q0 -166 -209 -166h-424v-231h465q104 0 156.5 -43t52.5 -127q0 -80 -52.5 -123t-156.5 -43h-693q-98 0 -149 51t-51 152z" />
<glyph unicode="&#x416;" horiz-adv-x="2334" d="M133 193q0 45 21 86l100 208q57 119 89 169.5t63.5 75t115.5 71.5l-237 348q-37 55 -37 109q0 82 65.5 140t147.5 58q102 0 160 -92l292 -473h39v346q0 98 59.5 158.5t157.5 60.5t156.5 -59.5t58.5 -159.5v-346h41l293 471q31 49 74 72.5t90 23.5q80 0 143.5 -57 t63.5 -137q0 -51 -37 -111l-237 -352q68 -39 98.5 -63.5t56 -62.5t82.5 -134l33 -56l94 -206q20 -43 21 -86q0 -57 -34 -105.5t-87.5 -76t-108.5 -27.5t-100 27.5t-72 84.5l-151 338q-29 70 -75 101.5t-145 31.5h-43v-364q0 -98 -58 -158.5t-157 -60.5q-100 0 -158.5 59 t-58.5 160v364h-41q-98 0 -144 -30.5t-77 -102.5l-151 -334q-27 -57 -73 -84.5t-101 -27.5q-57 0 -110.5 26.5t-87.5 73.5t-34 103z" />
<glyph unicode="&#x417;" horiz-adv-x="1292" d="M31 250q0 66 43 112t110 46q51 0 111 -31q121 -49 237 -49q268 0 269 112q0 49 -10.5 75t-45 40t-108.5 14h-100q-96 0 -149.5 50.5t-53.5 117.5q0 63 54 112.5t149 49.5h57q76 0 112.5 10.5t50 33t13.5 63.5q0 111 -180 110q-92 0 -180 -26q-51 -12 -70 -15 q-49 -20 -102 -20q-72 0 -117 46t-45 107q0 51 32.5 100.5t98.5 82.5q201 74 467 73q168 0 292 -50t190.5 -141t66.5 -210q0 -115 -58.5 -196t-163.5 -115q123 -43 185.5 -121t62.5 -203q0 -129 -79.5 -230.5t-225 -159.5t-338.5 -58q-262 -1 -448 83q-63 37 -95 87.5 t-32 99.5z" />
<glyph unicode="&#x418;" horiz-adv-x="1591" d="M117 186v1051q0 100 58 160.5t157 60.5q100 0 158.5 -59.5t58.5 -161.5v-610l436 688q39 57 73 87t84 43t132 13q98 0 149.5 -52t51.5 -149v-1050q0 -100 -58.5 -160.5t-156.5 -60.5t-158 60t-60 161v612l-393 -635q-61 -86 -109 -128t-97.5 -56t-125.5 -14 q-98 0 -149 52t-51 148z" />
<glyph unicode="&#x419;" horiz-adv-x="1591" d="M117 186v1051q0 100 58 160.5t157 60.5q100 0 158.5 -59.5t58.5 -161.5v-610l436 688q39 57 73 87t84 43t132 13q98 0 149.5 -52t51.5 -149v-1050q0 -100 -58.5 -160.5t-156.5 -60.5t-158 60t-60 161v612l-393 -635q-61 -86 -109 -128t-97.5 -56t-125.5 -14 q-98 0 -149 52t-51 148zM357 1911q0 53 29.5 85t70.5 32q33 0 63.5 -21.5t51.5 -62.5q35 -76 94 -112t131 -36q70 0 130.5 37t94.5 111q20 41 51 62.5t64 21.5q41 0 71.5 -32t30.5 -83q0 -25 -10 -62q-33 -111 -150.5 -185.5t-281.5 -74.5q-162 0 -277.5 74t-152.5 182 q-10 29 -10 64z" />
<glyph unicode="&#x41a;" horiz-adv-x="1560" d="M117 205v1034q0 98 58 158.5t157 60.5q100 0 158.5 -59.5t58.5 -159.5v-334h69l388 467q68 82 159 82q74 0 129.5 -52t55.5 -126q0 -66 -54 -131l-286 -328q72 -37 109.5 -67.5t66 -71.5t84.5 -139q6 -6 22 -37l105 -187q33 -59 33 -118q0 -86 -63.5 -146.5t-145.5 -60.5 q-51 0 -97.5 28.5t-81.5 87.5l-178 326q-37 72 -80 100.5t-141 28.5h-94v-356q0 -98 -59.5 -158.5t-157.5 -60.5q-99 0 -157 59t-58 160z" />
<glyph unicode="&#x41b;" horiz-adv-x="1554" d="M29 176q0 57 35.5 115.5t107.5 101.5q139 123 139 428v420q0 98 52.5 150.5t150.5 52.5h721q98 0 150.5 -52.5t52.5 -150.5v-1034q0 -100 -58.5 -160.5t-158.5 -60.5q-98 0 -156.5 60t-58.5 161v895h-271v-203q0 -358 -100 -555t-281 -295q-76 -45 -149 -45 q-78 0 -127 50t-49 122z" />
<glyph unicode="&#x41c;" horiz-adv-x="1726" d="M123 182v1059q0 94 57.5 153.5t147.5 59.5q66 0 119 -37t88 -104l331 -621l332 621q35 68 87 104.5t114 36.5q90 0 147.5 -59.5t57.5 -153.5v-1059q0 -90 -53.5 -143t-137.5 -53t-138 54t-54 142v465l-168 -301q-39 -76 -83 -107.5t-108 -31.5q-61 0 -106 31.5t-84 107.5 l-166 291v-455q0 -88 -55.5 -142t-139.5 -54q-82 0 -135 53t-53 143z" />
<glyph unicode="&#x41d;" horiz-adv-x="1601" d="M117 203v1038q0 96 58 154.5t157 58.5q98 0 157.5 -58.5t59.5 -154.5v-336h504v336q0 96 59 154.5t156 58.5q98 0 157.5 -58.5t59.5 -154.5v-1038q0 -96 -59.5 -156.5t-157.5 -60.5q-96 0 -155.5 59t-59.5 158v358h-504v-358q0 -96 -59.5 -156.5t-157.5 -60.5t-156.5 58 t-58.5 159z" />
<glyph unicode="&#x41e;" horiz-adv-x="1650" d="M84 725q0 223 91 390t259 258t393 91t392 -91t257.5 -259t90.5 -391t-90.5 -392t-257 -260t-392.5 -91q-227 0 -395 92t-258 260t-90 393zM522 723q0 -205 81 -306.5t224 -101.5q144 0 225 102.5t81 305.5q0 201 -82 303t-224 102q-143 0 -224 -100t-81 -305z" />
<glyph unicode="&#x41f;" horiz-adv-x="1564" d="M117 205v1024q0 96 59.5 155.5t153.5 59.5h903q96 0 155.5 -59.5t59.5 -155.5v-1022q0 -100 -58.5 -160.5t-158.5 -60.5q-98 0 -156.5 60t-58.5 161v895h-467v-895q0 -100 -58.5 -160.5t-158.5 -60.5q-99 0 -157 59t-58 160z" />
<glyph unicode="&#x420;" horiz-adv-x="1406" d="M117 203v1038q0 98 51 150.5t149 52.5h537q242 0 378 -126t136 -347q0 -219 -136 -344t-378 -125h-297v-299q0 -98 -59.5 -157.5t-161.5 -59.5q-100 0 -159.5 59t-59.5 158zM557 827h236q84 0 124.5 34t40.5 108t-40.5 109.5t-124.5 35.5h-236v-287z" />
<glyph unicode="&#x421;" horiz-adv-x="1390" d="M84 723q0 223 91 391t258 259t388 91q131 0 242 -31.5t213 -97.5q41 -29 57.5 -60.5t16.5 -84.5q0 -74 -41 -125t-101 -51q-37 0 -63.5 10t-65.5 35q-127 61 -231 61q-164 0 -241 -96t-77 -301q0 -207 77 -303t241 -96q37 0 71.5 9t94.5 29l34.5 11.5t30.5 11.5 q8 4 35 18.5t48.5 20.5t45.5 6q59 0 100.5 -51t41.5 -125q0 -51 -16.5 -84t-57.5 -61q-102 -66 -213 -97.5t-242 -31.5q-221 0 -388 91t-258 260t-91 392z" />
<glyph unicode="&#x422;" horiz-adv-x="1314" d="M-16 1268q0 90 51 133t158 43h929q106 0 157.5 -43t51.5 -133q0 -92 -50 -135t-159 -43h-241v-887q0 -96 -61.5 -154.5t-162.5 -58.5q-100 0 -160.5 58t-60.5 155v887h-243q-106 0 -157.5 43t-51.5 135z" />
<glyph unicode="&#x423;" horiz-adv-x="1470" d="M90 1266q0 80 59.5 136t137.5 56q49 0 93 -25.5t77 -80.5l288 -500l244 487q31 60 79 88.5t103 28.5q82 0 144.5 -56.5t62.5 -139.5q0 -51 -26 -105l-521 -1044q-31 -63 -77.5 -93t-102.5 -30q-82 0 -146.5 60.5t-64.5 141.5q0 47 25 97l78 153l-418 707q-35 57 -35 119z " />
<glyph unicode="&#x424;" horiz-adv-x="1873" d="M74 733q0 252 171 384t460 132h16v47q0 98 59.5 159t157.5 61t156.5 -59.5t58.5 -160.5v-47h18q287 0 458 -132t171 -384q0 -176 -81 -299t-223 -185.5t-325 -62.5h-18v-36q0 -98 -58.5 -159t-156.5 -61q-100 0 -158.5 59.5t-58.5 160.5v36h-16q-184 0 -326.5 62.5 t-223.5 185.5t-81 299zM477 733q0 -154 78 -209t158 -55h12v528h-12q-88 0 -162 -53t-74 -211zM1151 469h10q80 0 158 55.5t78 208.5q0 154 -74 209t-162 55h-10v-528z" />
<glyph unicode="&#x425;" horiz-adv-x="1429" d="M43 188q0 70 53 131l363 404l-357 401q-51 59 -51 129q0 80 63.5 141.5t143.5 61.5q82 0 143 -70l316 -360l313 360q59 72 141 72q80 0 144.5 -62.5t64.5 -142.5q0 -70 -53 -129l-356 -401l362 -404q53 -61 53 -131q0 -82 -63 -143t-145 -61q-80 0 -144 71l-317 367 l-324 -367q-57 -70 -143 -69q-82 0 -144.5 60t-62.5 142z" />
<glyph unicode="&#x426;" horiz-adv-x="1650" d="M117 203v1034q0 100 58 160.5t157 60.5q100 0 158.5 -59.5t58.5 -161.5v-895h418v895q0 100 58 160.5t157 60.5q100 0 158.5 -59.5t58.5 -161.5v-895h2q98 0 150.5 -52t52.5 -151v-303q0 -98 -54.5 -158.5t-146.5 -60.5t-146.5 59.5t-54.5 159.5v164h-883q-98 0 -150 52 t-52 151z" />
<glyph unicode="&#x427;" horiz-adv-x="1433" d="M106 930v307q0 100 59.5 160.5t158.5 60.5q98 0 156.5 -60.5t58.5 -160.5v-217q0 -109 47 -164t190 -55h47t62 8v428q0 100 58 160.5t159 60.5q98 0 156.5 -60.5t58.5 -160.5v-1030q0 -100 -58.5 -160.5t-156.5 -60.5q-100 0 -158.5 59t-58.5 162v276q-23 -6 -97.5 -12 t-117.5 -6q-260 0 -412 112.5t-152 352.5z" />
<glyph unicode="&#x428;" horiz-adv-x="2109" d="M117 203v1034q0 100 58 160.5t157 60.5q100 0 158.5 -59.5t58.5 -161.5v-895h291v895q0 100 58 160.5t157 60.5q98 0 157.5 -60.5t59.5 -160.5v-895h289v895q0 100 58 160.5t159 60.5q98 0 156.5 -60.5t58.5 -160.5v-1034q0 -98 -52.5 -150.5t-150.5 -52.5h-1471 q-98 0 -150 52t-52 151z" />
<glyph unicode="&#x429;" horiz-adv-x="2244" d="M117 203v1034q0 100 58 160.5t157 60.5q100 0 158.5 -59.5t58.5 -161.5v-895h291v895q0 100 58 160.5t157 60.5q98 0 157.5 -60.5t59.5 -160.5v-895h289v895q0 100 58 160.5t159 60.5q98 0 156.5 -60.5t58.5 -160.5v-895h4q98 0 150.5 -52t52.5 -151v-303 q0 -98 -54.5 -158.5t-146.5 -60.5t-146.5 59.5t-54.5 159.5v164h-1479q-98 0 -150 52t-52 151z" />
<glyph unicode="&#x42a;" horiz-adv-x="1611" d="M-16 1274q0 78 56 124t150 46h416q98 0 150.5 -52.5t52.5 -150.5v-319h260q244 0 376 -117t132 -332q0 -238 -153.5 -355.5t-409.5 -117.5h-434q-99 0 -151 52t-52 151v899h-187q-94 0 -150 47t-56 125zM809 330h192q166 0 166 121q0 80 -40 111.5t-126 31.5h-192v-264z " />
<glyph unicode="&#x42b;" horiz-adv-x="1957" d="M117 203v1034q0 100 58 160.5t157 60.5q100 0 158.5 -59.5t58.5 -161.5v-315h209q244 0 377 -117t133 -332q0 -238 -153.5 -355.5t-412.5 -117.5h-383q-98 0 -150 52t-52 151zM532 330h189q168 0 168 137q0 88 -41 124t-127 36h-189v-297zM1409 207v1030 q0 100 58.5 160.5t158.5 60.5q98 0 156.5 -60.5t58.5 -160.5v-1030q0 -100 -58.5 -160.5t-156.5 -60.5q-100 0 -158.5 59t-58.5 162z" />
<glyph unicode="&#x42c;" horiz-adv-x="1382" d="M117 203v1034q0 100 58 160.5t157 60.5q100 0 158.5 -59.5t58.5 -161.5v-315h291q244 0 377 -117t133 -332q0 -238 -154 -355.5t-412 -117.5h-465q-98 0 -150 52t-52 151zM549 330h223q168 0 168 129q0 74 -41 104.5t-127 30.5h-223v-264z" />
<glyph unicode="&#x42d;" horiz-adv-x="1333" d="M39 197q0 68 46 118t118 50q39 0 84 -19q92 -20 139 -19t55 1q129 0 206 57t108 184h-338q-80 0 -129 46.5t-49 121.5q0 74 49 118t129 44h329q-74 217 -301 217q-10 0 -52 1t-124 -11q-41 -12 -73 -12q-72 0 -115 48t-43 113q0 53 30.5 102.5t92.5 78.5q127 29 309 28 q227 0 395 -96t256 -267t88 -390t-92 -384t-263 -256t-402 -91q-84 0 -175.5 14t-164.5 37q-57 29 -85 72.5t-28 93.5z" />
<glyph unicode="&#x42e;" horiz-adv-x="2242" d="M117 207v1030q0 100 58 160.5t157 60.5q100 0 158.5 -59.5t58.5 -161.5v-332h180q49 264 231.5 411.5t475.5 147.5q225 0 388 -91t249 -258t86 -392t-86 -393t-249 -259t-388 -91q-297 0 -481.5 154.5t-227.5 426.5h-178v-354q0 -100 -58.5 -160.5t-158.5 -60.5 q-98 0 -156.5 60t-58.5 161zM1147 723q0 -408 289 -408q141 0 214.5 101.5t73.5 306.5q0 203 -74.5 304t-213.5 101q-289 0 -289 -405z" />
<glyph unicode="&#x42f;" horiz-adv-x="1462" d="M123 182q0 47 31 103l69 114q47 78 118 128.5t134 68.5q-104 23 -181 85t-117 144t-40 162q0 219 143.5 338t415.5 119h447q98 0 150.5 -52.5t52.5 -150.5v-1034q0 -100 -58.5 -160.5t-159.5 -60.5q-98 0 -156.5 60t-58.5 161v295h-59q-45 0 -89 -20.5t-83 -88.5 l-168 -299q-31 -55 -77 -80.5t-99 -25.5q-84 0 -149.5 57t-65.5 137zM547 956q0 -72 45 -100.5t158 -28.5h170v287h-158q-104 0 -159.5 -43t-55.5 -115z" />
<glyph unicode="&#x430;" horiz-adv-x="1185" d="M65 317q2 109 57.5 173.5t176 94t323.5 29.5h57v13q0 55 -27.5 78.5t-94.5 23.5q-76 0 -234 -51q-37 -10 -82 -10q-59 0 -94 42t-35 111q0 51 19.5 82t60.5 51q72 37 184.5 59.5t223.5 22.5q245 0 363 -115.5t118 -355.5v-387q0 -90 -53.5 -141t-147.5 -51q-76 0 -128 41 t-64 110q-25 -72 -89.5 -113.5t-158.5 -41.5q-106 0 -191.5 43t-134.5 119.5t-49 172.5zM469 346q0 -37 21.5 -60.5t53.5 -23.5q60 0 97.5 41t37.5 111v14h-32q-178 0 -178 -82z" />
<glyph unicode="&#x431;" horiz-adv-x="1312" d="M80 627q0 291 116.5 475t381.5 276q55 16 95 26.5t68 18.5q98 25 160 43q49 16 88 17q70 0 112 -39t42 -94q0 -43 -31 -86t-90 -74q-137 -61 -322 -107q-125 -35 -192.5 -84t-97 -119.5t-41.5 -185.5q63 133 170.5 203t226.5 70q250 0 363.5 -134.5t113.5 -343.5 q0 -158 -75.5 -272.5t-210 -174.5t-306.5 -60q-276 0 -423.5 147t-147.5 498zM510 502q0 -117 40 -161t105 -44q168 0 168 207q0 82 -28.5 120t-64.5 45t-89 7q-39 0 -65.5 -10.5t-46 -48t-19.5 -115.5z" />
<glyph unicode="&#x432;" d="M104 193v608q-2 98 49.5 154.5t143.5 56.5h422q186 0 294.5 -75t108.5 -189q0 -84 -47 -139.5t-127 -82.5q106 -33 155.5 -90t49.5 -147q0 -139 -121 -214t-309 -75h-408q-98 -2 -154.5 49t-56.5 144zM465 250h225q51 0 76 20.5t25 65.5q0 51 -10.5 69.5t-53.5 18.5h-262 v-174zM465 612h217q51 0 68.5 13.5t17.5 54.5q0 45 -20.5 63.5t-61.5 18.5h-221v-150z" />
<glyph unicode="&#x433;" horiz-adv-x="991" d="M104 184v617q-2 98 49.5 154.5t143.5 56.5h489q74 0 119 -43t45 -113t-45 -113t-119 -43h-256v-516q0 -92 -57 -145t-156 -53q-100 0 -156.5 53t-56.5 145z" />
<glyph unicode="&#x434;" horiz-adv-x="1409" d="M10 -80v180q-2 98 51.5 154.5t147.5 56.5h10q33 201 33 394v96q0 98 51 154.5t141 56.5h492q98 0 154.5 -51.5t56.5 -141.5v-508h-17q91 -4 141 -54t50 -138v-199q0 -90 -52 -144.5t-141 -54.5q-88 0 -140 54.5t-52 144.5v80h-541v-80q0 -90 -52 -144.5t-140 -54.5 t-140.5 54.5t-52.5 144.5zM512 309h244v422h-193l2 -151q0 -203 -53 -271z" />
<glyph unicode="&#x435;" horiz-adv-x="1140" d="M69 510q0 152 66.5 271.5t184.5 187t265 67.5q143 0 254 -63.5t171.5 -178t60.5 -268.5q0 -51 -23.5 -77.5t-64.5 -26.5h-502q14 -72 52 -101.5t116 -29.5q53 0 105 15.5t63 17.5q33 10 66.5 19t62.5 9q53 0 87 -43t34 -112q0 -43 -23 -79t-59 -55q-70 -33 -168.5 -57 t-178.5 -24q-172 0 -301 64.5t-198.5 184t-69.5 279.5zM475 614h241q-12 139 -118 140q-107 -1 -123 -140z" />
<glyph unicode="&#x436;" horiz-adv-x="1867" d="M104 178q0 41 19 84l2 21q47 117 86 174t115 96l-113 192q-37 59 -37 113q0 72 54.5 122t125.5 50q49 0 93.5 -25.5t74.5 -78.5l156 -287h49v184q0 94 56.5 151.5t148.5 57.5t147.5 -56t55.5 -149v-188h51l145 281q33 55 80 82.5t98 27.5q72 0 126.5 -48t54.5 -120 q0 -55 -35 -110l-117 -199q78 -39 118 -95.5t85 -174.5v-25q16 -43 16 -78q0 -82 -65.5 -138t-147.5 -56q-57 0 -103 30.5t-71 94.5l-31 102q-2 6 -15 52t-42 75t-70 29h-77v-176q0 -94 -55.5 -150.5t-147.5 -56.5t-148.5 56t-56.5 151v176h-78q-49 0 -72.5 -33t-36 -71 t-18.5 -52l-30 -98q-25 -63 -73 -96t-106 -33q-82 0 -146.5 55t-64.5 137z" />
<glyph unicode="&#x437;" horiz-adv-x="1179" d="M49 182q0 49 39 85t100 36q39 0 82 -14q106 -29 189 -29q12 0 63 -1t78 17.5t27 57.5q0 41 -14.5 51t-67.5 10h-94q-70 0 -110 31t-40 84t40 85t110 32h92q68 0 67 26q0 8 -2 15.5t-2 15.5q0 45 -53 60.5t-135 15.5q-39 0 -96 -17q-49 -16 -95 -16q-63 0 -104 35t-41 82 q0 43 34 83t101 66q80 25 167 34t198 9q209 0 341 -75.5t132 -206.5q0 -88 -51.5 -147.5t-135.5 -88.5q115 -39 161 -88t46 -135t-69.5 -157.5t-193.5 -113.5t-277 -42q-218 0 -349 47q-68 29 -102.5 69.5t-34.5 83.5z" />
<glyph unicode="&#x438;" horiz-adv-x="1349" d="M104 178v651q0 92 55.5 147.5t145.5 55.5t143.5 -55t53.5 -148v-323l225 342q53 76 94 114.5t89 54t126 15.5q98 0 153.5 -50t55.5 -140v-652q0 -92 -53 -148t-143 -56t-145.5 56t-55.5 148v320l-238 -350q-76 -106 -138 -140t-159 -34q-98 0 -153.5 50t-55.5 142z" />
<glyph unicode="&#x439;" horiz-adv-x="1349" d="M145 178v651q0 92 55.5 147.5t145.5 55.5t143.5 -55t53.5 -148v-323l225 342q53 76 94 114.5t89 54t126 15.5q98 0 153.5 -50t55.5 -140v-652q0 -92 -53 -148t-143 -56t-145.5 56t-55.5 148v320l-238 -350q-76 -106 -138 -140t-159 -34q-98 0 -153.5 50t-55.5 142z M247 1495q0 47 37 82t80 35q25 0 46.5 -14.5t33.5 -43.5q29 -72 78 -108.5t133 -36.5q86 0 134 37t77 108q12 29 33.5 43.5t48.5 14.5q43 0 80 -34t37 -83q0 -18 -7 -37q-45 -129 -138 -193.5t-265 -64.5t-266 64.5t-135 193.5q-6 18 -7 37z" />
<glyph unicode="&#x43a;" horiz-adv-x="1306" d="M139 182v654q0 90 57.5 143t155.5 53t155.5 -53t57.5 -143v-177l205 283q66 86 158 86q70 0 120 -48t50 -120q0 -68 -54 -135l-114 -160q14 -10 56 -38.5t76 -71.5t73 -119l18 -51q27 -51 27 -101q0 -82 -64.5 -140t-144.5 -58q-51 0 -97.5 26.5t-74.5 81.5l-82 170 q-20 43 -47 66.5t-88 23.5h-17v-172q0 -90 -57 -143t-156 -53q-98 0 -155.5 53t-57.5 143z" />
<glyph unicode="&#x43b;" horiz-adv-x="1269" d="M29 133q0 51 28.5 98.5t85.5 79.5q45 27 64.5 100.5t19.5 206.5v183q-2 96 50.5 153.5t142.5 57.5h534q96 2 153.5 -50.5t57.5 -142.5v-635q0 -92 -56 -145t-157 -53q-100 0 -156.5 53t-56.5 145v516h-127v-69q0 -307 -98 -452.5t-233 -188.5q-53 -16 -86 -17 q-74 0 -120 46.5t-46 113.5z" />
<glyph unicode="&#x43c;" horiz-adv-x="1488" d="M104 178v625q0 102 59.5 165.5t158.5 63.5q70 0 115.5 -15.5t85.5 -60.5t87 -135l138 -268l147 285q43 82 85 124t87 56t109 14q98 0 154 -51t56 -141v-662q0 -82 -51 -137t-129 -55q-76 0 -127 56t-51 140l2 338l-145 -254q-18 -35 -56 -56.5t-81 -21.5t-81 21.5 t-59 56.5l-149 258l2 -342q0 -82 -52.5 -139t-127.5 -57q-76 0 -126.5 55t-50.5 137z" />
<glyph unicode="&#x43d;" horiz-adv-x="1316" d="M104 184v652q0 90 56.5 143t156.5 53q98 0 155.5 -53t57.5 -143v-162h252v162q0 90 56.5 143t156.5 53q98 0 155.5 -53t57.5 -143l6 -629q0 -100 -59 -160.5t-158 -60.5q-98 0 -156.5 60t-58.5 161v143h-252v-166q0 -92 -57 -145t-156 -53q-100 0 -156.5 53t-56.5 145z " />
<glyph unicode="&#x43e;" horiz-adv-x="1298" d="M69 512q0 162 72 279.5t202 181t306 63.5t306 -63.5t201.5 -181t71.5 -279.5t-71.5 -281.5t-202.5 -184t-305 -64.5t-305 64.5t-203 184t-72 281.5zM489 512q0 -113 41 -164t121 -51t118.5 50t38.5 165t-38.5 164t-120.5 49q-80 0 -120 -49t-40 -164z" />
<glyph unicode="&#x43f;" horiz-adv-x="1296" d="M104 184v617q-2 96 50.5 153.5t142.5 57.5h684q96 2 153.5 -50.5t57.5 -142.5v-635q0 -92 -57.5 -145t-155.5 -53t-155.5 53t-57.5 145v516h-236v-516q0 -92 -57 -145t-156 -53q-100 0 -156.5 53t-56.5 145z" />
<glyph unicode="&#x440;" horiz-adv-x="1347" d="M110 -188v1024q0 90 57.5 143t153.5 53q80 0 133 -39t70 -106q43 68 126 108.5t181 40.5q129 0 230.5 -66.5t158.5 -188.5t57 -277q0 -156 -57 -274.5t-158.5 -183t-230.5 -64.5q-90 0 -170 35.5t-125 97.5v-314q0 -82 -56.5 -131t-150.5 -49q-98 0 -158.5 53.5 t-60.5 137.5zM530 508q0 -102 43 -156.5t123 -54.5q78 0 120 53t42 154q0 104 -43 161.5t-121 57.5t-121 -55.5t-43 -159.5z" />
<glyph unicode="&#x441;" horiz-adv-x="1077" d="M69 504q0 160 73 279.5t203 186t300 66.5q86 0 176 -23.5t157 -64.5q29 -16 45.5 -48t16.5 -77q0 -74 -34 -120t-87 -46q-37 0 -66.5 8.5t-74.5 26.5q-33 14 -55.5 20.5t-49.5 6.5q-168 0 -168 -205q0 -215 170 -215q41 0 103 27q41 18 70.5 26t66.5 8q53 0 87 -45 t34 -118q0 -45 -16.5 -80t-43.5 -49q-147 -86 -356 -86q-256 0 -403.5 139t-147.5 383z" />
<glyph unicode="&#x442;" horiz-adv-x="1132" d="M61 856q0 70 45.5 113t118.5 43h680q76 0 121 -43t45 -113t-45 -113t-121 -43h-127v-516q0 -92 -56 -145t-157 -53q-98 0 -155.5 53t-57.5 145v516h-127q-74 0 -119 43t-45 113z" />
<glyph unicode="&#x443;" horiz-adv-x="1165" d="M20 848q0 76 66.5 129t148.5 53q57 0 105.5 -29.5t76.5 -89.5l181 -379l174 381q26 60 71 87.5t99 27.5q80 0 142 -52t62 -126q0 -39 -20 -78l-531 -1038q-29 -59 -76.5 -89t-101.5 -30q-80 0 -140 51t-60 125q0 43 20 84l129 252l-328 645q-18 41 -18 76z" />
<glyph unicode="&#x444;" horiz-adv-x="1693" d="M70 502q0 193 95 306.5t228 159.5t258 48v231q0 88 56.5 144.5t140.5 56.5t139 -56.5t55 -144.5v-231q125 -2 257.5 -48t227.5 -160t95 -306q0 -193 -95 -306.5t-227.5 -159.5t-257.5 -48v-174q0 -86 -55 -142.5t-139 -56.5t-140.5 56.5t-56.5 142.5v174q-125 2 -258 48 t-228 159.5t-95 306.5zM428 502q0 -119 53.5 -167t171.5 -52v438q-119 -4 -172 -52t-53 -167zM1038 283q119 4 172.5 52t53.5 167t-53.5 167t-172.5 52v-438z" />
<glyph unicode="&#x445;" horiz-adv-x="1183" d="M51 170q0 76 61 137l225 213l-204 187q-61 61 -62 135q0 76 57.5 132t135.5 56t139 -63l188 -181l191 181q61 63 139 63q76 0 133.5 -55t57.5 -131t-62 -137l-203 -187l226 -213q61 -61 61 -135q0 -76 -57.5 -132t-132.5 -56q-78 0 -142 65l-211 207l-211 -207 q-63 -66 -139 -65q-76 0 -133 55t-57 131z" />
<glyph unicode="&#x446;" horiz-adv-x="1386" d="M104 193v643q0 90 56.5 143t156.5 53q98 0 155.5 -53t57.5 -143v-525h199v525q0 90 57.5 143t155.5 53t155.5 -53t57.5 -143v-525h-16q88 -4 139 -55t51 -137v-199q0 -90 -52 -144.5t-142 -54.5q-88 0 -140.5 54.5t-52.5 144.5v80h-627q-98 -2 -154.5 49t-56.5 144z" />
<glyph unicode="&#x447;" horiz-adv-x="1173" d="M49 614v222q0 90 57.5 143t155.5 53q100 0 157.5 -53t57.5 -143v-146q0 -43 4 -64.5t27.5 -40t79.5 -18.5q45 0 55 11v258q0 90 57.5 143t155.5 53t155.5 -53t57.5 -143v-652q0 -92 -57.5 -145t-155.5 -53t-155.5 53t-57.5 145v88q-39 -10 -170 -10q-180 0 -302 88 t-122 264z" />
<glyph unicode="&#x448;" horiz-adv-x="1798" d="M104 193v643q0 88 55.5 142t145.5 54t146.5 -54t56.5 -142v-525h199v525q0 88 51 142t135 54q88 0 141 -53t53 -143l3 -525h200v525q0 90 54.5 143t142.5 53q94 0 150.5 -54t56.5 -142v-625q2 -94 -51.5 -152.5t-141.5 -58.5h-1186q-94 -2 -152.5 51t-58.5 142z" />
<glyph unicode="&#x449;" horiz-adv-x="1925" d="M104 193v643q0 90 56.5 143t150.5 53q90 0 143.5 -53t53.5 -143v-525h199v525q0 88 51 142t135 54q90 0 143.5 -53t53.5 -143v-525h200l-6 525q0 90 54.5 143t142.5 53q96 0 154.5 -53t58.5 -143v-525h-37q96 0 153.5 -52t57.5 -140v-199q0 -90 -53.5 -144.5 t-141.5 -54.5t-140 54.5t-52 144.5v80h-1166q-96 0 -153.5 53t-57.5 140z" />
<glyph unicode="&#x44a;" horiz-adv-x="1357" d="M61 864q0 66 41 107t109 41h293q98 0 154.5 -51.5t56.5 -141.5v-94h200q410 0 410 -358q0 -111 -58.5 -194t-155.5 -128t-210 -45h-340q-98 0 -154.5 51t-56.5 142v522h-139q-68 0 -109 41t-41 108zM709 274h114q57 0 86 33t29 90q0 55 -29.5 77t-85.5 22h-114v-222z" />
<glyph unicode="&#x44b;" horiz-adv-x="1710" d="M104 193v643q0 90 56.5 143t156.5 53q98 0 155.5 -53t57.5 -143v-111h144q197 0 316.5 -79t119.5 -236q0 -127 -64.5 -220.5t-168 -141.5t-218.5 -48h-344q-98 -2 -154.5 49t-56.5 144zM520 274h129q61 0 85 33t24 90q0 53 -25.5 76t-83.5 23h-129v-222zM1182 184v652 q0 90 56 143t157 53q98 0 155.5 -53t57.5 -143v-652q0 -92 -57.5 -145t-155.5 -53q-101 0 -157 53t-56 145z" />
<glyph unicode="&#x44c;" horiz-adv-x="1185" d="M104 193v643q0 90 56.5 143t156.5 53q98 0 155.5 -53t57.5 -143v-111h152q221 0 346 -82t125 -246q0 -125 -66.5 -215t-178 -136t-242.5 -46h-351q-98 -2 -154.5 49t-56.5 144zM524 274h123q57 0 88 32t31 83q0 61 -30.5 84t-88.5 23h-123v-222z" />
<glyph unicode="&#x44d;" horiz-adv-x="1185" d="M147 188q0 49 34 87t93 38q23 0 47.5 -6t49.5 -14q43 -14 82 -22.5t92 -8.5q57 0 95 8.5t68.5 43t41.5 104.5h-297q-53 0 -86 31.5t-33 82.5q0 53 32.5 85t86.5 32h280q-33 68 -97.5 87.5t-172.5 19.5q-27 0 -54.5 -4t-37.5 -7q-61 -12 -97 -12q-57 0 -90.5 35t-33.5 84 q0 184 372 184q176 0 314.5 -68.5t216 -192.5t77.5 -281q0 -240 -153.5 -376t-423.5 -136q-162 0 -284 53t-122 153z" />
<glyph unicode="&#x44e;" horiz-adv-x="1779" d="M104 184v652q0 90 55.5 143t151.5 53t151.5 -53t55.5 -143v-168h109q92 369 528 368q262 0 408.5 -139t146.5 -385q0 -248 -146.5 -389t-408.5 -141q-217 0 -349 96t-177 278h-111v-172q0 -92 -55 -145t-152 -53q-96 0 -151.5 53t-55.5 145zM1020 512q0 -119 29.5 -167 t107.5 -48q76 0 104.5 48t28.5 167t-28.5 166t-106.5 47t-106.5 -47t-28.5 -166z" />
<glyph unicode="&#x44f;" horiz-adv-x="1193" d="M33 131q0 61 49 123l49 45q33 33 89 56.5t128 33.5q-137 49 -206.5 117.5t-69.5 198.5q0 143 99 225t298 82h410q98 0 154.5 -51.5t56.5 -141.5v-637q0 -90 -53.5 -143t-145.5 -53t-143.5 52t-51.5 144v86h6q-45 0 -77.5 -5t-53.5 -30l-149 -188q-72 -94 -182 -94 q-82 0 -144.5 52t-62.5 128zM444 645q0 -37 37 -69.5t84 -32.5h135v190h-163q-49 0 -71 -17.5t-22 -70.5z" />
<glyph unicode="&#x450;" horiz-adv-x="1140" d="M69 510q0 152 66.5 271.5t184.5 187t265 67.5q143 0 254 -63.5t171.5 -178t60.5 -268.5q0 -51 -23.5 -77.5t-64.5 -26.5h-502q14 -72 52 -101.5t116 -29.5q53 0 105 15.5t63 17.5q33 10 66.5 19t62.5 9q53 0 87 -43t34 -112q0 -43 -23 -79t-59 -55q-70 -33 -168.5 -57 t-178.5 -24q-172 0 -301 64.5t-198.5 184t-69.5 279.5zM181 1413q0 57 45 100.5t106 43.5q84 0 143 -80l148 -203q20 -29 20 -59q0 -39 -27.5 -67t-64.5 -28q-31 0 -63 23l-232 145q-76 51 -75 125zM475 614h241q-12 139 -118 140q-107 -1 -123 -140z" />
<glyph unicode="&#x451;" horiz-adv-x="1140" d="M69 510q0 152 66.5 271.5t184.5 187t265 67.5q143 0 254 -63.5t171.5 -178t60.5 -268.5q0 -51 -23.5 -77.5t-64.5 -26.5h-502q14 -72 52 -101.5t116 -29.5q53 0 105 15.5t63 17.5q33 10 66.5 19t62.5 9q53 0 87 -43t34 -112q0 -43 -23 -79t-59 -55q-70 -33 -168.5 -57 t-178.5 -24q-172 0 -301 64.5t-198.5 184t-69.5 279.5zM178 1342q0 76 48 121t126 45q80 0 129 -45.5t49 -120.5q0 -78 -49 -124t-129 -46q-78 0 -126 46t-48 124zM475 614h241q-12 139 -118 140q-107 -1 -123 -140zM585 1342q0 76 48.5 121t130.5 45q76 0 125 -45.5 t49 -120.5q0 -78 -48.5 -124t-125.5 -46q-82 0 -130.5 46t-48.5 124z" />
<glyph unicode="&#x452;" horiz-adv-x="1474" d="M-14 1096q0 49 37.5 80.5t95.5 31.5h106v54q0 90 57.5 143t155.5 53t155.5 -53t57.5 -143v-54h297q57 0 95 -31.5t38 -80.5t-37.5 -81t-95.5 -32h-297v-250q121 143 307 144q127 0 211 -40t132.5 -148.5t48.5 -307.5q0 -141 -59.5 -306t-156 -278.5t-200.5 -115.5l-29 -3 q-84 0 -134 46.5t-50 111.5q0 47 26.5 92t77.5 80q49 49 69.5 94t25 94.5t4.5 157.5q0 119 -37 159t-92 40q-78 0 -112 -27.5t-34 -122.5q0 -29 2 -45v-176q0 -90 -57 -143t-156 -53q-98 0 -155.5 53t-57.5 143v801h-106q-57 0 -95 32t-38 81z" />
<glyph unicode="&#x453;" horiz-adv-x="991" d="M145 184v617q-2 98 49.5 154.5t143.5 56.5h489q74 0 119 -43t45 -113t-45 -113t-119 -43h-256v-516q0 -92 -57 -145t-156 -53q-100 0 -156.5 53t-56.5 145zM381 1217q0 33 22 61l148 203q59 80 141 80q61 0 107.5 -44t46.5 -102q0 -70 -76 -123l-232 -145 q-28 -21 -63 -21q-39 0 -66.5 27t-27.5 64z" />
<glyph unicode="&#x454;" horiz-adv-x="1183" d="M68 504q0 158 76.5 278.5t214 187t315.5 66.5q90 0 183 -16t122 -41q29 -23 44 -54.5t15 -64.5q0 -25 -4 -35q-10 -41 -40.5 -65.5t-78.5 -24.5q-45 0 -81 10q-61 10 -101 11q-115 0 -177 -18.5t-93 -88.5h282q53 0 85 -31.5t32 -85.5q0 -53 -31.5 -83.5t-85.5 -30.5 h-294q10 -70 41.5 -103.5t75.5 -43t116 -9.5q74 0 135 21q6 2 30.5 8t59.5 6q63 0 95 -28.5t38 -88.5q5 -43 -15.5 -84t-65.5 -63q-78 -37 -135.5 -44t-178.5 -7q-270 0 -424.5 139t-154.5 383z" />
<glyph unicode="&#x455;" horiz-adv-x="1052" d="M51 205q0 66 33.5 106.5t87.5 40.5q37 0 65.5 -6t69.5 -20q55 -20 107 -30.5t128 -10.5q39 0 62.5 8t23.5 22t-13 22.5t-63.5 20t-132.5 25.5q-182 33 -263 105.5t-81 203.5q0 96 61.5 175t168 124t239.5 45q96 0 186.5 -22.5t161.5 -65.5q59 -35 60 -125 q0 -68 -34 -111.5t-87 -43.5q-39 0 -68.5 8t-74.5 24q-45 18 -79 27.5t-79 9.5q-76 0 -76 -28q0 -25 38 -39.5t149 -30.5q199 -35 281.5 -106.5t82.5 -208.5q0 -156 -129 -249t-348 -93q-148 0 -245 20.5t-173 65.5q-27 14 -43 52t-16 85z" />
<glyph unicode="&#x456;" horiz-adv-x="649" d="M110 182v654q0 98 61.5 147t151.5 49t151.5 -49t61.5 -147v-654q0 -96 -61.5 -146t-151.5 -50t-151.5 50t-61.5 146zM117 1354q0 82 55.5 129t151.5 47q92 0 149.5 -48t57.5 -128q0 -82 -56.5 -131.5t-150.5 -49.5t-150.5 49.5t-56.5 131.5z" />
<glyph unicode="&#x457;" horiz-adv-x="649" d="M-55 1354q0 76 48 121t126 45q80 0 129 -45.5t49 -120.5q0 -78 -49 -124t-129 -46q-78 0 -126 46t-48 124zM110 182v654q0 98 61.5 147t151.5 49t151.5 -49t61.5 -147v-654q0 -96 -61.5 -146t-151.5 -50t-151.5 50t-61.5 146zM352 1354q0 76 48.5 121t130.5 45 q76 0 125 -45.5t49 -120.5q0 -78 -48.5 -124t-125.5 -46q-82 0 -130.5 46t-48.5 124z" />
<glyph unicode="&#x458;" horiz-adv-x="649" d="M-160 -217q0 70 39 104.5t118 38.5l60 4q20 2 36.5 21.5t16.5 36.5v848q0 98 61.5 147t151.5 49t151.5 -49t61.5 -147v-813q0 -170 -97 -273.5t-294 -118.5l-57 -4l-37 -2q-96 0 -153.5 40t-57.5 118zM115 1354q0 82 55.5 129t151.5 47q92 0 149.5 -48t57.5 -128 q0 -82 -56.5 -131.5t-150.5 -49.5t-150.5 49.5t-56.5 131.5z" />
<glyph unicode="&#x459;" horiz-adv-x="1873" d="M29 135q0 53 31.5 103.5t95.5 83.5q121 59 120 296v183q0 98 51.5 154.5t141.5 56.5h549q98 0 154.5 -51.5t56.5 -141.5v-94h145q223 0 345 -78t122 -237q0 -127 -65.5 -220.5t-176 -141.5t-241.5 -48h-344q-96 -2 -153.5 50t-57.5 143l2 507h-143v-69q0 -537 -394 -643 q-37 -14 -80 -15q-71 0 -115 48.5t-44 113.5zM1221 274h127q59 0 83.5 28t24.5 95q0 45 -25.5 72t-82.5 27h-127v-222z" />
<glyph unicode="&#x45a;" horiz-adv-x="1845" d="M104 184v639q0 90 56.5 143.5t156.5 53.5q98 0 155.5 -53.5t57.5 -143.5v-127h246v127q0 90 57.5 143.5t155.5 53.5q100 0 156.5 -53.5t56.5 -143.5v-127h144q223 0 344.5 -73.5t121.5 -229.5q0 -119 -66.5 -208t-177 -137t-239.5 -48h-342q-96 -2 -153.5 50t-57.5 143 v180h-246v-189q0 -92 -57 -145t-156 -53q-100 0 -156.5 53t-56.5 145zM1188 274h147q37 0 66 25t29 84q0 53 -16.5 70.5t-47.5 17.5l-31 -2h-147v-195z" />
<glyph unicode="&#x45b;" horiz-adv-x="1419" d="M-14 1096q0 49 37.5 80.5t95.5 31.5h106v54q0 90 57.5 143t155.5 53t155.5 -53t57.5 -143v-54h297q57 0 95 -31.5t38 -80.5t-37.5 -81t-95.5 -32h-297v-274q123 135 310 135q180 0 267 -94.5t87 -290.5v-277q0 -90 -56.5 -143t-156.5 -53q-96 0 -154.5 53t-58.5 143v258 q0 45 -23.5 63.5t-70.5 18.5q-63 0 -103.5 -43t-40.5 -114v-183q0 -90 -57 -143t-156 -53q-98 0 -155.5 53t-57.5 143v801h-106q-57 0 -95 32t-38 81z" />
<glyph unicode="&#x45c;" horiz-adv-x="1306" d="M180 182v654q0 90 57.5 143t155.5 53t155.5 -53t57.5 -143v-177l205 283q66 86 158 86q70 0 120 -48t50 -120q0 -68 -54 -135l-114 -160q14 -10 56 -38.5t76 -71.5t73 -119l18 -51q27 -51 27 -101q0 -82 -64.5 -140t-144.5 -58q-51 0 -97.5 26.5t-74.5 81.5l-82 170 q-20 43 -47 66.5t-88 23.5h-17v-172q0 -90 -57 -143t-156 -53q-98 0 -155.5 53t-57.5 143zM568 1217q0 33 22 61l148 203q59 80 141 80q61 0 107.5 -44t46.5 -102q0 -70 -76 -123l-232 -145q-28 -21 -63 -21q-39 0 -66.5 27t-27.5 64z" />
<glyph unicode="&#x45d;" horiz-adv-x="1349" d="M145 178v651q0 92 55.5 147.5t145.5 55.5t143.5 -55t53.5 -148v-323l225 342q53 76 94 114.5t89 54t126 15.5q98 0 153.5 -50t55.5 -140v-652q0 -92 -53 -148t-143 -56t-145.5 56t-55.5 148v320l-238 -350q-76 -106 -138 -140t-159 -34q-98 0 -153.5 50t-55.5 142z M281 1417q0 57 45 100.5t106 43.5q84 0 143 -80l148 -203q20 -29 20 -59q0 -39 -27.5 -67t-64.5 -28q-31 0 -63 23l-232 145q-76 51 -75 125z" />
<glyph unicode="&#x45e;" horiz-adv-x="1165" d="M20 848q0 76 66.5 129t148.5 53q57 0 105.5 -29.5t76.5 -89.5l181 -379l174 381q26 60 71 87.5t99 27.5q80 0 142 -52t62 -126q0 -39 -20 -78l-531 -1038q-29 -59 -76.5 -89t-101.5 -30q-80 0 -140 51t-60 125q0 43 20 84l129 252l-328 645q-18 41 -18 76zM174 1495 q0 47 37 82t80 35q25 0 46.5 -14.5t33.5 -43.5q29 -72 78 -108.5t133 -36.5q86 0 134 37t77 108q12 29 33.5 43.5t48.5 14.5q43 0 80 -34t37 -83q0 -18 -7 -37q-45 -129 -138 -193.5t-265 -64.5t-266 64.5t-135 193.5q-6 18 -7 37z" />
<glyph unicode="&#x45f;" horiz-adv-x="1296" d="M104 193v643q0 90 56.5 143t156.5 53q98 0 155.5 -53t57.5 -143v-525h236v525q0 90 57.5 143t155.5 53t155.5 -53t57.5 -143v-625q2 -98 -49 -154.5t-144 -56.5h-159v-123q0 -90 -52.5 -144.5t-140.5 -54.5q-90 0 -141 53.5t-51 145.5v123h-140q-98 -2 -154.5 49 t-56.5 144z" />
<glyph unicode="&#x462;" horiz-adv-x="1507" d="M-16 1104q0 66 44 105.5t119 39.5h209v21q0 98 58.5 158.5t156.5 60.5t157.5 -59.5t59.5 -159.5v-21h228q76 0 120 -39t44 -106q0 -68 -44 -107t-120 -39h-228v-122h216q229 0 350 -104.5t121 -301.5q0 -219 -142.5 -324.5t-386.5 -105.5h-387q-98 0 -150.5 52t-52.5 151 v755h-209q-76 0 -119.5 40t-43.5 106zM788 330h115q86 0 124 20.5t38 65.5q0 57 -36 74.5t-126 17.5h-115v-178z" />
<glyph unicode="&#x463;" horiz-adv-x="1355" d="M61 899q0 49 32 81t83 32h176v248q0 92 57.5 145t155.5 53q88 0 143.5 -54t55.5 -144v-248h231q51 0 83 -32t32 -81t-31.5 -81t-83.5 -32h-231v-108h149q410 0 410 -332q0 -102 -58.5 -181t-155.5 -122t-210 -43h-336q-98 0 -154.5 51t-56.5 142v593h-176q-51 0 -83 32 t-32 81zM756 268h147q43 0 68.5 18.5t25.5 65.5q0 57 -26.5 74.5t-67.5 17.5h-147v-176z" />
<glyph unicode="&#x46a;" horiz-adv-x="2314" d="M131 195q0 53 25 110l94 191q66 150 115 222.5t147 115.5t279 43h-11l-145 229q-51 70 -51 141q0 82 60.5 139.5t158.5 57.5h743q98 0 158.5 -57.5t60.5 -139.5q0 -72 -51 -141l-145 -229h-6q178 0 274 -43t144.5 -114t117.5 -224l62 -195q23 -51 22 -104 q0 -88 -60.5 -147.5t-137.5 -59.5q-55 0 -103.5 32.5t-77.5 100.5l-139 321q-25 51 -41 76t-51 40t-98 15h-84v-370q0 -98 -58.5 -158.5t-156.5 -60.5q-101 0 -159.5 59t-58.5 160v370h-84q-63 0 -98 -15t-52 -39.5t-42 -76.5l-176 -325q-33 -68 -81 -100.5t-101 -32.5 q-76 0 -134.5 59t-58.5 150zM922 1212l260 -387l278 387h-538z" />
<glyph unicode="&#x46b;" horiz-adv-x="1853" d="M82 186q0 41 22 93l50 79q61 127 151 186.5t268 59.5h-2l-98 129q-43 55 -43 119q0 68 48 114t128 46h639q80 0 129 -47t49 -115q0 -61 -43 -117l-100 -129h-2q178 0 271 -59.5t151 -186.5l45 -82q20 -43 20 -90q0 -84 -65.5 -141t-149.5 -57q-57 0 -105 31.5t-77 97.5 l-90 182q-4 2 -15.5 20.5t-39 33t-70.5 14.5h-16v-185q0 -90 -56.5 -143t-156.5 -53q-99 0 -156 53t-57 143v185h-11q-53 0 -78.5 -17.5t-34.5 -32t-14 -18.5l-92 -184q-29 -63 -77 -95t-105 -32q-84 0 -150.5 57t-66.5 141zM764 782l168 -260l164 260h-332z" />
<glyph unicode="&#x472;" horiz-adv-x="1650" d="M84 725q0 223 91 390t259 258t393 91q226 0 392.5 -91t257 -259t90.5 -391t-90.5 -392t-257 -260t-392.5 -91q-227 0 -395 92t-258 260t-90 393zM537 575q25 -131 100.5 -195.5t189.5 -64.5q113 0 189 65.5t102 194.5h-581zM541 891h573q-31 119 -105.5 178t-181.5 59 q-108 0 -182 -58t-104 -179z" />
<glyph unicode="&#x473;" horiz-adv-x="1298" d="M111 512q0 162 71.5 279.5t201.5 181t306 63.5t306 -63.5t202 -181t72 -279.5t-72 -281.5t-203 -184t-305 -64.5t-305 64.5t-202.5 184t-71.5 281.5zM510 631h360q-16 82 -61 119.5t-119 37.5q-71 0 -116.5 -37.5t-63.5 -119.5zM514 381q35 -147 178 -148q139 1 174 148 h-352z" />
<glyph unicode="&#x474;" horiz-adv-x="1687" d="M4 1260q0 82 71.5 139t160.5 57q57 0 104 -27.5t74 -82.5l366 -777l207 439q96 223 199.5 320t263.5 122q12 2 35 2q90 0 143 -58.5t53 -136.5q0 -59 -32.5 -106t-98.5 -66q-68 -25 -108.5 -62.5t-64 -81.5t-62.5 -134l-314 -694q-29 -61 -91 -95t-134 -34t-133 33.5 t-90 95.5l-530 1067q-18 37 -19 80z" />
<glyph unicode="&#x475;" horiz-adv-x="1292" d="M18 848q0 76 68 129t152 53q55 0 102 -27.5t76 -87.5l180 -380l90 196q57 133 151.5 218t213.5 81q82 0 133 -40t51 -122q0 -66 -34 -105.5t-99 -76.5q-57 -68 -90 -123l-232 -463q-27 -55 -80 -85.5t-116 -30.5q-61 0 -115.5 29.5t-83.5 86.5l-348 674q-18 41 -19 74z " />
<glyph unicode="&#x48a;" horiz-adv-x="1730" d="M117 186v1051q0 100 58 160.5t157 60.5q100 0 158.5 -59.5t58.5 -161.5v-610l436 688q39 57 73 87t84 43t132 13q98 0 149.5 -52t51.5 -149v-915h69q66 0 102.5 -31.5t36.5 -89.5q0 -31 -12 -71l-127 -377q-25 -76 -77 -115t-113 -39q-66 0 -113 44t-47 118q0 39 14 80 l37 121q-92 4 -147.5 62t-55.5 157v618l-393 -635q-61 -86 -109 -128t-97.5 -56t-125.5 -14q-98 0 -149 52t-51 148zM356 1911q0 53 30 85t71 32q33 0 63.5 -21.5t50.5 -62.5q35 -76 94.5 -112t131.5 -36q70 0 130 37t95 111q20 41 51 62.5t64 21.5q41 0 71.5 -32t30.5 -83 q0 -25 -10 -62q-33 -111 -150.5 -185.5t-281.5 -74.5q-162 0 -278 74t-152 182q-10 29 -11 64z" />
<glyph unicode="&#x48b;" horiz-adv-x="1488" d="M104 178v651q0 92 55.5 147.5t145.5 55.5t143.5 -55t53.5 -148v-323l225 342q53 76 94 114.5t89 54t126 15.5q98 0 153.5 -50t55.5 -140v-531h33q72 0 112 -29.5t40 -84.5q0 -29 -9 -56l-57 -227q-31 -98 -97.5 -148.5t-142.5 -50.5q-68 0 -114.5 36t-46.5 97q0 23 10 54 l28 84q-72 14 -112.5 66t-40.5 132v326l-238 -350q-76 -106 -138 -140t-159 -34q-98 0 -153.5 50t-55.5 142zM240 1495q0 47 36.5 82t79.5 35q25 0 46.5 -14.5t33.5 -43.5q29 -72 78 -108.5t133 -36.5q86 0 134 37t77 108q12 29 33.5 43.5t48.5 14.5q43 0 80 -34t37 -83 q0 -18 -6 -37q-45 -129 -138.5 -193.5t-265.5 -64.5t-266 64.5t-135 193.5q-6 18 -6 37z" />
<glyph unicode="&#x48c;" horiz-adv-x="1347" d="M-80 1208q0 63 42 101.5t112 38.5h69q6 104 62.5 161.5t154.5 57.5t153.5 -57.5t61.5 -161.5h146q68 0 109.5 -38t41.5 -102q0 -63 -42 -102t-109 -39h-146v-145h232q244 0 376 -117t132 -332q0 -238 -153.5 -355.5t-411.5 -117.5h-394q-98 -2 -155.5 50t-57.5 143v874 h-69q-70 0 -112 39t-42 102zM575 330h162q168 0 168 129q0 74 -40 104.5t-128 30.5h-162v-264z" />
<glyph unicode="&#x48d;" horiz-adv-x="1355" d="M102 899q0 49 32 81t83 32h176v248q0 92 57.5 145t155.5 53q88 0 143.5 -54t55.5 -144v-248h231q51 0 83 -32t32 -81t-31.5 -81t-83.5 -32h-231v-108h149q410 0 410 -332q0 -102 -58.5 -181t-155.5 -122t-210 -43h-336q-98 0 -154.5 51t-56.5 142v593h-176q-51 0 -83 32 t-32 81zM797 268h147q43 0 68.5 18.5t25.5 65.5q0 57 -26.5 74.5t-67.5 17.5h-147v-176z" />
<glyph unicode="&#x48e;" horiz-adv-x="1406" d="M117 203v1038q0 98 51 150.5t149 52.5h537q242 0 378 -126t136 -347q0 -152 -67.5 -260.5t-192.5 -161.5l20 -29q16 -27 17 -49q0 -37 -31 -65.5t-67 -28.5q-43 0 -68 37l-59 90q-23 -2 -66 -2h-297v-299q0 -98 -59.5 -157.5t-161.5 -59.5q-100 0 -159.5 59t-59.5 158z M557 827h145l-2 4q-16 23 -16 50q0 37 28.5 62.5t65.5 25.5q39 0 66 -35l57 -84q57 33 57 119q0 74 -40.5 109.5t-124.5 35.5h-236v-287z" />
<glyph unicode="&#x48f;" horiz-adv-x="1347" d="M111 -188v1024q0 90 57 143t154 53q80 0 133 -39t69 -106q43 68 126 108.5t181 40.5q129 0 230.5 -66.5t159 -188.5t57.5 -277q0 -135 -44 -243.5t-124 -178.5l39 -49q20 -27 20 -53q0 -37 -41 -72q-27 -18 -55 -19q-41 0 -65 31l-58 76q-63 -14 -119 -14 q-90 0 -169.5 35.5t-124.5 97.5v-314q0 -82 -56.5 -131t-150.5 -49q-98 0 -158.5 53.5t-60.5 137.5zM530 508q0 -102 43 -156.5t123 -54.5q17 0 25 2l-45 59q-18 25 -19 52q0 43 35 71q27 20 58 21q37 0 65 -35l35 -45q8 33 8 82q0 104 -43 161.5t-121 57.5t-121 -55.5 t-43 -159.5z" />
<glyph unicode="&#x490;" horiz-adv-x="1189" d="M117 207v1036q0 90 55 145.5t145 55.5h467v88q0 96 51.5 154.5t139.5 58.5q84 0 136 -58.5t52 -154.5v-229q0 -90 -55 -145.5t-145 -55.5h-414v-895q0 -100 -58.5 -160.5t-158.5 -60.5q-99 0 -157 60t-58 161z" />
<glyph unicode="&#x491;" horiz-adv-x="962" d="M104 184v617q-2 98 49.5 154.5t143.5 56.5h264v32q0 82 49 131.5t131 49.5t131.5 -49.5t49.5 -131.5v-133q2 -98 -49.5 -154.5t-143.5 -56.5h-199v-516q0 -92 -57 -145t-156 -53q-100 0 -156.5 53t-56.5 145z" />
<glyph unicode="&#x492;" d="M-43 719q0 63 38 102t97 39h25v381q0 90 55 146.5t147 56.5h697q94 0 141 -45t47 -125t-47 -126t-141 -46h-467v-242h221q59 0 97 -39t38 -102t-38 -103.5t-97 -40.5h-221v-368q0 -100 -58.5 -160.5t-158.5 -60.5q-98 0 -156.5 60t-58.5 161v368h-25q-59 0 -97 40 t-38 104z" />
<glyph unicode="&#x493;" horiz-adv-x="1083" d="M39 473q0 49 29.5 81t76.5 32h52v215q-2 98 49 154.5t143 56.5h490q73 0 118 -43t45 -113t-45 -113t-118 -43h-256v-114h88q47 0 76.5 -32t29.5 -81q0 -51 -29.5 -82t-76.5 -31h-88v-176q0 -92 -57.5 -145t-155.5 -53q-100 0 -156.5 53t-56.5 145v176h-52q-47 0 -76.5 31 t-29.5 82z" />
<glyph unicode="&#x494;" horiz-adv-x="1325" d="M117 207v1034q0 98 52 150.5t150 52.5h674q82 0 131.5 -46t49.5 -124t-49.5 -125t-131.5 -47h-444v-219q53 6 110.5 11t100.5 5q260 0 390 -135t130 -436q0 -184 -58.5 -329.5t-156.5 -233t-215 -105.5q-14 -2 -41 -2q-88 0 -140.5 43t-52.5 102q0 51 43 98.5t123 69.5 q139 68 140 277q0 166 -64.5 250t-202.5 84q-35 0 -67.5 -7.5t-38.5 -19.5v-348q0 -100 -58.5 -160.5t-158.5 -60.5q-98 0 -156.5 60t-58.5 161z" />
<glyph unicode="&#x495;" horiz-adv-x="1247" d="M104 184v617q-2 98 49.5 154.5t143.5 56.5h489q74 0 119 -43t45 -113t-45 -113t-119 -43h-256v-149q57 37 116 55.5t138 18.5q166 0 255 -92.5t89 -329.5q0 -106 -37.5 -222t-132 -210.5t-249.5 -126.5l-25 -6q-25 -4 -35 -5q-61 0 -99 46.5t-38 105.5q0 47 24.5 83 t73.5 48l6 2q55 20 83 84t28 129q0 119 -26.5 161t-73.5 42q-10 0 -34 -13.5t-42.5 -37t-15.5 -52.5l-5 21v-68q0 -92 -57 -145t-156 -53q-100 0 -156.5 53t-56.5 145z" />
<glyph unicode="&#x496;" horiz-adv-x="2482" d="M133 193q0 45 21 86l100 208q57 119 89 169.5t63.5 75t115.5 71.5l-237 348q-37 55 -37 109q0 82 65.5 140t147.5 58q102 0 160 -92l292 -473h39v346q0 98 59.5 158.5t157.5 60.5t156.5 -59.5t58.5 -159.5v-346h41l293 471q31 49 74 72.5t90 23.5q80 0 143.5 -57 t63.5 -137q0 -51 -37 -111l-237 -352q68 -39 98.5 -63.5t56 -62.5t82.5 -134l33 -56l67 -145h60q98 0 150.5 -51t52.5 -152v-303q0 -100 -54.5 -159.5t-146.5 -59.5t-146.5 59.5t-54.5 159.5v150q-29 -4 -43 -4q-53 0 -97 27.5t-73 84.5l-153 342q-29 70 -75 101.5 t-145 31.5h-43v-364q0 -98 -58 -158.5t-157 -60.5q-100 0 -158.5 59t-58.5 160v364h-41q-98 0 -144 -30.5t-77 -102.5l-151 -334q-27 -57 -73 -84.5t-101 -27.5q-57 0 -110.5 26.5t-87.5 73.5t-34 103z" />
<glyph unicode="&#x497;" horiz-adv-x="1931" d="M104 178q0 41 19 84l2 21q47 117 86 174t115 96l-107 192q-35 55 -35 113q0 74 54.5 123t126.5 49q47 0 91 -25.5t74 -78.5l150 -287h49v184q0 94 56.5 151.5t148.5 57.5t147.5 -56t55.5 -149v-188h51l139 283q33 55 79 82.5t97 27.5q72 0 127.5 -48t55.5 -118 q0 -55 -35 -110l-111 -203q74 -37 114 -90t79 -154q84 -8 131 -57t47 -133v-201q0 -90 -52.5 -143.5t-142.5 -53.5t-140 52.5t-50 144.5v66q-111 14 -150 122l-35 107q-2 6 -15 52t-42 75t-70 29h-77v-176q0 -94 -55.5 -150.5t-147.5 -56.5t-148.5 56t-56.5 151v176h-78 q-49 0 -72.5 -33t-36 -71t-18.5 -52l-30 -98q-25 -63 -73 -96t-106 -33q-82 0 -146.5 55t-64.5 137z" />
<glyph unicode="&#x498;" horiz-adv-x="1292" d="M31 250q0 66 43 112t110 46q51 0 111 -31q121 -49 237 -49q268 0 269 112q0 49 -10.5 75t-45 40t-108.5 14h-100q-96 0 -149.5 50.5t-53.5 117.5q0 63 54 112.5t149 49.5h57q76 0 112.5 10.5t50 33t13.5 63.5q0 111 -180 110q-92 0 -180 -26q-51 -12 -70 -15 q-49 -20 -102 -20q-72 0 -117 46t-45 107q0 51 32.5 100.5t98.5 82.5q201 74 467 73q168 0 292 -50t190.5 -141t66.5 -210q0 -115 -58.5 -196t-163.5 -115q123 -43 185.5 -121t62.5 -203q0 -154 -111.5 -267.5t-306.5 -156.5l-2 -178q0 -78 -46 -125t-121 -47q-78 0 -124 47 t-46 125v158q-193 14 -334 79q-63 37 -95 87.5t-32 99.5z" />
<glyph unicode="&#x499;" horiz-adv-x="1183" d="M78 182q0 49 39 85t100 36q39 0 80 -14q109 -29 190 -29q12 0 63.5 -1t78 17.5t26.5 57.5q0 41 -15 51t-69 10h-94q-70 0 -108.5 31t-38.5 84t39 85t108 32h94q39 0 52.5 6t13.5 18q0 8 -2 16.5t-2 16.5q0 45 -53.5 60.5t-133.5 15.5q-39 0 -96 -17q-49 -16 -96 -16 q-63 0 -103 35t-40 82q0 43 32.5 83t100.5 66q80 25 167 34t197 9q211 0 342 -75.5t131 -206.5q0 -88 -50 -148.5t-134 -87.5q113 -39 160 -88t47 -135q0 -105 -101.5 -186.5t-267.5 -110.5v-109q0 -70 -47 -117.5t-117 -47.5t-115.5 47t-45.5 118v99q-109 10 -197 41 q-68 29 -101.5 69.5t-33.5 83.5z" />
<glyph unicode="&#x49a;" horiz-adv-x="1695" d="M117 205v1034q0 98 58 158.5t157 60.5q100 0 158.5 -59.5t58.5 -159.5v-334h69l388 467q68 82 159 82q74 0 129.5 -52t55.5 -126q0 -66 -54 -131l-286 -328q78 -39 116.5 -71.5t67.5 -76.5t98 -167l90 -160h45q99 0 151 -51t52 -152v-303q0 -100 -54 -159.5t-146 -59.5 q-94 0 -147.5 58.5t-53.5 160.5v148h-8q-51 0 -98.5 29.5t-78.5 86.5l-180 332q-37 72 -80 100.5t-141 28.5h-94v-356q0 -98 -59.5 -158.5t-157.5 -60.5t-156.5 59t-58.5 160z" />
<glyph unicode="&#x49b;" horiz-adv-x="1341" d="M104 182v654q0 90 56.5 143t156.5 53q98 0 155.5 -53t57.5 -143v-177l207 285q33 43 75 64.5t85 21.5q70 0 120 -48t50 -120t-53 -135l-119 -162q14 -10 56 -38.5t76 -71.5t73 -119l10 -25q98 0 154.5 -50t56.5 -142v-201q0 -90 -51 -143.5t-142 -53.5q-90 0 -141 53.5 t-51 143.5v64q-49 0 -93 26.5t-75 81.5l-86 174q-20 43 -47 66.5t-88 23.5h-17v-172q0 -90 -57 -143t-156 -53q-100 0 -156.5 53t-56.5 143z" />
<glyph unicode="&#x49c;" horiz-adv-x="1771" d="M117 205v1034q0 98 58 158.5t157 60.5q100 0 158.5 -59.5t58.5 -159.5v-334h127v199q0 51 28.5 83t75.5 32t78 -32t31 -83v-199h10l318 467q63 88 157 88q76 0 134.5 -56t58.5 -134q0 -68 -47 -129l-260 -346q80 -41 119.5 -92.5t123.5 -200.5l103 -187q32 -59 32 -118 q0 -86 -63.5 -146.5t-144.5 -60.5q-51 0 -97.5 28.5t-81.5 87.5l-176 326q-37 66 -72.5 94.5t-113.5 32.5v-217q0 -51 -31 -83t-78 -32t-75.5 32t-28.5 83v219h-127v-356q0 -98 -59.5 -158.5t-157.5 -60.5t-156.5 59t-58.5 160z" />
<glyph unicode="&#x49d;" horiz-adv-x="1519" d="M104 182v654q0 90 56.5 143t156.5 53q98 0 155.5 -53t57.5 -143v-177h74v91q0 47 27.5 74.5t73.5 27.5q47 0 74.5 -27.5t27.5 -74.5v-56l194 248q68 88 156 88q68 0 116 -49t48 -119t-53 -137l-125 -143q115 -74 205 -246l18 -51q27 -52 27 -101q0 -82 -64.5 -140 t-144.5 -58q-51 0 -97.5 26.5t-74.5 81.5l-82 170q-20 43 -45 65.5t-78 24.5v-104q0 -45 -27.5 -72.5t-74.5 -27.5q-45 0 -73 27.5t-28 72.5v104h-74v-172q0 -90 -57 -143t-156 -53q-100 0 -156.5 53t-56.5 143z" />
<glyph unicode="&#x49e;" horiz-adv-x="1861" d="M31 1212q0 66 37.5 106t101.5 40h162v49q0 96 59.5 156.5t157.5 60.5t156.5 -58.5t58.5 -158.5v-49h113q63 0 102 -40t39 -106t-39 -105.5t-102 -39.5h-113v-162h170l387 467q68 82 160 82q74 0 129 -52t55 -126q0 -66 -53 -131l-297 -328q80 -41 120 -72.5t70.5 -79 t91.5 -163.5l99 -187q33 -59 33 -118q0 -86 -63.5 -146.5t-145.5 -60.5q-53 0 -100.5 28.5t-78.5 87.5l-172 326q-33 72 -76.5 100.5t-142.5 28.5h-186v-356q0 -98 -58.5 -158.5t-156.5 -60.5t-157.5 59t-59.5 160v862h-162q-63 0 -101 40t-38 105z" />
<glyph unicode="&#x49f;" horiz-adv-x="1310" d="M-123 1174q0 51 38 82.5t95 31.5h135q8 80 63.5 125t147.5 45q90 0 146.5 -46t64.5 -124h133q57 0 95.5 -31.5t38.5 -80.5t-38 -81t-96 -32h-131v-401l207 282q66 86 160 86q70 0 120 -48t50 -120q0 -68 -53 -135l-119 -162q14 -10 56 -38.5t76 -71.5t73 -119l18 -51 q27 -52 27 -101q0 -82 -64.5 -140t-144.5 -58q-51 0 -97.5 26.5t-74.5 81.5l-82 170q-23 45 -49.5 67.5t-85.5 22.5h-17v-172q0 -90 -57 -143t-156 -53q-100 0 -156.5 53t-56.5 143v881h-133q-55 0 -94 30.5t-39 80.5z" />
<glyph unicode="&#x4a0;" horiz-adv-x="1865" d="M-16 1268q0 80 50 128t134 48h469q98 0 157.5 -59.5t59.5 -159.5v-320h68l389 467q68 82 157 82q74 0 130.5 -52t56.5 -126q0 -70 -53 -131l-287 -328q78 -39 118 -71.5t68.5 -77.5t95.5 -166l101 -180q35 -62 35 -123q0 -88 -62.5 -148.5t-144.5 -60.5 q-53 0 -100.5 28.5t-79.5 87.5l-177 326q-27 49 -50 76t-63 40t-108 13h-94v-356q0 -98 -59.5 -158.5t-157.5 -60.5t-157.5 59t-59.5 160v885h-252q-84 0 -134 48t-50 130z" />
<glyph unicode="&#x4a1;" horiz-adv-x="1503" d="M61 856q0 70 42 113t112 43h334q98 0 155.5 -53.5t57.5 -143.5v-156l207 285q33 43 74.5 64.5t84.5 21.5q70 0 120 -48t50 -120t-53 -135l-119 -162q14 -10 56.5 -38.5t76 -71.5t72.5 -119l19 -51q26 -52 26 -101q0 -82 -64.5 -140t-144.5 -58q-51 0 -97 26.5t-75 81.5 l-82 170q-20 43 -46.5 66.5t-88.5 23.5h-16v-172q0 -90 -57.5 -143t-155.5 -53t-155.5 53t-57.5 143v518h-121q-70 0 -112 42t-42 114z" />
<glyph unicode="&#x4a2;" horiz-adv-x="1736" d="M117 203v1038q0 96 58 154.5t157 58.5q98 0 157.5 -58.5t59.5 -154.5v-336h504v336q0 96 59 154.5t156 58.5q98 0 157.5 -58.5t59.5 -154.5v-899h4q98 0 150.5 -51t52.5 -152v-303q0 -100 -55.5 -159.5t-145.5 -59.5q-94 0 -147.5 58.5t-53.5 160.5v146h-22 q-96 0 -155.5 59t-59.5 158v362h-504v-358q0 -96 -59.5 -156.5t-157.5 -60.5t-156.5 58t-58.5 159z" />
<glyph unicode="&#x4a3;" horiz-adv-x="1439" d="M104 184v652q0 90 56.5 143t156.5 53q98 0 155.5 -53t57.5 -143v-162h252v162q0 90 56.5 143t156.5 53q98 0 155.5 -53t57.5 -143l4 -527q80 -10 125 -60t45 -130v-201q0 -90 -52 -143.5t-142 -53.5t-141.5 53.5t-51.5 143.5v64q-96 0 -154.5 59t-58.5 160v149h-252v-166 q0 -92 -57 -145t-156 -53q-100 0 -156.5 53t-56.5 145z" />
<glyph unicode="&#x4a4;" horiz-adv-x="1820" d="M117 203v1038q0 98 58 157.5t157 59.5q98 0 157.5 -58.5t59.5 -158.5v-336h463v338q0 96 53 148.5t152 52.5h399q82 0 130 -46t48 -124t-48 -125t-130 -47h-172v-899q0 -96 -59.5 -156.5t-155.5 -60.5q-98 0 -157.5 58t-59.5 159v358h-463v-358q0 -96 -59.5 -156.5 t-157.5 -60.5q-99 0 -157 58t-58 159z" />
<glyph unicode="&#x4a5;" horiz-adv-x="1435" d="M84 184v652q0 90 56.5 143t156.5 53q98 0 155.5 -53t57.5 -143v-162h262v125q-2 98 50 155.5t145 57.5h299q68 0 108.5 -43t40.5 -113t-41 -113t-108 -43h-68v-516q0 -92 -57.5 -145t-155.5 -53t-155.5 53t-57.5 145v166h-262v-166q0 -92 -57.5 -145t-155.5 -53 q-100 0 -156.5 53t-56.5 145z" />
<glyph unicode="&#x4a8;" horiz-adv-x="1775" d="M84 713q0 344 198.5 543.5t579.5 207.5q78 2 123 -41t45 -100q0 -55 -42 -95t-120 -40q-188 0 -267 -136.5t-79 -349.5q0 -178 79 -295.5t237 -154.5q-61 63 -101.5 169.5t-40.5 194.5q0 160 63.5 289t179.5 202t269 73q502 0 502 -500q0 -143 -73.5 -259t-247.5 -224 q25 10 34 10q98 0 142 10q24 8 53 8q47 0 75.5 -27.5t28.5 -68.5q0 -37 -26.5 -68.5t-79.5 -46.5q-143 -31 -289 -30q-63 0 -121.5 10t-93.5 29q-37 -14 -115.5 -26.5t-144.5 -12.5q-223 0 -397 89t-272.5 254t-98.5 386zM1085 645q0 -248 95 -313q41 10 77.5 64.5t59 124 t22.5 114.5q0 147 -26.5 213.5t-89.5 66.5q-66 0 -102 -75.5t-36 -194.5z" />
<glyph unicode="&#x4a9;" horiz-adv-x="1619" d="M70 500q0 164 80.5 286.5t198.5 188t224 65.5q55 0 89 -35.5t34 -86.5q0 -43 -24.5 -79t-71.5 -55q-96 -49 -134 -114.5t-38 -159.5q0 -129 57.5 -204t190.5 -93q-8 -2 -8 -4t18 -4q-45 37 -71.5 105.5t-26.5 154.5q0 96 48 190.5t139 155.5t210 61q174 0 283.5 -99 t109.5 -275q0 -74 -33.5 -148t-88 -124t-109.5 -54q12 -4 39 -4q96 0 209 96q35 29 69 29q35 0 56.5 -30t21.5 -70q0 -45 -26.5 -86t-79.5 -64q-55 -25 -141.5 -39t-161.5 -14q-66 0 -125.5 17.5t-130.5 51.5q-55 -35 -118 -55t-149 -20q-248 0 -394 133t-146 383zM883 455 q0 -156 78 -224q49 23 83.5 94.5t34.5 149.5q0 88 -21.5 123t-78.5 35q-39 0 -67.5 -49t-28.5 -129z" />
<glyph unicode="&#x4aa;" horiz-adv-x="1390" d="M84 723q0 223 91 391t258 259t388 91q131 0 242 -31.5t213 -97.5q41 -29 57.5 -60.5t16.5 -84.5q0 -74 -41 -125t-101 -51q-37 0 -63.5 10t-65.5 35q-127 61 -231 61q-164 0 -241 -96t-77 -301q0 -207 77 -303t241 -96q37 0 71.5 9t94.5 29l34.5 11.5t30.5 11.5 q8 4 35 18.5t48.5 20.5t45.5 6q60 0 101 -51t41 -125q0 -51 -16.5 -84t-57.5 -61q-141 -90 -301 -117v-166q0 -78 -47 -125t-123 -47q-78 0 -124 47t-46 125v172q-256 53 -403.5 244.5t-147.5 480.5z" />
<glyph unicode="&#x4ab;" horiz-adv-x="1077" d="M70 504q0 160 72.5 279.5t202.5 186t300 66.5q86 0 176 -23.5t158 -64.5q29 -16 45 -48t16 -77q0 -74 -33.5 -120t-86.5 -46q-37 0 -67 8.5t-75 26.5q-33 14 -55.5 20.5t-48.5 6.5q-168 0 -168 -205q0 -215 170 -215q41 0 102 27q41 18 71 26t66 8q54 0 87.5 -45 t33.5 -118q0 -45 -16 -80t-43 -49q-92 -51 -207 -74v-105q0 -72 -46 -118.5t-116 -46.5t-116 47t-46 118v113q-178 43 -277 174t-99 328z" />
<glyph unicode="&#x4ac;" horiz-adv-x="1314" d="M-16 1268q0 90 51 133t158 43h929q107 0 158 -43t51 -133q0 -92 -50 -135t-159 -43h-241v-748q94 -2 144 -53t50 -150v-303q0 -100 -55 -159.5t-146 -59.5q-94 0 -147 58.5t-53 160.5v148h-17q-100 0 -160.5 58t-60.5 157v891h-243q-106 0 -157.5 43t-51.5 135z" />
<glyph unicode="&#x4ad;" horiz-adv-x="1132" d="M61 856q0 70 45.5 113t118.5 43h680q76 0 121 -43t45 -113t-45 -113t-121 -43h-127v-391q80 -10 126 -60t46 -130v-201q0 -90 -52 -143.5t-142 -53.5t-141.5 53.5t-51.5 143.5v64q-96 0 -153.5 53t-57.5 143v522h-127q-74 0 -119 43t-45 113z" />
<glyph unicode="&#x4ae;" horiz-adv-x="1363" d="M2 1257q0 80 62.5 140.5t142.5 60.5t143 -72l332 -382l330 382q63 72 145 72q80 0 143.5 -61.5t63.5 -141.5q0 -70 -53 -131l-408 -456v-465q0 -106 -62.5 -161.5t-156.5 -55.5q-98 0 -160.5 55t-62.5 162v465l-404 456q-55 61 -55 133z" />
<glyph unicode="&#x4af;" horiz-adv-x="1165" d="M20 848q0 76 67 129t149 53q57 0 105 -29.5t77 -89.5l178 -374l176 376q27 59 72 88t100 29q80 0 141.5 -52t61.5 -126q0 -39 -21 -80l-329 -635l4 -323q0 -92 -57.5 -145.5t-155.5 -53.5q-101 0 -157 53t-56 146v309l-336 649q-18 41 -19 76z" />
<glyph unicode="&#x4b0;" horiz-adv-x="1363" d="M2 1257q0 80 62.5 140.5t142.5 60.5t143 -72l332 -382l330 382q63 72 145 72q80 0 143.5 -61.5t63.5 -141.5q0 -70 -53 -131l-359 -401h127q51 0 84 -35t33 -88q0 -55 -31.5 -89t-85.5 -34h-176v-274q0 -106 -62.5 -161.5t-156.5 -55.5q-98 0 -160.5 55t-62.5 162v274 h-180q-53 0 -85 34t-32 89t31.5 89t85.5 34h131l-355 401q-55 61 -55 133z" />
<glyph unicode="&#x4b1;" horiz-adv-x="1165" d="M20 848q0 76 67 129t149 53q57 0 105 -29.5t77 -89.5l178 -374l176 376q27 60 72 88.5t100 28.5q80 0 141.5 -52t61.5 -126q0 -39 -21 -80l-323 -622h153q61 0 99.5 -40t38.5 -104q0 -63 -38 -103t-100 -40h-155v-49q0 -92 -57.5 -145.5t-155.5 -53.5q-100 0 -156.5 53 t-56.5 146v49h-168q-61 0 -100 40t-39 103t38.5 103.5t100.5 40.5h153l-321 622q-18 41 -19 76z" />
<glyph unicode="&#x4b2;" horiz-adv-x="1624" d="M43 188q0 70 53 131l363 404l-357 401q-51 59 -51 129q0 80 63.5 141.5t143.5 61.5q82 0 143 -70l316 -360l313 360q59 72 141 72q80 0 144.5 -62.5t64.5 -142.5q0 -70 -53 -129l-356 -401l342 -381h43q98 0 150.5 -51t52.5 -152v-303q0 -100 -55.5 -159.5t-145.5 -59.5 q-94 0 -147.5 58.5t-53.5 160.5v148q-66 6 -119 67l-321 371l-324 -367q-57 -70 -143 -69q-82 0 -144.5 60t-62.5 142z" />
<glyph unicode="&#x4b3;" horiz-adv-x="1325" d="M51 170q0 76 62 137l225 213l-205 187q-61 61 -61 135q0 76 57 132t135 56t139 -63l189 -181l190 181q61 63 140 63q76 0 133 -55t57 -131t-61 -137l-203 -187l221 -209h23q98 0 155.5 -50t57.5 -142v-201q0 -90 -52.5 -143.5t-142.5 -53.5t-141 53.5t-51 143.5v66 q-59 10 -111 61l-215 211l-211 -207q-63 -66 -139 -65q-76 0 -133.5 55t-57.5 131z" />
<glyph unicode="&#x4b4;" horiz-adv-x="1890" d="M-16 1268q0 80 49 128t129 48h743q80 0 129 -48t49 -128q0 -82 -49 -130t-129 -48h-123v-748h424v897q0 98 58.5 158.5t156.5 60.5q100 0 158.5 -59.5t58.5 -159.5v-897h4q96 0 149.5 -52t53.5 -151v-286q0 -96 -55 -157t-145 -61q-93 0 -147 58.5t-54 159.5v147h-891 q-98 0 -150.5 52t-52.5 151v887h-188q-80 0 -129 48t-49 130z" />
<glyph unicode="&#x4b5;" horiz-adv-x="1548" d="M41 856q0 70 41 113t108 43h474q68 0 108.5 -43t40.5 -113t-41 -113t-108 -43h6v-389h241v525q0 90 57.5 143t155.5 53t155.5 -53t57.5 -143v-525h-18q88 -4 140 -55t52 -137v-203q0 -90 -52 -143.5t-142 -53.5q-88 0 -140.5 53.5t-52.5 143.5v84h-669q-98 -2 -154.5 49 t-56.5 144v507h-54q-68 0 -108.5 43t-40.5 113z" />
<glyph unicode="&#x4b6;" horiz-adv-x="1568" d="M106 930v307q0 100 59.5 160.5t158.5 60.5q98 0 156.5 -60.5t58.5 -160.5v-217q0 -109 47 -164t190 -55h47t62 8v428q0 100 58 160.5t159 60.5q98 0 156.5 -60.5t58.5 -160.5v-895h4q98 0 150.5 -51t52.5 -152v-303q0 -100 -55.5 -159.5t-145.5 -59.5q-94 0 -147.5 58.5 t-53.5 160.5v146h-20q-100 0 -158.5 59t-58.5 160v282q-23 -6 -97.5 -12t-117.5 -6q-260 0 -412 112.5t-152 352.5z" />
<glyph unicode="&#x4b7;" horiz-adv-x="1300" d="M49 614v222q0 90 57.5 143t155.5 53q100 0 157.5 -53t57.5 -143v-146q0 -43 4 -64.5t27.5 -40t79.5 -18.5q45 0 55 11v258q0 90 57.5 143t155.5 53t155.5 -53t57.5 -143v-527q82 -10 128 -59t46 -131v-201q0 -90 -52 -143.5t-142 -53.5t-141.5 53.5t-51.5 143.5v64 q-98 0 -155.5 53t-57.5 143v94q-39 -10 -170 -10q-180 0 -302 88t-122 264z" />
<glyph unicode="&#x4b8;" horiz-adv-x="1495" d="M106 930v307q0 100 59.5 160.5t158.5 60.5q98 0 156.5 -60.5t58.5 -160.5v-217q0 -80 22.5 -130t87.5 -73v223q0 51 29 83t76 32q49 0 78.5 -31.5t29.5 -83.5v-239q59 0 84 8v428q0 100 59.5 160.5t157.5 60.5q99 0 157 -60.5t58 -160.5v-1030q0 -100 -58 -160.5 t-157 -60.5q-98 0 -157.5 60t-59.5 161v276l-84 -10v-197q0 -51 -29.5 -81.5t-78.5 -30.5q-47 0 -76 30.5t-29 81.5v189q-252 4 -397.5 116.5t-145.5 348.5z" />
<glyph unicode="&#x4b9;" horiz-adv-x="1343" d="M49 614v222q0 90 57.5 143t155.5 53q100 0 157.5 -53t57.5 -143v-146q0 -82 74 -108v114q0 45 27.5 73t74.5 28q45 0 73 -28t28 -73v-125q35 0 59 7v258q0 90 57.5 143t155.5 53t155.5 -53t57.5 -143v-652q0 -92 -57.5 -145t-155.5 -53t-155.5 53t-57.5 145v88l-59 -6 v-69q0 -47 -28 -75t-73 -28q-47 0 -74.5 28t-27.5 75v65h-16q-117 0 -228.5 38t-184.5 117t-73 197z" />
<glyph unicode="&#x4ba;" horiz-adv-x="1433" d="M117 207v1030q0 100 58.5 160.5t156.5 60.5q100 0 158.5 -59t58.5 -162v-276q23 6 97.5 12t117.5 6q260 0 412 -112.5t152 -352.5v-307q0 -100 -59.5 -160.5t-158.5 -60.5q-98 0 -156.5 60.5t-58.5 160.5v217q0 109 -47 164t-190 55h-47t-62 -8v-428q0 -100 -58 -160.5 t-159 -60.5q-98 0 -156.5 60.5t-58.5 160.5z" />
<glyph unicode="&#x4bb;" horiz-adv-x="1304" d="M110 182v1082q0 84 60.5 137t158.5 53q94 0 150.5 -49t56.5 -131v-377q117 139 320 139q174 0 259 -110.5t85 -337.5v-406q0 -90 -57.5 -143t-155.5 -53t-155.5 53t-57.5 143v420q0 111 -95 111q-66 0 -104.5 -43t-38.5 -113v-375q0 -90 -57.5 -143t-155.5 -53t-155.5 53 t-57.5 143z" />
<glyph unicode="&#x4bc;" horiz-adv-x="2017" d="M90 1030v6v-4v-2zM90 1032q0 86 42 137.5t112 51.5q72 0 114.5 -51.5t42.5 -137.5v4q0 -76 33 -100.5t109 -24.5h24q33 154 125 280t234.5 199.5t322.5 73.5q314 0 500 -173t186 -517q0 -76 -35.5 -117t-101.5 -41h-809q25 -147 105 -219.5t198 -72.5q84 0 145.5 16 t137.5 59q57 35 113 35q70 0 115.5 -49t45.5 -117q0 -41 -20.5 -81t-61.5 -72q-94 -70 -206.5 -102.5t-260.5 -32.5q-201 0 -361.5 76.5t-260.5 220t-125 339.5h-66q-215 0 -306 98.5t-91 317.5zM997 911h506q-29 137 -98.5 177t-159.5 40q-92 0 -153.5 -45t-94.5 -172z" />
<glyph unicode="&#x4bd;" horiz-adv-x="1447" d="M8 727q0 74 36 119t95 45q57 0 92 -45t35 -117q0 -61 25.5 -88t89.5 -27h10q35 190 172 306t334 116q145 0 255 -63.5t171 -179t61 -269.5q0 -53 -17 -77.5t-56 -24.5h-518q18 -76 55 -103.5t115 -27.5q59 0 104 13t94 38q23 10 43.5 18.5t34.5 8.5t31 -11 q51 -8 78.5 -47t27.5 -92q0 -55 -29.5 -104t-80.5 -74q-68 -25 -160 -42t-156 -17q-235 0 -385.5 117.5t-179.5 322.5h-37q-186 0 -263 73.5t-77 231.5zM788 614h242q-12 139 -121 140q-106 0 -121 -140z" />
<glyph unicode="&#x4be;" horiz-adv-x="2017" d="M90 1030v6v-4v-2zM90 1032q0 86 42 137.5t112 51.5q72 0 114.5 -51.5t42.5 -137.5v4q0 -76 33 -100.5t109 -24.5h24q33 154 125 280t234.5 199.5t322.5 73.5q314 0 500 -173t186 -517q0 -76 -35.5 -117t-101.5 -41h-809q25 -147 105 -219.5t198 -72.5q84 0 145.5 16 t137.5 59q57 35 113 35q70 0 115.5 -49t45.5 -117q0 -41 -20.5 -81t-61.5 -72q-94 -70 -206.5 -102.5t-260.5 -32.5q-201 0 -361.5 76.5t-260.5 220t-125 339.5h-66q-215 0 -306 98.5t-91 317.5zM997 911h506q-29 137 -98.5 177t-159.5 40q-92 0 -153.5 -45t-94.5 -172z M1243 -168q0 104 83 179t239 93l37 -76q-63 -23 -96.5 -56.5t-33.5 -84.5q0 -49 29 -75.5t70 -26.5q45 0 98 14q33 8 55.5 -15.5t22.5 -60.5q0 -47 -39 -71q-88 -51 -193 -52q-116 0 -194 63.5t-78 168.5z" />
<glyph unicode="&#x4bf;" horiz-adv-x="1447" d="M49 727q0 74 36 119t95 45q57 0 92 -45t35 -117q0 -61 25.5 -88t89.5 -27h10q35 190 172 306t334 116q145 0 255 -63.5t171 -179t61 -269.5q0 -53 -17 -77.5t-56 -24.5h-518q18 -76 55 -103.5t115 -27.5q59 0 104 13t94 38q23 10 43.5 18.5t34.5 8.5t31 -11 q51 -8 78.5 -47t27.5 -92q0 -55 -29.5 -104t-80.5 -74q-68 -25 -160 -42t-156 -17q-235 0 -385.5 117.5t-179.5 322.5h-37q-186 0 -263 73.5t-77 231.5zM817 -176q0 104 83 179t239 93l37 -76q-63 -23 -96.5 -56.5t-33.5 -84.5q0 -49 29 -75.5t70 -26.5q45 0 98 14 q33 8 55.5 -15.5t22.5 -60.5q0 -47 -39 -71q-88 -51 -193 -52q-116 0 -194 63.5t-78 168.5zM829 614h242q-12 139 -121 140q-106 0 -121 -140z" />
<glyph unicode="&#x4c0;" horiz-adv-x="673" d="M117 203v1038q0 96 59.5 154.5t159.5 58.5q102 0 161.5 -57.5t59.5 -155.5v-1038q0 -100 -59.5 -158.5t-161.5 -58.5q-100 0 -159.5 58t-59.5 159z" />
<glyph unicode="&#x4c1;" horiz-adv-x="2334" d="M133 193q0 45 21 86l100 208q57 119 89 169.5t63.5 75t115.5 71.5l-237 348q-37 55 -37 109q0 82 65.5 140t147.5 58q102 0 160 -92l292 -473h39v346q0 98 59.5 158.5t157.5 60.5t156.5 -59.5t58.5 -159.5v-346h41l293 471q31 49 74 72.5t90 23.5q80 0 143.5 -57 t63.5 -137q0 -51 -37 -111l-237 -352q68 -39 98.5 -63.5t56 -62.5t82.5 -134l33 -56l94 -206q20 -43 21 -86q0 -57 -34 -105.5t-87.5 -76t-108.5 -27.5t-100 27.5t-72 84.5l-151 338q-29 70 -75 101.5t-145 31.5h-43v-364q0 -98 -58 -158.5t-157 -60.5q-100 0 -158.5 59 t-58.5 160v364h-41q-98 0 -144 -30.5t-77 -102.5l-151 -334q-27 -57 -73 -84.5t-101 -27.5q-57 0 -110.5 26.5t-87.5 73.5t-34 103zM729 1911q0 53 29.5 85t70.5 32q33 0 63.5 -21.5t51.5 -62.5q35 -76 94 -112t131 -36q70 0 130.5 37t94.5 111q20 41 51 62.5t64 21.5 q41 0 71.5 -32t30.5 -83q0 -25 -10 -62q-33 -111 -150.5 -185.5t-281.5 -74.5q-162 0 -277.5 74t-152.5 182q-10 29 -10 64z" />
<glyph unicode="&#x4c2;" horiz-adv-x="1867" d="M145 178q0 41 19 84l2 21q47 117 86 174t115 96l-113 192q-37 59 -37 113q0 72 54.5 122t125.5 50q49 0 93.5 -25.5t74.5 -78.5l156 -287h49v184q0 94 56.5 151.5t148.5 57.5t147.5 -56t55.5 -149v-188h51l145 281q33 55 80 82.5t98 27.5q72 0 126.5 -48t54.5 -120 q0 -55 -35 -110l-117 -199q78 -39 118 -95.5t85 -174.5v-25q16 -43 16 -78q0 -82 -65.5 -138t-147.5 -56q-57 0 -103 30.5t-71 94.5l-31 102q-2 6 -15 52t-42 75t-70 29h-77v-176q0 -94 -55.5 -150.5t-147.5 -56.5t-148.5 56t-56.5 151v176h-78q-49 0 -72.5 -33t-36 -71 t-18.5 -52l-30 -98q-25 -63 -73 -96t-106 -33q-82 0 -146.5 55t-64.5 137zM524 1495q0 47 37 82t80 35q25 0 46.5 -14.5t33.5 -43.5q29 -72 78 -108.5t133 -36.5q86 0 134 37t77 108q12 29 33.5 43.5t48.5 14.5q43 0 80 -34t37 -83q0 -18 -7 -37q-45 -129 -138 -193.5 t-265 -64.5t-266 64.5t-135 193.5q-6 18 -7 37z" />
<glyph unicode="&#x4c3;" horiz-adv-x="1593" d="M117 205v1034q0 98 58 158.5t157 60.5q100 0 158.5 -59.5t58.5 -159.5v-334h100l334 467q66 82 156 82q76 0 132 -54t56 -128q0 -72 -51 -131l-209 -291q201 -59 308.5 -184t107.5 -379q0 -133 -53.5 -263t-149.5 -225.5t-219 -124.5q-18 -4 -51 -4q-90 0 -141.5 55.5 t-51.5 127.5q0 51 27.5 89t79.5 50q74 33 108.5 93t34.5 204q0 150 -91 211t-222 61h-205v-356q0 -98 -59.5 -158.5t-157.5 -60.5t-156.5 59t-58.5 160z" />
<glyph unicode="&#x4c4;" horiz-adv-x="1341" d="M104 182v654q0 90 56.5 143t156.5 53q98 0 155.5 -53t57.5 -143v-177l201 279q68 88 160 88q68 0 118 -49t50 -121q0 -70 -51 -135l-115 -160q135 -57 206.5 -143t71.5 -250q0 -176 -79.5 -308t-221.5 -204q-49 -16 -86 -16q-72 0 -116.5 43t-44.5 100q0 90 94 145 q20 31 25.5 72t4 78t-1.5 51q0 137 -38.5 182t-100.5 45l-49 -2h-27v-172q0 -90 -57 -143t-156 -53q-100 0 -156.5 53t-56.5 143z" />
<glyph unicode="&#x4c5;" horiz-adv-x="1691" d="M29 176q0 57 35.5 115.5t107.5 101.5q139 123 139 428v420q0 98 52.5 150.5t150.5 52.5h721q98 0 150.5 -52.5t52.5 -150.5v-899h67q66 0 103 -31.5t37 -89.5q0 -31 -13 -71l-127 -377q-25 -76 -77 -115t-113 -39q-66 0 -113 44t-47 118q0 39 14 80l37 121q-92 4 -146 62 t-54 157v901h-271v-203q0 -358 -100 -555t-281 -295q-76 -45 -149 -45q-78 0 -127 50t-49 122z" />
<glyph unicode="&#x4c6;" horiz-adv-x="1462" d="M29 135q0 53 31.5 104.5t95.5 84.5q123 59 123 294v183q-2 96 50 153.5t142 57.5h537q96 2 153.5 -50.5t57.5 -142.5v-508h30q72 0 112 -29.5t40 -84.5q0 -29 -8 -56l-58 -227q-31 -98 -97.5 -148.5t-141.5 -50.5q-68 0 -115 36t-47 97q0 23 10 54l27 82q-84 10 -131 60 t-47 134v522h-129v-69q0 -309 -116 -455.5t-280 -187.5q-41 -14 -80 -15q-72 0 -115.5 47.5t-43.5 114.5z" />
<glyph unicode="&#x4c7;" horiz-adv-x="1601" d="M117 203v1038q0 98 58 157.5t157 59.5q98 0 157.5 -58.5t59.5 -158.5v-336h504v336q0 96 59 156.5t156 60.5q98 0 157.5 -58.5t59.5 -158.5v-1149q0 -223 -116 -338.5t-357 -126.5h-31q-68 -2 -119 24.5t-77.5 73t-26.5 95.5q0 59 40 102t115 51l21 4q70 8 94.5 29 t24.5 78v477h-504v-358q0 -96 -59.5 -156.5t-157.5 -60.5t-156.5 58t-58.5 159z" />
<glyph unicode="&#x4c8;" horiz-adv-x="1310" d="M104 184v652q0 90 56.5 143t156.5 53q98 0 155.5 -53t57.5 -143v-162h252v162q0 90 56.5 143t156.5 53q98 0 155.5 -53t57.5 -143v-725q0 -166 -44 -267.5t-146.5 -155t-282.5 -65.5q-90 -6 -141 40t-51 112q0 59 43 102t125 45q35 6 53 35t18 70v323h-252v-166 q0 -92 -57 -145t-156 -53q-100 0 -156.5 53t-56.5 145z" />
<glyph unicode="&#x4c9;" horiz-adv-x="1738" d="M117 203v1038q0 96 58 154.5t157 58.5q98 0 157.5 -58.5t59.5 -154.5v-336h504v336q0 96 59 154.5t156 58.5q98 0 157.5 -58.5t59.5 -154.5v-899h69q66 0 103 -31.5t37 -89.5q0 -31 -13 -71l-127 -377q-25 -76 -77 -115t-113 -39q-66 0 -113 44t-47 118q0 39 15 80 l36 121q-92 4 -147 62t-55 155v362h-504v-358q0 -96 -59.5 -156.5t-157.5 -60.5t-156.5 58t-58.5 159z" />
<glyph unicode="&#x4ca;" horiz-adv-x="1458" d="M104 184v652q0 90 56.5 143t156.5 53q98 0 155.5 -53t57.5 -143v-162h252v162q0 90 56.5 143t156.5 53q98 0 155.5 -53t57.5 -143l4 -525h33q72 0 112 -29.5t40 -84.5q0 -29 -8 -56l-58 -227q-31 -98 -97.5 -148.5t-141.5 -50.5q-68 0 -115 36t-47 97q0 23 10 54l27 82 q-86 10 -135.5 67.5t-49.5 149.5v149h-252v-166q0 -92 -57 -145t-156 -53q-100 0 -156.5 53t-56.5 145z" />
<glyph unicode="&#x4cb;" horiz-adv-x="1433" d="M106 930v307q0 100 59.5 160.5t158.5 60.5q98 0 156.5 -60.5t58.5 -160.5v-217q0 -109 47 -164t190 -55h47t62 8v428q0 100 58 160.5t159 60.5q98 0 156.5 -60.5t58.5 -160.5v-1034q0 -98 -52.5 -150.5t-150.5 -52.5h-33v-168q0 -98 -54 -157.5t-146 -59.5 q-93 0 -147 58.5t-54 158.5v307q0 100 51 151.5t152 51.5h2v141q-23 -6 -97.5 -12t-117.5 -6q-260 0 -412 112.5t-152 352.5z" />
<glyph unicode="&#x4cc;" horiz-adv-x="1173" d="M49 770v53q0 90 57.5 143.5t155.5 53.5t154.5 -51t60.5 -140q0 -51 19.5 -79.5t91.5 -28.5q45 0 55 10v92q0 90 57.5 143.5t155.5 53.5t155.5 -53.5t57.5 -143.5v-610q2 -98 -50 -155.5t-145 -57.5h-18v-84q0 -92 -51 -144.5t-141 -52.5t-141.5 52.5t-51.5 144.5v96 q0 100 50 156.5t143 56.5h-21v201q-49 -10 -170 -10q-178 0 -301 89t-123 265zM477 823v6v15v-21z" />
<glyph unicode="&#x4cd;" horiz-adv-x="1859" d="M123 182v1059q0 94 57.5 153.5t147.5 59.5q66 0 119 -37t88 -104l331 -621l332 621q35 68 87 104.5t114 36.5q90 0 147.5 -59.5t57.5 -153.5v-899h69q66 0 102.5 -31.5t36.5 -89.5q0 -31 -12 -71l-127 -377q-25 -76 -77 -115t-113 -39q-66 0 -113 44t-47 118q0 39 14 80 l39 125q-70 10 -112.5 61t-42.5 129v471l-168 -301q-39 -76 -83 -107.5t-108 -31.5q-61 0 -106 31.5t-84 107.5l-166 291v-455q0 -88 -55.5 -142t-139.5 -54q-82 0 -135 53t-53 143z" />
<glyph unicode="&#x4ce;" horiz-adv-x="1630" d="M104 178v643q0 98 50.5 154.5t142.5 56.5q68 0 113 -9t88 -44t82 -107l168 -319l147 285q41 76 76 116.5t82 59t123 18.5q98 0 154 -51t56 -141v-529h31q72 0 112 -29.5t40 -84.5q0 -29 -8 -56l-58 -227q-31 -98 -97.5 -148.5t-141.5 -50.5q-68 0 -115 36t-47 97 q0 23 10 54l29 86q-63 16 -103.5 68.5t-40.5 119.5l2 236l-55 -101q-72 -123 -196 -123q-66 0 -117 33t-84 90l-58 101l3 -230q0 -82 -56.5 -139t-138.5 -57t-137.5 55t-55.5 137z" />
<glyph unicode="&#x4cf;" horiz-adv-x="649" d="M110 182v1075q0 98 61.5 147.5t151.5 49.5q92 0 152.5 -49t60.5 -148v-1075q0 -96 -60.5 -146t-152.5 -50q-90 0 -151.5 50t-61.5 146z" />
<glyph unicode="&#x4d0;" horiz-adv-x="1579" d="M14 184q0 41 23 90l526 1049q31 66 92.5 100.5t130.5 34.5q72 0 134.5 -34.5t95.5 -100.5l526 -1049q23 -45 23 -90q0 -80 -64.5 -135t-144.5 -55q-53 0 -99.5 27.5t-72.5 87.5l-76 167h-631l-78 -167q-27 -57 -72.5 -86t-99.5 -29q-82 0 -147.5 55t-65.5 135zM355 1911 q0 53 29.5 85t70.5 32q33 0 63.5 -21.5t51.5 -62.5q35 -76 94 -112t131 -36q70 0 130.5 37t94.5 111q20 41 51 62.5t64 21.5q41 0 71.5 -32t30.5 -83q0 -25 -10 -62q-33 -111 -150.5 -185.5t-281.5 -74.5q-162 0 -277.5 74t-152.5 182q-10 29 -10 64zM627 604h331l-165 367z " />
<glyph unicode="&#x4d1;" horiz-adv-x="1185" d="M65 317q2 109 57.5 173.5t176 94t323.5 29.5h57v13q0 55 -27.5 78.5t-94.5 23.5q-76 0 -234 -51q-37 -10 -82 -10q-59 0 -94 42t-35 111q0 51 19.5 82t60.5 51q72 37 184.5 59.5t223.5 22.5q245 0 363 -115.5t118 -355.5v-387q0 -90 -53.5 -141t-147.5 -51q-76 0 -128 41 t-64 110q-25 -72 -89.5 -113.5t-158.5 -41.5q-106 0 -191.5 43t-134.5 119.5t-49 172.5zM184 1495q0 47 37 82t80 35q25 0 46.5 -14.5t33.5 -43.5q29 -72 78 -108.5t133 -36.5q86 0 134 37t77 108q12 29 33.5 43.5t48.5 14.5q43 0 80 -34t37 -83q0 -18 -7 -37 q-45 -129 -138 -193.5t-265 -64.5t-266 64.5t-135 193.5q-6 18 -7 37zM469 346q0 -37 21.5 -60.5t53.5 -23.5q60 0 97.5 41t37.5 111v14h-32q-178 0 -178 -82z" />
<glyph unicode="&#x4d2;" horiz-adv-x="1579" d="M14 184q0 41 23 90l526 1049q31 66 92.5 100.5t130.5 34.5q72 0 134.5 -34.5t95.5 -100.5l526 -1049q23 -45 23 -90q0 -80 -64.5 -135t-144.5 -55q-53 0 -99.5 27.5t-72.5 87.5l-76 167h-631l-78 -167q-27 -57 -72.5 -86t-99.5 -29q-82 0 -147.5 55t-65.5 135zM416 1733 q0 74 48 117.5t126 43.5q80 0 129 -44t49 -117q0 -78 -49 -124t-129 -46q-78 0 -126 46t-48 124zM627 604h331l-165 367zM823 1733q0 74 48.5 117.5t130.5 43.5q76 0 125 -44t49 -117q0 -78 -48.5 -124t-125.5 -46q-82 0 -130.5 46t-48.5 124z" />
<glyph unicode="&#x4d3;" horiz-adv-x="1185" d="M65 317q2 109 57.5 173.5t176 94t323.5 29.5h57v13q0 55 -27.5 78.5t-94.5 23.5q-76 0 -234 -51q-37 -10 -82 -10q-59 0 -94 42t-35 111q0 51 19.5 82t60.5 51q72 37 184.5 59.5t223.5 22.5q245 0 363 -115.5t118 -355.5v-387q0 -90 -53.5 -141t-147.5 -51q-76 0 -128 41 t-64 110q-25 -72 -89.5 -113.5t-158.5 -41.5q-106 0 -191.5 43t-134.5 119.5t-49 172.5zM215 1346q0 76 48 121t126 45q80 0 129 -45.5t49 -120.5q0 -78 -49 -124t-129 -46q-78 0 -126 46t-48 124zM469 346q0 -37 21.5 -60.5t53.5 -23.5q60 0 97.5 41t37.5 111v14h-32 q-178 0 -178 -82zM622 1346q0 76 48.5 121t130.5 45q76 0 125 -45.5t49 -120.5q0 -78 -48.5 -124t-125.5 -46q-82 0 -130.5 46t-48.5 124z" />
<glyph unicode="&#x4d4;" horiz-adv-x="2064" d="M-6 156q0 57 41 118l708 1049q37 53 102.5 87t141.5 34h852q211 0 211 -166q0 -82 -54 -126t-157 -44h-555l47 -205h467q211 0 211 -170q0 -166 -211 -166h-387l53 -231h375q211 0 211 -170q0 -166 -211 -166h-536q-74 0 -125.5 28.5t-63.5 80.5l-39 167h-577l-107 -167 q-39 -59 -92 -89t-113 -30q-78 0 -135 47t-57 119zM707 604h294l-77 342z" />
<glyph unicode="&#x4d5;" horiz-adv-x="1687" d="M45 317q2 109 56.5 173.5t173 94t315.5 29.5h59v17q0 51 -27.5 74.5t-91.5 23.5q-55 0 -97 -9t-97 -26q-31 -10 -62.5 -18t-60.5 -8q-53 0 -87 42t-34 111q0 88 80 133q70 39 176.5 60.5t216.5 21.5q217 0 320 -102q125 102 305 102q131 0 232.5 -64.5t158.5 -180 t57 -265.5q0 -49 -23.5 -76.5t-64.5 -27.5h-491q14 -70 52 -100.5t110 -30.5q39 0 76.5 8t86.5 25q86 29 129 28q54 0 87.5 -43t33.5 -112q0 -43 -22.5 -78t-59.5 -56q-68 -33 -167 -57t-175 -24q-272 0 -403 168q-51 -82 -137 -125t-197 -43q-123 0 -220 43t-152.5 119.5 t-55.5 172.5zM449 346q0 -39 23.5 -61.5t62.5 -22.5q47 0 80.5 44t33.5 104v18h-33q-168 0 -167 -82zM1053 614h231q-12 139 -104 140q-113 -1 -127 -140z" />
<glyph unicode="&#x4d6;" horiz-adv-x="1232" d="M117 203v1038q0 98 51 150.5t149 52.5h693q104 0 156.5 -43t52.5 -123q0 -170 -209 -170h-465v-205h424q104 0 156.5 -43t52.5 -127q0 -166 -209 -166h-424v-231h465q104 0 156.5 -43t52.5 -127q0 -80 -52.5 -123t-156.5 -43h-693q-98 0 -149 51t-51 152zM228 1911 q0 53 29.5 85t70.5 32q33 0 63.5 -21.5t51.5 -62.5q35 -76 94 -112t131 -36q70 0 130.5 37t94.5 111q20 41 51 62.5t64 21.5q41 0 71.5 -32t30.5 -83q0 -25 -10 -62q-33 -111 -150.5 -185.5t-281.5 -74.5q-162 0 -277.5 74t-152.5 182q-10 29 -10 64z" />
<glyph unicode="&#x4d7;" horiz-adv-x="1140" d="M69 510q0 152 66.5 271.5t184.5 187t265 67.5q143 0 254 -63.5t171.5 -178t60.5 -268.5q0 -51 -23.5 -77.5t-64.5 -26.5h-502q14 -72 52 -101.5t116 -29.5q53 0 105 15.5t63 17.5q33 10 66.5 19t62.5 9q53 0 87 -43t34 -112q0 -43 -23 -79t-59 -55q-70 -33 -168.5 -57 t-178.5 -24q-172 0 -301 64.5t-198.5 184t-69.5 279.5zM147 1491q0 47 37 82t80 35q25 0 46.5 -14.5t33.5 -43.5q29 -72 78 -108.5t133 -36.5q86 0 134 37t77 108q12 29 33.5 43.5t48.5 14.5q43 0 80 -34t37 -83q0 -18 -7 -37q-45 -129 -138 -193.5t-265 -64.5t-266 64.5 t-135 193.5q-6 18 -7 37zM475 614h241q-12 139 -118 140q-107 -1 -123 -140z" />
<glyph unicode="&#x4d8;" horiz-adv-x="1613" d="M84 723q0 80 42 125t116 45h831q-33 115 -120 170t-228 55q-49 0 -123 -17.5t-145 -41.5q-10 -6 -36 -19.5t-47.5 -19.5t-45.5 -6q-59 0 -101.5 52t-42.5 124q0 49 17.5 82t58.5 63q82 61 214 95t282 34q231 0 407 -92t271.5 -260t95.5 -389q0 -211 -89 -380t-252 -266 t-372 -97q-225 0 -390 86t-254 252.5t-89 404.5zM530 565q20 -125 94 -187.5t193 -62.5q113 0 178.5 61.5t85.5 188.5h-551z" />
<glyph unicode="&#x4d9;" horiz-adv-x="1140" d="M69 492q0 51 23.5 78.5t64.5 27.5h510q-14 72 -55 101.5t-119 29.5q-39 0 -73.5 -8t-86.5 -25q-33 -10 -67.5 -19t-63.5 -9q-53 0 -87 42t-34 111q0 45 21.5 80t60.5 53q72 35 169.5 58.5t183.5 23.5q166 0 291.5 -64.5t194.5 -184t69 -277.5q0 -147 -65.5 -268 t-178.5 -190.5t-250 -69.5q-238 0 -373 135t-135 375zM434 403q12 -137 121 -137q100 0 118 137h-239z" />
<glyph unicode="&#x4da;" horiz-adv-x="1613" d="M84 723q0 80 42 125t116 45h831q-33 115 -120 170t-228 55q-49 0 -123 -17.5t-145 -41.5q-10 -6 -36 -19.5t-47.5 -19.5t-45.5 -6q-59 0 -101.5 52t-42.5 124q0 49 17.5 82t58.5 63q82 61 214 95t282 34q231 0 407 -92t271.5 -260t95.5 -389q0 -211 -89 -380t-252 -266 t-372 -97q-225 0 -390 86t-254 252.5t-89 404.5zM430 1733q0 74 48 117.5t126 43.5q80 0 129 -44t49 -117q0 -78 -49 -124t-129 -46q-78 0 -126 46t-48 124zM530 565q20 -125 94 -187.5t193 -62.5q113 0 178.5 61.5t85.5 188.5h-551zM837 1733q0 74 48.5 117.5t130.5 43.5 q76 0 125 -44t49 -117q0 -78 -48.5 -124t-125.5 -46q-82 0 -130.5 46t-48.5 124z" />
<glyph unicode="&#x4db;" horiz-adv-x="1140" d="M69 492q0 51 23.5 78.5t64.5 27.5h510q-14 72 -55 101.5t-119 29.5q-39 0 -73.5 -8t-86.5 -25q-33 -10 -67.5 -19t-63.5 -9q-53 0 -87 42t-34 111q0 45 21.5 80t60.5 53q72 35 169.5 58.5t183.5 23.5q166 0 291.5 -64.5t194.5 -184t69 -277.5q0 -147 -65.5 -268 t-178.5 -190.5t-250 -69.5q-238 0 -373 135t-135 375zM193 1346q0 76 48 121t126 45q80 0 129 -45.5t49 -120.5q0 -78 -49 -124t-129 -46q-78 0 -126 46t-48 124zM434 403q12 -137 121 -137q100 0 118 137h-239zM600 1346q0 76 48.5 121t130.5 45q76 0 125 -45.5t49 -120.5 q0 -78 -48.5 -124t-125.5 -46q-82 0 -130.5 46t-48.5 124z" />
<glyph unicode="&#x4dc;" horiz-adv-x="2334" d="M133 193q0 45 21 86l100 208q57 119 89 169.5t63.5 75t115.5 71.5l-237 348q-37 55 -37 109q0 82 65.5 140t147.5 58q102 0 160 -92l292 -473h39v346q0 98 59.5 158.5t157.5 60.5t156.5 -59.5t58.5 -159.5v-346h41l293 471q31 49 74 72.5t90 23.5q80 0 143.5 -57 t63.5 -137q0 -51 -37 -111l-237 -352q68 -39 98.5 -63.5t56 -62.5t82.5 -134l33 -56l94 -206q20 -43 21 -86q0 -57 -34 -105.5t-87.5 -76t-108.5 -27.5t-100 27.5t-72 84.5l-151 338q-29 70 -75 101.5t-145 31.5h-43v-364q0 -98 -58 -158.5t-157 -60.5q-100 0 -158.5 59 t-58.5 160v364h-41q-98 0 -144 -30.5t-77 -102.5l-151 -334q-27 -57 -73 -84.5t-101 -27.5q-57 0 -110.5 26.5t-87.5 73.5t-34 103zM791 1733q0 74 48 117.5t126 43.5q80 0 129 -44t49 -117q0 -78 -49 -124t-129 -46q-78 0 -126 46t-48 124zM1198 1733q0 74 48.5 117.5 t130.5 43.5q76 0 125 -44t49 -117q0 -78 -48.5 -124t-125.5 -46q-82 0 -130.5 46t-48.5 124z" />
<glyph unicode="&#x4dd;" horiz-adv-x="1867" d="M145 178q0 41 19 84l2 21q47 117 86 174t115 96l-113 192q-37 59 -37 113q0 72 54.5 122t125.5 50q49 0 93.5 -25.5t74.5 -78.5l156 -287h49v184q0 94 56.5 151.5t148.5 57.5t147.5 -56t55.5 -149v-188h51l145 281q33 55 80 82.5t98 27.5q72 0 126.5 -48t54.5 -120 q0 -55 -35 -110l-117 -199q78 -39 118 -95.5t85 -174.5v-25q16 -43 16 -78q0 -82 -65.5 -138t-147.5 -56q-57 0 -103 30.5t-71 94.5l-31 102q-2 6 -15 52t-42 75t-70 29h-77v-176q0 -94 -55.5 -150.5t-147.5 -56.5t-148.5 56t-56.5 151v176h-78q-49 0 -72.5 -33t-36 -71 t-18.5 -52l-30 -98q-25 -63 -73 -96t-106 -33q-82 0 -146.5 55t-64.5 137zM555 1346q0 76 48 121t126 45q80 0 129 -45.5t49 -120.5q0 -78 -49 -124t-129 -46q-78 0 -126 46t-48 124zM962 1346q0 76 48.5 121t130.5 45q76 0 125 -45.5t49 -120.5q0 -78 -48.5 -124 t-125.5 -46q-82 0 -130.5 46t-48.5 124z" />
<glyph unicode="&#x4de;" horiz-adv-x="1292" d="M31 250q0 66 43 112t110 46q51 0 111 -31q121 -49 237 -49q268 0 269 112q0 49 -10.5 75t-45 40t-108.5 14h-100q-96 0 -149.5 50.5t-53.5 117.5q0 63 54 112.5t149 49.5h57q76 0 112.5 10.5t50 33t13.5 63.5q0 111 -180 110q-92 0 -180 -26q-51 -12 -70 -15 q-49 -20 -102 -20q-72 0 -117 46t-45 107q0 51 32.5 100.5t98.5 82.5q201 74 467 73q168 0 292 -50t190.5 -141t66.5 -210q0 -115 -58.5 -196t-163.5 -115q123 -43 185.5 -121t62.5 -203q0 -129 -79.5 -230.5t-225 -159.5t-338.5 -58q-262 -1 -448 83q-63 37 -95 87.5 t-32 99.5zM266 1733q0 74 48 117.5t126 43.5q80 0 129 -44t49 -117q0 -78 -49 -124t-129 -46q-78 0 -126 46t-48 124zM673 1733q0 74 48.5 117.5t130.5 43.5q76 0 125 -44t49 -117q0 -78 -48.5 -124t-125.5 -46q-82 0 -130.5 46t-48.5 124z" />
<glyph unicode="&#x4df;" horiz-adv-x="1179" d="M90 182q0 49 39 85t100 36q39 0 82 -14q106 -29 189 -29q12 0 63 -1t78 17.5t27 57.5q0 41 -14.5 51t-67.5 10h-94q-70 0 -110 31t-40 84t40 85t110 32h92q68 0 67 26q0 8 -2 15.5t-2 15.5q0 45 -53 60.5t-135 15.5q-39 0 -96 -17q-49 -16 -95 -16q-63 0 -104 35t-41 82 q0 43 34 83t101 66q80 25 167 34t198 9q209 0 341 -75.5t132 -206.5q0 -88 -51.5 -147.5t-135.5 -88.5q115 -39 161 -88t46 -135t-69.5 -157.5t-193.5 -113.5t-277 -42q-218 0 -349 47q-68 29 -102.5 69.5t-34.5 83.5zM221 1346q0 76 48 121t126 45q80 0 129 -45.5 t49 -120.5q0 -78 -49 -124t-129 -46q-78 0 -126 46t-48 124zM628 1346q0 76 48.5 121t130.5 45q76 0 125 -45.5t49 -120.5q0 -78 -48.5 -124t-125.5 -46q-82 0 -130.5 46t-48.5 124z" />
<glyph unicode="&#x4e0;" horiz-adv-x="1286" d="M31 236q0 66 43 111.5t112 45.5q49 0 105 -26q94 -41 184 -41q109 0 172.5 7t105.5 40t42 100q0 55 -36 78.5t-108 23.5q-76 0 -151 7q-92 2 -143.5 45t-51.5 100q0 55 45 92l301 283h-381q-106 0 -156.5 41t-50.5 129q0 90 50.5 131t156.5 41h760q94 0 144.5 -46 t50.5 -116q0 -45 -23.5 -93t-66.5 -85l-308 -236q96 -14 160 -32q141 -45 198.5 -135.5t57.5 -239.5q0 -264 -183 -372.5t-464 -108.5q-131 0 -236.5 12t-203.5 59q-63 33 -94 82t-31 103z" />
<glyph unicode="&#x4e1;" horiz-adv-x="1218" d="M92 856q0 70 49 113t127 43h664q68 0 110.5 -50.5t42.5 -117.5q0 -76 -55 -129l-268 -232q18 -2 24 -6q342 -35 342 -399q0 -141 -83.5 -254t-220 -175.5t-285.5 -62.5q-168 0 -306 82q-38 25 -57.5 60.5t-19.5 74.5q0 61 42 109.5t101 48.5q41 0 78 -22q78 -39 149 -39 q82 0 134.5 47t52.5 123q0 41 -10.5 69.5t-55.5 48t-137 19.5q-6 0 -10 2q-82 2 -132.5 46t-50.5 107q0 76 70 144l227 194h-346q-78 0 -127 43t-49 113z" />
<glyph unicode="&#x4e2;" horiz-adv-x="1591" d="M117 186v1051q0 100 58 160.5t157 60.5q100 0 158.5 -59.5t58.5 -161.5v-610l436 688q39 57 73 87t84 43t132 13q98 0 149.5 -52t51.5 -149v-1050q0 -100 -58.5 -160.5t-156.5 -60.5t-158 60t-60 161v612l-393 -635q-61 -86 -109 -128t-97.5 -56t-125.5 -14 q-98 0 -149 52t-51 148zM432 1729q0 51 33.5 80.5t83.5 29.5h495q49 0 82 -29.5t33 -80.5q0 -53 -33 -84t-82 -31h-495q-50 0 -83.5 30.5t-33.5 84.5z" />
<glyph unicode="&#x4e3;" horiz-adv-x="1349" d="M145 178v651q0 92 55.5 147.5t145.5 55.5t143.5 -55t53.5 -148v-323l225 342q53 76 94 114.5t89 54t126 15.5q98 0 153.5 -50t55.5 -140v-652q0 -92 -53 -148t-143 -56t-145.5 56t-55.5 148v320l-238 -350q-76 -106 -138 -140t-159 -34q-98 0 -153.5 50t-55.5 142z M293 1342q0 53 32.5 81.5t84.5 28.5h495q49 0 82 -28.5t33 -81.5q0 -51 -33 -81t-82 -30h-495q-50 0 -83.5 29.5t-33.5 81.5z" />
<glyph unicode="&#x4e4;" horiz-adv-x="1591" d="M117 186v1051q0 100 58 160.5t157 60.5q100 0 158.5 -59.5t58.5 -161.5v-610l436 688q39 57 73 87t84 43t132 13q98 0 149.5 -52t51.5 -149v-1050q0 -100 -58.5 -160.5t-156.5 -60.5t-158 60t-60 161v612l-393 -635q-61 -86 -109 -128t-97.5 -56t-125.5 -14 q-98 0 -149 52t-51 148zM418 1733q0 74 48 117.5t126 43.5q80 0 129 -44t49 -117q0 -78 -49 -124t-129 -46q-78 0 -126 46t-48 124zM825 1733q0 74 48.5 117.5t130.5 43.5q76 0 125 -44t49 -117q0 -78 -48.5 -124t-125.5 -46q-82 0 -130.5 46t-48.5 124z" />
<glyph unicode="&#x4e5;" horiz-adv-x="1349" d="M145 178v651q0 92 55.5 147.5t145.5 55.5t143.5 -55t53.5 -148v-323l225 342q53 76 94 114.5t89 54t126 15.5q98 0 153.5 -50t55.5 -140v-652q0 -92 -53 -148t-143 -56t-145.5 56t-55.5 148v320l-238 -350q-76 -106 -138 -140t-159 -34q-98 0 -153.5 50t-55.5 142z M279 1346q0 76 48 121t126 45q80 0 129 -45.5t49 -120.5q0 -78 -49 -124t-129 -46q-78 0 -126 46t-48 124zM686 1346q0 76 48.5 121t130.5 45q76 0 125 -45.5t49 -120.5q0 -78 -48.5 -124t-125.5 -46q-82 0 -130.5 46t-48.5 124z" />
<glyph unicode="&#x4e6;" horiz-adv-x="1650" d="M84 725q0 223 91 390t259 258t393 91t392 -91t257.5 -259t90.5 -391t-90.5 -392t-257 -260t-392.5 -91q-227 0 -395 92t-258 260t-90 393zM449 1733q0 74 48 117.5t126 43.5q80 0 129 -44t49 -117q0 -78 -49 -124t-129 -46q-78 0 -126 46t-48 124zM522 723 q0 -205 81 -306.5t224 -101.5q144 0 225 102.5t81 305.5q0 201 -82 303t-224 102q-143 0 -224 -100t-81 -305zM856 1733q0 74 48.5 117.5t130.5 43.5q76 0 125 -44t49 -117q0 -78 -48.5 -124t-125.5 -46q-82 0 -130.5 46t-48.5 124z" />
<glyph unicode="&#x4e7;" horiz-adv-x="1298" d="M69 512q0 162 72 279.5t202 181t306 63.5t306 -63.5t201.5 -181t71.5 -279.5t-71.5 -281.5t-202.5 -184t-305 -64.5t-305 64.5t-203 184t-72 281.5zM270 1346q0 76 48 121t126 45q80 0 129 -45.5t49 -120.5q0 -78 -49 -124t-129 -46q-78 0 -126 46t-48 124zM489 512 q0 -113 41 -164t121 -51t118.5 50t38.5 165t-38.5 164t-120.5 49q-80 0 -120 -49t-40 -164zM677 1346q0 76 48.5 121t130.5 45q76 0 125 -45.5t49 -120.5q0 -78 -48.5 -124t-125.5 -46q-82 0 -130.5 46t-48.5 124z" />
<glyph unicode="&#x4e8;" horiz-adv-x="1650" d="M84 725q0 223 91 390t259 258t393 91q226 0 392.5 -91t257 -259t90.5 -391t-90.5 -392t-257 -260t-392.5 -91q-227 0 -395 92t-258 260t-90 393zM537 575q25 -131 100.5 -195.5t189.5 -64.5q113 0 189 65.5t102 194.5h-581zM541 891h573q-31 119 -105.5 178t-181.5 59 q-108 0 -182 -58t-104 -179z" />
<glyph unicode="&#x4e9;" horiz-adv-x="1298" d="M70 512q0 162 71.5 279.5t201.5 181t306 63.5t306 -63.5t202 -181t72 -279.5t-72 -281.5t-203 -184t-305 -64.5t-305 64.5t-202.5 184t-71.5 281.5zM469 631h360q-16 82 -61 119.5t-119 37.5q-71 0 -116.5 -37.5t-63.5 -119.5zM473 381q35 -147 178 -148q139 1 174 148 h-352z" />
<glyph unicode="&#x4ea;" horiz-adv-x="1650" d="M84 725q0 223 91 390t259 258t393 91q226 0 392.5 -91t257 -259t90.5 -391t-90.5 -392t-257 -260t-392.5 -91q-227 0 -395 92t-258 260t-90 393zM449 1733q0 74 48 117.5t126 43.5q80 0 129 -44t49 -117q0 -78 -49 -124t-129 -46q-78 0 -126 46t-48 124zM537 575 q25 -131 100.5 -195.5t189.5 -64.5q113 0 189 65.5t102 194.5h-581zM541 891h573q-31 119 -105.5 178t-181.5 59q-108 0 -182 -58t-104 -179zM856 1733q0 74 48.5 117.5t130.5 43.5q76 0 125 -44t49 -117q0 -78 -48.5 -124t-125.5 -46q-82 0 -130.5 46t-48.5 124z" />
<glyph unicode="&#x4eb;" horiz-adv-x="1298" d="M111 512q0 162 71.5 279.5t201.5 181t306 63.5t306 -63.5t202 -181t72 -279.5t-72 -281.5t-203 -184t-305 -64.5t-305 64.5t-202.5 184t-71.5 281.5zM270 1346q0 76 48 121t126 45q80 0 129 -45.5t49 -120.5q0 -78 -49 -124t-129 -46q-78 0 -126 46t-48 124zM510 631h360 q-16 82 -61 119.5t-119 37.5q-71 0 -116.5 -37.5t-63.5 -119.5zM514 381q35 -147 178 -148q139 1 174 148h-352zM677 1346q0 76 48.5 121t130.5 45q76 0 125 -45.5t49 -120.5q0 -78 -48.5 -124t-125.5 -46q-82 0 -130.5 46t-48.5 124z" />
<glyph unicode="&#x4ec;" horiz-adv-x="1333" d="M39 197q0 68 46 118t118 50q39 0 84 -19q92 -20 139 -19t55 1q129 0 206 57t108 184h-338q-80 0 -129 46.5t-49 121.5q0 74 49 118t129 44h329q-74 217 -301 217q-10 0 -52 1t-124 -11q-41 -12 -73 -12q-72 0 -115 48t-43 113q0 53 30.5 102.5t92.5 78.5q127 29 309 28 q227 0 395 -96t256 -267t88 -390t-92 -384t-263 -256t-402 -91q-84 0 -175.5 14t-164.5 37q-57 29 -85 72.5t-28 93.5zM217 1733q0 74 48 117.5t126 43.5q80 0 129 -44t49 -117q0 -78 -49 -124t-129 -46q-78 0 -126 46t-48 124zM624 1733q0 74 48.5 117.5t130.5 43.5 q76 0 125 -44t49 -117q0 -78 -48.5 -124t-125.5 -46q-82 0 -130.5 46t-48.5 124z" />
<glyph unicode="&#x4ed;" horiz-adv-x="1185" d="M184 1346q0 76 48 121t126 45q80 0 129 -45.5t49 -120.5q0 -78 -49 -124t-129 -46q-78 0 -126 46t-48 124zM188 188q0 49 34 87t93 38q23 0 47.5 -6t49.5 -14q43 -14 82 -22.5t92 -8.5q57 0 95 8.5t68.5 43t41.5 104.5h-297q-53 0 -86 31.5t-33 82.5q0 53 32.5 85 t86.5 32h280q-33 68 -97.5 87.5t-172.5 19.5q-27 0 -54.5 -4t-37.5 -7q-61 -12 -97 -12q-57 0 -90.5 35t-33.5 84q0 184 372 184q176 0 314.5 -68.5t216 -192.5t77.5 -281q0 -240 -153.5 -376t-423.5 -136q-162 0 -284 53t-122 153zM591 1346q0 76 48.5 121t130.5 45 q76 0 125 -45.5t49 -120.5q0 -78 -48.5 -124t-125.5 -46q-82 0 -130.5 46t-48.5 124z" />
<glyph unicode="&#x4ee;" horiz-adv-x="1470" d="M90 1266q0 80 59.5 136t137.5 56q49 0 93 -25.5t77 -80.5l288 -500l244 487q31 60 79 88.5t103 28.5q82 0 144.5 -56.5t62.5 -139.5q0 -51 -26 -105l-521 -1044q-31 -63 -77.5 -93t-102.5 -30q-82 0 -146.5 60.5t-64.5 141.5q0 47 25 97l78 153l-418 707q-35 57 -35 119z M373 1729q0 51 33.5 80.5t83.5 29.5h495q49 0 82 -29.5t33 -80.5q0 -53 -33 -84t-82 -31h-495q-50 0 -83.5 30.5t-33.5 84.5z" />
<glyph unicode="&#x4ef;" horiz-adv-x="1165" d="M20 848q0 76 66.5 129t148.5 53q57 0 105.5 -29.5t76.5 -89.5l181 -379l174 381q26 60 71 87.5t99 27.5q80 0 142 -52t62 -126q0 -39 -20 -78l-531 -1038q-29 -59 -76.5 -89t-101.5 -30q-80 0 -140 51t-60 125q0 43 20 84l129 252l-328 645q-18 41 -18 76zM219 1342 q0 53 32.5 81.5t84.5 28.5h495q49 0 82 -28.5t33 -81.5q0 -51 -33 -81t-82 -30h-495q-50 0 -83.5 29.5t-33.5 81.5z" />
<glyph unicode="&#x4f0;" horiz-adv-x="1470" d="M90 1266q0 80 59.5 136t137.5 56q49 0 93 -25.5t77 -80.5l288 -500l244 487q31 60 79 88.5t103 28.5q82 0 144.5 -56.5t62.5 -139.5q0 -51 -26 -105l-521 -1044q-31 -63 -77.5 -93t-102.5 -30q-82 0 -146.5 60.5t-64.5 141.5q0 47 25 97l78 153l-418 707q-35 57 -35 119z M359 1733q0 74 48 117.5t126 43.5q80 0 129 -44t49 -117q0 -78 -49 -124t-129 -46q-78 0 -126 46t-48 124zM766 1733q0 74 48.5 117.5t130.5 43.5q76 0 125 -44t49 -117q0 -78 -48.5 -124t-125.5 -46q-82 0 -130.5 46t-48.5 124z" />
<glyph unicode="&#x4f1;" horiz-adv-x="1165" d="M20 848q0 76 66.5 129t148.5 53q57 0 105.5 -29.5t76.5 -89.5l181 -379l174 381q26 60 71 87.5t99 27.5q80 0 142 -52t62 -126q0 -39 -20 -78l-531 -1038q-29 -59 -76.5 -89t-101.5 -30q-80 0 -140 51t-60 125q0 43 20 84l129 252l-328 645q-18 41 -18 76zM205 1346 q0 76 48 121t126 45q80 0 129 -45.5t49 -120.5q0 -78 -49 -124t-129 -46q-78 0 -126 46t-48 124zM612 1346q0 76 48.5 121t130.5 45q76 0 125 -45.5t49 -120.5q0 -78 -48.5 -124t-125.5 -46q-82 0 -130.5 46t-48.5 124z" />
<glyph unicode="&#x4f2;" horiz-adv-x="1470" d="M90 1266q0 80 59.5 136t137.5 56q49 0 93 -25.5t77 -80.5l288 -500l244 487q31 60 79 88.5t103 28.5q82 0 144.5 -56.5t62.5 -139.5q0 -51 -26 -105l-521 -1044q-31 -63 -77.5 -93t-102.5 -30q-82 0 -146.5 60.5t-64.5 141.5q0 47 25 97l78 153l-418 707q-35 57 -35 119z M508 1634q0 25 8 43l60 150q14 35 40.5 52t57.5 17q51 0 95 -36.5t44 -85.5q0 -43 -37 -80l-123 -107q-30 -31 -67 -31q-33 0 -55.5 23t-22.5 55zM809 1636q0 23 8 41l62 150q14 35 40.5 52t57.5 17q51 0 95 -36.5t44 -85.5q0 -43 -37 -80l-125 -107q-30 -31 -69 -31 q-31 0 -53.5 23t-22.5 57z" />
<glyph unicode="&#x4f3;" horiz-adv-x="1165" d="M20 848q0 76 66.5 129t148.5 53q57 0 105.5 -29.5t76.5 -89.5l181 -379l174 381q26 60 71 87.5t99 27.5q80 0 142 -52t62 -126q0 -39 -20 -78l-531 -1038q-29 -59 -76.5 -89t-101.5 -30q-80 0 -140 51t-60 125q0 43 20 84l129 252l-328 645q-18 41 -18 76zM350 1202 q0 14 2 21l35 219q12 63 50 96t87 33q51 0 89 -34t38 -85q0 -41 -23 -80l-120 -202q-27 -48 -76 -48q-33 0 -57.5 22.5t-24.5 57.5zM653 1202q0 14 2 21l33 219q12 63 50 96t87 33t87 -33t38 -84q0 -41 -25 -82l-114 -202q-13 -23 -34.5 -35.5t-43.5 -12.5q-33 0 -56.5 22.5 t-23.5 57.5z" />
<glyph unicode="&#x4f4;" horiz-adv-x="1433" d="M106 930v307q0 100 59.5 160.5t158.5 60.5q98 0 156.5 -60.5t58.5 -160.5v-217q0 -109 47 -164t190 -55h47t62 8v428q0 100 58 160.5t159 60.5q98 0 156.5 -60.5t58.5 -160.5v-1030q0 -100 -58.5 -160.5t-156.5 -60.5q-100 0 -158.5 59t-58.5 162v276q-23 -6 -97.5 -12 t-117.5 -6q-260 0 -412 112.5t-152 352.5zM363 1733q0 74 48 117.5t126 43.5q80 0 129 -44t49 -117q0 -78 -49 -124t-129 -46q-78 0 -126 46t-48 124zM770 1733q0 74 48.5 117.5t130.5 43.5q76 0 125 -44t49 -117q0 -78 -48.5 -124t-125.5 -46q-82 0 -130.5 46t-48.5 124z " />
<glyph unicode="&#x4f5;" horiz-adv-x="1173" d="M90 614v222q0 90 57.5 143t155.5 53q100 0 157.5 -53t57.5 -143v-146q0 -43 4 -64.5t27.5 -40t79.5 -18.5q45 0 55 11v258q0 90 57.5 143t155.5 53t155.5 -53t57.5 -143v-652q0 -92 -57.5 -145t-155.5 -53t-155.5 53t-57.5 145v88q-39 -10 -170 -10q-180 0 -302 88 t-122 264zM207 1346q0 76 48 121t126 45q80 0 129 -45.5t49 -120.5q0 -78 -49 -124t-129 -46q-78 0 -126 46t-48 124zM614 1346q0 76 48.5 121t130.5 45q76 0 125 -45.5t49 -120.5q0 -78 -48.5 -124t-125.5 -46q-82 0 -130.5 46t-48.5 124z" />
<glyph unicode="&#x4f6;" d="M117 201v1040q0 90 55 146.5t147 56.5h697q94 0 141 -45t47 -125t-47 -126t-141 -46h-467v-760h4q98 0 150.5 -51t52.5 -152v-303q0 -100 -55.5 -159.5t-145.5 -59.5q-94 0 -147.5 58.5t-53.5 160.5v146h-22q-98 0 -156.5 59t-58.5 160z" />
<glyph unicode="&#x4f7;" horiz-adv-x="991" d="M104 178v623q-2 98 49.5 154.5t143.5 56.5h489q74 0 119 -43t45 -113t-45 -113t-119 -43h-256v-391q82 -10 128.5 -59t46.5 -131v-201q0 -90 -52.5 -143.5t-142.5 -53.5t-141.5 53.5t-51.5 143.5v64q-100 0 -156.5 53t-56.5 143z" />
<glyph unicode="&#x4f8;" horiz-adv-x="1957" d="M117 203v1034q0 100 58 160.5t157 60.5q100 0 158.5 -59.5t58.5 -161.5v-315h209q244 0 377 -117t133 -332q0 -238 -153.5 -355.5t-412.5 -117.5h-383q-98 0 -150 52t-52 151zM532 330h189q168 0 168 137q0 88 -41 124t-127 36h-189v-297zM539 1733q0 74 48 117.5 t126 43.5q80 0 129 -44t49 -117q0 -78 -49 -124t-129 -46q-78 0 -126 46t-48 124zM946 1733q0 74 48.5 117.5t130.5 43.5q76 0 125 -44t49 -117q0 -78 -48.5 -124t-125.5 -46q-82 0 -130.5 46t-48.5 124zM1409 207v1030q0 100 58.5 160.5t158.5 60.5q98 0 156.5 -60.5 t58.5 -160.5v-1030q0 -100 -58.5 -160.5t-156.5 -60.5q-100 0 -158.5 59t-58.5 162z" />
<glyph unicode="&#x4f9;" horiz-adv-x="1710" d="M145 193v643q0 90 56.5 143t156.5 53q98 0 155.5 -53t57.5 -143v-111h144q197 0 316.5 -79t119.5 -236q0 -127 -64.5 -220.5t-168 -141.5t-218.5 -48h-344q-98 -2 -154.5 49t-56.5 144zM447 1346q0 76 48 121t126 45q80 0 129 -45.5t49 -120.5q0 -78 -49 -124t-129 -46 q-78 0 -126 46t-48 124zM561 274h129q61 0 85 33t24 90q0 53 -25.5 76t-83.5 23h-129v-222zM854 1346q0 76 48.5 121t130.5 45q76 0 125 -45.5t49 -120.5q0 -78 -48.5 -124t-125.5 -46q-82 0 -130.5 46t-48.5 124zM1223 184v652q0 90 56 143t157 53q98 0 155.5 -53 t57.5 -143v-652q0 -92 -57.5 -145t-155.5 -53q-101 0 -157 53t-56 145z" />
<glyph unicode="&#x4fa;" horiz-adv-x="1312" d="M10 719q0 63 41 102t109 39h41v381q0 90 55 146.5t145 56.5h699q94 0 141 -45t47 -125t-47 -126t-141 -46h-467v-242h205q68 0 109.5 -39t41.5 -102t-42 -103.5t-109 -40.5h-205v-276h6q90 0 144.5 -54.5t54.5 -144.5v-8q0 -225 -124 -341t-384 -126l-33 -2 q-80 -6 -124 35t-44 100q0 53 38 95.5t105 50.5l35 4q53 4 88 25.5t45 48.5h-24q-98 0 -156.5 59t-58.5 160v374h-41q-66 0 -108 40t-42 104z" />
<glyph unicode="&#x4fb;" horiz-adv-x="1085" d="M41 473q0 49 29.5 81t76.5 32h52v215q0 98 50 154.5t140 56.5h490q75 0 120 -43t45 -113t-45 -113t-120 -43h-254v-114h86q47 0 76.5 -32t29.5 -81q0 -51 -29.5 -82t-76.5 -31h-86v-137q80 -6 113.5 -48t33.5 -122v-4q0 -203 -123 -300t-338 -122q-10 -2 -28 -2 q-68 0 -107 35t-39 82q0 43 35 79t102 46q66 10 109 38.5t51 76.5h-22q-100 0 -156.5 53t-56.5 143v182h-52q-47 0 -76.5 31t-29.5 82z" />
<glyph unicode="&#x4fc;" horiz-adv-x="1447" d="M43 188q0 70 53 131l363 404l-357 401q-51 63 -51 131q0 80 63.5 141.5t143.5 61.5q84 0 143 -72l316 -360l313 360q61 70 144 70q80 0 142 -60.5t62 -140.5q0 -72 -51 -131l-356 -403l258 -295q86 -92 127 -193.5t41 -197.5q0 -123 -74 -225.5t-205 -161.5 q-49 -19 -90 -19q-78 0 -127 50.5t-49 115.5q0 41 21.5 78t64.5 64q31 35 45 62.5t14 39.5q0 57 -45 121.5t-139 171.5l-94 88l-326 -365q-57 -70 -141 -69q-80 0 -144.5 61.5t-64.5 140.5z" />
<glyph unicode="&#x4fd;" horiz-adv-x="1304" d="M51 170q0 76 62 137l225 213l-205 187q-61 61 -61 135q0 76 57 132t135 56t139 -63l189 -181l190 181q61 63 140 63q76 0 133 -55t57 -131t-61 -137l-203 -187l258 -295q41 -59 55.5 -105t14.5 -118q0 -100 -58.5 -187t-152.5 -141q-56 -22 -99 -22q-70 0 -117 41t-47 98 q0 37 25 73t74 64v9q0 61 -8.5 87.5t-42 64.5t-160.5 165l-209 -205q-63 -66 -139 -65q-76 0 -133.5 55t-57.5 131z" />
<glyph unicode="&#x4fe;" horiz-adv-x="1429" d="M43 188q0 70 53 131l273 304h-123q-53 0 -83 24.5t-30 69.5q0 41 31 66.5t82 25.5h137l-281 315q-51 59 -51 129q0 80 63.5 141.5t143.5 61.5q82 0 143 -70l316 -360l313 360q59 72 141 72q80 0 144.5 -62.5t64.5 -142.5q0 -70 -53 -129l-280 -315h139q51 0 82.5 -25.5 t31.5 -66.5q0 -45 -30.5 -69.5t-83.5 -24.5h-125l272 -304q53 -61 53 -131q0 -82 -63 -143t-145 -61q-80 0 -144 71l-317 367l-324 -367q-57 -70 -143 -69q-82 0 -144.5 60t-62.5 142z" />
<glyph unicode="&#x4ff;" horiz-adv-x="1196" d="M53 166q0 76 66 141l147 146h-61q-51 0 -82 25.5t-31 68.5q0 41 31 66.5t82 25.5h88l-119 109q-66 66 -65 141q0 61 45 105t108 44q78 0 148 -71l188 -181l190 181q70 72 148 71q61 0 105 -43t44 -104q0 -74 -67 -143l-119 -109h92q51 0 82 -25.5t31 -66.5 q0 -43 -31 -68.5t-82 -25.5h-63l151 -146q66 -65 66 -141q0 -61 -45 -105.5t-109 -44.5q-78 0 -147 72l-252 250l-244 -250q-66 -72 -145 -72q-61 0 -105.5 43t-44.5 107z" />
<glyph unicode="&#x2000;" horiz-adv-x="1014" />
<glyph unicode="&#x2001;" horiz-adv-x="2028" />
<glyph unicode="&#x2002;" horiz-adv-x="1014" />
<glyph unicode="&#x2003;" horiz-adv-x="2028" />
<glyph unicode="&#x2004;" horiz-adv-x="676" />
<glyph unicode="&#x2005;" horiz-adv-x="507" />
<glyph unicode="&#x2006;" horiz-adv-x="338" />
<glyph unicode="&#x2007;" horiz-adv-x="338" />
<glyph unicode="&#x2008;" horiz-adv-x="253" />
<glyph unicode="&#x2009;" horiz-adv-x="405" />
<glyph unicode="&#x200a;" horiz-adv-x="112" />
<glyph unicode="&#x2010;" horiz-adv-x="925" d="M82 553q0 162 199 162h364q199 0 199 -162q0 -166 -199 -166h-364q-199 0 -199 166z" />
<glyph unicode="&#x2011;" horiz-adv-x="925" d="M82 553q0 162 199 162h364q199 0 199 -162q0 -166 -199 -166h-364q-199 0 -199 166z" />
<glyph unicode="&#x2012;" horiz-adv-x="925" d="M82 553q0 162 199 162h364q199 0 199 -162q0 -166 -199 -166h-364q-199 0 -199 166z" />
<glyph unicode="&#x2013;" horiz-adv-x="1024" d="M0 553q0 53 43 85t115 32h708q72 0 115 -32t43 -85q0 -55 -43 -88t-115 -33h-708q-72 0 -115 33t-43 88z" />
<glyph unicode="&#x2014;" horiz-adv-x="2048" d="M0 553q0 53 43 85t115 32h1732q72 0 115 -32t43 -85q0 -55 -43 -88t-115 -33h-1732q-72 0 -115 33t-43 88z" />
<glyph unicode="&#x2018;" horiz-adv-x="583" d="M68 965q0 135 48 245.5t144 208.5q35 35 80 35t80 -30.5t35 -71.5q0 -35 -29 -64q-78 -82 -107 -172q87 -8 142 -65.5t55 -143.5q0 -96 -62.5 -160.5t-154.5 -64.5q-102 0 -166.5 73.5t-64.5 209.5z" />
<glyph unicode="&#x2019;" horiz-adv-x="583" d="M68 1229q0 96 61 160.5t156 64.5q102 0 166.5 -73.5t64.5 -206.5q0 -135 -48 -247t-144 -210q-33 -35 -78 -35q-47 0 -82 30.5t-35 71.5q0 37 29 66q78 82 104 170q-88 10 -141 66.5t-53 142.5z" />
<glyph unicode="&#x201a;" horiz-adv-x="583" d="M68 211q0 96 61 160.5t156 64.5q102 0 166.5 -73.5t64.5 -206.5q0 -135 -48 -247t-144 -210q-33 -35 -78 -35t-81 32t-36 73q0 35 29 63q78 82 106 172q-88 8 -142 64.5t-54 142.5z" />
<glyph unicode="&#x201c;" horiz-adv-x="1077" d="M68 965q0 135 48 245.5t144 208.5q35 35 80 35t80 -30.5t35 -71.5q0 -35 -29 -64q-78 -82 -107 -172q87 -8 142 -65.5t55 -143.5q0 -96 -62.5 -160.5t-154.5 -64.5q-102 0 -166.5 73.5t-64.5 209.5zM562 965q0 135 48 245.5t144 208.5q35 35 80 35t80 -30.5t35 -71.5 q0 -35 -29 -64q-78 -82 -107 -172q87 -8 142 -65.5t55 -143.5q0 -96 -62.5 -160.5t-154.5 -64.5q-102 0 -166.5 73.5t-64.5 209.5z" />
<glyph unicode="&#x201d;" horiz-adv-x="1077" d="M68 1229q0 96 61 160.5t156 64.5q102 0 166.5 -73.5t64.5 -206.5q0 -135 -48 -247t-144 -210q-33 -35 -78 -35q-47 0 -82 30.5t-35 71.5q0 37 29 66q78 82 104 170q-88 10 -141 66.5t-53 142.5zM562 1229q0 96 61 160.5t156 64.5q102 0 166.5 -73.5t64.5 -206.5 q0 -135 -48 -247t-144 -210q-33 -35 -78 -35q-47 0 -82 30.5t-35 71.5q0 37 29 66q78 82 104 170q-88 10 -141 66.5t-53 142.5z" />
<glyph unicode="&#x201e;" horiz-adv-x="1077" d="M68 211q0 96 61 160.5t156 64.5q102 0 166.5 -73.5t64.5 -206.5q0 -135 -48 -247t-144 -210q-33 -35 -78 -35t-81 32t-36 73q0 35 29 63q78 82 106 172q-88 8 -142 64.5t-54 142.5zM562 211q0 96 61 160.5t156 64.5q102 0 166.5 -73.5t64.5 -206.5q0 -135 -48 -247 t-144 -210q-33 -35 -78 -35t-81 32t-36 73q0 35 29 63q78 82 106 172q-88 8 -142 64.5t-54 142.5z" />
<glyph unicode="&#x2020;" horiz-adv-x="786" d="M41 1108q0 45 45 75.5t113 30.5h41v89q0 68 44 112.5t109 44.5q68 0 112 -45t44 -112v-89h41q66 0 110.5 -45t44.5 -114q0 -45 -45 -76t-110 -31h-41v-452q0 -68 -46 -113t-112 -45q-65 0 -108 45t-43 113v452h-41q-68 0 -113 46t-45 114z" />
<glyph unicode="&#x2021;" horiz-adv-x="786" d="M41 739q0 43 45 74t113 31h41v108h-41q-68 0 -113 45t-45 115q0 45 45 77t113 32h41v82q0 68 44 112.5t109 44.5q68 0 112 -45t44 -112v-82h41q66 0 110.5 -45.5t44.5 -114.5q0 -45 -45 -77t-110 -32h-41v-108h41q66 0 110.5 -46t44.5 -114q0 -43 -45 -73.5t-110 -30.5 h-41v-88q0 -66 -46 -112t-112 -46q-63 0 -107 46t-44 112v88h-41q-68 0 -113 46t-45 113z" />
<glyph unicode="&#x2022;" horiz-adv-x="1073" d="M166 543q0 94 48 178t133 135t190 51q98 0 183 -48t136 -131t51 -185q0 -98 -50 -181t-135 -132.5t-185 -49.5q-99 0 -185 48t-136 131t-50 184z" />
<glyph unicode="&#x2026;" horiz-adv-x="1751" d="M68 211q0 96 63.5 160.5t159.5 64.5t160.5 -64.5t64.5 -160.5q0 -94 -64.5 -159.5t-160.5 -65.5t-159.5 65.5t-63.5 159.5zM651 211q0 96 63.5 160.5t159.5 64.5t161 -64.5t65 -160.5q0 -94 -64.5 -159.5t-161.5 -65.5q-96 0 -159.5 65.5t-63.5 159.5zM1235 211 q0 96 63.5 160.5t159.5 64.5t160.5 -64.5t64.5 -160.5q0 -94 -64.5 -159.5t-160.5 -65.5t-159.5 65.5t-63.5 159.5z" />
<glyph unicode="&#x202f;" horiz-adv-x="405" />
<glyph unicode="&#x2030;" horiz-adv-x="2818" d="M43 1034q0 207 106.5 321.5t290.5 114.5t291 -115.5t107 -324.5q0 -213 -105.5 -327.5t-292.5 -114.5q-186 0 -291.5 114.5t-105.5 331.5zM383 1030q0 -106 13.5 -147t43.5 -41q31 0 44.5 41t13.5 147q0 100 -14.5 143.5t-43.5 43.5q-31 0 -44 -42t-13 -145zM494 104 q0 53 32 111l678 1167q31 53 72 79t84 26q57 0 99 -42t42 -106q0 -53 -33 -110l-677 -1168q-31 -53 -72 -78.5t-84 -25.5q-57 0 -99 42t-42 105zM1157 432q0 207 106.5 321.5t290.5 114.5t291 -115.5t107 -324.5q0 -213 -105.5 -327.5t-292.5 -114.5q-186 0 -291.5 114.5 t-105.5 331.5zM1497 428q0 -106 13.5 -147t43.5 -41q31 0 44.5 41t13.5 147q0 100 -14.5 143t-43.5 43q-31 0 -44 -42t-13 -144zM1982 432q0 207 105.5 321.5t290.5 114.5q186 0 291.5 -114.5t105.5 -325.5q0 -213 -105.5 -327.5t-291.5 -114.5q-187 0 -291.5 114.5 t-104.5 331.5zM2322 428q0 -106 12.5 -147t43.5 -41q30 0 43.5 41t13.5 147q0 100 -14.5 143t-42.5 43q-29 0 -42.5 -42t-13.5 -144z" />
<glyph unicode="&#x2039;" horiz-adv-x="692" d="M102 547q0 57 41 123l146 221q29 43 67.5 64.5t79.5 21.5q63 0 110.5 -41t47.5 -107q0 -39 -21 -81l-86 -201l86 -203q18 -43 19 -80q0 -63 -46 -105t-110 -42q-41 0 -79 21.5t-66 62.5l-148 221q-41 66 -41 125z" />
<glyph unicode="&#x203a;" horiz-adv-x="673" d="M100 831q0 63 47.5 104.5t110.5 41.5q43 0 82 -21.5t63 -64.5l132 -221q39 -63 38 -123q0 -61 -38 -125l-132 -221q-24 -43 -62 -64.5t-81 -21.5q-61 0 -109.5 42t-48.5 105q0 41 21 82l88 203l-88 201q-23 49 -23 83z" />
<glyph unicode="&#x2044;" horiz-adv-x="428" d="M-283 92q0 49 29 98l700 1201q27 47 63 70.5t75 23.5q51 0 89 -38t38 -95q0 -49 -29 -99l-700 -1200q-27 -47 -64 -70.5t-74 -23.5q-51 0 -89 38t-38 95z" />
<glyph unicode="&#x205f;" horiz-adv-x="507" />
<glyph unicode="&#x20ac;" d="M8 563q0 51 37 86t90 35h37v39v39h-37q-53 0 -90 34.5t-37 86.5q0 51 37 86t90 35h70q53 217 194.5 338.5t343.5 121.5q102 0 197.5 -32.5t204.5 -98.5q41 -29 58.5 -60.5t17.5 -84.5q0 -72 -42 -124t-102 -52q-33 0 -59.5 9t-69.5 38q-14 6 -59 24.5t-73 26.5t-48 8 q-53 0 -86 -26.5t-51 -87.5h172q53 0 91 -35t38 -86t-38 -86t-91 -35h-197v-39v-39h197q53 0 91 -35t38 -86t-38 -86t-91 -35h-172q18 -61 51 -88.5t86 -27.5q80 0 180 59q43 29 69.5 38t59.5 9q60 0 102 -52t42 -124q0 -49 -17.5 -82t-58.5 -63q-92 -68 -188.5 -99.5 t-213.5 -31.5q-205 0 -345 121.5t-193 340.5h-70q-53 0 -90 35t-37 86z" />
<glyph unicode="&#x2122;" horiz-adv-x="1984" d="M0 1292q0 78 42 115t136 37h506q96 0 138 -37t42 -115q0 -74 -42 -112.5t-138 -38.5h-61v-389q0 -86 -56.5 -133.5t-136.5 -47.5q-78 0 -133 47.5t-55 133.5v389h-64q-178 0 -178 151zM934 758v518q0 86 53 133t125 47q106 0 172 -119l119 -231l127 231q63 119 166 119 q71 0 122.5 -47t51.5 -133v-518q0 -88 -50.5 -137.5t-113.5 -49.5q-59 0 -111.5 49.5t-52.5 137.5v37q-29 -47 -61.5 -66.5t-79.5 -19.5t-79 20.5t-62 71.5v-43q0 -88 -50.5 -137.5t-111.5 -49.5q-59 0 -111.5 49.5t-52.5 137.5z" />
<glyph unicode="&#x2202;" d="M8 473q0 154 62.5 271.5t165 181t221.5 63.5q84 0 148.5 -24.5t107.5 -65.5q4 98 -39 180t-139.5 133.5t-241.5 51.5h-27q-61 0 -107 46t-46 111q0 70 45 110t141 54q47 10 96 10q215 0 385 -94t267.5 -279.5t97.5 -447.5q0 -811 -598 -811q-156 0 -279 61.5t-191.5 176 t-68.5 272.5zM436 471q4 -78 35 -124t82 -46q53 0 87 42t34 110q0 88 -32 141t-89 53q-55 0 -87 -48t-30 -128z" />
<glyph unicode="&#x2206;" horiz-adv-x="1716" d="M80 176q0 90 50 131t159 41h90q-121 154 -184.5 252t-89 173t-25.5 153q0 168 93 289.5t268 186t417 64.5q236 0 412 -65.5t271 -188t95 -286.5q0 -76 -23.5 -147.5t-87 -170t-188.5 -260.5h90q109 0 159 -41t50 -131q0 -92 -50 -134t-159 -42h-340q-84 0 -133 51 t-49 131q0 78 47 158q145 264 195.5 380t50.5 189q0 219 -340 219t-340 -219q0 -72 49 -185.5t197 -383.5q49 -82 49 -160t-49 -129t-133 -51h-342q-109 0 -159 42t-50 134z" />
<glyph unicode="&#x220f;" d="M115 -182v1429q0 86 55 141.5t141 55.5h607q86 0 141 -55.5t55 -141.5v-1429q0 -86 -55 -141.5t-139 -55.5t-140.5 55.5t-56.5 141.5v1288h-217v-1288q0 -86 -55.5 -141.5t-139.5 -55.5t-140 55.5t-56 141.5z" />
<glyph unicode="&#x2211;" horiz-adv-x="1277" d="M57 1262q0 78 52.5 130t138.5 52h753q111 0 161 -44t50 -130t-50 -129t-161 -43h-407l293 -387q70 -98 69 -172q0 -76 -71 -172l-291 -390h407q111 0 161 -43t50 -129t-50 -130t-161 -44h-753q-86 0 -137.5 52.5t-51.5 130.5q0 82 56 157l420 568l-420 565 q-57 76 -58 158z" />
<glyph unicode="&#x221a;" d="M12 590q0 59 40 100t98 41h204q45 0 80 -26.5t45 -71.5l119 -584l248 1319q10 47 45 74.5t82 27.5q78 0 114.5 -34.5t36.5 -94.5q0 -25 -6 -53l-299 -1478q-29 -123 -77 -176.5t-136 -53.5q-86 0 -136 51.5t-83 169.5l-149 652h-88q-57 0 -97.5 39.5t-40.5 97.5z" />
<glyph unicode="&#x221e;" d="M43 582q0 190 89 296.5t245 106.5q154 0 237 -143q84 143 238 143q156 0 245 -106.5t89 -296.5q0 -195 -89 -299.5t-245 -104.5q-154 0 -238 144q-84 -143 -237 -144q-156 0 -245 104.5t-89 299.5zM285 582q0 -74 29.5 -121t82.5 -47q47 0 83 44t50 126q-14 80 -50 123 t-83 43q-53 0 -82.5 -47.5t-29.5 -120.5zM698 584q14 -82 50 -126t83 -44q54 0 83.5 47t29.5 121t-29.5 121t-83.5 47q-47 0 -82.5 -43t-50.5 -123z" />
<glyph unicode="&#x222b;" d="M135 -217q0 72 41 119t105 47h22q47 0 75 33.5t28 87.5v942q0 442 493 442l43 2q68 0 111 -48t43 -116q0 -74 -42 -121t-106 -47h-22q-45 0 -74 -34.5t-29 -85.5v-943q0 -440 -491 -440h-45q-68 0 -110 47t-42 115z" />
<glyph unicode="&#x2248;" d="M157 379q0 35 17 61q45 66 112.5 102.5t135.5 36.5q55 0 109 -18t130 -53q53 -25 84 -37t58 -12h16q25 0 39 6q63 59 117 59q31 0 65 -22q27 -20 42 -49t15 -62t-18 -61q-43 -63 -110.5 -99.5t-137.5 -36.5q-55 0 -111.5 19.5t-127.5 54.5q-53 25 -84 37t-58 12h-16 q-25 0 -39 -6q-70 -61 -119 -61q-31 0 -65 24q-25 18 -39.5 46t-14.5 59zM157 789q0 35 17 61q45 66 112.5 102.5t135.5 36.5q55 0 109 -18t130 -53q53 -25 84 -37t58 -12h16q25 0 39 6q63 59 117 59q31 0 65 -22q27 -20 42 -49t15 -62t-18 -61q-43 -63 -110.5 -99.5 t-137.5 -36.5q-55 0 -111.5 19.5t-127.5 54.5q-53 25 -84 37t-58 12h-16q-25 0 -39 -6q-70 -61 -119 -61q-31 0 -65 24q-25 18 -39.5 46t-14.5 59z" />
<glyph unicode="&#x2260;" d="M127 385q0 59 40 100t97 41h174l56 131h-230q-57 0 -97 40t-40 98q0 59 40 100t97 41h344l56 133q16 41 47.5 62.5t70.5 21.5q29 0 60 -12q41 -18 64.5 -51t23.5 -74q0 -29 -12 -58l-11 -22h82q59 0 98 -39t39 -98q0 -61 -38.5 -101.5t-98.5 -40.5h-196l-56 -131h252 q60 0 98.5 -38.5t38.5 -98.5q0 -61 -38.5 -101t-98.5 -40h-366l-56 -133q-16 -39 -49 -62.5t-74 -23.5q-27 0 -55 12q-41 18 -64.5 51t-23.5 74q0 31 12 57l11 25h-60q-57 0 -97 40t-40 97z" />
<glyph unicode="&#x2264;" d="M115 705q0 72 40 127t107 75l637 158q41 10 68 10q66 0 106.5 -40t40.5 -107q0 -41 -21.5 -74t-58.5 -41l-438 -104l438 -107q39 -10 59.5 -42t20.5 -73q0 -68 -41 -107.5t-106 -39.5q-27 0 -68 10l-637 158q-147 43 -147 197zM127 137q0 59 40 100.5t97 41.5h725 q60 0 98.5 -39t38.5 -99q0 -61 -38.5 -101t-98.5 -40h-725q-57 0 -97 40t-40 97z" />
<glyph unicode="&#x2265;" d="M115 487q0 41 20.5 73t59.5 42l438 107l-438 104q-37 8 -58.5 41t-21.5 74q0 68 41 107.5t106 39.5q27 0 68 -10l637 -158q68 -20 107.5 -75.5t39.5 -126.5q0 -154 -147 -197l-637 -158q-41 -10 -68 -10q-66 0 -106.5 40t-40.5 107zM127 137q0 59 40 100.5t97 41.5h725 q60 0 98.5 -39t38.5 -99q0 -61 -38.5 -101t-98.5 -40h-725q-57 0 -97 40t-40 97z" />
<glyph unicode="&#x25ca;" d="M102 571q0 45 15 82l284 754q29 68 86.5 106.5t130.5 38.5q70 0 125.5 -38.5t83.5 -106.5l285 -754q16 -43 16 -82t-16 -82l-285 -753q-29 -68 -86 -107t-131 -39q-69 0 -124.5 39t-84.5 107l-284 753q-14 37 -15 82zM391 571l223 -653l224 653l-224 654z" />
<glyph unicode="&#x25fc;" horiz-adv-x="1034" d="M0 0v1034h1034v-1034h-1034z" />
<glyph unicode="&#xf8ff;" horiz-adv-x="1347" d="M35 756h483l152 458l157 -458h486l-391 -295l145 -459l-397 277l-389 -277l143 459zM535 406h57v174l176 -174h45v266h-57v-174l-176 174h-45v-266z" />
</font>
</defs>
</svg>
