<?xml version="1.0" encoding="utf-8"?>
<!-- Generator: Adobe Illustrator 22.0.1, SVG Export Plug-In . SVG Version: 6.00 Build 0)  -->
<svg version="1.1" baseProfile="tiny" id="Слой_1"
	 xmlns="http://www.w3.org/2000/svg" xmlns:xlink="http://www.w3.org/1999/xlink" x="0px" y="0px"
	 viewBox="0 0 70.0744171 74.0570068" xml:space="preserve">
<path fill="#CEC3C2" d="M64.9601212,56.7514877c-4.4878578-3.6191406-9.4442787-6.7581787-14.5250282-9.4959106
	c-2.335022-1.2581787-4.1092529-2.0185547-3.4938965-4.9914551c0.1321411-0.6386108,0.0262451-1.3280029,0.0180664-1.9938354
	c-0.0380249-3.0924683,0.612854-5.8026733,2.5653076-8.4661884c1.5944214-2.1749878,2.5707397-4.9903564,2.4552002-7.9450073
	c-0.0430298-1.1008911-0.0367432-1.9989624-1.5411377-1.8426514c-0.1160278,0.012085-0.5879517-1.0164795-0.4396973-1.206543
	c1.9731445-2.5294189,0.5865479-5.4207144,0.9341431-8.1117544c0.3181152-2.4624634-0.8742065-4.5629272-2.7778931-5.7670903
	c-2.2426147-1.4186401-4.0282593-3.2353516-5.8980713-5.0194702c-0.336792-0.3214111-0.7349243-0.6507568-1.1651001-0.7907715
	c-4.5397949-1.4771118-9.0601196-1.8230591-13.2164917,1.012207c-2.7045288,1.8449097-5.0950928,4.1491699-6.8458252,6.9202275
	c-1.3354492,2.1137085-2.5462646,4.3846436-2.078125,7.1375113c0.2636108,1.5501709-0.3789673,3.2520752,0.9955444,4.6099854
	c0.2651367,0.2619629,0.0068359,1.2368774-0.4411621,1.2123413c-1.4714966-0.0805664-1.5370483,0.7096558-1.5429688,1.835022
	c-0.0162354,3.1002197,1.2079468,5.788208,2.6997681,8.3756123c0.4657593,0.8077393,1.0350952,1.4724121,1.4282227,2.4084473
	c1.2660522,3.0150757,0.62323,6.0889282,0.9384155,9.1171875c0.171814,1.6508179-0.6376953,2.0124512-1.8508301,2.7142944
	c-4.8723755,2.8188477-9.7822876,5.5155029-14.3120117,8.9911499c-4.7205811,3.6220093-6.9117432,7.9224854-6.8658447,13.6400757
	c0.0285034,3.5598755,1.4094238,4.9412842,4.9962158,4.9476929c9.8224487,0.0174561,19.6448975,0.0059814,29.4673462,0.0059814
	c7.4916992,0,14.9834595,0,22.4751587,0c2.9967041,0,5.9936523,0.0245361,8.989994-0.0099487
	c1.5898438-0.0183105,3.8399658-1.6013184,3.9898071-2.9367065C70.5429459,65.5439072,69.3646011,60.3033066,64.9601212,56.7514877z
	"/>
</svg>
