<?xml version="1.0" encoding="utf-8"?>
<!-- Generator: Adobe Illustrator 22.0.1, SVG Export Plug-In . SVG Version: 6.00 Build 0)  -->
<svg class="icon-pencil" version="1.1" baseProfile="tiny" id="Слой_1"
	 xmlns="http://www.w3.org/2000/svg" xmlns:xlink="http://www.w3.org/1999/xlink" x="0px" y="0px"
	 viewBox="0 0 7.5706544 7.8684688" xml:space="preserve">
<g>
	<g>
		<path display="none" fill="#EBE7E4" d="M-7.1129761,14.3319998v-18.96875c0-0.28479,0.230835-0.515625,0.515625-0.515625h18.96875
			c0.28479,0,0.515625,0.230835,0.515625,0.515625v18.96875c0,0.2847595-0.230835,0.515625-0.515625,0.515625h-18.96875
			C-6.8821411,14.8476248-7.1129761,14.6167593-7.1129761,14.3319998z"/>
		<path fill="#A89295" d="M1.3969727,7.5029902c-0.024292-0.0380554-1.3849487,0.3654785-1.3849487,0.3654785L0,6.19519
			c0,0,4.0259399-4.0258484,6.0389404-6.0387878c0.1618652-0.1619263,0.4151001-0.2070313,0.6136475-0.0930786
			c0.3431396,0.1968994,0.6350708,0.5462646,0.8416748,0.8710938c0.128479,0.2019653,0.090332,0.4669189-0.0801392,0.6350098
			C5.2940063,3.6601253,1.4102173,7.5237422,1.3969727,7.5029902z"/>
	</g>
</g>
</svg>
